<svg width="450" height="422" viewBox="0 0 450 422" fill="none" xmlns="http://www.w3.org/2000/svg">
<path d="M271.166 34.973C261.734 40.5555 259.039 50.1805 257.922 54.146C257.653 55.1085 254.496 66.928 259.963 79.248C261.58 82.9055 263.312 86.6785 267.239 88.488C269.511 89.566 271.551 89.489 279.559 88.796C283.294 88.488 287.336 88.103 291.648 87.641C294.69 83.7525 299.926 75.9755 301.466 65.0415C301.735 63.001 304.892 38.669 291.648 32.201C282.986 27.9275 272.552 34.126 271.166 34.973Z" fill="#F47676"/>
<path d="M96.9925 92.3765C101.798 92.3765 105.694 88.0672 105.694 82.7515C105.694 77.4357 101.798 73.1265 96.9925 73.1265C92.1871 73.1265 88.2915 77.4357 88.2915 82.7515C88.2915 88.0672 92.1871 92.3765 96.9925 92.3765Z" fill="#898989"/>
<path d="M294.305 246.608C297.877 246.608 300.773 243.815 300.773 240.371C300.773 236.926 297.877 234.134 294.305 234.134C290.733 234.134 287.837 236.926 287.837 240.371C287.837 243.815 290.733 246.608 294.305 246.608Z" fill="#898989"/>
<path d="M97.0695 208.954C99.7273 208.954 101.882 206.8 101.882 204.142C101.882 201.484 99.7273 199.329 97.0695 199.329C94.4116 199.329 92.257 201.484 92.257 204.142C92.257 206.8 94.4116 208.954 97.0695 208.954Z" fill="#898989"/>
<path d="M88.099 89.181C92.3303 89.181 95.7605 85.5784 95.7605 81.1344C95.7605 76.6905 92.3303 73.088 88.099 73.088C83.8677 73.088 80.4375 76.6905 80.4375 81.1344C80.4375 85.5784 83.8677 89.181 88.099 89.181Z" fill="#262626"/>
<path d="M292.534 236.752C295.149 236.752 297.269 234.545 297.269 231.824C297.269 229.102 295.149 226.896 292.534 226.896C289.919 226.896 287.798 229.102 287.798 231.824C287.798 234.545 289.919 236.752 292.534 236.752Z" fill="#262626"/>
<path d="M355.828 100.847C358.698 100.847 361.025 98.3644 361.025 95.3025C361.025 92.2406 358.698 89.7585 355.828 89.7585C352.957 89.7585 350.63 92.2406 350.63 95.3025C350.63 98.3644 352.957 100.847 355.828 100.847Z" fill="#262626"/>
<path d="M242.946 135.111C242.099 133.764 240.713 135.034 240.136 135.958C238.942 137.883 238.172 140.27 239.058 142.465C239.712 144.12 241.329 145.506 243.216 145.237C244.948 145.006 246.257 143.581 246.219 141.849C246.219 141.387 245.564 141.04 245.218 141.425C243.177 144.005 240.675 147.662 242.715 150.973C244.14 153.245 247.643 153.553 249.029 151.089C248.683 151.05 248.336 151.012 247.99 150.935C248.182 152.013 248.375 153.091 248.529 154.169C248.644 154.9 249.761 154.593 249.645 153.861C249.453 152.783 249.26 151.705 249.106 150.627C249.029 150.126 248.259 150.088 248.067 150.473C247.451 151.551 246.065 151.936 244.948 151.397C243.716 150.781 243.177 149.395 243.177 148.047C243.177 145.814 244.756 143.851 246.065 142.195C245.718 142.041 245.41 141.926 245.064 141.772C245.102 143.235 243.678 144.313 242.253 144.005C241.175 143.774 240.482 142.85 240.097 141.849C239.712 140.809 239.751 139.77 240.059 138.73C240.097 138.653 241.676 135.227 241.907 135.612C242.33 136.305 243.331 135.727 242.946 135.111Z" fill="#3A3A3A"/>
<path d="M85.7505 138.576C86.5975 136.266 89.408 137.267 90.2935 138.884C90.6015 139.423 90.7555 140.039 90.8325 140.655C90.9865 141.81 90.871 142.272 89.87 142.965C88.792 144.043 88.5225 143.62 89.1 141.695C89.3695 141.579 89.6775 141.464 89.947 141.348C90.6785 141.156 91.5255 141.194 92.257 141.425C94.105 142.041 95.029 144.005 94.7595 145.815C94.6825 146.277 95.1445 146.738 95.6065 146.469C98.109 145.044 101.42 146.623 101.997 149.434C102.151 150.165 103.268 149.857 103.114 149.126C102.382 145.583 98.186 143.735 95.029 145.506C95.2985 145.737 95.6065 145.93 95.876 146.161C96.3765 142.773 93.797 139.616 90.2165 140.155C88.9845 140.347 87.1365 141.117 86.9825 142.58C86.867 143.774 87.9835 144.659 89.1 144.775C92.411 145.083 92.334 140.27 91.256 138.345C89.793 135.727 85.7505 135.073 84.5955 138.307C84.3645 138.961 85.481 139.269 85.7505 138.576Z" fill="#3A3A3A"/>
<path d="M288.453 283.49C291.417 285.454 293.92 287.956 295.922 290.882C296.345 291.498 297.346 290.921 296.923 290.305C294.805 287.225 292.187 284.607 289.069 282.528C288.414 282.066 287.837 283.067 288.453 283.49Z" fill="#3A3A3A"/>
<path d="M295.96 285.608C296.576 286.339 297.154 287.109 297.77 287.841C298.232 288.418 299.04 287.61 298.578 287.032C297.962 286.301 297.385 285.531 296.769 284.799C296.307 284.222 295.498 285.069 295.96 285.608Z" fill="#3A3A3A"/>
<path d="M292.418 274.828C295.075 277.292 297.27 280.103 298.964 283.298C299.31 283.953 300.311 283.375 299.965 282.721C298.232 279.448 295.961 276.522 293.227 274.02C292.688 273.481 291.879 274.327 292.418 274.828Z" fill="#3A3A3A"/>
<path d="M26.2295 318.179C27.0765 326.534 28.5395 334.773 30.58 342.935C30.7725 343.666 31.889 343.358 31.6965 342.627C29.6945 334.58 28.2315 326.418 27.3845 318.179C27.3075 317.447 26.1525 317.447 26.2295 318.179Z" fill="#E8E8E8"/>
<path d="M30.811 343.32C38.3955 345.283 46.288 345.283 53.8725 343.32C54.604 343.127 54.296 342.01 53.5645 342.203C46.1725 344.128 38.511 344.128 31.119 342.203C30.426 342.01 30.118 343.127 30.811 343.32Z" fill="#E8E8E8"/>
<path d="M54.758 342.165C55.2585 333.964 55.913 325.764 56.683 317.563C56.76 316.832 55.605 316.832 55.528 317.563C54.758 325.764 54.1035 333.964 53.603 342.165C53.5645 342.896 54.7195 342.896 54.758 342.165Z" fill="#E8E8E8"/>
<path d="M26.884 318.795C36.4705 320.759 46.3265 320.682 55.913 318.526C56.6445 318.372 56.3365 317.255 55.605 317.409C46.2495 319.488 36.586 319.604 27.192 317.679C26.4605 317.525 26.1525 318.641 26.884 318.795Z" fill="#E8E8E8"/>
<path d="M26.7685 321.567C27.0765 323.146 29.0785 323.069 30.3105 323.184C33.429 323.454 36.586 323.531 39.7045 323.454C42.7075 323.377 45.7105 323.146 48.7135 322.799C51.1005 322.491 53.4105 322.183 55.528 320.99C56.1825 320.643 55.605 319.642 54.9505 319.989C51.139 322.106 45.8645 322.029 41.591 322.222C39.4735 322.299 37.3175 322.337 35.2 322.299C34.0835 322.26 28.116 322.53 27.885 321.259C27.731 320.528 26.653 320.836 26.7685 321.567Z" fill="#E8E8E8"/>
<path d="M28.963 334.926C30.811 338.199 33.1595 341.086 35.97 343.589C36.509 344.089 37.356 343.281 36.7785 342.78C34.0065 340.355 31.735 337.544 29.964 334.349C29.6175 333.694 28.6165 334.272 28.963 334.926Z" fill="#E8E8E8"/>
<path d="M27.4615 326.033C31.3885 332.655 36.1625 338.738 41.6295 344.205C42.1685 344.744 42.977 343.897 42.438 343.396C37.048 338.006 32.351 332 28.4625 325.455C28.0775 324.839 27.0765 325.417 27.4615 326.033Z" fill="#E8E8E8"/>
<path d="M33.8911 323.261C37.9721 330.537 42.7075 337.429 48.059 343.858C48.521 344.436 49.3295 343.627 48.8675 343.05C43.593 336.697 38.8961 329.883 34.8921 322.683C34.5456 322.029 33.5446 322.606 33.8911 323.261Z" fill="#E8E8E8"/>
<path d="M41.2445 323.53C45.21 329.459 49.214 335.35 53.2565 341.241C53.68 341.857 54.681 341.279 54.2575 340.663C50.215 334.772 46.211 328.882 42.2455 322.953C41.822 322.337 40.821 322.914 41.2445 323.53Z" fill="#E8E8E8"/>
<path d="M47.4045 323.184C49.4065 326.418 51.5625 329.575 53.7954 332.655C54.2189 333.233 55.2199 332.655 54.7965 332.078C52.5635 328.998 50.4075 325.841 48.4055 322.607C48.0205 321.991 47.0195 322.568 47.4045 323.184Z" fill="#E8E8E8"/>
<path d="M14.102 284.299C14.564 286.956 15.026 289.651 15.5265 292.307C15.6805 293.039 15.796 293.809 16.412 294.271C16.8355 294.617 18.2215 294.579 18.491 294.964C18.5295 294.733 18.568 294.502 18.568 294.271C17.9905 294.848 17.413 295.426 16.797 295.965C16.643 296.119 16.6045 296.35 16.643 296.542C16.9895 297.582 17.2205 299.122 17.9135 300.007C18.26 300.469 18.876 300.392 19.1455 300.662C19.3765 300.893 19.2995 300.739 19.184 301.432C19.107 302.009 19.107 302.625 19.184 303.241C19.2995 304.165 19.569 305.051 19.9155 305.898C21.9175 310.749 25.806 314.676 29.5405 318.295C30.0795 318.795 30.888 317.986 30.349 317.486C27.962 315.176 25.575 312.789 23.6115 310.094C21.6865 307.438 19.415 303.857 20.6085 300.469C20.6855 300.277 20.6085 300.007 20.4545 299.892C19.723 299.314 18.9915 299.545 18.491 298.621C17.5285 296.889 18.0675 296.311 19.2995 295.118C19.492 294.964 19.5305 294.617 19.3765 294.425C19.0685 293.963 18.8375 293.809 18.337 293.655C18.029 293.539 17.567 293.655 17.259 293.501C16.6045 293.154 16.6045 292.307 16.489 291.691C16.027 289.15 15.565 286.571 15.1415 284.03C15.0645 283.26 13.948 283.568 14.102 284.299Z" fill="#E8E8E8"/>
<path d="M14.949 284.145C29.964 289.15 40.2435 303.164 40.5515 319.026C40.5515 319.758 41.7065 319.758 41.7065 319.026C41.3985 302.664 30.7725 288.226 15.257 283.028C14.564 282.797 14.256 283.914 14.949 284.145Z" fill="#E8E8E8"/>
<path d="M38.0104 303.241C41.7449 292.884 47.2505 282.875 56.067 276.06C56.6445 275.598 56.067 274.597 55.4895 275.059C46.4035 282.105 40.744 292.268 36.894 302.933C36.663 303.626 37.7794 303.934 38.0104 303.241Z" fill="#E8E8E8"/>
<path d="M55.066 275.829C55.3355 279.371 55.6435 282.913 55.913 286.493C55.99 287.225 57.145 287.225 57.068 286.493C56.7985 282.951 56.4905 279.41 56.221 275.829C56.1825 275.098 55.0275 275.098 55.066 275.829Z" fill="#E8E8E8"/>
<path d="M56.4135 286.109C55.913 286.224 55.4125 286.34 54.9505 286.494C54.219 286.686 54.527 287.803 55.2585 287.61C55.759 287.495 56.2595 287.379 56.7215 287.225C57.453 287.033 57.145 285.955 56.4135 286.109Z" fill="#E8E8E8"/>
<path d="M54.373 287.533C54.527 288.265 55.143 288.727 55.836 288.804C56.144 288.842 56.4135 288.534 56.4135 288.226C56.4135 287.88 56.144 287.687 55.836 287.649C55.9515 287.649 55.836 287.649 55.7975 287.649C55.759 287.649 55.682 287.61 55.759 287.649C55.7205 287.61 55.682 287.61 55.6435 287.572C55.5665 287.533 55.7205 287.649 55.605 287.533C55.5665 287.495 55.5665 287.495 55.528 287.456C55.605 287.533 55.528 287.456 55.528 287.418C55.4895 287.379 55.4895 287.302 55.4895 287.379C55.4895 287.341 55.451 287.264 55.451 287.225C55.374 286.917 55.0275 286.725 54.758 286.84C54.45 286.917 54.296 287.225 54.373 287.533Z" fill="#E8E8E8"/>
<path d="M55.2585 288.38C55.297 290.574 55.22 292.73 54.989 294.886C54.912 295.579 55.0275 297.196 54.5655 297.735C54.527 297.774 53.834 297.89 53.68 298.005C53.1025 298.467 53.911 299.275 54.4885 298.813C54.681 298.659 55.143 298.814 55.451 298.467C55.913 298.005 55.836 296.927 55.913 296.388C56.2595 293.731 56.4135 291.036 56.375 288.341C56.4135 287.648 55.2585 287.648 55.2585 288.38Z" fill="#E8E8E8"/>
<path d="M53.218 299.006C54.45 300.469 54.1035 302.895 53.988 304.666C53.834 306.706 53.4875 308.592 52.4865 310.363C51.062 312.981 49.06 315.176 48.0205 318.025C47.751 318.718 48.8675 319.026 49.137 318.333C50.523 314.598 53.7185 311.826 54.681 307.9C55.374 305.089 56.0285 300.585 54.0265 298.198C53.5645 297.659 52.756 298.467 53.218 299.006Z" fill="#E8E8E8"/>
<path d="M44.1321 318.564C45.2101 307.63 48.0976 296.966 52.7176 287.032C53.0256 286.378 52.0246 285.762 51.7166 286.455C47.0196 296.619 44.0551 307.438 42.9771 318.603C42.9001 319.334 44.0551 319.296 44.1321 318.564Z" fill="#E8E8E8"/>
<path d="M21.417 290.574C28.1545 299.044 33.0825 308.785 35.97 319.18C36.1625 319.911 37.279 319.603 37.0865 318.872C34.122 308.246 29.0785 298.39 22.2255 289.766C21.7635 289.188 20.955 289.997 21.417 290.574Z" fill="#E8E8E8"/>
<path d="M22.1485 304.781C25.3825 304.588 28.3855 305.358 31.119 307.052C31.735 307.437 32.351 306.436 31.6965 306.051C28.809 304.28 25.5365 303.433 22.1485 303.626C21.3785 303.664 21.3785 304.819 22.1485 304.781Z" fill="#E8E8E8"/>
<path d="M29.194 299.622C28.963 297.505 29.2325 295.464 30.041 293.462C30.3105 292.769 29.194 292.461 28.9245 293.154C28.0775 295.233 27.808 297.389 28.039 299.622C28.116 300.354 29.271 300.354 29.194 299.622Z" fill="#E8E8E8"/>
<path d="M41.668 293.231C42.9385 296.35 44.7865 299.661 45.2485 302.972C45.364 303.703 46.4805 303.395 46.365 302.664C45.8645 299.314 44.0165 296.003 42.7845 292.923C42.515 292.23 41.3985 292.538 41.668 293.231Z" fill="#E8E8E8"/>
<path d="M48.752 296.889C49.8685 295.618 50.9465 294.117 52.371 293.154C53.5645 292.346 54.8735 291.807 55.7975 290.69C56.2595 290.113 55.451 289.304 54.989 289.882C53.988 291.075 52.525 291.576 51.3315 292.5C50.0225 293.501 49.0215 294.848 47.9435 296.08C47.443 296.658 48.2515 297.466 48.752 296.889Z" fill="#E8E8E8"/>
<path d="M49.137 318.179C50.985 317.679 52.8715 317.486 54.7965 317.602C55.528 317.64 55.528 316.485 54.7965 316.447C52.756 316.331 50.7925 316.524 48.829 317.063C48.136 317.255 48.4055 318.372 49.137 318.179Z" fill="#E8E8E8"/>
<path d="M48.983 318.641C51.139 318.834 53.218 318.564 55.297 317.91C55.99 317.679 55.682 316.562 54.989 316.793C53.0255 317.409 51.0235 317.64 48.983 317.486C48.2515 317.448 48.2515 318.603 48.983 318.641Z" fill="#E8E8E8"/>
<path d="M27.3846 318.448C27.8851 318.448 28.3471 318.448 28.8476 318.448C29.5791 318.448 29.5791 317.293 28.8476 317.293C28.3471 317.293 27.8851 317.293 27.3846 317.293C26.6531 317.293 26.6531 318.448 27.3846 318.448Z" fill="#E8E8E8"/>
<path d="M55.605 327.765C67.8095 327.765 80.0525 327.765 92.257 327.765C92.9885 327.765 92.9885 326.61 92.257 326.61C80.0525 326.61 67.8095 326.61 55.605 326.61C54.8735 326.61 54.8735 327.765 55.605 327.765Z" fill="#E8E8E8"/>
<path d="M262.196 320.142C269.472 320.142 276.711 320.142 283.987 320.142C284.719 320.142 284.719 318.987 283.987 318.987C276.711 318.987 269.472 318.987 262.196 318.987C261.464 318.987 261.464 320.142 262.196 320.142Z" fill="#E8E8E8"/>
<path d="M328.262 320.835C359.639 320.835 391.017 320.835 422.394 320.835C431.326 320.835 440.258 320.835 449.19 320.835C449.922 320.835 449.922 319.68 449.19 319.68C417.813 319.68 386.436 319.68 355.058 319.68C346.126 319.68 337.194 319.68 328.262 319.68C327.531 319.68 327.531 320.835 328.262 320.835Z" fill="#E8E8E8"/>
<path d="M281.792 194.44C278.866 200.484 275.709 206.413 272.36 212.227C272.206 212.535 272.321 213.035 272.706 213.074C289.223 215.576 304.007 223.777 318.252 232.054C318.906 232.439 319.484 231.438 318.829 231.053C304.469 222.737 289.608 214.498 272.976 211.957C273.091 212.227 273.207 212.535 273.322 212.804C276.71 206.991 279.829 201.062 282.755 195.017C283.101 194.363 282.139 193.747 281.792 194.44Z" fill="#E8E8E8"/>
<path d="M284.334 215.422C285.489 212.112 286.644 208.762 287.799 205.451C288.299 204.065 288.646 202.525 289.3 201.178C289.454 200.369 289.955 199.753 290.725 199.291C291.187 199.407 291.649 199.522 292.111 199.638C292.804 199.83 293.497 199.984 294.151 200.177C295.73 200.562 298.271 200.562 298.001 202.679C297.809 204.181 296.923 205.798 296.423 207.261C295.268 210.533 294.151 213.805 292.996 217.078C292.765 217.771 293.882 218.079 294.113 217.386C295.614 213.074 297.116 208.724 298.617 204.412C298.964 203.411 299.926 201.717 299.156 200.639C298.309 199.484 295.768 199.407 294.459 199.06C293.189 198.752 290.956 197.597 289.647 198.213C288.53 198.714 288.299 200.639 287.953 201.601C286.374 206.106 284.796 210.648 283.217 215.153C282.986 215.807 284.103 216.115 284.334 215.422Z" fill="#E8E8E8"/>
<path d="M299.195 219.542C301.659 214.345 304.161 209.109 306.625 203.911C307.857 201.293 309.089 198.714 310.36 196.096C310.937 194.902 311.399 193.478 312.131 192.361C312.747 191.399 312.901 191.168 313.979 191.591C314.556 191.822 315.249 192.4 315.75 192.746C316.404 193.208 317.444 193.709 317.906 194.325C318.483 195.056 318.252 195.826 317.906 196.75C317.444 197.982 316.751 199.176 316.173 200.369C314.903 202.987 313.632 205.605 312.285 208.223C309.744 213.19 307.087 218.118 304.354 223.007C303.969 223.662 304.97 224.239 305.355 223.585C308.704 217.656 311.9 211.65 314.903 205.567C316.404 202.564 318.06 199.484 319.33 196.365C320.216 194.094 318.291 193.17 316.597 191.976C315.249 191.052 313.132 188.935 311.669 190.667C310.745 191.745 310.244 193.555 309.628 194.864C308.858 196.442 308.127 198.021 307.357 199.638C304.277 206.106 301.197 212.574 298.155 219.042C297.886 219.619 298.887 220.235 299.195 219.542Z" fill="#E8E8E8"/>
<path d="M311.977 227.55C315.288 222.353 319.022 217.425 323.141 212.882C322.91 212.92 322.679 212.959 322.448 212.959C323.911 213.96 325.336 214.922 326.799 215.923C326.722 215.654 326.645 215.384 326.606 215.115C323.334 220.235 320.061 225.317 316.789 230.438C316.404 231.054 317.366 231.631 317.79 231.015C321.062 225.895 324.335 220.813 327.607 215.692C327.8 215.423 327.646 215.076 327.415 214.884C325.952 213.883 324.527 212.92 323.064 211.919C322.872 211.765 322.525 211.842 322.371 211.996C318.175 216.655 314.364 221.621 311.014 226.896C310.591 227.627 311.592 228.205 311.977 227.55Z" fill="#E8E8E8"/>
<path d="M357.907 190.937C354.057 189.474 351.631 185.624 352.324 181.504C353.017 177.308 357.137 173.573 361.372 176.076C364.298 177.808 365.8 181.735 364.683 184.931C363.528 188.357 359.755 190.398 356.252 189.859C355.52 189.743 355.212 190.86 355.943 190.975C360.063 191.591 364.413 189.32 365.799 185.239C367.185 181.158 364.953 176.23 360.949 174.574C356.251 172.649 351.978 176.692 351.169 181.196C350.322 185.97 353.133 190.359 357.561 192.053C358.292 192.323 358.6 191.206 357.907 190.937Z" fill="#E8E8E8"/>
<path d="M365.799 190.205C358.138 189.974 361.026 177.692 367.801 178.154C374.577 178.655 371.805 192.476 364.375 189.935C363.682 189.704 363.374 190.821 364.067 191.052C372.652 193.978 376.502 178.347 368.302 177.038C364.298 176.383 360.679 180.156 360.063 183.891C359.447 187.587 361.949 191.206 365.799 191.322C366.531 191.399 366.531 190.243 365.799 190.205Z" fill="#E8E8E8"/>
<path d="M360.063 155.362C359.408 154.669 359.1 153.553 359.601 152.706C360.101 151.897 361.333 151.512 362.103 152.128C362.796 152.667 362.95 153.822 362.296 154.4C361.526 155.093 360.294 154.746 359.562 154.169C358.985 153.707 358.176 154.515 358.754 154.977C359.947 155.901 361.795 156.363 363.066 155.247C364.221 154.207 364.106 152.282 362.95 151.281C361.757 150.242 359.87 150.55 358.869 151.705C357.753 153.014 358.061 154.977 359.216 156.171C359.755 156.71 360.563 155.901 360.063 155.362Z" fill="#E8E8E8"/>
<path d="M248.336 184.353C247.258 177.808 251.07 169.916 258.461 169.993C262.234 170.031 265.892 171.571 269.703 171.032C272.398 170.647 274.708 169.107 276.325 166.99C277.942 164.872 278.866 162.216 279.02 159.559C279.213 155.632 277.711 151.628 278.789 147.74C279.328 145.776 280.483 143.967 282.447 143.235C284.333 142.581 286.374 142.966 288.337 142.889C291.186 142.773 293.419 141.541 294.844 139.039C296.846 135.535 296.384 131.339 297.77 127.642C299.425 123.176 304.084 119.365 309.012 121.56C309.666 121.868 310.282 120.866 309.589 120.558C302.89 117.555 297.308 123.6 295.999 129.683C295.152 133.648 295.306 139.809 290.57 141.387C287.259 142.504 283.525 140.771 280.483 143.043C277.981 144.891 277.249 148.278 277.288 151.243C277.403 155.594 278.751 159.829 276.826 163.987C275.055 167.914 271.551 170.262 267.201 169.993C263.351 169.762 259.539 168.183 255.651 169.184C249.067 170.84 246.257 178.617 247.297 184.7C247.374 185.354 248.49 185.046 248.336 184.353Z" fill="#E8E8E8"/>
<path d="M297 156.902C295.575 153.668 297.539 150.588 300.657 149.549C302.929 148.779 305.431 148.74 307.395 147.2C308.935 146.007 309.436 144.505 309.243 142.58C309.051 140.771 309.05 139.346 310.475 138.115C311.668 137.075 313.247 136.69 314.787 136.613C319.022 136.459 324.836 138.615 327.916 134.495C329.34 132.57 328.916 130.183 329.571 128.028C330.456 125.025 333.344 123.176 336.424 123.33C337.156 123.369 337.156 122.214 336.424 122.175C334.076 122.06 331.804 122.946 330.187 124.64C328.185 126.757 328.454 129.144 327.838 131.8C326.183 139.077 316.057 133.956 311.283 136.228C309.512 137.075 308.088 138.576 307.934 140.578C307.741 142.927 308.819 144.852 306.432 146.469C305.162 147.316 303.699 147.585 302.236 147.932C299.81 148.509 297.423 149.241 296.191 151.589C295.19 153.437 295.19 155.555 296.037 157.441C296.307 158.173 297.269 157.557 297 156.902Z" fill="#E8E8E8"/>
<path d="M365.607 105.62C365.453 105.274 365.299 104.889 365.183 104.504C365.684 103.926 366.146 103.349 366.646 102.771C366.8 102.733 367.493 103.195 367.724 103.195C368.302 103.272 368.802 103.118 369.264 102.771C370.689 101.655 370.188 99.884 370.612 98.3825C371.305 95.803 374.346 97.574 375.732 95.649C377.118 93.7625 376.618 89.7585 380.314 90.8365C381.045 91.029 381.353 89.9125 380.622 89.72C378.504 89.104 376.579 90.105 375.809 92.1455C375.578 92.723 375.501 93.3775 375.27 93.955C374.77 95.3025 374.231 95.495 372.768 95.572C371.69 95.649 370.843 95.572 370.111 96.496C369.495 97.3045 369.495 98.344 369.38 99.3065C369.264 100.731 369.38 101.924 367.262 101.77C366.839 101.732 366.492 101.347 366.03 101.347C363.489 101.309 363.913 104.427 364.529 105.929C364.76 106.622 365.915 106.313 365.607 105.62Z" fill="#E8E8E8"/>
<path d="M372.845 108.816C372.229 108.007 371.19 105.659 372.999 105.043C373.654 104.812 374.501 105.081 375.194 105.081C375.81 105.081 376.349 105.081 376.849 104.658C378.389 103.426 377.273 101.231 378.081 99.6915C379.39 97.189 382.008 99.1525 383.856 97.8435C385.165 96.9195 385.512 95.1485 385.743 93.6855C385.858 92.954 384.742 92.646 384.626 93.3775C384.357 95.11 384.049 97.035 381.893 97.2275C380.776 97.343 379.929 96.958 378.89 97.4585C377.196 98.267 376.657 99.7685 376.618 101.501C376.58 102.964 376.926 103.695 374.462 103.811C374.154 103.811 373.846 103.734 373.538 103.734C372.653 103.811 371.883 104.273 371.382 105.004C370.304 106.544 370.92 108.315 371.998 109.663C372.499 110.24 373.307 109.393 372.845 108.816Z" fill="#E8E8E8"/>
<path d="M45.518 129.683C48.7135 125.833 53.2565 122.676 58.4925 123.215C64.1905 123.793 67.001 128.336 67.54 133.649C68.464 142.465 66.308 153.014 72.2755 160.521C74.624 163.486 78.1275 165.064 81.9005 164.14C86.4435 163.062 89.9855 159.482 94.028 157.364C98.802 154.862 105.386 153.514 109.698 157.711C112.855 160.791 113.548 165.488 114.587 169.569C115.55 173.265 117.205 177.346 120.516 179.54C122.518 180.849 124.713 180.965 127.023 180.811C129.602 180.618 134.877 180.464 134.338 184.507C134.261 185.238 135.416 185.238 135.493 184.507C135.685 182.928 134.954 181.658 133.683 180.734C131.681 179.271 129.371 179.502 127.023 179.656C124.366 179.848 122.095 179.617 120.054 177.731C118.206 176.037 117.09 173.65 116.281 171.301C114.934 167.259 114.549 162.831 112.239 159.135C109.967 155.478 106.04 153.707 101.805 153.861C96.4535 154.053 91.949 157.133 87.6755 159.982C85.635 161.33 83.4405 162.754 80.938 163.178C77.935 163.678 75.2785 162.369 73.3535 160.136C69.7345 155.901 69.157 149.857 68.9645 144.544C68.772 139.577 69.4265 134.188 67.771 129.375C66.2695 124.986 62.458 122.253 57.8765 122.022C52.5635 121.752 47.905 124.948 44.6325 128.875C44.209 129.452 45.0175 130.26 45.518 129.683Z" fill="#E8E8E8"/>
<path d="M26.0755 189.089C32.0815 199.099 37.433 209.455 42.1685 220.12C42.4765 220.813 43.4775 220.197 43.1695 219.542C38.434 208.878 33.044 198.521 27.0765 188.511C26.6915 187.857 25.6905 188.434 26.0755 189.089Z" fill="#E8E8E8"/>
<path d="M26.8071 188.626C36.1626 182.813 45.7876 177.385 55.6821 172.457C56.3366 172.11 55.7591 171.109 55.1046 171.456C45.2486 176.384 35.6236 181.812 26.2296 187.625C25.5751 188.049 26.1526 189.05 26.8071 188.626Z" fill="#E8E8E8"/>
<path d="M54.989 171.956C59.8785 182.235 65.0375 192.361 70.5045 202.332C70.851 202.987 71.852 202.409 71.5055 201.755C66.0385 191.783 60.841 181.658 55.99 171.379C55.6435 170.686 54.681 171.263 54.989 171.956Z" fill="#E8E8E8"/>
<path d="M43.4776 220.351C52.6791 214.807 61.7651 209.109 70.7741 203.257C71.3901 202.872 70.8126 201.871 70.1966 202.256C61.1876 208.108 52.1016 213.806 42.9001 219.35C42.2841 219.735 42.8616 220.736 43.4776 220.351Z" fill="#E8E8E8"/>
<path d="M42.746 185.239C42.515 192.631 42.9385 199.984 44.0165 207.299C44.132 208.031 45.2484 207.723 45.1329 206.991C44.0549 199.792 43.67 192.515 43.901 185.239C43.9395 184.507 42.7845 184.507 42.746 185.239Z" fill="#E8E8E8"/>
<path d="M42.7845 184.854C48.136 189.05 53.4875 193.17 58.916 197.251C59.4935 197.713 60.071 196.712 59.4935 196.25C54.142 192.246 48.829 188.165 43.593 184.045C43.0155 183.583 42.207 184.392 42.7845 184.854Z" fill="#E8E8E8"/>
<path d="M45.21 207.53C49.6375 203.565 55.4125 201.447 59.609 197.174C60.148 196.635 59.301 195.826 58.8005 196.365C54.604 200.6 48.8675 202.756 44.4015 206.722C43.824 207.184 44.671 207.992 45.21 207.53Z" fill="#E8E8E8"/>
<path d="M27.6155 195.133C28.8475 194.517 30.0795 193.94 31.3115 193.324C31.966 193.016 31.3885 192.015 30.734 192.323C29.502 192.939 28.27 193.516 27.038 194.132C26.3835 194.479 26.961 195.441 27.6155 195.133Z" fill="#E8E8E8"/>
<path d="M31.5811 201.678C32.6206 200.985 33.7371 200.408 34.8921 199.907C35.585 199.638 35.277 198.521 34.584 198.791C33.3135 199.33 32.1201 199.946 30.9651 200.677C30.3876 201.101 30.9651 202.102 31.5811 201.678Z" fill="#E8E8E8"/>
<path d="M35.9315 209.224C37.0095 208.685 38.0875 208.146 39.1655 207.646C39.82 207.299 39.2425 206.337 38.588 206.645C37.5099 207.184 36.432 207.723 35.354 208.223C34.6995 208.531 35.277 209.532 35.9315 209.224Z" fill="#E8E8E8"/>
<path d="M38.1645 216.77C39.358 215.731 40.59 214.845 41.976 214.075C42.6305 213.69 42.053 212.728 41.3985 213.074C39.974 213.883 38.6265 214.845 37.356 215.962C36.7785 216.462 37.587 217.271 38.1645 216.77Z" fill="#E8E8E8"/>
<path d="M57.1835 179.54C58.069 178.924 58.993 178.501 60.0325 178.231C60.764 178.039 60.456 176.961 59.7245 177.115C58.608 177.384 57.53 177.846 56.5675 178.539C55.99 178.963 56.5675 179.964 57.1835 179.54Z" fill="#E8E8E8"/>
<path d="M60.61 186.124C61.842 185.354 63.074 184.584 64.2675 183.776C64.8835 183.391 64.306 182.39 63.69 182.775C62.458 183.545 61.226 184.315 60.0325 185.123C59.378 185.547 59.9555 186.548 60.61 186.124Z" fill="#E8E8E8"/>
<path d="M64.537 194.016C65.846 193.439 67.1935 192.862 68.5025 192.284C69.1955 191.976 68.5795 190.975 67.925 191.283C66.616 191.861 65.2685 192.438 63.9595 193.015C63.2665 193.323 63.8825 194.324 64.537 194.016Z" fill="#E8E8E8"/>
<path d="M67.3475 199.176C68.3869 198.175 69.5419 197.328 70.8124 196.596C71.4669 196.25 70.8894 195.249 70.2349 195.595C68.8874 196.365 67.6554 197.251 66.539 198.329C66 198.868 66.8085 199.676 67.3475 199.176Z" fill="#E8E8E8"/>
<path d="M46.75 215.269C47.7125 216.693 48.521 218.195 49.137 219.773C49.4065 220.466 50.523 220.158 50.2535 219.465C49.599 217.771 48.7905 216.154 47.751 214.653C47.3275 214.075 46.3265 214.653 46.75 215.269Z" fill="#E8E8E8"/>
<path d="M52.6404 212.073C53.3719 213.382 54.0649 214.653 54.7964 215.962C55.1429 216.616 56.1439 216.039 55.7974 215.384C55.0659 214.075 54.3729 212.805 53.6414 211.496C53.2949 210.841 52.2939 211.419 52.6404 212.073Z" fill="#E8E8E8"/>
<path d="M59.455 207.184C60.225 208.57 60.995 209.956 61.765 211.342C62.1115 211.996 63.1125 211.419 62.766 210.764C61.996 209.378 61.226 207.992 60.456 206.606C60.1095 205.952 59.1085 206.529 59.455 207.184Z" fill="#E8E8E8"/>
<path d="M65.5765 203.526C66.1925 204.989 66.8085 206.452 67.4629 207.877C67.7709 208.57 68.7334 207.954 68.4639 207.299C67.8479 205.836 67.232 204.373 66.5775 202.949C66.2695 202.294 65.2685 202.872 65.5765 203.526Z" fill="#E8E8E8"/>
<path d="M30.657 182.698C31.3885 183.891 32.0815 185.085 32.813 186.24C33.198 186.894 34.199 186.278 33.814 185.662C33.0825 184.469 32.3895 183.275 31.658 182.12C31.273 181.504 30.272 182.082 30.657 182.698Z" fill="#E8E8E8"/>
<path d="M37.279 178.847C37.972 180.387 38.665 181.927 39.358 183.467C39.666 184.16 40.667 183.544 40.359 182.89C39.666 181.35 38.973 179.81 38.28 178.27C37.9335 177.577 36.971 178.154 37.279 178.847Z" fill="#E8E8E8"/>
<path d="M43.2465 175.151C44.286 176.537 45.0945 178.039 45.6335 179.656C45.8645 180.349 46.981 180.041 46.75 179.348C46.1725 177.615 45.364 175.998 44.2475 174.574C43.824 173.996 42.823 174.535 43.2465 175.151Z" fill="#E8E8E8"/>
<path d="M49.6761 172.187C50.4846 173.419 51.2545 174.613 52.063 175.845C52.448 176.461 53.449 175.883 53.064 175.267C52.2555 174.035 51.4856 172.842 50.6771 171.61C50.2536 170.994 49.2526 171.571 49.6761 172.187Z" fill="#E8E8E8"/>
<path d="M109.544 95.8415C105.809 94.6865 105.617 90.721 107.388 87.7565C109.12 84.869 112.47 84.099 115.088 86.486C117.244 88.488 117.436 91.9145 115.434 94.109C113.432 96.342 110.16 96.3035 107.85 94.6095C107.272 94.1475 106.695 95.1485 107.272 95.6105C110.198 97.7665 114.472 97.42 116.666 94.3785C118.938 91.2985 118.129 86.9865 114.934 84.9075C107.234 79.941 100.612 94.263 109.236 96.958C109.967 97.189 110.275 96.0725 109.544 95.8415Z" fill="#E8E8E8"/>
<path d="M115.742 96.8425C112.854 97.728 112.161 94.263 113.432 92.415C114.472 90.9135 116.512 90.028 118.36 90.5285C120.131 90.9905 121.402 92.8 120.94 94.6095C120.362 96.881 117.975 97.6895 115.857 97.343C115.126 97.2275 114.818 98.344 115.55 98.4595C118.399 98.96 121.479 97.728 122.095 94.648C122.634 91.9915 120.555 89.566 117.975 89.258C115.126 88.9115 112.007 90.9905 111.622 93.9165C111.276 96.4575 113.586 98.729 116.127 97.9205C116.782 97.728 116.474 96.6115 115.742 96.8425Z" fill="#E8E8E8"/>
<path d="M91.179 121.906C90.255 123.793 91.564 125.679 93.489 126.18C94.952 126.565 96.492 126.218 97.9935 126.295C99.6105 126.372 101.227 126.757 102.69 127.412C105.924 128.875 108.003 131.531 108.119 135.112C108.234 138.115 107.349 141.233 108.658 144.082C111.43 150.088 119.053 145.507 122.98 149.395C126.252 152.668 124.905 158.635 129.294 161.138C129.948 161.523 130.526 160.522 129.871 160.137C125.944 157.904 126.868 152.09 124.096 148.856C122.633 147.162 120.516 146.7 118.36 146.546C115.742 146.392 112.354 146.931 110.429 144.698C108.196 142.08 109.389 138.153 109.274 135.073C109.197 132.648 108.388 130.453 106.694 128.721C105.193 127.219 103.229 126.18 101.189 125.641C100.149 125.371 99.0715 125.179 97.9935 125.14C96.6075 125.063 90.6015 125.756 92.2185 122.484C92.5265 121.829 91.5255 121.252 91.179 121.906Z" fill="#E8E8E8"/>
<path d="M1.166 329.729C8.1345 329.729 15.0645 329.729 22.033 329.729C22.7645 329.729 22.7645 328.574 22.033 328.574C15.0645 328.574 8.1345 328.574 1.166 328.574C0.396001 328.574 0.396001 329.729 1.166 329.729Z" fill="#E8E8E8"/>
<path d="M12.4079 355.832C25.8059 355.832 39.1655 355.832 52.5635 355.832C53.295 355.832 53.295 354.677 52.5635 354.677C39.1655 354.677 25.8059 354.677 12.4079 354.677C11.6379 354.677 11.6379 355.832 12.4079 355.832Z" fill="#E8E8E8"/>
<path d="M50.9465 348.594C63.382 348.594 75.856 348.594 88.2915 348.594C89.023 348.594 89.023 347.439 88.2915 347.439C75.856 347.439 63.382 347.439 50.9465 347.439C50.1765 347.439 50.1765 348.594 50.9465 348.594Z" fill="#E8E8E8"/>
<path d="M258.038 346.592C264.313 345.052 270.627 344.898 277.018 345.899C279.713 346.322 282.447 346.746 285.18 346.515C287.837 346.284 290.416 345.475 292.996 344.782C295.922 343.974 298.848 343.358 301.928 343.589C305.085 343.82 308.126 344.705 311.206 345.398C313.863 346.014 316.558 346.438 319.291 346.399C322.179 346.322 325.028 345.822 327.838 345.398C335.538 344.166 342.776 344.936 350.399 346.207C351.131 346.322 351.439 345.206 350.707 345.09C344.547 344.089 338.349 343.05 332.073 343.666C325.528 344.32 319.445 345.937 312.823 344.59C307.279 343.474 302.005 341.741 296.307 342.819C293.265 343.397 290.378 344.474 287.336 345.052C283.948 345.706 280.676 345.321 277.288 344.782C270.704 343.781 264.198 343.858 257.691 345.475C257.037 345.668 257.345 346.784 258.038 346.592Z" fill="#E8E8E8"/>
<path d="M317.174 334.888C329.263 334.234 341.352 333.579 353.441 332.963C359.409 332.655 365.184 332.771 371.113 333.579C373.769 333.926 376.31 334.003 378.967 333.695C381.931 333.348 385.011 332.886 387.783 334.311C388.438 334.657 389.015 333.656 388.361 333.31C383.664 330.922 378.235 333.156 373.192 332.693C370.189 332.424 367.263 331.846 364.26 331.692C361.141 331.538 358.023 331.615 354.904 331.769C342.315 332.347 329.725 333.117 317.136 333.772C316.443 333.772 316.443 334.927 317.174 334.888Z" fill="#E8E8E8"/>
<path d="M80.4375 367.959C86.1355 368.498 91.872 369.037 97.57 368.383C100.227 368.075 102.768 367.497 105.347 366.727C108.697 365.726 111.7 365.457 115.165 366.073C117.821 366.535 120.439 367.189 123.096 367.42C125.906 367.651 128.717 367.497 131.527 367.228C137.418 366.65 143.308 365.649 149.16 366.958C149.892 367.112 150.2 365.996 149.468 365.842C143.847 364.61 138.226 365.418 132.567 365.996C129.756 366.265 126.946 366.535 124.135 366.381C120.94 366.227 117.86 365.38 114.741 364.879C112.123 364.456 109.621 364.456 107.041 365.072C104.269 365.765 101.651 366.689 98.802 367.112C92.719 367.998 86.5205 367.382 80.4375 366.843C79.6675 366.727 79.706 367.882 80.4375 367.959Z" fill="#E8E8E8"/>
<path d="M141.344 57.303C139.843 56.2635 137.802 54.608 138.418 52.529C139.073 50.373 140.69 51.4125 142.191 50.912C144.193 50.2575 144.078 47.832 143.5 46.2535C142.923 44.7135 141.691 40.979 144.886 42.2495C145.618 42.5575 146.157 43.058 147.004 42.7885C147.774 42.5575 148.159 41.8645 148.351 41.133C148.505 40.4785 148.39 39.7855 148.351 39.0925C148.274 38.6305 148.236 38.13 148.236 37.668C148.082 36.5515 148.775 36.0895 150.238 36.282C150.276 37.0135 151.431 37.0135 151.393 36.282C151.316 35.204 150.507 34.434 149.352 34.4725C148.005 34.511 147.273 35.82 147.119 37.052C147.004 37.899 147.697 39.8625 147.312 40.5555C146.85 40.8635 146.388 41.21 145.887 41.518C145.695 41.4025 145.502 41.287 145.31 41.1715C144.963 41.056 144.694 40.825 144.347 40.748C143.154 40.4785 142.191 41.21 141.768 42.288C141.036 44.136 142.345 45.676 142.73 47.4085C143.231 49.7955 141.421 49.526 139.843 49.7955C139.15 49.911 138.572 50.2575 138.11 50.758C135.685 53.5685 138.495 56.687 140.805 58.304C141.383 58.7275 141.96 57.7265 141.344 57.303Z" fill="#E8E8E8"/>
<path d="M148.929 56.225C147.659 54.762 146.696 52.76 149.16 51.99C149.776 51.7975 150.469 51.8745 151.047 51.4895C152.317 50.604 151.778 49.4105 151.547 48.1785C151.432 47.4855 151.162 46.5615 151.586 45.8685C151.894 45.368 153.01 45.1755 153.588 45.06C154.396 44.8675 155.243 44.752 155.936 44.29C156.976 43.5585 157.361 42.2495 156.668 41.133C156.283 40.517 155.282 41.0945 155.667 41.7105C156.822 43.5585 151.432 44.059 150.508 45.4065C149.43 46.985 151.701 49.757 149.815 50.758C149.083 51.143 148.159 50.8735 147.466 51.374C146.966 51.7205 146.619 52.2595 146.465 52.837C146.042 54.4925 147.158 55.917 148.159 57.072C148.621 57.611 149.43 56.8025 148.929 56.225Z" fill="#E8E8E8"/>
<path d="M103.461 47.1005C102.46 46.4075 102.344 45.1755 102.652 44.0975C102.845 43.366 103.769 41.364 104.654 41.287C106.117 41.133 106.849 42.981 107.234 44.059C107.58 45.0985 107.696 46.138 107.734 47.216C107.734 47.9475 108.889 47.9475 108.889 47.216C108.851 45.06 107.426 38.438 103.884 40.363C102.537 41.0945 101.536 43.212 101.382 44.675C101.228 46.061 101.767 47.293 102.883 48.1015C103.461 48.525 104.038 47.524 103.461 47.1005Z" fill="#E8E8E8"/>
<path d="M102.999 47.7165C101.613 48.063 100.227 48.4095 98.802 48.756C97.9935 48.9485 96.6075 49.0255 95.953 49.6415C94.8365 50.681 95.1445 53.8765 95.1445 55.224C95.1445 55.609 95.5295 55.8785 95.876 55.763C96.0685 55.7245 96.261 55.6475 96.492 55.609C97.493 55.07 97.9935 55.4165 98.032 56.5715C98.802 57.3415 98.802 57.8035 98.032 57.8805C97.57 58.073 97.108 58.15 96.6075 58.15C96.2995 58.1885 96.03 58.381 96.03 58.7275C96.107 61.1915 96.2995 63.617 96.569 66.081C96.646 66.8125 97.801 66.8125 97.724 66.081C97.4545 63.617 97.262 61.1915 97.185 58.7275C96.9925 58.92 96.8 59.1125 96.6075 59.305C98.2245 59.1125 100.804 58.458 100.458 56.2635C100.073 53.915 97.2235 54.1845 95.6065 54.6465C95.8375 54.839 96.107 55.0315 96.338 55.1855C96.338 54.3 96.338 53.453 96.415 52.5675C96.5305 51.1815 96.4535 50.681 97.724 50.1805C99.4565 49.4875 101.497 49.2565 103.307 48.7945C104.038 48.679 103.73 47.5625 102.999 47.7165Z" fill="#E8E8E8"/>
<path d="M108.543 48.063C110.16 47.986 111.815 47.986 113.432 48.1785C114.972 48.371 114.895 48.602 115.126 49.9495C115.28 50.7965 115.319 51.682 115.396 52.529C115.704 55.84 115.935 59.151 116.127 62.462C116.166 63.1935 117.321 63.1935 117.282 62.462C117.051 57.9575 116.897 53.3375 116.166 48.8715C115.973 47.755 115.781 47.4085 114.626 47.216C112.624 46.831 110.545 46.831 108.543 46.9465C107.811 46.9465 107.811 48.1015 108.543 48.063Z" fill="#E8E8E8"/>
<path d="M97.416 66.8895C99.6875 66.5045 101.959 66.1195 104.192 65.7345C106.771 65.311 109.235 65.5035 111.815 65.311C113.008 65.1955 118.668 64.618 116.589 62.2695C116.088 61.7305 115.28 62.539 115.78 63.078C116.088 63.4245 110.852 64.1945 110.737 64.1945C109.12 64.233 107.503 64.156 105.886 64.3485C102.96 64.695 100.034 65.311 97.108 65.8115C96.3765 65.8885 96.6845 67.005 97.416 66.8895Z" fill="#E8E8E8"/>
<path d="M301.928 288.611C301.813 292.653 301.697 296.696 301.582 300.777C306.702 301.123 311.784 301.431 316.905 301.778C316.905 297.62 316.905 293.462 316.905 289.304C311.9 289.073 306.933 288.842 301.928 288.611Z" fill="white" stroke="#161616" stroke-width="2" stroke-miterlimit="10"/>
<path d="M308.589 333.54C309.282 338.006 309.59 341.703 309.744 344.359C310.244 353.176 309.859 355.216 309.089 356.833C307.203 360.799 303.776 362.454 304.084 362.993C304.315 363.34 306.009 362.955 313.555 358.989C313.093 350.211 312.67 341.471 312.208 332.693C311.014 333.001 309.821 333.271 308.589 333.54Z" fill="white" stroke="#161616" stroke-width="2" stroke-miterlimit="10"/>
<path d="M298.617 305.243C305.162 305.281 311.707 305.358 318.252 305.397C317.52 314.175 316.827 322.914 316.096 331.692C310.398 331.23 304.661 330.807 298.963 330.345C298.809 321.99 298.694 313.636 298.617 305.243Z" fill="white" stroke="#161616" stroke-width="2" stroke-miterlimit="10"/>
<path d="M301.273 333.233C303.352 338.276 304.045 342.627 304.276 345.553C304.623 349.865 304.854 353.176 302.775 355.37C302.005 356.217 300.734 357.026 298.27 358.681C296.076 360.144 295.036 360.683 295.113 360.837C295.229 361.068 297.346 360.606 306.586 357.334C307.202 354.215 307.703 350.211 307.587 345.514C307.433 340.509 306.625 336.236 305.739 333.04C304.276 333.117 302.775 333.156 301.273 333.233Z" fill="white" stroke="#161616" stroke-width="2" stroke-miterlimit="10"/>
<path d="M304.623 363.34C305.778 362.377 306.856 361.338 307.895 360.221C309.089 358.912 310.86 356.91 312.708 358.643C312.746 358.335 312.785 358.027 312.823 357.719C310.09 359.066 307.395 360.414 304.661 361.723C304.122 361.992 304.392 362.801 304.969 362.801C307.549 362.839 309.166 358.335 311.822 359.182C312.515 359.413 312.823 358.296 312.13 358.065C310.975 357.719 310.09 358.027 309.127 358.72C308.011 359.528 306.432 361.646 305.008 361.646C305.123 361.992 305.2 362.377 305.316 362.724C308.049 361.376 310.744 360.029 313.478 358.72C313.824 358.566 313.863 358.065 313.593 357.796C312.554 356.833 310.706 356.487 309.397 357.103C308.434 357.526 307.818 358.643 307.125 359.374C306.086 360.491 305.008 361.492 303.853 362.493C303.237 362.993 304.045 363.84 304.623 363.34Z" fill="#161616"/>
<path d="M309.358 357.333C310.513 357.372 311.63 357.603 312.708 358.065C313.362 358.373 313.978 357.372 313.285 357.064C312.015 356.486 310.744 356.178 309.358 356.14C308.627 356.178 308.627 357.333 309.358 357.333Z" fill="#161616"/>
<path d="M303.044 355.986C303.93 356.217 304.7 356.679 305.316 357.372C305.816 357.911 306.625 357.102 306.124 356.563C305.354 355.755 304.392 355.177 303.314 354.908C302.659 354.677 302.351 355.793 303.044 355.986Z" fill="#161616"/>
<path d="M296.807 360.644C298.001 359.759 299.233 358.95 300.503 358.18C301.081 357.834 301.697 357.372 302.313 357.179C303.275 356.833 303.853 357.064 304.738 357.449C304.738 357.102 304.738 356.794 304.738 356.448C303.506 356.987 302.12 356.948 300.85 357.487C299.618 357.988 298.463 359.22 297.192 359.451C297.346 359.797 297.5 360.144 297.654 360.49C299.926 359.374 302.467 359.181 304.738 358.065C305.393 357.718 304.815 356.756 304.161 357.064C301.889 358.18 299.348 358.373 297.077 359.489C296.461 359.797 296.923 360.644 297.539 360.529C298.925 360.298 300.041 359.027 301.35 358.527C302.659 358.026 304.084 357.988 305.354 357.449C305.739 357.295 305.739 356.602 305.354 356.448C303.891 355.793 303.237 355.408 301.774 356.178C299.849 357.179 298.039 358.373 296.307 359.643C295.614 360.067 296.191 361.068 296.807 360.644Z" fill="#161616"/>
<path d="M303.391 339.123C304.353 338.776 305.316 338.815 306.201 339.277C306.856 339.623 307.433 338.622 306.779 338.276C305.624 337.66 304.315 337.544 303.083 338.006C302.39 338.276 302.698 339.392 303.391 339.123Z" fill="#161616"/>
<path d="M304.353 342.973C305.162 342.896 305.932 343.088 306.548 343.627C307.126 344.09 307.934 343.281 307.356 342.819C306.509 342.126 305.47 341.741 304.353 341.818C303.622 341.856 303.622 343.011 304.353 342.973Z" fill="#161616"/>
<path d="M304.777 347.785C305.508 347.708 306.201 347.978 306.625 348.594C307.01 349.21 308.011 348.633 307.626 348.016C307.048 347.054 305.932 346.476 304.815 346.63C304.507 346.669 304.238 346.861 304.238 347.208C304.199 347.477 304.469 347.824 304.777 347.785Z" fill="#161616"/>
<path d="M309.743 338.853C310.436 338.468 311.322 338.507 311.977 339.046C312.554 339.508 313.362 338.699 312.785 338.237C311.745 337.39 310.359 337.198 309.166 337.852C308.511 338.237 309.089 339.238 309.743 338.853Z" fill="#161616"/>
<path d="M310.398 346.13C311.014 345.86 311.707 345.976 312.207 346.438C312.746 346.938 313.593 346.13 313.016 345.629C312.13 344.821 310.898 344.628 309.782 345.167C309.127 345.437 309.744 346.438 310.398 346.13Z" fill="#161616"/>
<path d="M310.552 352.29C311.168 351.905 311.938 351.905 312.515 352.367C313.093 352.829 313.901 352.02 313.324 351.558C312.361 350.75 311.014 350.634 309.974 351.327C309.358 351.712 309.936 352.713 310.552 352.29Z" fill="#161616"/>
<path d="M319.176 305.358C318.406 314.213 317.636 323.068 316.866 331.923" stroke="#161616" stroke-width="6" stroke-miterlimit="10"/>
<path d="M298.848 330.691C305.277 331.153 311.707 331.577 318.136 332.039" stroke="#161616" stroke-width="6" stroke-miterlimit="10"/>
<path d="M318.175 288.958C318.021 293.347 317.828 297.697 317.674 302.086" stroke="#161616" stroke-width="6" stroke-miterlimit="10"/>
<path d="M318.983 310.556C322.564 309.901 326.375 312.712 326.645 316.408C327.03 321.028 321.755 321.836 318.29 321.336C317.559 321.22 317.251 322.337 317.982 322.452C322.217 323.068 328.185 321.875 327.8 316.408C327.492 311.903 322.987 308.631 318.675 309.439C317.944 309.555 318.252 310.671 318.983 310.556Z" fill="#161616"/>
<path d="M318.137 323.376C319.638 323.684 320.832 324.762 321.255 326.225C321.448 326.957 322.564 326.649 322.372 325.917C321.871 324.069 320.37 322.606 318.483 322.26C317.713 322.144 317.405 323.222 318.137 323.376Z" fill="#161616"/>
<path d="M317.559 322.991C318.483 324.339 318.907 325.84 318.753 327.496C318.714 328.227 319.869 328.227 319.908 327.496C320.023 325.686 319.561 323.915 318.522 322.414C318.137 321.798 317.136 322.375 317.559 322.991Z" fill="#161616"/>
<path d="M298.578 310.017C296.037 308.4 291.379 313.058 290.801 315.33C289.646 319.95 295.575 319.411 298.039 320.951C298.655 321.336 299.233 320.335 298.617 319.95C296.846 318.833 294.228 319.257 292.688 317.871C290.801 316.177 292.534 314.136 293.843 312.943C294.536 312.327 296.884 310.287 298.001 310.98C298.617 311.442 299.233 310.441 298.578 310.017Z" fill="#161616"/>
<path d="M297.962 320.412C296.961 320.797 296.037 321.374 295.267 322.183C294.69 322.799 293.958 323.761 294.536 324.609C294.959 325.225 295.96 324.647 295.537 324.031C295.267 323.646 296.268 322.799 296.538 322.568C297.038 322.106 297.616 321.759 298.27 321.528C298.963 321.259 298.694 320.143 297.962 320.412Z" fill="#161616"/>
<path d="M297.5 321.22C296.769 322.375 296.538 323.684 296.807 324.993C296.961 325.725 298.078 325.417 297.924 324.685C297.693 323.646 297.924 322.683 298.501 321.798C298.925 321.182 297.924 320.604 297.5 321.22Z" fill="#161616"/>
<path d="M301.158 309.285C300.965 312.096 301.004 314.945 301.196 317.755C301.273 318.487 302.428 318.487 302.351 317.755C302.12 314.945 302.12 312.096 302.313 309.285C302.39 308.554 301.235 308.554 301.158 309.285Z" fill="#161616"/>
<path d="M302.005 309.593C306.086 309.824 310.128 309.978 314.209 310.055C314.017 309.863 313.824 309.67 313.632 309.478C313.516 312.365 313.401 315.291 313.247 318.179C313.208 318.91 314.363 318.91 314.402 318.179C314.517 315.291 314.633 312.365 314.787 309.478C314.787 309.17 314.517 308.9 314.209 308.9C310.128 308.823 306.086 308.669 302.005 308.438C301.273 308.4 301.273 309.555 302.005 309.593Z" fill="#161616"/>
<path d="M301.543 318.256C303.237 318.718 305.123 318.602 306.817 318.718C308.896 318.833 311.014 318.987 313.093 319.103C313.824 319.141 313.824 317.986 313.093 317.948C311.245 317.832 309.397 317.717 307.549 317.602C305.701 317.486 303.622 317.602 301.812 317.14C301.158 316.947 300.85 318.063 301.543 318.256Z" fill="#161616"/>
<path d="M302.852 324.223C303.545 325.725 305.046 324.416 306.201 324.955C306.74 325.186 306.625 325.532 307.356 325.571C308.203 325.609 310.282 323.915 310.706 325.494C310.821 325.917 311.36 326.033 311.668 325.763C312.053 325.648 312.477 325.532 312.862 325.455C313.324 326.033 314.171 325.186 313.67 324.647C312.785 323.607 311.668 324.185 310.821 324.955C311.129 325.032 311.476 325.109 311.784 325.224C311.437 323.877 310.013 322.991 308.665 323.607C308.011 323.915 307.934 324.493 306.933 324.108C306.74 324.031 306.663 323.723 306.471 323.646C306.047 323.492 303.814 323.723 303.814 323.684C303.545 322.953 302.544 323.53 302.852 324.223Z" fill="#161616"/>
<path d="M304.892 293.924C304.969 293.5 305.47 293.385 305.816 293.539C306.317 293.731 306.586 294.309 306.817 294.732C307.125 295.387 308.126 294.809 307.818 294.155C307.395 293.308 306.74 292.422 305.701 292.307C304.854 292.23 303.968 292.73 303.814 293.577C303.622 294.347 304.738 294.655 304.892 293.924Z" fill="#161616"/>
<path d="M311.976 294.463C312.053 294.078 312.4 293.847 312.785 294.001C313.247 294.155 313.439 294.732 313.516 295.156C313.632 295.887 314.748 295.579 314.633 294.848C314.479 293.924 313.863 292.961 312.862 292.807C311.976 292.692 311.014 293.231 310.86 294.155C310.744 294.886 311.861 295.194 311.976 294.463Z" fill="#161616"/>
<path d="M305.47 296.35C306.779 298.66 309.898 299.006 311.592 296.927C312.054 296.35 311.245 295.541 310.783 296.119C309.551 297.62 307.434 297.505 306.471 295.772C306.125 295.118 305.124 295.695 305.47 296.35Z" fill="#161616"/>
<path d="M265.084 87.1405C260.233 85.177 257.307 80.48 255.536 75.783C253.649 70.8935 252.841 65.5805 253.11 60.3445C253.572 50.681 257.692 40.902 265.315 34.742C272.514 28.89 283.179 27.2345 291.187 32.5475C299.541 38.0915 301.043 49.526 301.12 58.7275C301.197 68.9685 298.81 79.7101 291.225 87.0636C290.686 87.5641 291.495 88.4111 292.034 87.8721C299.233 80.8651 301.967 70.855 302.236 61.076C302.506 51.4895 301.351 39.362 293.458 32.7785C286.066 26.6185 275.094 26.9265 267.201 31.9315C258.462 37.4755 253.303 47.524 252.186 57.6495C251.493 63.925 252.263 70.4315 254.573 76.3605C256.537 81.3655 259.655 86.1396 264.814 88.2186C265.469 88.5266 265.738 87.41 265.084 87.1405Z" fill="#161616"/>
<path d="M264.545 87.872C263.236 89.72 263.505 92.4535 265.43 93.8395C266.893 94.879 269.049 95.033 270.782 95.264C272.861 95.572 274.978 95.6875 277.096 95.6875C280.869 95.649 285.181 95.3795 288.684 93.9165C291.225 92.8385 293.15 90.2975 291.803 87.564C291.495 86.9095 290.494 87.487 290.802 88.1415C293.689 94.032 280.022 94.5325 277.057 94.5325C274.324 94.5325 271.59 94.3015 268.934 93.801C267.663 93.57 266.239 93.339 265.43 92.2225C264.622 91.0675 264.776 89.566 265.546 88.488C265.969 87.8335 264.968 87.256 264.545 87.872Z" fill="#161616"/>
<path d="M265.777 94.1091C265.777 96.0341 265.815 97.9976 266.046 99.9226C266.162 100.808 266.354 101.578 267.086 102.117C268.125 102.887 269.858 102.849 271.09 102.964C273.169 103.118 275.286 103.118 277.365 103.041C279.329 102.964 281.292 102.81 283.256 102.618C284.411 102.502 285.72 102.541 286.605 101.655C288.569 99.7301 288.607 96.0726 288.107 93.6471C287.953 92.9156 286.836 93.2236 286.99 93.9551C287.26 95.2641 287.337 96.5731 287.067 97.9206C286.682 99.8071 286.143 101.039 284.026 101.424C281.562 101.886 278.79 101.886 276.287 101.925C273.823 101.963 271.051 102.079 268.626 101.501C266.393 100.962 266.97 95.9571 266.97 94.1091C266.932 93.3776 265.777 93.3776 265.777 94.1091Z" fill="#161616"/>
<path d="M266.161 52.6446C270.781 55.5321 274.285 59.7671 276.248 64.8491C276.518 65.5421 277.634 65.2341 277.365 64.5411C275.286 59.1511 271.628 54.6851 266.777 51.6436C266.123 51.2201 265.545 52.2211 266.161 52.6446Z" fill="#161616"/>
<path d="M277.173 64.849C279.444 60.075 282.755 55.994 286.99 52.837C287.568 52.4135 286.99 51.374 286.413 51.836C282.024 55.1085 278.559 59.3435 276.172 64.2715C275.864 64.926 276.865 65.5035 277.173 64.849Z" fill="#161616"/>
<path d="M276.249 63.5015C276.826 71.4325 277.096 79.3635 276.98 87.2945C276.98 88.026 278.135 88.026 278.135 87.2945C278.251 79.3635 277.981 71.394 277.404 63.5015C277.327 62.7315 276.172 62.7315 276.249 63.5015Z" fill="#161616"/>
<path d="M231.165 82.9055C236.285 81.173 241.367 79.4405 246.488 77.708C247.181 77.477 246.873 76.3605 246.18 76.5915C241.059 78.324 235.977 80.0565 230.857 81.789C230.125 82.02 230.433 83.1365 231.165 82.9055Z" fill="#161616"/>
<path d="M237.017 75.2055C238.788 74.705 240.559 74.166 242.33 73.6655C243.023 73.473 242.754 72.3565 242.022 72.549C240.251 73.0495 238.48 73.5885 236.709 74.089C236.016 74.32 236.286 75.4365 237.017 75.2055Z" fill="#161616"/>
<path d="M224.197 62.3851C230.973 62.3081 237.71 62.5006 244.448 62.9241C245.179 62.9626 245.179 61.8076 244.448 61.7691C237.71 61.3456 230.934 61.1916 224.197 61.2301C223.465 61.2301 223.465 62.3851 224.197 62.3851Z" fill="#161616"/>
<path d="M238.519 57.149C240.136 57.5725 241.791 57.765 243.447 57.8035C244.178 57.8035 244.178 56.6485 243.447 56.6485C241.868 56.61 240.328 56.4175 238.827 56.0325C238.095 55.84 237.787 56.9565 238.519 57.149Z" fill="#161616"/>
<path d="M236.016 21.3055C242.061 26.503 247.566 32.201 252.533 38.438C252.995 39.0155 253.803 38.207 253.341 37.6295C248.374 31.3925 242.869 25.656 236.825 20.497C236.286 19.9965 235.439 20.805 236.016 21.3055Z" fill="#161616"/>
<path d="M252.917 32.2395C253.957 33.3175 254.958 34.3955 255.998 35.5121C256.498 36.0511 257.307 35.2426 256.806 34.7036C255.767 33.6256 254.766 32.5475 253.726 31.431C253.225 30.892 252.417 31.7005 252.917 32.2395Z" fill="#161616"/>
<path d="M229.471 34.3955C231.358 35.512 233.283 36.5515 235.246 37.514C235.901 37.8605 236.478 36.8595 235.824 36.513C233.86 35.512 231.935 34.4725 230.049 33.3945C229.394 33.0095 228.817 34.0105 229.471 34.3955Z" fill="#161616"/>
<path d="M296.461 25.6175C302.159 19.9195 307.857 14.2215 313.555 8.52354C314.094 7.98454 313.247 7.17605 312.747 7.71505C307.049 13.413 301.351 19.111 295.653 24.809C295.114 25.348 295.922 26.1565 296.461 25.6175Z" fill="#161616"/>
<path d="M302.198 28.274C303.661 27.196 305.124 26.1565 306.587 25.0785C307.164 24.655 306.625 23.654 306.009 24.0775C304.546 25.1555 303.083 26.195 301.62 27.273C301.004 27.6965 301.582 28.6975 302.198 28.274Z" fill="#161616"/>
<path d="M278.674 18.0715C279.829 12.489 280.715 6.86804 281.254 1.20854C281.331 0.477037 280.176 0.477037 280.099 1.20854C279.56 6.75254 278.713 12.2965 277.558 17.7635C277.404 18.495 278.52 18.803 278.674 18.0715Z" fill="#161616"/>
<path d="M311.053 53.4915C321.525 52.529 331.958 51.5665 342.43 50.604C343.162 50.527 343.162 49.372 342.43 49.449C331.958 50.4115 321.525 51.374 311.053 52.3365C310.321 52.375 310.283 53.53 311.053 53.4915Z" fill="#161616"/>
<path d="M267.047 89.258C273.554 90.6825 280.176 90.644 286.644 89.181C287.375 89.027 287.067 87.9105 286.336 88.0645C280.06 89.489 273.631 89.5275 267.355 88.1415C266.624 87.9875 266.316 89.104 267.047 89.258Z" fill="#161616"/>
<path d="M268.01 99.037C272.976 99.6915 277.943 99.8455 282.948 99.499C283.679 99.4605 283.679 98.3055 282.948 98.344C277.943 98.6905 272.976 98.5365 268.01 97.882C267.278 97.805 267.278 98.96 268.01 99.037Z" fill="#161616"/>
<path d="M303.776 85.3696C311.592 90.8751 319.561 96.1881 327.646 101.309C328.262 101.694 328.84 100.693 328.224 100.308C320.139 95.1871 312.169 89.8741 304.354 84.3686C303.738 83.9451 303.16 84.9461 303.776 85.3696Z" fill="#161616"/>
<path d="M205.408 356.178C198.093 365.149 190.817 374.081 183.502 383.051C192.087 413.235 196.938 421.166 199.826 420.743C201.905 420.435 202.906 415.93 204.022 410.887C206.794 398.297 205.139 387.479 203.445 380.741C208.065 375.582 212.646 370.385 217.266 365.226C213.301 362.223 209.374 359.22 205.408 356.178Z" fill="#161616" stroke="#161616" stroke-width="2" stroke-miterlimit="10"/>
<path d="M178.42 309.978C183.002 313.52 187.391 312.25 196.477 313.79C204.215 315.099 212.916 317.986 222.156 323.761C212.3 335.311 202.444 347.516 192.665 360.375C190.317 363.493 187.968 366.612 185.697 369.73C189.47 370.616 194.013 372.002 198.941 374.235C203.753 376.391 207.68 378.816 210.798 381.011C225.467 368.229 238.557 355.87 250.222 344.205C255.612 338.815 263.235 330.576 264.429 318.91C264.506 318.256 264.506 317.678 264.506 317.101C264.236 297.735 239.866 283.721 225.043 278.562C208.835 272.941 180.961 269.9 173.184 283.336C168.603 291.267 171.298 304.473 178.42 309.978Z" fill="#4C4C4C"/>
<path opacity="0.29" d="M206.871 290.613C206.602 294.271 205.947 298.621 204.6 303.434C203.637 306.86 202.482 309.902 201.327 312.481C200.057 312.982 198.825 313.482 197.554 313.983C205.832 317.255 214.148 320.528 222.425 323.8C216.265 330.846 210.067 338.238 203.83 345.938C197.4 353.869 191.279 361.646 185.465 369.307C189.585 370.655 193.666 372.002 197.785 373.311C212.531 357.064 227.276 340.779 242.022 324.532C243.562 320.104 243.485 316.639 243.023 314.214C240.905 302.356 226.391 292.692 206.871 290.613Z" fill="#282828"/>
<path opacity="0.24" d="M222.348 323.723C223.696 325.763 225.005 327.842 226.352 329.883C214.879 343.704 203.406 357.487 191.933 371.309C189.893 370.77 187.814 370.192 185.773 369.653C193.127 359.566 201.058 349.21 209.643 338.776C213.917 333.579 218.152 328.574 222.348 323.723Z" fill="#111111"/>
<path d="M184.041 341.548C195.399 343.627 206.795 345.668 218.152 347.747C231.281 376.391 232.744 385.631 230.28 387.209C228.509 388.326 224.813 385.554 220.693 382.435C210.375 374.62 204.639 365.303 201.52 359.027C194.667 358.103 187.814 357.141 180.961 356.217C181.962 351.327 183.002 346.438 184.041 341.548Z" fill="#161616" stroke="#161616" stroke-width="2" stroke-miterlimit="10"/>
<path d="M160.633 277.754C139.92 283.837 127.292 296.465 119.168 304.781C108.196 316.061 94.721 329.883 98.6095 340.085C100.612 345.283 106.694 348.478 135.031 353.406C156.437 357.141 174.994 359.143 189.47 360.259C191.279 353.637 193.089 347.054 194.86 340.432C180.307 335.735 165.792 331.076 151.239 326.379C160.171 324.493 169.565 322.26 179.344 319.526C186.775 317.447 193.859 315.291 200.596 313.02C206.833 300.43 208.181 286.84 201.674 279.14C192.588 268.36 172.222 274.327 160.633 277.754Z" fill="#4C4C4C"/>
<path opacity="0.29" d="M206.718 291.075C206.525 294.886 205.871 299.776 204.1 305.166C203.022 308.438 201.79 311.287 200.558 313.636C199.518 313.713 198.479 313.828 197.439 313.905C188.661 316.793 179.306 319.526 169.411 322.067C163.02 323.723 156.783 325.147 150.739 326.456C165.33 331.038 179.922 335.581 194.513 340.162C194.205 341.741 193.82 343.396 193.358 345.129C192.819 347.131 192.203 348.979 191.626 350.673C171.49 345.706 151.355 340.74 131.219 335.773C130.295 334.657 127.254 330.614 127.716 325.263C128.216 319.449 133.76 315.33 140.844 311.557C161.326 300.7 195.668 293.346 206.718 291.075Z" fill="#282828"/>
<path opacity="0.24" d="M140.382 327.265C144.04 326.995 147.736 326.726 151.393 326.418C165.754 331.192 180.114 336.004 194.475 340.778C193.859 343.05 193.243 345.36 192.627 347.631C175.225 340.817 157.784 334.041 140.382 327.265Z" fill="#111111"/>
<path d="M155.204 190.513C160.902 187.164 170.797 182.39 183.964 181.004C204.138 178.886 219.615 186.124 225.736 189.397C224.62 204.527 222.887 216.616 221.501 224.932C219.846 234.865 218.498 240.371 217.882 249.495C217.112 260.93 218.075 270.324 218.96 276.484C212.261 278.563 202.136 280.834 189.662 280.565C177.65 280.295 167.948 277.677 161.441 275.406C163.174 261.623 162.596 250.689 161.749 243.258C160.787 234.981 159.478 230.938 157.899 220.928C155.859 207.992 155.32 197.405 155.204 190.513Z" fill="white" stroke="#161616" stroke-width="2" stroke-miterlimit="10"/>
<path opacity="0.14" d="M196.861 185.585C197.67 188.511 198.594 192.553 199.21 197.404C199.633 200.677 201.366 215.499 195.976 235.057C192.665 247.108 189.161 259.851 177.688 270.323C173.992 273.711 170.412 275.983 167.794 277.407C173.607 278.909 181.192 280.333 190.162 280.41C201.905 280.526 211.607 278.408 218.344 276.329C217.959 273.442 217.459 269.091 217.266 263.855C217.112 259.274 217.112 251.959 220.269 231.361C222.772 215.153 224.543 208.184 225.428 193.516C225.544 191.822 225.582 190.397 225.659 189.435C222.849 187.779 219.191 185.97 214.687 184.507C210.529 183.159 206.794 182.466 203.714 182.158C201.481 183.275 199.171 184.43 196.861 185.585Z" fill="#6D6C6C"/>
<path opacity="0.17" d="M224.543 195.71C222.387 207.915 219.538 217.771 217.305 224.624C210.76 244.644 206.178 258.119 193.82 267.975C186.158 274.096 178.189 276.676 173.068 277.908C178.266 279.371 185.619 280.795 194.513 280.603C204.754 280.372 213.032 278.062 218.46 276.098C217.729 271.401 216.882 264.356 217.113 255.77C217.382 244.644 219.191 237.945 221.193 225.74C222.31 218.579 223.735 208.338 224.543 195.71Z" fill="#6D6C6C"/>
<path d="M154.974 190.321C149.969 193.786 143.539 199.253 137.918 207.376C125.252 225.779 125.598 245.299 126.099 252.498C128.409 258.697 132.374 266.82 139.304 274.79C143.347 279.448 149.276 286.147 159.401 290.459C162.789 291.922 165.754 292.731 167.91 293.193C169.758 291.537 171.567 289.882 173.415 288.226C167.486 281.296 161.519 274.02 155.551 266.512C150.97 260.776 146.581 255.078 142.346 249.457C142.5 244.721 143.501 236.136 148.66 227.165C151.586 222.083 155.012 218.387 157.746 215.885C156.822 207.376 155.898 198.868 154.974 190.321Z" fill="white" stroke="#161616" stroke-width="2" stroke-miterlimit="10"/>
<path opacity="0.13" d="M155.705 198.906C144.617 211.419 139.343 223.277 136.725 230.746C132.143 243.682 133.106 250.458 133.799 253.692C134.376 256.233 135.647 260.583 140.305 267.205C144.348 272.942 152.856 283.221 169.065 291.691C170.489 290.305 171.914 288.958 173.338 287.572C168.757 282.413 164.137 276.984 159.478 271.325C153.357 263.894 147.659 256.579 142.384 249.418C142.538 245.53 143.193 240.101 145.464 234.018C148.891 224.894 154.281 218.888 157.63 215.692C156.937 210.11 156.321 204.527 155.705 198.906Z" fill="#6D6C6C"/>
<path opacity="0.16" d="M142.345 249.919C143.038 254.423 144.463 260.16 147.466 266.358C154.088 279.833 164.444 287.264 169.719 290.498C170.758 289.574 171.759 288.688 172.799 287.764C162.635 275.136 152.509 262.508 142.345 249.919Z" fill="#6D6C6C"/>
<path d="M226.314 189.627C231.935 193.054 239.173 198.405 245.448 206.375C259.693 224.431 259.27 243.604 258.731 250.688C256.113 256.771 251.685 264.741 243.908 272.595C239.365 277.138 232.705 283.721 221.347 287.995C217.536 289.419 214.186 290.228 211.761 290.69C209.72 289.073 207.641 287.456 205.601 285.839C212.223 279.024 218.96 271.902 225.659 264.51C230.78 258.85 235.708 253.268 240.482 247.762C240.289 243.142 239.211 234.711 233.398 225.856C230.087 220.851 226.275 217.232 223.195 214.768C224.273 206.375 225.313 198.02 226.314 189.627Z" fill="white" stroke="#161616" stroke-width="2" stroke-miterlimit="10"/>
<path opacity="0.16" d="M226.045 198.983C230.934 204.103 237.594 212.304 242.792 223.738C245.256 229.167 249.26 237.983 249.337 246.299C249.606 271.594 213.802 288.996 211.723 289.997C209.682 288.688 207.68 287.417 205.64 286.108C217.228 273.403 228.778 260.698 240.367 247.993C240.136 243.835 239.173 236.097 234.553 227.858C230.741 221.082 226.006 216.693 222.888 214.267C223.966 209.185 225.005 204.103 226.045 198.983Z" fill="#6D6C6C"/>
<path opacity="0.12" d="M240.752 248.109C240.174 251.459 239.212 255.116 237.71 258.889C230.934 275.983 217.228 285.338 210.298 289.342C208.642 288.264 207.025 287.186 205.37 286.108C217.151 273.442 228.932 260.776 240.752 248.109Z" fill="#6D6C6C"/>
<path d="M235.169 250.958H140.498V310.902H235.169V250.958Z" fill="white" stroke="#161616" stroke-width="2" stroke-miterlimit="10"/>
<path d="M186.467 286.648C181.462 287.264 179.036 281.181 180.345 277.138C181.616 273.134 186.351 271.248 190.201 272.634C194.013 274.02 195.861 278.678 194.513 282.413C193.012 286.571 187.776 288.265 183.926 286.417C183.271 286.109 182.655 287.11 183.348 287.418C186.775 289.073 190.971 288.457 193.705 285.762C196.361 283.106 196.746 278.909 195.091 275.637C191.318 268.168 179.652 270.555 178.844 278.755C178.42 283.144 181.577 288.419 186.467 287.841C187.198 287.726 187.198 286.571 186.467 286.648Z" fill="#161616"/>
<path opacity="0.14" d="M176.033 250.804C188.854 255.27 197.593 266.705 197.863 278.986C198.209 294.386 185.273 308.862 167.64 310.325C190.086 310.518 212.531 310.71 235.015 310.903C234.938 290.806 234.899 270.709 234.822 250.65C215.226 250.65 195.63 250.727 176.033 250.804Z" fill="#6D6C6C"/>
<path opacity="0.26" d="M235.015 250.612C234.669 262.855 232.243 272.403 230.203 278.678C227.2 287.803 225.044 294.463 218.845 300.354C210.414 308.439 199.903 309.94 195.283 310.325C208.412 310.441 221.54 310.556 234.669 310.71C234.707 299.276 234.784 287.841 234.861 276.368C234.861 267.783 234.938 259.197 235.015 250.612Z" fill="#6D6C6C"/>
<path d="M185.042 159.443C182.925 162.023 184.965 165.18 184.58 173.611C184.388 177.808 183.695 181.196 183.156 183.467C184.965 184.314 188.161 185.508 192.28 185.623C197.362 185.739 201.212 184.16 203.099 183.236C202.252 181.542 201.135 178.924 200.442 175.536C198.71 166.912 201.79 162.87 199.249 159.674C196.284 155.978 187.891 155.94 185.042 159.443Z" fill="white" stroke="#161616" stroke-width="2" stroke-miterlimit="10"/>
<path d="M171.605 122.406C169.18 128.643 170.104 134.264 170.643 136.69C170.412 136.728 165.907 137.691 164.675 141.156C163.443 144.659 165.984 149.626 171.297 151.243C173.222 155.94 177.881 165.026 187.698 169.992C189.354 170.801 190.932 171.455 192.511 171.917C193.935 171.378 195.86 170.531 198.055 169.261C204.908 165.295 208.719 160.367 209.605 159.174C211.222 157.018 213.416 153.553 214.956 148.779C215.803 148.933 217.305 149.01 218.768 148.278C222.079 146.584 223.734 141.31 221.424 137.883C219.499 135.034 215.765 134.919 215.303 134.919C215.803 132.917 217.343 125.717 213.455 118.595C208.989 110.394 199.402 106.082 190.393 107.314C177.072 109.047 171.836 121.79 171.605 122.406Z" fill="white" stroke="#161616" stroke-width="2" stroke-miterlimit="10"/>
<path d="M184.542 169.646C186.89 171.032 189.47 173.188 192.357 172.957C194.744 172.764 197.4 171.378 199.21 169.915C199.787 169.453 198.979 168.645 198.401 169.107C196.708 170.454 193.974 171.879 191.741 171.84C189.392 171.802 187.006 169.838 185.081 168.645C184.503 168.26 183.926 169.261 184.542 169.646Z" fill="#161616"/>
<path d="M184.387 170.146C186.582 172.033 189.084 174.151 192.164 173.997C195.167 173.843 197.978 171.841 199.942 169.685C200.442 169.145 199.633 168.337 199.133 168.876C197.439 170.724 195.052 172.534 192.434 172.803C189.546 173.073 187.236 171.109 185.196 169.338C184.657 168.837 183.848 169.646 184.387 170.146Z" fill="#161616"/>
<path d="M185.85 170.378C185.85 170.339 185.85 170.339 185.85 170.378C185.619 170.031 185.196 169.954 184.926 170.224C184.926 170.224 184.926 170.224 184.888 170.262C184.657 170.455 184.657 170.878 184.888 171.071C189.123 175.113 196.9 176.422 199.941 170.224C200.249 169.569 199.287 168.953 198.94 169.646C196.245 175.19 189.431 173.843 185.735 170.262C185.735 170.532 185.735 170.801 185.735 171.071C185.735 171.071 185.735 171.071 185.773 171.032C185.465 170.994 185.157 170.955 184.849 170.917V170.955C185.234 171.571 186.235 170.994 185.85 170.378Z" fill="#161616"/>
<path d="M190.471 134.765C189.97 141.002 190.24 147.2 191.241 153.36C191.279 153.668 191.664 153.861 191.934 153.745C193.435 153.245 194.513 152.359 195.322 151.012C195.707 150.357 194.706 149.78 194.321 150.434C193.666 151.551 192.858 152.205 191.626 152.629C191.857 152.744 192.088 152.898 192.319 153.014C191.318 146.969 191.087 140.848 191.587 134.726C191.703 133.995 190.548 133.995 190.471 134.765Z" fill="#161616"/>
<path d="M183.618 140.886C183.695 141.233 184.272 143.389 183.618 143.735C182.963 144.082 181.115 142.696 180.538 140.886C180.076 139.346 180.461 137.421 181.192 137.267C181.962 137.075 183.156 139.192 183.618 140.886Z" fill="#161616" stroke="#161616" stroke-miterlimit="10"/>
<path d="M203.483 140.886C203.56 141.233 204.138 143.389 203.483 143.735C202.829 144.082 200.981 142.696 200.404 140.886C199.942 139.346 200.327 137.421 201.058 137.267C201.828 137.075 203.021 139.192 203.483 140.886Z" fill="#161616" stroke="#161616" stroke-miterlimit="10"/>
<path d="M189.085 158.442C193.782 160.444 198.055 157.634 201.52 154.592C202.098 154.092 201.251 153.283 200.712 153.784C197.709 156.402 193.859 159.212 189.701 157.441C188.969 157.172 188.392 158.173 189.085 158.442Z" fill="#161616"/>
<path d="M202.637 147.008C203.368 147.008 203.368 145.853 202.637 145.853C201.905 145.853 201.905 147.008 202.637 147.008Z" fill="#161616"/>
<path d="M206.91 144.852C206.948 144.813 206.987 144.775 207.025 144.736C207.256 144.505 207.256 144.159 207.025 143.928C206.794 143.697 206.448 143.697 206.217 143.928C206.178 143.966 206.14 144.005 206.101 144.043C205.87 144.274 205.87 144.621 206.101 144.852C206.332 145.083 206.679 145.083 206.91 144.852Z" fill="#161616"/>
<path d="M205.64 147.663C205.678 147.663 205.716 147.663 205.755 147.663C206.063 147.663 206.332 147.393 206.332 147.085C206.332 146.777 206.063 146.508 205.755 146.508C205.716 146.508 205.678 146.508 205.64 146.508C205.332 146.508 205.062 146.777 205.062 147.085C205.062 147.393 205.293 147.663 205.64 147.663Z" fill="#161616"/>
<path d="M179.075 133.995C180.538 132.763 182.694 132.724 184.157 133.918C184.734 134.38 185.543 133.571 184.965 133.109C182.963 131.492 180.191 131.492 178.228 133.186C177.689 133.648 178.536 134.457 179.075 133.995Z" fill="#161616"/>
<path d="M197.863 133.571C199.518 132.108 201.867 131.839 203.83 132.878C204.484 133.225 205.062 132.224 204.407 131.877C201.982 130.568 199.095 130.915 197.054 132.763C196.477 133.263 197.285 134.072 197.863 133.571Z" fill="#161616"/>
<path d="M179.383 146.892C180.114 146.892 180.114 145.737 179.383 145.737C178.651 145.737 178.651 146.892 179.383 146.892Z" fill="#161616"/>
<path d="M183.464 146.353C184.195 146.353 184.195 145.198 183.464 145.198C182.732 145.198 182.732 146.353 183.464 146.353Z" fill="#161616"/>
<path d="M181.423 147.239C181.385 147.277 181.346 147.316 181.308 147.354C181.077 147.585 181.077 147.932 181.308 148.163C181.539 148.394 181.885 148.394 182.116 148.163C182.155 148.124 182.193 148.086 182.232 148.047C182.463 147.816 182.463 147.47 182.232 147.239C182.001 147.008 181.654 147.008 181.423 147.239Z" fill="#161616"/>
<path d="M177.881 109.894C175.571 111.318 170.527 114.437 167.101 120.828C163.674 127.18 163.713 133.186 163.867 135.766C158.246 145.891 155.705 154.823 154.473 160.906C152.471 170.57 153.549 174.112 154.935 176.46C158.323 182.235 165.138 183.66 166.793 184.006C175.302 185.816 182.078 181.465 183.618 180.464C184.041 179.194 184.465 177.615 184.696 175.844C185.119 172.803 184.888 170.185 184.542 168.298C182.617 166.72 180.384 164.602 178.228 161.83C174.955 157.595 173.107 153.437 172.068 150.434C168.68 150.088 166.139 147.778 165.908 145.198C165.677 142.773 167.37 139.654 169.603 139.654C171.259 139.654 172.452 141.348 172.683 141.656C173.954 140.925 175.725 139.654 177.304 137.652C179.575 134.765 179.96 132.185 181 129.49C182.001 126.872 183.926 123.253 188.084 119.48C192.088 120.905 195.283 122.291 197.478 123.33C204.523 126.603 208.527 128.528 211.646 132.724C213.378 135.034 214.264 137.306 214.726 138.73C218.306 135.997 219.769 136.728 220.077 136.882C222.349 138.153 222.272 145.121 218.73 147.046C217.382 147.778 215.842 147.585 214.88 147.354C213.763 151.243 211.299 157.595 205.64 163.216C203.753 165.103 201.828 166.566 200.096 167.682C199.942 169.107 199.865 171.07 200.25 173.38C200.596 175.498 201.212 177.23 201.79 178.462C211.145 184.622 222.772 183.506 229.086 176.884C234.707 170.955 234.707 161.984 232.59 155.863C230.665 150.28 226.93 146.931 225.082 145.468C225.583 143.312 228.355 130.53 220.308 118.787C218.229 115.746 212.416 108.392 201.944 105.851C190.856 103.156 181.731 107.545 177.881 109.894Z" fill="#191919"/>
<path opacity="0.17" d="M202.29 125.717C206.641 131.184 207.796 136.228 208.181 138.846C209.759 149.857 203.368 158.789 200.134 163.37C197.478 167.105 194.744 169.761 192.781 171.494C194.475 176.037 196.13 180.541 197.824 185.084C199.557 184.507 201.289 183.929 203.022 183.352C202.213 181.927 201.366 180.156 200.712 178C199.518 174.15 199.441 170.762 199.557 168.452C201.674 166.951 204.138 164.91 206.525 162.215C211.299 156.825 213.686 151.281 214.918 147.547C215.688 147.701 217.344 147.893 218.922 147.008C222.233 145.121 221.694 140.424 221.656 140.116C221.54 139.115 221.309 137.498 220.154 136.844C218.807 136.112 216.574 136.805 214.803 138.884C214.264 136.998 212.724 132.647 208.566 129.182C206.256 127.257 203.907 126.256 202.29 125.717Z" fill="#6D6C6C"/>
<path opacity="0.19" d="M191.01 135.111C190.779 135.073 190.009 138.422 187.66 153.206C189.008 153.206 190.355 153.206 191.703 153.206C191.433 151.243 191.125 148.394 190.971 144.929C190.779 139 191.241 135.15 191.01 135.111Z" fill="#6D6C6C"/>
<path opacity="0.54" d="M224.851 145.853C224.196 146.238 226.66 149.549 226.314 154.477C226.198 156.017 225.967 159.52 223.195 161.869C223.003 162.023 218.883 165.411 214.802 163.255C212.377 161.984 210.914 159.289 210.991 156.363C209.836 158.519 207.949 161.368 204.985 164.14C203.137 165.873 201.327 167.143 199.749 168.106C199.633 169.8 199.633 172.11 200.249 174.728C200.596 176.152 201.019 177.384 201.443 178.385C202.636 179.155 204.407 180.195 206.717 181.003C208.18 181.504 216.227 184.314 224.081 180.426C225.467 179.733 228.547 178.154 230.78 174.766C231.049 174.343 232.05 172.841 232.782 170.3C235.4 161.599 231.55 153.745 231.203 153.091C229.086 148.817 225.659 145.391 224.851 145.853Z" fill="#282828"/>
<path opacity="0.35" d="M172.029 150.588C171.683 150.627 172.452 153.784 171.606 156.902C170.99 159.212 169.026 162.985 165.677 163.755C162.173 164.525 157.823 161.946 155.821 157.133C154.897 159.251 153.665 162.639 153.472 166.951C153.357 169.761 153.203 172.764 154.589 175.729C157.707 182.351 166.87 184.931 173.685 184.315C178.228 183.891 181.654 182.12 183.502 180.926C183.964 179.617 184.426 178.039 184.734 176.229C185.235 173.111 185.119 170.377 184.85 168.375C181.808 166.181 179.729 163.909 178.42 162.254C176.572 159.905 174.07 156.748 172.799 152.359C172.607 151.859 172.26 150.55 172.029 150.588Z" fill="#282828"/>
</svg>
