<svg width="66" height="53" viewBox="0 0 66 53" fill="none" xmlns="http://www.w3.org/2000/svg">
<path d="M5.15625 0.21875C2.57812 0.21875 0.515625 2.28125 0.515625 4.85938V26C0.515625 28.5781 2.57812 30.6406 5.15625 30.6406H60.8438C63.4219 30.6406 65.4844 28.5781 65.4844 26V4.85938C65.4844 2.28125 63.4219 0.21875 60.8438 0.21875H5.15625ZM5.15625 3.3125H60.8438C61.7203 3.3125 62.3906 3.98281 62.3906 4.85938V26C62.3906 26.8766 61.7203 27.5469 60.8438 27.5469H5.15625C4.27969 27.5469 3.60938 26.8766 3.60938 26V4.85938C3.60938 3.98281 4.27969 3.3125 5.15625 3.3125ZM9.79688 13.1094C8.92031 13.1094 8.25 13.7797 8.25 14.6562C8.25 15.5328 8.92031 16.2031 9.79688 16.2031H56.2031C57.0797 16.2031 57.75 15.5328 57.75 14.6562C57.75 13.7797 57.0797 13.1094 56.2031 13.1094H9.79688ZM9.79688 20.3281C8.92031 20.3281 8.25 20.9984 8.25 21.875C8.25 22.7516 8.92031 23.4219 9.79688 23.4219H56.2031C57.0797 23.4219 57.75 22.7516 57.75 21.875C57.75 20.9984 57.0797 20.3281 56.2031 20.3281H9.79688ZM17.5534 37.8231C16.9516 37.811 16.3715 38.1692 16.1395 38.7879L13.5613 44.7176C13.2004 45.491 13.5611 46.4183 14.3861 46.7277C14.5924 46.8308 14.7982 46.8315 15.0045 46.8315C15.6232 46.8315 16.1908 46.4701 16.4486 45.9029L19.0268 39.9732C19.2846 39.2514 18.923 38.323 18.1496 37.9621C17.9562 37.8719 17.754 37.8271 17.5534 37.8231ZM27.8448 37.8322C27.1313 37.8385 26.4773 38.3238 26.2969 39.0457L23.7188 50.9051C23.5125 51.7301 24.0801 52.5549 24.9051 52.7611C25.0598 52.8127 25.1625 52.8125 25.2656 52.8125C25.9875 52.8125 26.6065 52.2967 26.7611 51.5748L29.3393 39.7154C29.5455 38.8904 28.9779 38.0656 28.1529 37.8594C28.0498 37.84 27.9467 37.8313 27.8448 37.8322ZM38.1039 37.8322C38.002 37.8313 37.8988 37.84 37.7957 37.8594C36.9707 38.0656 36.4547 38.8389 36.6094 39.7154L39.1875 51.5748C39.3937 52.2967 40.0125 52.8125 40.7344 52.8125C40.8375 52.8125 40.9404 52.8127 41.0435 52.7611C41.8685 52.5549 42.3846 51.7817 42.2299 50.9051L39.6518 39.0457C39.4713 38.3238 38.8173 37.8385 38.1039 37.8322ZM48.4909 37.9037C48.2943 37.9013 48.0951 37.9371 47.9018 38.0145C47.1283 38.3754 46.7676 39.2512 47.077 40.0246L49.6551 45.9543C49.8613 46.5215 50.4281 46.8828 51.0469 46.8828C51.2531 46.8828 51.459 46.8317 51.6652 46.7801C52.4387 46.4192 52.8004 45.5424 52.491 44.769L49.9129 38.8393C49.6422 38.2592 49.0807 37.9109 48.4909 37.9037Z" fill="#272929"/>
</svg>
