<svg width="501" height="394" viewBox="0 0 501 394" fill="none" xmlns="http://www.w3.org/2000/svg">
<path d="M128.637 146.244C130.663 149.933 130.699 154.309 128.745 158.034C128.42 158.649 129.361 159.191 129.686 158.577C131.821 154.49 131.785 149.716 129.578 145.701C129.216 145.05 128.311 145.629 128.637 146.244Z" fill="#161616"/>
<path d="M129.976 146.425C131.206 145.81 132.654 145.05 134.065 145.376C136.164 145.81 136.236 147.51 136.381 149.246C136.526 151.56 136.417 154.02 134.897 155.9C134.463 156.443 135.223 157.202 135.657 156.66C137.756 154.092 138.009 150.078 137.213 146.931C136.2 143.134 132.075 144.182 129.469 145.484C128.818 145.774 129.361 146.714 129.976 146.425Z" fill="#161616"/>
<path d="M129.976 158.794C132.002 159.047 134.029 158.251 135.368 156.696C135.802 156.154 135.042 155.394 134.608 155.937C133.45 157.311 131.785 157.962 129.976 157.745C129.288 157.636 129.288 158.721 129.976 158.794Z" fill="#161616"/>
<path d="M129.65 98.6124C130.12 97.7082 131.423 95.2489 132.871 97.5274C133.124 97.889 133.124 98.9017 133.196 99.2634C133.341 100.023 133.594 100.819 134.137 101.397C135.947 103.278 137.213 100.204 139.095 101.216C141.483 102.482 138.371 105.159 140.325 106.641C140.796 107.003 141.339 107.003 141.881 106.786C142.243 106.641 142.533 106.316 142.895 106.135C144.234 105.556 144.704 106.75 144.813 107.799C144.849 108.124 145.03 108.305 145.355 108.341C145.753 108.377 146.115 108.414 146.513 108.45C147.201 108.522 147.201 107.437 146.513 107.365C146.115 107.329 145.753 107.292 145.355 107.256C145.536 107.437 145.717 107.618 145.898 107.799C145.79 106.822 145.609 105.556 144.704 104.978C143.727 104.327 143.076 104.905 142.171 105.339C141.737 105.556 141.375 106.28 140.76 105.412C140.542 105.086 141.013 104.074 141.085 103.712C141.23 103.133 141.302 102.627 141.121 102.048C140.832 101.144 140.036 100.385 139.131 100.095C138.009 99.6974 137.467 100.168 136.453 100.457C135.549 100.71 134.644 100.638 134.318 99.6612C134.21 99.2995 134.173 98.8655 134.137 98.5039C134.029 97.9252 133.956 97.3104 133.667 96.7679C132.183 94.0554 129.614 96.3339 128.709 98.1784C128.383 98.6847 129.324 99.2272 129.65 98.6124Z" fill="#161616"/>
<path d="M136.67 95.2488C137.539 94.417 138.335 94.0553 139.276 94.851C140.036 95.502 139.891 95.719 140.108 96.587C140.253 97.0933 140.398 97.5635 140.832 97.9252C141.375 98.3953 141.99 98.3953 142.678 98.323C143.329 98.2507 144.089 97.8167 144.632 98.5038C144.885 98.8293 144.849 99.5527 144.849 99.9505C144.885 101.036 144.885 102.338 146.115 102.735C146.477 102.844 146.875 102.663 147.201 102.772C147.635 102.591 147.816 102.699 147.852 103.169C147.997 103.459 148.069 103.748 148.033 104.11C148.214 104.942 148.54 105.556 149.191 106.135C149.698 106.605 150.458 105.846 149.951 105.376C148.866 104.363 149.626 102.952 148.721 102.048C147.78 101.108 146.296 102.482 145.971 100.746C145.717 99.408 146.224 97.5997 144.451 97.1295C143.184 96.804 141.845 98.0698 141.158 96.3338C140.868 95.6105 140.977 94.8148 140.47 94.1277C139.276 92.5725 137.068 93.3682 135.874 94.4893C135.368 94.9595 136.164 95.7552 136.67 95.2488Z" fill="#161616"/>
<path d="M269.985 162.483C268.9 162.374 270.528 160.24 270.854 160.06C271.722 159.589 272.735 159.843 273.387 160.53C274.798 162.049 273.604 164.291 271.686 164.508C270.998 164.58 270.998 165.665 271.686 165.593C273.278 165.412 274.69 164.363 275.051 162.772C275.413 161.217 274.472 159.553 273.025 158.938C271.614 158.36 270.058 158.902 269.225 160.168C268.501 161.253 268.321 163.423 270.021 163.568C270.673 163.64 270.673 162.555 269.985 162.483Z" fill="#161616"/>
<path d="M262.675 160.276C261.915 159.589 262.82 158.215 263.689 158.974C264.593 159.734 263.363 160.783 262.531 160.168C261.988 159.734 261.445 160.674 261.988 161.108C262.748 161.687 263.906 161.506 264.593 160.819C265.389 160.023 265.208 158.794 264.376 158.106C263.544 157.419 262.35 157.455 261.698 158.36C261.119 159.155 261.192 160.313 261.915 161C262.422 161.506 263.218 160.747 262.675 160.276Z" fill="#161616"/>
<path d="M388.21 113.802C388.572 120.529 385.206 127.003 379.525 130.62C378.946 130.982 379.489 131.922 380.068 131.56C386.075 127.763 389.657 120.927 389.295 113.802C389.259 113.115 388.174 113.115 388.21 113.802Z" fill="#161616"/>
<path d="M388.933 114.598C392.407 117.13 390.996 121.723 389.078 124.725C387.269 127.582 384.338 130.981 380.574 130.403C379.887 130.294 379.597 131.343 380.285 131.452C384.808 132.103 388.246 128.305 390.345 124.761C392.444 121.253 393.24 116.406 389.476 113.658C388.897 113.26 388.354 114.2 388.933 114.598Z" fill="#161616"/>
<path d="M84.3071 82.4096C86.5869 86.171 87.962 90.3301 88.2877 94.7063C88.3601 95.3935 89.4457 95.3935 89.3733 94.7063C89.0115 90.1131 87.6363 85.8093 85.248 81.8671C84.8499 81.2523 83.909 81.7948 84.3071 82.4096Z" fill="#E8E8E8"/>
<path d="M88.722 81.2163C90.6037 84.6159 91.6532 88.3049 91.9065 92.1748C91.9427 92.8619 93.0283 92.8619 92.9921 92.1748C92.7388 88.1241 91.617 84.2543 89.6629 80.6738C89.3372 80.0589 88.3963 80.6014 88.722 81.2163Z" fill="#E8E8E8"/>
<path d="M84.0176 89.3536C87.1659 87.2921 90.7123 86.2071 94.512 86.1348C95.1995 86.1348 95.1995 85.0498 94.512 85.0498C90.5675 85.1221 86.804 86.2795 83.4748 88.4495C82.8958 88.8111 83.4386 89.7515 84.0176 89.3536Z" fill="#E8E8E8"/>
<path d="M83.909 93.7661C87.8535 91.3791 92.1598 89.8601 96.7194 89.1729C97.407 89.0644 97.1175 88.0156 96.4299 88.1241C91.7617 88.8112 87.383 90.4026 83.3662 92.8257C82.7872 93.1874 83.33 94.1277 83.909 93.7661Z" fill="#E8E8E8"/>
<path d="M296.402 111.596C294.737 112.428 294.086 114.598 295.497 116.009C296.257 116.768 296.909 116.551 297.813 116.84C298.392 117.021 299.044 117.383 298.935 117.962C298.863 118.359 298.465 118.685 298.248 119.01C297.886 119.481 297.451 120.023 297.307 120.602C297.162 121.289 297.343 121.976 297.886 122.446C298.682 123.133 299.731 122.699 300.6 123.133C302.409 124.001 299.116 127.799 301.903 128.522C302.59 128.703 302.88 127.654 302.192 127.473C301.034 127.184 302.482 124.978 302.59 124.291C302.662 123.676 302.554 123.061 302.083 122.627C300.853 121.434 297.234 122.699 299.08 119.661C299.659 118.721 300.708 117.564 300.021 116.334C299.804 115.936 299.442 115.719 299.008 115.611C298.573 115.538 297.886 115.611 297.451 115.575C295.534 115.466 295.316 113.332 296.945 112.5C297.56 112.247 297.017 111.307 296.402 111.596Z" fill="#E8E8E8"/>
<path d="M304.436 117.672C303.241 118.142 303.205 119.444 303.929 120.421C304.399 121.108 305.159 121.253 305.775 121.723C307.294 122.844 305.956 123.784 305.702 125.086C305.268 127.329 307.656 126.569 308.344 128.016C308.923 129.209 308.706 130.547 310.19 131.09C310.841 131.343 311.13 130.294 310.479 130.041C309.43 129.679 309.574 127.69 308.995 126.895C308.814 126.605 308.561 126.424 308.308 126.207C308.163 126.099 307.946 126.135 307.837 126.063C307.584 126.027 307.403 125.846 307.331 125.484C306.824 125.159 306.752 124.833 307.186 124.471C307.512 123.459 308.163 122.844 307.475 121.795C307.222 121.397 306.752 121.108 306.354 120.855C306.028 120.638 303.676 119.191 304.761 118.757C305.377 118.468 305.087 117.419 304.436 117.672Z" fill="#E8E8E8"/>
<path d="M374.35 190.693C371.708 188.812 372.142 184.87 375.001 183.423C377.173 182.338 380.14 183.351 381.262 185.485C382.384 187.619 381.406 190.62 379.271 191.742C377.028 192.899 374.241 191.886 372.975 189.825C372.613 189.246 371.672 189.789 372.034 190.367C373.662 193.08 377.426 194.273 380.212 192.465C382.854 190.729 383.686 186.714 381.732 184.183C379.814 181.723 375.978 181.145 373.554 183.134C370.731 185.412 370.948 189.572 373.843 191.669C374.386 192.031 374.929 191.091 374.35 190.693Z" fill="#E8E8E8"/>
<path d="M124.584 201.109C124.982 199.807 125.561 199.445 126.248 200.06C126.429 200.132 126.61 200.241 126.755 200.313C127.008 200.385 127.334 200.458 127.587 200.422C128.13 200.349 128.564 200.024 128.818 199.59C129.722 198.143 128.709 196.733 127.804 195.611C127.334 195.069 126.466 194.346 126.574 193.514C126.719 191.922 127.66 192.573 128.456 192.465C129.035 192.393 129.541 192.176 129.831 191.633C130.12 191.163 130.048 190.548 129.976 190.042C129.94 189.752 129.831 189.427 129.831 189.138C129.578 188.378 129.94 187.908 130.917 187.727C131.387 188.053 131.785 188.45 132.111 188.957C132.509 189.535 133.45 188.993 133.052 188.414C132.075 187.04 129.18 185.159 128.709 188.016C128.492 189.463 129.831 190.982 127.696 191.344C126.646 191.525 125.923 191.525 125.597 192.754C125.308 193.767 125.706 194.743 126.321 195.539C126.61 195.901 126.936 196.226 127.225 196.552C127.587 196.913 127.841 197.311 128.022 197.781C127.587 198.215 127.189 198.649 126.755 199.083C126.429 199.156 125.597 198.469 125.127 198.432C123.028 198.288 121.906 201.109 124.005 202.013C124.692 202.302 125.235 201.362 124.584 201.109Z" fill="#E8E8E8"/>
<path d="M133.414 199.553C132.835 198.613 131.93 197.166 132.328 195.973C132.617 195.069 133.848 194.671 134.391 193.948C135.223 192.826 135.114 191.344 134.354 190.222C134.21 190.512 134.029 190.765 133.884 191.054C135.947 191.199 137.684 189.969 138.299 187.98C138.516 187.293 137.467 187.04 137.249 187.691C136.779 189.21 135.476 190.078 133.884 189.969C133.486 189.933 133.196 190.439 133.414 190.801C133.884 191.488 134.065 192.465 133.594 193.224C133.16 193.875 132.581 193.911 132.111 194.382C131.677 194.816 131.387 195.25 131.278 195.901C130.989 197.383 131.785 198.866 132.509 200.096C132.835 200.711 133.775 200.168 133.414 199.553Z" fill="#E8E8E8"/>
<path d="M243.93 12.6803C245.848 14.8865 247.042 17.4543 247.549 20.3115C247.657 20.9987 248.707 20.7093 248.598 20.0222C248.056 16.9842 246.717 14.2355 244.69 11.8847C244.22 11.3783 243.46 12.1378 243.93 12.6803Z" fill="#E8E8E8"/>
<path d="M244.871 12.7889C246.101 11.6677 251.023 7.25537 252.832 8.52121C253.737 9.17221 254.533 10.655 255.112 11.6315C255.836 12.8612 256.415 14.1632 256.885 15.5014C257.102 16.1524 258.152 15.863 257.935 15.212C257.32 13.5122 256.56 11.8485 255.583 10.3295C254.967 9.35304 254.026 7.68937 252.905 7.21921C251.638 6.67671 250.082 7.79787 249.033 8.41271C247.259 9.42537 245.631 10.655 244.111 12.0294C243.604 12.4995 244.364 13.259 244.871 12.7889Z" fill="#E8E8E8"/>
<path d="M248.707 20.9987C251.53 18.6117 254.605 16.6587 258.007 15.1759C258.658 14.8865 258.079 13.9462 257.464 14.2355C253.99 15.7545 250.842 17.7799 247.947 20.2392C247.404 20.6732 248.164 21.4327 248.707 20.9987Z" fill="#E8E8E8"/>
<path d="M255.004 10.7997C256.379 9.64232 259.455 6.71282 261.155 8.62965C262.386 10.004 263.182 12.2463 263.906 13.91C264.195 14.561 265.136 13.9823 264.847 13.3675C264.159 11.8123 263.435 10.3295 262.567 8.88282C262.132 8.12332 261.59 6.96599 260.685 6.64049C259.636 6.27882 258.514 7.03832 257.681 7.54465C256.451 8.26799 255.329 9.09982 254.244 10.004C253.701 10.5103 254.497 11.2698 255.004 10.7997Z" fill="#E8E8E8"/>
<path d="M252.326 17.4182C254.026 18.1777 255.474 19.1904 256.813 20.4924C257.066 20.7455 257.464 20.6732 257.681 20.3839C259.274 18.1054 261.373 16.3694 263.906 15.1759C264.557 14.8865 263.978 13.9462 263.363 14.2355C260.649 15.5014 258.441 17.382 256.741 19.8052C257.03 19.769 257.32 19.7329 257.609 19.6967C256.234 18.3224 254.678 17.2735 252.905 16.4779C252.217 16.2247 251.674 17.1289 252.326 17.4182Z" fill="#E8E8E8"/>
<path d="M260.215 57.6355C260.142 57.2376 260.034 56.8398 259.961 56.442C260.287 56.1165 260.613 55.8271 261.011 55.6101C261.228 55.4655 261.481 55.3208 261.698 55.14C262.132 54.7783 262.422 54.4166 262.639 53.9103C262.892 53.2593 262.82 52.6445 262.748 51.9573C262.711 51.7403 262.675 51.4871 262.639 51.2701C262.603 51.017 262.748 48.0875 263.906 49.0278C264.448 49.4618 265.208 48.7023 264.666 48.2683C263.869 47.6173 263.037 47.7258 262.313 48.413C261.083 49.6065 261.662 51.017 261.734 52.4636C261.843 54.6336 259.02 54.7421 258.767 56.7313C258.658 57.6355 259.02 58.4673 259.961 58.6481C260.613 58.7928 260.902 57.744 260.215 57.6355Z" fill="#161616"/>
<path d="M264.195 54.6337C265.064 55.3209 266.294 54.8145 266.475 53.6934C266.656 52.7169 266.005 51.8127 266.077 50.8362C266.185 49.498 267.09 48.3407 268.321 47.8705C268.972 47.6174 268.682 46.5685 268.031 46.8217C266.837 47.2557 265.896 48.0514 265.389 49.2449C265.136 49.7874 264.991 50.4022 264.991 51.017C264.991 51.3064 265.027 51.5957 265.064 51.8489C265.064 51.8489 265.606 54.3444 264.991 53.838C264.412 53.4402 263.652 54.1997 264.195 54.6337Z" fill="#161616"/>
<path d="M170.831 173.984C170.18 173.622 170.108 172.79 170.578 172.248C171.049 171.705 171.917 171.488 172.605 171.597C173.184 171.705 173.835 171.994 174.088 172.573C174.378 173.224 173.944 174.345 173.075 174.237C172.387 174.128 172.098 175.177 172.786 175.286C174.016 175.466 175.102 174.635 175.282 173.369C175.5 172.031 174.414 170.946 173.184 170.62C171.917 170.258 170.325 170.656 169.565 171.814C168.877 172.862 169.167 174.345 170.325 174.924C170.904 175.249 171.447 174.309 170.831 173.984Z" fill="#161616"/>
<path d="M113.655 45.9898C113.872 45.2665 114.089 44.507 114.27 43.7837C114.487 43.856 114.705 43.9283 114.922 44.0007C115.211 44.0368 115.501 44.2177 115.79 44.29C116.188 44.3985 116.659 44.4347 117.057 44.3262C117.998 44.0007 118.287 43.0965 118.287 42.1923C118.287 41.2882 117.961 40.3117 118.685 39.5883C119.264 39.0097 120.241 38.7927 121.001 38.9735C123.498 39.5522 123.245 42.6987 122.159 44.3985C121.797 44.9772 122.738 45.5197 123.1 44.941C124.294 43.0242 124.584 40.1308 122.63 38.5757C121.182 37.4183 118.721 37.6353 117.6 39.1543C116.84 40.167 117.346 41.0712 117.129 42.2285C116.767 44.1453 114.053 42.3732 112.823 42.8072C110.507 43.639 111.194 46.5685 113.257 47.111C114.017 47.2195 114.307 46.1707 113.655 45.9898Z" fill="#161616"/>
<path d="M349.019 204.617C349.779 204.038 350.611 204.002 351.516 204.472C351.914 204.689 352.456 204.328 352.312 203.857C351.986 203.206 352.058 202.628 352.601 202.121C352.855 201 353.434 200.928 354.302 201.868C354.555 202.375 355.279 202.085 355.315 201.579C355.315 201.109 355.351 200.602 355.424 200.132C355.532 198.975 356.292 198.686 357.631 199.228C357.921 199.879 358.825 199.3 358.572 198.686C358.138 197.673 356.98 197.347 355.967 197.745C354.447 198.36 354.266 200.168 354.23 201.579C354.555 201.47 354.917 201.398 355.243 201.29C354.736 200.205 353.434 199.807 352.348 200.349C350.973 201.073 350.9 202.772 351.262 204.111C351.516 203.894 351.805 203.713 352.058 203.496C350.828 202.881 349.67 202.917 348.476 203.64C347.897 204.038 348.44 204.979 349.019 204.617Z" fill="#EC615B"/>
<path d="M320.901 54.7783C318.947 55.357 317.572 57.0206 317.318 59.0821C317.065 61.0351 318.223 63.4583 320.394 63.6753C321.987 63.82 323.579 62.0116 322.602 60.5288C321.552 58.9013 319.526 60.0948 318.694 61.2521C316.341 64.6156 318.44 71.198 323.289 69.6428C324.628 69.2088 326.293 67.5813 325.533 66.0261C324.592 64.1093 322.493 66.1708 321.95 67.2558C320.829 69.4981 320.539 72.717 322.855 74.3083C324.664 75.538 327.161 74.7423 327.74 72.6085C327.885 72.1383 327.198 71.632 326.836 72.066C324.339 75.2125 326.257 79.5525 330.31 79.6971C330.997 79.7333 330.997 78.6483 330.31 78.6121C327.27 78.5036 325.678 75.2486 327.596 72.8616C327.306 72.6808 326.98 72.5 326.691 72.3191C326.148 74.3806 323.615 74.0551 322.638 72.5361C321.769 71.1256 322.059 69.2088 322.855 67.7983C323.036 67.4366 324.013 65.7368 324.592 66.8218C324.882 67.4005 323.796 68.2323 323.434 68.4493C322.312 69.0641 320.829 68.8833 319.96 67.943C319.055 67.0026 318.766 65.556 318.874 64.2901C318.947 63.603 319.092 62.8073 319.417 62.2286C319.562 62.0116 319.743 61.7946 319.888 61.5776C320.792 60.7096 320.756 60.9628 319.743 62.3733C319.019 62.4456 318.404 60.4565 318.368 59.9863C318.332 59.5161 318.404 59.046 318.513 58.612C318.874 57.2738 319.852 56.2611 321.19 55.8633C321.878 55.6463 321.588 54.5975 320.901 54.7783Z" fill="#161616"/>
<path d="M126.212 76.8762C125.923 76.0082 126.067 75.1764 126.719 74.4892C127.443 73.7297 128.311 73.8382 129.216 73.9829C129.867 74.0914 130.374 74.1637 130.989 73.802C131.459 73.5127 131.785 72.9702 132.002 72.5C132.147 72.1384 132.256 71.7767 132.328 71.415C132.364 71.1619 132.436 70.9087 132.473 70.6917C132.545 69.8237 133.16 69.462 134.282 69.6067C134.246 70.2577 135.151 70.2939 135.331 69.7514C135.621 68.9195 135.983 68.0515 136.743 67.5452C137.865 66.7857 139.457 66.9304 139.674 68.4855C139.783 69.1727 140.796 68.8834 140.723 68.1962C140.506 66.7134 139.095 65.773 137.611 65.99C135.802 66.2432 134.825 67.943 134.318 69.4982C134.68 69.5344 135.042 69.6067 135.368 69.6429C135.44 68.5579 134.427 67.8707 133.377 68.0154C131.677 68.2324 131.604 70.1492 131.242 71.415C130.989 72.3192 130.772 73.0064 129.505 72.9702C129.143 72.9702 128.709 72.717 128.311 72.717C127.624 72.717 126.936 72.9702 126.393 73.368C125.199 74.2722 124.692 75.7912 125.163 77.2017C125.38 77.8165 126.429 77.5634 126.212 76.8762Z" fill="#383838"/>
<path d="M328.79 111.958C331.388 111.958 333.494 109.707 333.494 106.931C333.494 104.154 331.388 101.904 328.79 101.904C326.192 101.904 324.085 104.154 324.085 106.931C324.085 109.707 326.192 111.958 328.79 111.958Z" fill="#A9A9AA"/>
<path d="M74.3193 113.079C76.0381 113.079 77.4315 111.703 77.4315 110.005C77.4315 108.307 76.0381 106.931 74.3193 106.931C72.6006 106.931 71.2072 108.307 71.2072 110.005C71.2072 111.703 72.6006 113.079 74.3193 113.079Z" fill="#A9A9AA"/>
<path d="M120.386 244.002C121.825 244.002 122.992 242.739 122.992 241.181C122.992 239.623 121.825 238.36 120.386 238.36C118.947 238.36 117.781 239.623 117.781 241.181C117.781 242.739 118.947 244.002 120.386 244.002Z" fill="#A9A9AA"/>
<path d="M323.326 118.215C326.343 118.215 328.79 115.899 328.79 113.043C328.79 110.187 326.343 107.871 323.326 107.871C320.308 107.871 317.861 110.187 317.861 113.043C317.861 115.899 320.308 118.215 323.326 118.215Z" fill="#444343"/>
<path d="M215.161 7.11068C216.7 7.11068 217.948 5.71814 217.948 4.00035C217.948 2.28256 216.7 0.890015 215.161 0.890015C213.622 0.890015 212.375 2.28256 212.375 4.00035C212.375 5.71814 213.622 7.11068 215.161 7.11068Z" fill="#444343"/>
<path d="M368.089 172.899C370.248 172.899 371.998 170.956 371.998 168.559C371.998 166.162 370.248 164.219 368.089 164.219C365.931 164.219 364.181 166.162 364.181 168.559C364.181 170.956 365.931 172.899 368.089 172.899Z" fill="#444343"/>
<path d="M63.3907 150.475C67.7077 150.475 71.2072 146.897 71.2072 142.483C71.2072 138.068 67.7077 134.49 63.3907 134.49C59.0738 134.49 55.5742 138.068 55.5742 142.483C55.5742 146.897 59.0738 150.475 63.3907 150.475Z" fill="#444343"/>
<path d="M117.853 355.36C110.833 344.799 101.424 333.298 102.654 319.844C102.473 320.025 102.292 320.206 102.111 320.386C103.197 320.35 104.138 320.531 105.151 320.965C105.549 321.146 106.128 320.857 105.947 320.35C105.585 319.338 104.934 318.759 104.21 317.999C102.871 316.589 102.763 315.142 102.835 313.298C102.944 310.368 102.437 307.692 101.207 305.016C101.098 305.269 100.99 305.558 100.881 305.811C101.822 305.486 102.763 305.16 103.704 304.835C103.957 304.726 104.174 304.473 104.065 304.184C101.749 297.457 102.907 289.898 103.414 282.99C103.957 275.612 104.681 268.27 105.549 260.928C105.26 261.073 105.006 261.254 104.717 261.399C109.566 264.509 112.171 269.825 114.198 274.997C116.514 280.892 118.504 286.896 120.169 293.008C123.643 305.594 125.742 318.578 126.466 331.634C126.864 338.904 126.827 346.209 126.357 353.479C126.321 354.166 127.406 354.166 127.443 353.479C129.143 326.716 125.054 299.41 115.139 274.455C113.004 269.066 110.254 263.677 105.26 260.458C104.862 260.205 104.5 260.531 104.427 260.928C103.523 268.523 102.799 276.118 102.256 283.713C101.749 290.549 100.736 297.855 102.98 304.473C103.088 304.256 103.233 304.039 103.342 303.822C102.401 304.148 101.46 304.473 100.519 304.799C100.157 304.907 100.049 305.269 100.193 305.594C100.917 307.186 101.46 308.849 101.641 310.621C101.786 312.104 101.569 313.551 101.677 315.034C101.749 316.046 101.93 316.987 102.546 317.855C103.269 318.867 104.427 319.518 104.862 320.712C105.115 320.495 105.404 320.314 105.658 320.097C104.5 319.591 103.342 319.338 102.075 319.374C101.749 319.374 101.569 319.627 101.532 319.916C100.302 333.587 109.783 345.269 116.912 355.974C117.31 356.481 118.251 355.938 117.853 355.36Z" fill="#E8E8E8"/>
<path d="M105.585 263.46C113.836 285.594 118.794 308.922 120.205 332.502C120.603 339.157 120.712 345.848 120.567 352.539C120.567 353.226 121.653 353.226 121.653 352.539C122.195 328.958 119.264 305.305 112.931 282.556C111.122 276.01 108.987 269.536 106.635 263.171C106.418 262.52 105.368 262.809 105.585 263.46Z" fill="#E8E8E8"/>
<path d="M102.654 286.317C108.01 289.645 112.389 294.238 115.465 299.771C115.79 300.386 116.731 299.844 116.405 299.229C113.257 293.551 108.734 288.813 103.197 285.377C102.618 285.015 102.075 285.956 102.654 286.317Z" fill="#E8E8E8"/>
<path d="M103.74 272.972C106.779 275.25 109.24 278.072 111.158 281.327C111.52 281.941 112.461 281.399 112.099 280.784C110.073 277.348 107.467 274.419 104.283 272.032C103.74 271.634 103.197 272.574 103.74 272.972Z" fill="#E8E8E8"/>
<path d="M119.662 316.046C120.314 311.562 121.58 307.186 123.462 303.063C123.751 302.448 122.811 301.869 122.521 302.52C120.603 306.752 119.3 311.164 118.613 315.793C118.504 316.444 119.554 316.734 119.662 316.046Z" fill="#E8E8E8"/>
<path d="M122.268 295.504C125.597 284.473 131.351 274.491 137.105 264.581C136.779 264.545 136.453 264.509 136.128 264.436C139.095 278.903 141.556 293.442 143.437 308.09C143.618 307.909 143.799 307.728 143.98 307.547C142.714 307.475 141.447 307.402 140.181 307.33C139.746 307.294 139.421 307.981 139.783 308.27C141.954 309.934 141.737 312.827 141.483 315.287C141.158 318.542 140.796 321.761 140.434 325.016C140.651 324.835 140.904 324.654 141.121 324.509C140.144 324.292 139.204 324.22 138.19 324.22C137.792 324.22 137.503 324.69 137.72 325.052C140.506 329.826 136.164 334.817 134.137 338.94C132.111 343.099 130.808 347.584 130.157 352.177C130.048 352.864 131.098 353.153 131.206 352.466C131.966 346.896 133.775 341.616 136.562 336.734C138.661 333.045 141.085 328.668 138.661 324.509C138.516 324.799 138.335 325.052 138.19 325.341C139.095 325.305 139.963 325.377 140.832 325.594C141.194 325.667 141.483 325.45 141.52 325.088C141.918 321.363 142.497 317.638 142.678 313.912C142.786 311.598 142.46 309.102 140.542 307.583C140.398 307.909 140.289 308.198 140.144 308.524C141.411 308.596 142.678 308.668 143.944 308.741C144.197 308.741 144.523 308.487 144.487 308.198C142.569 293.478 140.108 278.795 137.105 264.256C136.996 263.785 136.345 263.749 136.128 264.111C130.338 274.093 124.548 284.183 121.182 295.287C121.037 295.865 122.087 296.155 122.268 295.504Z" fill="#E8E8E8"/>
<path d="M136.091 265.775C132.436 287.33 129.939 309.102 128.601 330.947C128.564 331.634 129.65 331.634 129.686 330.947C130.989 309.211 133.486 287.547 137.105 266.064C137.249 265.377 136.2 265.088 136.091 265.775Z" fill="#E8E8E8"/>
<path d="M125.127 287.656C126.61 292.683 128.347 297.601 130.301 302.448C130.555 303.099 131.604 302.809 131.351 302.158C129.397 297.312 127.696 292.357 126.176 287.366C125.959 286.679 124.909 286.968 125.127 287.656Z" fill="#E8E8E8"/>
<path d="M1.43768 308.994C13.85 304.907 27.4565 302.231 40.5564 302.918C47.3596 303.28 53.8372 305.377 60.2786 307.33C66.539 309.211 72.7994 311.164 79.0961 312.972C86.1888 314.998 93.3539 316.625 100.7 317.131C101.388 317.168 101.388 316.083 100.7 316.046C87.1659 315.178 74.1022 310.404 61.2194 306.498C55.1037 304.654 49.0242 302.592 42.6191 301.978C36.0329 301.363 29.3382 301.978 22.8245 302.882C15.4422 303.931 8.16856 305.63 1.11199 307.945C0.496806 308.162 0.786304 309.211 1.43768 308.994Z" fill="#E8E8E8"/>
<path d="M40.0498 302.484C50.6165 300.169 61.2194 297.855 71.6414 294.853C81.8825 291.887 91.8703 287.222 102.546 285.92C103.233 285.847 103.233 284.762 102.546 284.835C92.015 286.137 82.172 290.657 72.0395 293.623C61.4366 296.733 50.6165 299.084 39.7964 301.471C39.0727 301.58 39.3622 302.629 40.0498 302.484Z" fill="#E8E8E8"/>
<path d="M118.215 283.46C121.11 283.279 124.041 283.243 126.936 283.352C127.624 283.388 127.624 282.303 126.936 282.267C124.005 282.158 121.11 282.194 118.215 282.375C117.527 282.447 117.527 283.532 118.215 283.46Z" fill="#E8E8E8"/>
<path d="M15.3337 351.779C27.4927 350.043 39.5431 353.117 51.485 354.998C57.1664 355.902 62.8841 356.444 68.6379 356.3C75.0792 356.119 81.5206 355.468 87.8896 356.589C88.5772 356.698 88.8667 355.649 88.1791 355.54C81.9187 354.455 75.6582 354.998 69.3254 355.215C62.9564 355.432 56.696 354.781 50.4356 353.768C38.7108 351.851 26.9499 349.066 15.0442 350.766C14.3566 350.839 14.6461 351.887 15.3337 351.779Z" fill="#E8E8E8"/>
<path d="M87.6363 365.956C87.7811 364.835 92.0874 365.342 92.8473 365.342C93.7882 365.342 97.2622 364.799 97.7326 365.812C97.805 365.559 97.8774 365.305 97.9136 365.052C96.1404 366.246 94.1863 366.752 92.0512 366.607C91.3636 366.571 91.3636 367.656 92.0512 367.692C94.3672 367.837 96.5022 367.258 98.4564 365.993C98.7097 365.812 98.7821 365.522 98.6373 365.233C98.3116 364.546 97.7688 364.365 97.0451 364.257C95.3442 364.003 93.4625 364.22 91.7617 364.22C90.1332 364.22 86.7678 363.606 86.5145 365.92C86.4421 366.644 87.5639 366.644 87.6363 365.956Z" fill="#E8E8E8"/>
<path d="M88.4324 348.054C87.7449 348.416 87.0211 348.307 86.2974 347.728C86.2612 348.018 86.225 348.307 86.1888 348.596C87.0935 347.909 88.1429 347.475 89.3009 347.511C90.2418 347.548 91.0741 348.054 92.015 348.09C92.8835 348.126 93.6796 347.765 94.5481 347.656C95.9232 347.439 97.1898 347.728 98.4202 348.416C99.0354 348.741 99.5782 347.837 98.963 347.475C98.0583 346.969 97.1536 346.607 96.1042 346.535C94.6205 346.39 93.2454 347.186 91.8341 347.005C90.6761 346.86 89.7352 346.39 88.5048 346.499C87.4192 346.607 86.4783 347.041 85.6098 347.692C85.3565 347.873 85.2117 348.307 85.5012 348.56C86.4783 349.356 87.4916 349.609 88.6857 349.175C89.3733 348.886 89.0838 347.837 88.4324 348.054Z" fill="#E8E8E8"/>
<path d="M33.5722 363.389C35.4177 365.667 37.8785 363.533 39.9412 363.099C41.642 362.738 42.9809 363.75 44.6456 363.75C46.4188 363.75 48.3367 362.918 49.8928 364.04C50.4718 364.437 51.0146 363.497 50.4356 363.099C49.4947 362.412 48.4814 362.304 47.3234 362.376C45.5864 362.521 44.2113 362.738 42.4743 362.195C41.2801 361.797 40.2669 361.797 39.0727 362.231C37.6252 362.774 35.5625 364.22 34.2597 362.629C33.8979 362.087 33.1017 362.882 33.5722 363.389Z" fill="#E8E8E8"/>
<path d="M150.458 356.155C152.846 355.215 154.764 355.504 157.261 355.793C158.817 355.974 159.903 355.432 161.278 354.817C162.725 354.166 163.702 354.491 165.005 355.215C165.548 355.504 166.055 355.757 166.67 355.866C168.515 356.227 171.012 354.998 172.568 356.336C173.111 356.806 173.871 356.01 173.328 355.576C171.953 354.419 170.469 354.672 168.769 354.817C167.357 354.925 166.272 354.672 165.078 353.985C164.354 353.587 163.666 353.226 162.834 353.226C162.074 353.226 161.386 353.551 160.699 353.84C159.07 354.564 158.093 354.781 156.284 354.491C154.149 354.166 152.195 354.274 150.168 355.07C149.517 355.359 149.806 356.408 150.458 356.155Z" fill="#E8E8E8"/>
<path d="M388.608 298.072C401.454 292.176 414.373 286.245 427.907 282.122C441.55 277.999 455.736 275.974 469.993 276.299C478.099 276.48 486.205 277.42 494.167 279.048C494.854 279.193 495.144 278.144 494.456 277.999C480.271 275.07 465.687 274.419 451.321 276.118C437.063 277.782 423.42 281.977 410.139 287.366C402.685 290.404 395.339 293.768 388.029 297.131C387.45 297.421 387.993 298.361 388.608 298.072Z" fill="#E8E8E8"/>
<path d="M447.412 299.265C455.88 296.191 464.565 293.804 473.431 292.212C477.991 291.381 482.551 290.802 487.183 290.368C490.512 290.079 496.7 288.668 499.088 291.851C499.486 292.393 500.463 291.851 500.029 291.308C497.966 288.56 494.384 288.813 491.272 288.994C486.35 289.283 481.393 289.825 476.507 290.585C466.483 292.14 456.64 294.744 447.123 298.216C446.472 298.469 446.761 299.518 447.412 299.265Z" fill="#E8E8E8"/>
<path d="M388.644 276.046C398.559 273.876 408.945 275.033 418.101 279.409C418.716 279.699 419.295 278.758 418.643 278.469C409.198 273.984 398.559 272.755 388.354 274.997C387.667 275.142 387.956 276.191 388.644 276.046Z" fill="#E8E8E8"/>
<path d="M410.755 325.811C412.311 323.967 414.771 326.065 416.4 326.716C417.739 327.258 418.788 327.113 420.091 326.535C422.19 325.594 423.891 326.426 425.989 326.354C428.161 326.282 429.934 324.22 431.924 326.028C432.431 326.499 433.227 325.739 432.684 325.269C431.381 324.112 429.97 323.895 428.342 324.473C427.509 324.799 426.894 325.197 425.953 325.269C425.23 325.305 424.506 325.124 423.782 325.052C422.914 324.943 422.045 324.799 421.213 324.943C419.838 325.197 418.752 326.282 417.232 325.884C416.146 325.594 415.242 324.835 414.192 324.401C412.709 323.822 411.008 323.714 409.922 325.016C409.524 325.594 410.284 326.354 410.755 325.811Z" fill="#E8E8E8"/>
<path d="M452.479 353.587C450.163 346.209 449.113 338.542 449.403 330.802C449.113 330.947 448.86 331.128 448.57 331.272C449.367 331.67 450.199 332.068 450.995 332.466C451.393 332.647 451.791 332.43 451.827 331.996C452.334 324.545 453.999 317.276 456.713 310.296C456.459 310.404 456.17 310.513 455.916 310.621C456.351 310.838 456.785 311.055 457.255 311.308C457.436 311.417 457.762 311.417 457.907 311.236C460.729 307.692 463.842 304.437 467.316 301.507C467.026 301.471 466.737 301.435 466.447 301.399C469.016 304.979 468.835 309.681 468.655 313.876C468.437 318.542 467.822 323.135 466.773 327.692C464.71 336.517 461.128 344.907 456.17 352.502C455.772 353.081 456.713 353.623 457.111 353.045C462.358 345.052 466.121 336.119 468.112 326.752C469.089 322.195 469.668 317.565 469.812 312.936C469.921 308.813 469.957 304.328 467.424 300.82C467.207 300.531 466.845 300.458 466.556 300.712C463.082 303.641 459.969 306.86 457.147 310.441C457.364 310.404 457.581 310.368 457.798 310.368C457.364 310.151 456.93 309.934 456.459 309.681C456.134 309.5 455.808 309.681 455.663 310.007C452.913 317.059 451.285 324.437 450.742 331.996C451.031 331.851 451.284 331.67 451.574 331.526C450.778 331.128 449.946 330.73 449.149 330.332C448.788 330.151 448.353 330.368 448.317 330.802C448.028 338.614 449.077 346.39 451.429 353.841C451.646 354.528 452.696 354.238 452.479 353.587Z" fill="#E8E8E8"/>
<path d="M468.582 326.173C471.043 320.893 473.938 315.829 477.195 311.019C476.978 311.092 476.797 311.2 476.58 311.272C478.678 311.815 479.836 309.898 480.922 308.451C482.912 305.775 485.409 303.641 488.34 302.014C488.087 301.905 487.798 301.797 487.544 301.688C490.837 311.96 488.739 322.593 482.587 331.345C479.692 335.468 476.362 339.41 472.961 343.135C469.559 346.788 465.832 350.079 461.345 352.358C460.729 352.683 461.272 353.624 461.887 353.298C466.447 350.983 470.283 347.62 473.721 343.895C477.34 339.953 480.886 335.793 483.889 331.381C489.933 322.52 491.887 311.706 488.594 301.435C488.485 301.11 488.123 300.929 487.798 301.109C485.844 302.194 484.034 303.496 482.406 305.088C481.682 305.811 480.994 306.607 480.343 307.439C479.547 308.451 478.498 310.658 476.869 310.26C476.616 310.187 476.399 310.296 476.254 310.513C472.997 315.323 470.102 320.386 467.641 325.667C467.352 326.245 468.293 326.824 468.582 326.173Z" fill="#E8E8E8"/>
<path d="M463.48 307.836C460.983 314.636 457.943 321.471 456.315 328.56C454.65 335.793 453.637 343.207 452.406 350.513C452.298 351.2 453.347 351.49 453.456 350.802C454.722 343.497 455.699 336.046 457.364 328.849C458.992 321.761 462.032 314.961 464.529 308.126C464.782 307.475 463.733 307.185 463.48 307.836Z" fill="#E8E8E8"/>
<path d="M482.55 313.225C478.534 319.663 474.517 326.101 470.5 332.502C466.845 338.361 462.901 344.112 460.368 350.549C460.114 351.2 461.164 351.49 461.417 350.839C464.023 344.293 468.112 338.397 471.839 332.43C475.711 326.209 479.619 319.989 483.491 313.732C483.853 313.153 482.912 312.611 482.55 313.225Z" fill="#E8E8E8"/>
<path d="M453.926 314.563C454.288 318.216 455.157 321.724 456.495 325.124C456.749 325.775 457.798 325.486 457.545 324.835C456.242 321.544 455.374 318.108 455.012 314.563C454.939 313.876 453.854 313.84 453.926 314.563Z" fill="#E8E8E8"/>
<path d="M456.894 331.96C461.055 328.379 464.891 324.473 468.437 320.278C468.872 319.735 468.112 318.976 467.677 319.518C464.131 323.714 460.295 327.62 456.134 331.2C455.591 331.67 456.387 332.43 456.894 331.96Z" fill="#E8E8E8"/>
<path d="M473.431 314.781C473.106 318.433 473.178 322.05 473.648 325.667C473.721 326.354 474.806 326.354 474.734 325.667C474.264 322.05 474.191 318.397 474.517 314.781C474.589 314.057 473.504 314.057 473.431 314.781Z" fill="#E8E8E8"/>
<path d="M47.1787 197.456C41.9315 196.009 38.1318 190.91 38.2042 185.449C38.2766 179.336 43.7771 172.826 50.1823 172.971C56.9131 173.152 60.5319 181.326 59.8805 187.221C59.1206 194.237 52.1364 198.649 45.4417 196.805C44.7541 196.624 44.4646 197.673 45.1522 197.854C50.5441 199.337 56.3703 197.239 59.2653 192.393C62.1603 187.51 61.1833 181.036 58.1073 176.443C54.9952 171.814 49.1328 170.656 44.3199 173.441C39.7241 176.154 36.5758 181.76 37.2271 187.112C37.8785 192.393 41.7506 197.058 46.8892 198.469C47.5768 198.686 47.8663 197.637 47.1787 197.456Z" fill="#E8E8E8"/>
<path d="M36.2501 224.906C37.3719 226.208 38.8556 227.076 40.5926 227.257C41.4972 227.366 42.4019 227.257 43.2704 226.932C44.6456 226.462 45.7674 225.449 47.3596 225.738C49.3499 226.064 50.8336 227.438 52.9325 227.185C55.2123 226.932 57.2026 225.304 59.591 225.485C61.7622 225.666 63.6078 227.149 65.7429 227.583C67.6246 227.981 68.8188 227.293 70.4111 226.462C74.5002 224.292 79.1684 227.04 83.4386 225.594C84.0899 225.377 83.8004 224.328 83.1491 224.545C79.3132 225.811 75.2964 223.713 71.4243 224.834C69.2892 225.449 67.9503 227.04 65.5257 226.425C63.6802 225.955 62.0879 224.834 60.2062 224.509C58.433 224.183 56.8769 224.798 55.2485 225.413C54.3076 225.774 53.2944 226.172 52.2449 226.172C50.9422 226.172 49.8566 225.449 48.6986 225.015C47.0339 224.4 45.8036 224.617 44.2113 225.34C41.6058 226.534 38.9641 226.498 37.01 224.147C36.5757 223.604 35.7796 224.364 36.2501 224.906Z" fill="#E8E8E8"/>
<path d="M64.223 215.467C67.0818 217.058 70.3749 214.707 73.1975 216.19C74.3193 216.769 75.0431 217.709 76.4182 217.528C77.54 217.384 78.4085 216.516 79.277 215.865C81.2311 214.346 82.8234 214.707 84.9584 215.575C86.5507 216.226 88.0706 216.624 89.7714 216.588C93.6073 216.516 97.4069 214.852 101.207 216.118C101.858 216.335 102.148 215.286 101.496 215.069C98.2393 213.984 94.9824 214.924 91.6893 215.322C89.7352 215.575 87.8896 215.539 86.0441 214.816C84.5242 214.237 83.0043 213.369 81.3035 213.586C80.1817 213.731 79.3494 214.382 78.4809 215.069C77.7571 215.648 77.0696 216.371 76.0925 216.371C75.1154 216.407 74.5364 215.648 73.7041 215.214C70.8815 213.658 67.5161 216.045 64.7296 214.49C64.1506 214.165 63.6078 215.105 64.223 215.467Z" fill="#E8E8E8"/>
<path d="M385.315 192.899C387.486 192.32 389.042 192.32 390.96 193.586C391.901 194.201 392.878 194.671 394 194.888C395.99 195.25 398.053 194.779 399.971 194.273C402.323 193.622 404.711 192.754 407.172 192.754C409.777 192.754 411.913 194.562 414.554 194.345C419.476 193.911 422.552 189.029 427.835 189.608C432.431 190.114 436.99 193.007 441.514 190.801C442.129 190.512 441.586 189.571 440.971 189.861C436.267 192.139 431.164 188.306 426.315 188.486C424.108 188.559 422.226 189.499 420.344 190.584C418.064 191.958 415.567 193.839 412.709 193.152C411.406 192.863 410.284 192.139 408.981 191.85C407.968 191.633 406.955 191.633 405.942 191.741C403.698 191.958 401.563 192.718 399.428 193.297C396.931 193.948 394.325 194.418 391.973 193.007C390.996 192.392 390.128 191.669 388.97 191.452C387.631 191.199 386.292 191.561 385.025 191.886C384.374 192.031 384.627 193.08 385.315 192.899Z" fill="#E8E8E8"/>
<path d="M424.723 202.447C426.786 201.253 429.174 201.036 431.345 202.049C432.648 202.628 433.661 203.387 435.145 203.279C438.51 203.025 440.826 200.06 444.337 201.651C445.386 202.121 446.399 202.628 447.593 202.447C449.077 202.194 450.127 201 451.465 200.494C454.759 199.228 458.486 201.073 461.924 200.313C462.611 200.168 462.322 199.12 461.634 199.264C458.233 199.988 454.722 198.251 451.357 199.373C449.801 199.879 448.607 201.362 446.906 201.362C445.205 201.362 443.866 199.987 442.093 200.024C438.836 200.096 436.231 203.351 432.901 201.76C429.934 200.313 427.111 199.879 424.108 201.615C423.565 201.832 424.108 202.772 424.723 202.447Z" fill="#E8E8E8"/>
<path d="M396.533 256.48C398.849 255.757 400.477 256.335 402.576 257.239C403.734 257.71 404.82 257.818 406.05 257.601C407.57 257.276 408.945 256.552 410.429 256.154C412.672 255.576 413.939 256.805 415.893 257.565C418.788 258.686 421.14 256.625 423.818 255.974C427.22 255.142 430.332 257.565 433.77 257.059C434.457 256.95 434.168 255.901 433.48 256.01C430.151 256.516 427.147 254.129 423.782 254.889C422.19 255.25 420.815 256.118 419.259 256.588C416.979 257.276 415.676 256.046 413.686 255.25C410.972 254.201 408.583 255.937 405.978 256.516C404.096 256.95 402.829 256.01 401.129 255.431C399.5 254.889 397.836 254.961 396.243 255.467C395.556 255.648 395.845 256.697 396.533 256.48Z" fill="#E8E8E8"/>
<path opacity="0.22" d="M466.049 366.246C417.594 375.504 369.103 384.727 320.648 393.986C262.639 375.902 204.667 357.819 146.658 339.736C223.991 340.025 301.324 340.278 378.62 340.567C407.787 349.139 436.918 357.71 466.049 366.246Z" fill="#666666"/>
<path opacity="0.19" d="M409.741 352.575C368.886 362.376 327.994 372.177 287.138 381.978C241.035 367.909 194.896 353.84 148.793 339.735C211.325 334.491 273.893 329.247 336.425 324.003C360.852 333.551 385.279 343.063 409.741 352.575Z" fill="#666666"/>
<path d="M146.477 230.367C147.02 266.426 147.599 302.484 148.142 338.578C193.955 348.922 239.732 359.229 285.546 369.573C285.473 327.837 285.365 286.1 285.292 244.364C239.009 239.662 192.725 234.997 146.477 230.367Z" fill="white" stroke="#161616" stroke-width="2" stroke-miterlimit="10"/>
<path d="M386.4 220.856C386.219 260.639 386.038 300.422 385.857 340.206C352.529 350.007 319.164 359.772 285.835 369.573C285.727 327.367 285.618 285.196 285.51 242.99C319.128 235.648 352.782 228.27 386.4 220.856Z" fill="white" stroke="#161616" stroke-width="2" stroke-miterlimit="10"/>
<path d="M284.352 244.002C238.574 239.265 192.833 234.527 147.092 229.789C177.237 222.122 207.381 214.454 237.525 206.787C286.812 211.525 336.136 216.263 385.423 221.037C351.733 228.668 318.042 236.335 284.352 244.002Z" fill="white" stroke="#161616" stroke-width="2" stroke-miterlimit="10"/>
<path d="M317.861 214.563C306.1 213.767 294.375 212.971 282.615 212.176C259.455 220.639 236.295 229.102 213.171 237.565C212.954 275.938 212.736 314.31 212.483 352.683C222.869 355.179 233.255 357.638 243.641 360.134C243.206 320.386 242.736 280.675 242.302 240.928C267.488 232.176 292.675 223.351 317.861 214.563Z" fill="#161616" stroke="#161616" stroke-width="2" stroke-miterlimit="10"/>
<path d="M327.994 356.77C337.583 353.841 347.209 350.911 356.799 347.982C356.473 308.234 356.111 268.523 355.786 228.776C308.814 223.243 261.807 217.709 214.835 212.176C206.693 214.201 198.587 216.226 190.445 218.288C236.403 225.413 282.361 232.501 328.356 239.626C328.247 278.686 328.138 317.71 327.994 356.77Z" fill="#161616" stroke="#161616" stroke-width="2" stroke-miterlimit="10"/>
<path d="M330.418 160.674C333.747 162.049 334.29 170.656 332.481 177.383C325.533 203.17 280.552 213.622 278.417 209.68C277.512 207.98 285.256 204.761 301.541 188.631C319.49 170.837 326.04 158.902 330.418 160.674Z" fill="white" stroke="#161616" stroke-width="2" stroke-miterlimit="10"/>
<path d="M237.851 177.637C238.719 181.723 240.854 186.461 254.569 199.626C263.761 208.451 268.393 212.863 269.696 211.995C272.337 210.187 263.58 192.79 255.257 180.385C250.987 174.02 243.496 162.917 239.696 164.363C236.982 165.376 236.765 172.537 237.851 177.637Z" fill="white" stroke="#161616" stroke-width="2" stroke-miterlimit="10"/>
<path d="M272.373 227.113C277.69 227.113 281.999 222.562 281.999 216.95C281.999 211.337 277.69 206.787 272.373 206.787C267.057 206.787 262.748 211.337 262.748 216.95C262.748 222.562 267.057 227.113 272.373 227.113Z" fill="#161616" stroke="#161616" stroke-width="2" stroke-miterlimit="10"/>
<path d="M272.554 212.827C278.019 207.51 283.555 201.868 289.092 195.973C301.323 182.953 312.216 170.114 321.878 157.673C323.977 157.419 328.102 157.166 329.839 159.517C332.372 162.881 328.356 169.535 326.474 172.682C316.884 188.631 286.378 205.593 272.554 212.827Z" fill="#161616" stroke="#161616" stroke-width="2" stroke-miterlimit="10"/>
<path d="M240.058 163.821C241.397 162.591 245.559 165.087 248.019 166.569C268.429 178.83 270.926 207.836 271.324 213.116C254.678 191.633 236.693 166.967 240.058 163.821Z" fill="#161616" stroke="#161616" stroke-width="2" stroke-miterlimit="10"/>
<path d="M154.04 249.897C170.542 250.187 187.116 250.115 203.581 250.874C220.227 251.634 236.729 253.948 253.158 256.805C262.422 258.433 271.686 260.205 280.95 262.013C281.637 262.158 281.927 261.109 281.239 260.964C265.027 257.818 248.779 254.708 232.386 252.502C215.812 250.295 199.239 249.572 182.52 249.283C173.039 249.138 163.521 248.957 154.04 248.812C153.353 248.812 153.353 249.897 154.04 249.897Z" fill="#161616"/>
<path d="M294.629 261.471C322.348 253.152 350.611 246.679 379.235 242.122C379.923 242.013 379.633 240.964 378.946 241.073C350.358 245.63 322.095 252.104 294.339 260.422C293.688 260.603 293.977 261.652 294.629 261.471Z" fill="#161616"/>
<path d="M244.835 311.272C244.835 322.231 244.835 333.153 244.835 344.112C244.835 344.799 245.92 344.799 245.92 344.112C245.92 333.153 245.92 322.231 245.92 311.272C245.92 310.585 244.835 310.585 244.835 311.272Z" fill="#161616"/>
<path d="M248.417 337.565C248.417 343.027 248.417 348.524 248.417 353.985C248.417 354.672 249.503 354.672 249.503 353.985C249.503 348.524 249.503 343.027 249.503 337.565C249.503 336.842 248.417 336.842 248.417 337.565Z" fill="#161616"/>
<path d="M323.325 283.388C323.325 292.14 323.325 300.893 323.325 309.645C323.325 310.332 324.411 310.332 324.411 309.645C324.411 300.893 324.411 292.14 324.411 283.388C324.411 282.701 323.325 282.701 323.325 283.388Z" fill="#161616"/>
<path d="M325.28 319.808C325.28 325.703 325.28 331.634 325.28 337.529C325.28 338.216 326.365 338.216 326.365 337.529C326.365 331.634 326.365 325.703 326.365 319.808C326.365 319.12 325.28 319.12 325.28 319.808Z" fill="#161616"/>
<path d="M193.014 281.977C193.014 286.715 193.014 291.453 193.014 296.191C193.014 296.878 194.1 296.878 194.1 296.191C194.1 291.453 194.1 286.715 194.1 281.977C194.1 281.29 193.014 281.29 193.014 281.977Z" fill="#161616"/>
<path d="M189.938 300.024C189.938 303.858 189.938 307.692 189.938 311.525C189.938 312.213 191.024 312.213 191.024 311.525C191.024 307.692 191.024 303.858 191.024 300.024C191.024 299.337 189.938 299.337 189.938 300.024Z" fill="#161616"/>
<path opacity="0.21" d="M384.084 340.061C351.371 350.007 318.657 359.989 285.944 369.935C285.944 328.415 285.944 286.896 285.944 245.377C318.838 237.854 351.733 230.331 384.627 222.845C384.482 261.905 384.301 300.965 384.084 340.061Z" fill="#666666"/>
<path opacity="0.21" d="M386.256 340.531C352.927 349.645 319.634 358.759 286.306 367.873C286.089 331.526 285.871 295.214 285.618 258.867C300.346 272.357 315.111 285.847 329.839 299.374C348.512 293.189 367.221 287.005 385.894 280.82C386.038 300.712 386.147 320.64 386.256 340.531Z" fill="#666666"/>
<path opacity="0.14" d="M332.047 162.555C330.273 162.193 328.392 174.381 322.204 184.4C316.595 193.477 305.413 204.11 280.769 210.259C283.953 209.969 288.803 209.318 294.484 207.655C300.383 205.955 325.28 198.722 331.83 179.3C334.507 171.271 333.494 162.844 332.047 162.555Z" fill="#666666"/>
<path opacity="0.2" d="M242.7 240.024C253.158 247.113 263.652 254.201 274.11 261.29C264.485 259.626 254.895 257.999 245.269 256.335C245.667 275.648 247.259 297.312 250.95 320.82C253.375 336.263 256.379 350.622 259.708 363.786C254.605 362.376 249.467 360.965 244.364 359.519C243.822 319.699 243.279 279.843 242.7 240.024Z" fill="#666666"/>
<path opacity="0.13" d="M245.233 240.35C260.613 238.143 276.028 235.937 291.408 233.731C284.641 232.827 277.874 231.923 271.107 231.055C266.439 232.791 262.603 233.984 259.925 234.78C257.175 235.576 255.112 236.082 252.036 237.275C249.105 238.397 246.753 239.554 245.233 240.35Z" fill="#666666"/>
<path d="M370.514 332.068C369.501 333.008 368.524 333.985 367.51 334.925C369.247 341.616 370.984 348.307 372.721 354.998C374.097 354.311 375.508 353.66 376.883 352.972C374.784 345.992 372.649 339.012 370.514 332.068Z" fill="#161616" stroke="#161616" stroke-width="3" stroke-miterlimit="10"/>
<path d="M372.504 328.922C371.491 328.632 370.514 328.343 369.501 328.054C369.32 324.582 369.103 321.11 368.922 317.638C374.82 315.504 380.755 313.37 386.654 311.2C387.16 311.345 387.703 311.489 388.21 311.634C382.999 317.384 377.752 323.171 372.504 328.922Z" fill="#161616" stroke="#161616" stroke-width="3" stroke-miterlimit="10"/>
<path d="M372.323 317.638C372.468 321.471 372.649 325.269 372.794 329.103C377.824 327.656 382.818 326.245 387.848 324.799C387.92 320.495 387.993 316.227 388.101 311.923C382.818 313.84 377.571 315.721 372.323 317.638Z" fill="white" stroke="#161616" stroke-width="3" stroke-miterlimit="10"/>
<path d="M370.659 331.96C376.883 330.368 383.071 328.777 389.295 327.186C389.078 329.03 388.97 331.128 389.042 333.406C389.295 339.41 390.888 344.329 392.371 347.728C387.196 349.464 382.022 351.236 376.847 352.972C374.784 345.956 372.721 338.976 370.659 331.96Z" fill="white" stroke="#161616" stroke-width="3" stroke-miterlimit="10"/>
<path d="M377.064 327.801C377.028 328.452 377.136 329.103 377.39 329.717C377.643 330.368 378.692 330.079 378.439 329.428C378.222 328.886 378.15 328.343 378.15 327.801C378.186 327.113 377.1 327.113 377.064 327.801Z" fill="#161616"/>
<path d="M380.393 327.222C380.321 327.8 380.429 328.379 380.647 328.885C380.755 329.139 381.008 329.356 381.298 329.247C381.551 329.175 381.805 328.849 381.66 328.596C381.479 328.126 381.406 327.692 381.443 327.222C381.479 326.932 381.189 326.679 380.9 326.679C380.61 326.679 380.393 326.932 380.393 327.222Z" fill="#161616"/>
<path d="M375.797 353.84C376.557 357.385 379.959 360.604 382.745 362.774C385.821 365.161 389.44 366.571 393.276 367.005C393.964 367.077 393.964 365.992 393.276 365.92C389.549 365.486 385.966 364.039 383.035 361.616C380.574 359.591 377.534 356.698 376.847 353.551C376.702 352.864 375.653 353.153 375.797 353.84Z" fill="#161616"/>
<path d="M378.331 352.9C381.877 358.289 386.581 363.28 393.24 364.365C393.927 364.473 394.217 363.425 393.529 363.316C387.124 362.267 382.673 357.529 379.235 352.358C378.873 351.743 377.932 352.285 378.331 352.9Z" fill="#161616"/>
<path d="M393.819 363.714C394.072 362.593 394.434 361.508 394.977 360.459C395.194 360.061 395.52 359.663 395.664 359.265C395.339 358.614 395.23 358.651 395.411 359.338C395.483 359.699 395.52 360.061 395.556 360.459C395.628 361.472 395.556 362.448 395.447 363.461C395.411 363.895 395.447 365.378 395.158 365.703C394.868 366.029 394.217 365.992 393.855 366.029C393.167 366.065 393.167 367.15 393.855 367.114C394.579 367.077 395.339 367.403 395.918 366.788C396.497 366.137 396.388 364.871 396.497 364.076C396.678 362.701 396.75 361.291 396.605 359.88C396.533 359.229 396.569 358.325 395.954 358C395.809 357.927 395.556 357.891 395.411 358C393.927 359.157 393.167 361.761 392.769 363.461C392.588 364.112 393.638 364.401 393.819 363.714Z" fill="#161616"/>
<path d="M386.69 350.007C390.055 354.094 395.266 356.047 400.477 355.359C401.165 355.251 400.875 354.238 400.188 354.311C395.339 354.962 390.526 353.009 387.45 349.247C387.016 348.705 386.256 349.464 386.69 350.007Z" fill="#161616"/>
<path d="M383.795 351.381C387.848 355.757 393.602 358.18 399.573 358C400.26 357.963 400.26 356.878 399.573 356.915C393.855 357.095 388.427 354.817 384.555 350.622C384.121 350.079 383.324 350.875 383.795 351.381Z" fill="#161616"/>
<path d="M401.273 354.672C401.454 353.985 401.671 353.298 401.925 352.647C401.997 352.43 402.649 350.368 402.902 350.368C402.721 350.224 402.54 350.115 402.395 349.971C402.757 351.056 402.504 352.575 402.395 353.66C402.25 354.998 401.961 356.3 401.599 357.602C401.418 358.289 402.468 358.578 402.649 357.891C403.047 356.517 403.336 355.106 403.481 353.66C403.589 352.466 403.843 350.839 403.445 349.681C403.372 349.464 403.155 349.283 402.938 349.283C401.31 349.392 400.586 353.153 400.26 354.383C400.043 355.07 401.092 355.359 401.273 354.672Z" fill="#161616"/>
<path d="M399.175 357.927C400.043 358.289 400.948 358.434 401.889 358.253C402.576 358.144 402.287 357.095 401.599 357.204C400.984 357.312 400.333 357.24 399.717 356.987C399.102 356.698 398.523 357.638 399.175 357.927Z" fill="#161616"/>
<path d="M379.38 358.289C379.525 357.421 380.285 356.878 381.153 356.987C381.841 357.059 381.841 355.974 381.153 355.902C379.85 355.757 378.548 356.698 378.331 358C378.186 358.687 379.235 358.976 379.38 358.289Z" fill="#161616"/>
<path d="M382.564 361.508C382.709 360.785 383.252 360.278 383.94 360.134C384.627 359.989 384.338 358.94 383.65 359.085C382.601 359.302 381.732 360.134 381.515 361.182C381.37 361.906 382.384 362.195 382.564 361.508Z" fill="#161616"/>
<path d="M385.93 364.076C386.183 363.316 386.798 362.774 387.595 362.629C388.282 362.484 387.993 361.435 387.305 361.58C386.147 361.797 385.242 362.665 384.88 363.786C384.663 364.437 385.713 364.727 385.93 364.076Z" fill="#161616"/>
<path d="M389.476 362.81C388.644 363.388 388.246 364.329 388.427 365.341C388.535 366.029 389.585 365.739 389.476 365.052C389.404 364.546 389.621 364.039 390.019 363.75C390.598 363.352 390.055 362.412 389.476 362.81Z" fill="#161616"/>
<path d="M395.085 359.699C394.398 361.544 394.76 363.931 394.76 365.884C394.76 366.571 395.845 366.571 395.845 365.884C395.845 364.039 395.483 361.725 396.135 359.989C396.352 359.338 395.302 359.048 395.085 359.699Z" fill="#161616"/>
<path d="M389.259 354.274C389.259 353.696 389.621 353.189 390.2 353.045C390.888 352.864 390.598 351.815 389.911 351.996C388.897 352.249 388.174 353.226 388.174 354.274C388.174 354.962 389.259 354.962 389.259 354.274Z" fill="#161616"/>
<path d="M386.328 352.358C386.617 351.779 387.16 351.417 387.812 351.309C388.101 351.273 388.246 350.911 388.174 350.658C388.101 350.332 387.812 350.224 387.522 350.296C386.617 350.441 385.821 351.019 385.387 351.851C385.098 352.43 386.038 352.972 386.328 352.358Z" fill="#161616"/>
<path d="M395.085 356.408C395.085 356.119 395.23 355.866 395.52 355.721C396.135 355.396 395.592 354.455 394.977 354.781C394.362 355.106 394 355.757 394.036 356.408C394 357.096 395.085 357.096 395.085 356.408Z" fill="#161616"/>
<path d="M374.965 322.448C375.689 322.448 376.413 322.448 377.136 322.448C377.824 322.448 377.824 321.363 377.136 321.363C376.413 321.363 375.689 321.363 374.965 321.363C374.278 321.363 374.278 322.448 374.965 322.448Z" fill="#161616"/>
<path d="M383.614 320.133C384.157 319.591 384.7 319.048 385.242 318.506C385.749 317.999 384.953 317.24 384.482 317.746C383.94 318.289 383.397 318.831 382.854 319.374C382.384 319.844 383.143 320.603 383.614 320.133Z" fill="#161616"/>
<path d="M379.525 324.039C380.538 324.365 381.624 323.895 382.166 323.027C382.528 322.412 381.587 321.869 381.226 322.484C380.936 322.99 380.357 323.171 379.814 323.027C379.127 322.81 378.873 323.858 379.525 324.039Z" fill="#161616"/>
<path d="M386.907 335.323C385.025 335.866 383.143 336.408 381.262 336.951C381.008 336.444 380.683 335.721 380.538 334.781C380.357 333.732 380.429 332.864 380.538 332.285C382.564 331.887 384.591 331.489 386.617 331.092C386.437 331.634 386.256 332.574 386.437 333.696C386.545 334.383 386.726 334.925 386.907 335.323Z" fill="#4F4D4D"/>
<path opacity="0.24" d="M376.087 316.444C376.195 320.061 376.34 323.714 376.449 327.33C380.176 326.354 383.903 325.413 387.631 324.437C387.667 320.459 387.703 316.516 387.703 312.538C383.867 313.876 379.959 315.142 376.087 316.444Z" fill="#666666"/>
<path opacity="0.24" d="M376.268 331.707C376.774 334.166 377.426 336.77 378.15 339.446C379.344 343.75 380.719 347.692 382.13 351.237C385.387 350.115 388.608 349.03 391.865 347.909C391.069 346.209 390.309 344.184 389.693 341.869C388.282 336.372 388.463 331.562 388.897 328.271C384.663 329.392 380.466 330.549 376.268 331.707Z" fill="#666666"/>
<path d="M186.247 43.4943C186.392 46.4238 186.645 50.6915 187.116 55.791C188.274 68.4855 188.961 79.444 191.892 88.124C194.1 94.6702 199.311 106.931 212.338 119.263C211.578 121.759 210.348 124.905 208.285 128.305C205.752 132.464 202.857 135.43 200.686 137.347C189.975 126.895 184.365 116.479 181.398 109.752C174.124 93.1873 173.943 78.1058 173.799 66.9303C173.69 57.8525 174.45 50.2213 175.246 44.7602C173.943 43.5305 171.953 41.6137 169.456 39.3352C164.897 35.2122 163.16 33.874 163.449 33.2953C163.702 32.789 165.584 32.8252 173.401 35.61C166.67 26.9662 163.666 22.3368 164.39 21.6497C165.041 21.0348 168.66 23.6388 175.282 29.4617C170.361 17.2373 169.565 13.5845 170.216 13.259C170.868 12.9335 173.401 15.863 180.493 27.6172C179.372 18.1415 179.733 16.0077 180.312 15.863C181.326 15.646 183.569 21.5412 184.221 23.3133C185.741 27.364 186.573 30.836 187.007 33.1868C193.123 28.3767 194.353 28.8107 194.643 29.1C195.692 30.0403 192.906 34.8143 192.218 36.0078C190.228 39.4798 187.948 41.9392 186.247 43.4943Z" fill="white" stroke="#161616" stroke-width="2" stroke-miterlimit="10"/>
<path opacity="0.15" d="M170.542 13.8376C169.927 14.1631 172.206 20.2391 175.174 25.411C176.006 26.8215 176.513 27.5086 180.891 34.091C182.665 36.7673 184.112 38.9373 185.089 40.384C183.823 45.592 182.448 52.753 182.086 61.3607C181.832 67.3643 181.434 79.2632 185.632 93.5128C190.192 108.992 198.117 120.168 203.907 126.931C206.693 124.435 209.48 121.94 212.266 119.444C200.288 107.943 195.005 96.4062 192.58 89.86C189.142 80.529 188.201 71.5596 187.369 63.7476C186.464 55.6101 186.356 48.7385 186.428 43.7113C188.274 42.2646 191.024 39.733 193.051 35.7908C193.485 34.9228 195.873 30.3296 194.679 29.317C193.412 28.232 188.817 31.704 186.899 33.1868C182.665 19.1903 180.964 16.0438 180.276 16.1885C179.878 16.2608 179.77 17.4181 179.625 19.2626C179.335 23.024 179.987 26.0981 180.602 28.015C180.566 28.0873 180.566 28.0873 170.542 13.8376Z" fill="#666666"/>
<path opacity="0.2" d="M193.702 32.6082C192.218 33.2953 189.07 34.9952 186.573 38.6118C184.293 41.903 183.678 45.0857 183.497 46.7132C182.99 51.7765 182.882 57.5632 183.533 63.82C185.813 86.0987 196.271 102.446 203.038 111.162C198.37 103.459 192.363 91.6322 188.925 76.189C185.958 62.952 185.849 51.451 186.392 43.1688C187.803 41.686 189.396 39.8053 190.915 37.4907C192.073 35.7547 192.978 34.091 193.702 32.6082Z" fill="#666666"/>
<path d="M247.947 117.419C245.45 118.576 243.351 119.372 242.121 121.651C239.696 126.099 242.917 132.03 243.713 133.513C245.74 137.275 248.635 139.589 250.842 140.964C257.862 137.926 268.357 132.139 277.657 121.47C289.671 107.69 293.145 93.0789 294.955 85.2307C297.379 74.5254 297.488 65.3752 297.162 59.1545C298.935 56.0804 301.504 51.7404 304.798 46.5324C307.693 41.903 309.285 39.4799 308.67 38.8289C308.199 38.3587 306.39 38.7565 299.985 43.3497C302.301 34.3442 303.061 29.6787 302.228 29.3532C301.432 29.0639 299.188 32.7167 295.497 40.3479C296.04 29.9319 295.787 24.6515 294.737 24.5069C293.652 24.326 291.661 30.0042 288.766 41.469C287.066 33.5485 285.835 29.6425 285.039 29.7149C284.098 29.8234 283.809 35.4292 284.098 46.4962C278.634 43.4944 275.522 42.4094 274.762 43.3135C273.712 44.5794 277.223 49.5704 285.292 58.3589C285.473 61.7585 285.437 67.1835 284.134 73.585C283.483 76.8039 278.851 99.4442 263.073 108.414C257.971 111.343 253.23 114.96 247.947 117.419Z" fill="white" stroke="#161616" stroke-width="2" stroke-miterlimit="10"/>
<path opacity="0.16" d="M302.228 29.2809C301.649 29.1001 300.672 32.4274 296.691 38.1418C295.751 39.5161 295.316 40.0224 294.954 41.1074C293.977 44.2539 295.714 46.2431 295.642 48.8833C295.57 50.7639 294.593 53.4041 290.105 56.5868C290.865 59.2993 291.698 63.1691 291.951 67.8346C292.928 86.4604 283.157 100.095 279.756 105.773C276.535 111.162 266.909 125.123 243.496 133.694C243.677 134.598 244.328 137.094 246.572 139.083C247.947 140.313 249.394 140.855 250.263 141.072C255.112 139.083 261.843 135.683 268.791 129.969C279.756 120.927 285.075 111.054 287.608 106.207C297.849 86.7498 297.85 67.7623 297.162 58.2866C299.225 55.0316 301.034 52.1744 302.445 49.9321C307.512 41.9031 309.104 39.3353 308.489 38.7204C308.163 38.3949 307.077 38.5396 303.567 40.9266C302.373 41.6499 301.179 42.4094 299.985 43.1328C302.554 32.3189 302.735 29.4256 302.228 29.2809Z" fill="#666666"/>
<path opacity="0.28" d="M303.712 47.8705C295.389 52.97 293.435 57.31 293.254 60.4203C293.181 61.65 293.398 61.9755 293.652 64.905C293.652 64.905 293.435 70.2576 293.507 76.9485C293.616 86.4965 289.671 95.1403 284.858 105.629C282.325 111.126 278.562 118.359 272.989 126.28C277.005 122.301 281.312 117.202 285.184 110.873C297.56 90.4387 297.56 69.6066 296.836 59.5885C299.116 55.6463 301.396 51.7403 303.712 47.8705Z" fill="#666666"/>
<path opacity="0.11" d="M274.653 43.9283C282.723 48.0513 285.003 48.7385 285.256 48.3768C285.473 48.0152 284.134 46.6047 282.904 45.809C282.397 45.4835 281.71 45.158 280.335 44.5793C277.874 43.5305 277.223 43.4582 276.752 43.4582C275.811 43.422 275.088 43.7113 274.653 43.9283Z" fill="#666666"/>
<path d="M167.032 271.923C166.742 273.731 168.407 275.865 171.664 280.169C173.401 282.448 174.993 284.184 176.042 285.305C174.414 288.234 171.555 294.527 172.966 302.05C173.401 304.473 174.161 308.488 176.332 308.994C180.095 309.898 185.704 299.663 187.912 294.817C190.409 289.355 191.494 284.401 192.037 280.892C188.274 275.829 184.474 270.766 180.711 265.702C173.22 266.353 167.502 268.74 167.032 271.923Z" fill="#161616" stroke="#161616" stroke-width="2" stroke-miterlimit="10"/>
<path d="M211.325 194.635C213.714 212.61 210.022 219.698 205.861 222.736C202.097 225.485 198.37 224.581 189.468 227.149C181.688 229.427 175.717 232.682 171.772 235.214C172.279 238.831 173.328 243.46 175.427 248.487C178.756 256.444 183.388 262.05 186.681 265.413C186.03 266.787 183.316 272.068 176.983 274.744C171.845 276.95 167.213 276.155 165.512 275.793C159.722 270.44 150.82 260.494 146.803 245.847C145.174 239.879 143.184 232.176 146.115 223.568C147.961 218.179 150.82 215.141 156.574 209.065C158.455 207.076 166.67 198.577 181.217 190.837C189.721 186.317 194.028 184.038 199.13 185.087C205.608 186.497 209.624 191.922 211.325 194.635Z" fill="#383838"/>
<path opacity="0.21" d="M202.857 193.55C196.995 197.094 188.853 202.266 179.444 209.029C163.16 220.747 155.705 227.004 153.027 233.514C150.422 239.843 152.267 251.416 175.789 274.382C177.056 274.129 179.046 273.514 181.036 272.14C184.257 269.934 185.741 266.968 186.283 265.63C183.642 262.917 180.493 259.084 177.671 254.02C173.654 246.787 172.062 240.024 171.374 235.431C178.756 230.259 185.234 228.125 189.938 227.149C196.959 225.666 202.64 226.244 206.983 221.76C209.19 219.481 210.059 216.877 210.855 214.49C213.098 207.799 212.266 201.868 211.579 198.794C208.684 197.094 205.752 195.322 202.857 193.55Z" fill="#666666"/>
<path opacity="0.16" d="M200.686 198.649C199.926 201.977 198.696 205.702 196.85 209.608C190.409 223.062 179.806 230.512 173.907 233.984C178.648 230.838 182.846 229.174 185.813 228.234C186.826 227.908 187.876 227.619 198.985 224.726C204.052 223.387 205.499 223.026 207.019 221.579C207.924 220.711 209.407 218.939 210.565 212.501C211.144 209.21 211.723 204.4 211.325 198.432C207.743 198.505 204.196 198.577 200.686 198.649Z" fill="#666666"/>
<path opacity="0.17" d="M171.41 234.418C170.433 239.011 169.275 247.836 172.315 258.144C174.233 264.654 177.237 269.572 179.553 272.791C180.638 272.176 182.158 271.127 183.642 269.464C184.908 268.017 185.704 266.607 186.211 265.522C183.569 262.809 180.385 258.975 177.598 253.876C173.401 246.209 171.953 239.048 171.41 234.418Z" fill="#666666"/>
<path d="M192.254 270.115C194.643 273.478 197.067 276.806 199.456 280.169C198.153 283.605 194.86 293.768 199.709 301.797C200.541 303.171 202.025 305.63 204.088 305.667C208.466 305.739 211.687 294.889 212.338 292.791C213.424 289.211 214.546 283.677 213.894 276.552C212.266 266.1 204.667 260.458 199.456 261.616C194.679 262.664 192.508 269.391 192.254 270.115Z" fill="#161616" stroke="#161616" stroke-width="2" stroke-miterlimit="10"/>
<path d="M237.018 193.442C240.094 212.827 233.834 219.554 231.554 221.543C229.419 223.387 227.356 224.111 215.812 227.944C211.506 229.391 205.173 231.489 197.429 234.02C197.936 237.637 198.985 242.266 201.084 247.294C204.413 255.25 209.045 260.856 212.338 264.22C211.687 265.594 208.973 270.874 202.64 273.551C197.502 275.757 192.87 274.961 191.169 274.599C185.379 269.247 176.477 259.301 172.46 244.653C170.831 238.686 168.841 230.983 171.772 222.375C173.618 216.986 176.477 213.948 182.23 207.872C184.112 205.883 192.327 197.384 206.874 189.644C215.378 185.123 219.684 182.845 224.787 183.893C231.337 185.268 235.317 190.729 237.018 193.442Z" fill="#383838"/>
<path opacity="0.21" d="M213.207 192.646C212.049 196.226 209.769 202.013 205.427 208.125C194.643 223.243 182.484 224.147 179.01 232.61C176.404 238.939 178.25 250.512 201.772 273.478C203.183 272.9 204.992 272.032 206.874 270.621C209.588 268.596 211.289 266.317 212.302 264.726C209.624 261.941 206.512 258.107 203.69 253.116C199.528 245.702 197.791 238.794 196.995 234.02C205.209 231.236 211.832 229.174 216.247 227.8C225.076 225.123 229.6 223.966 233.11 219.518C235.281 216.733 236.186 213.803 236.765 211.886C238.574 205.991 238.068 200.856 237.561 197.89C229.455 196.19 221.349 194.418 213.207 192.646Z" fill="#666666"/>
<path opacity="0.16" d="M226.669 197.709C225.909 201.073 224.715 204.798 222.833 208.668C215.378 223.894 202.097 231.344 195.873 234.274C202.17 232.284 207.851 230.476 212.809 228.885C212.809 228.885 215.378 228.053 221.675 225.811C229.708 222.917 231.084 222.194 232.459 220.82C234.883 218.36 235.535 215.612 236.512 211.597C237.235 208.523 238.032 203.677 237.272 197.528C233.761 197.601 230.215 197.673 226.669 197.709Z" fill="#666666"/>
<path opacity="0.17" d="M197.393 233.514C196.416 238.107 195.258 246.932 198.298 257.239C200.216 263.749 203.219 268.668 205.535 271.887C206.621 271.272 208.141 270.223 209.624 268.56C210.891 267.113 211.687 265.702 212.194 264.617C209.552 261.905 206.367 258.071 203.581 252.972C199.383 245.304 197.936 238.143 197.393 233.514Z" fill="#666666"/>
<path d="M211.398 116.877C204.377 122.085 201.048 130.077 200.288 131.958C199.818 133.079 198.479 136.624 197.863 141.506C197.14 147.076 197.719 151.741 198.298 154.815C198.551 159.119 198.406 166.244 195.403 174.345C193.268 180.168 190.373 184.508 188.093 187.438C192.725 190.982 201.446 196.733 213.858 199.409C223.81 201.579 232.278 200.928 237.597 200.06C240.709 191.271 243.749 181.253 246.246 170.114C248.598 159.626 250.154 149.861 251.131 141.036C249.575 140.276 245.016 137.889 242.7 132.609C242.555 132.284 239.226 124.435 242.917 119.734C245.124 116.949 248.236 117.274 248.236 116.406C248.236 114.092 226.162 105.954 211.398 116.877Z" fill="white" stroke="#161616" stroke-width="2" stroke-miterlimit="10"/>
<path opacity="0.13" d="M221.06 113.079C220.336 114.381 220.083 117.853 220.083 119.806C220.083 121.868 220.3 123.604 220.553 124.833C220.553 128.052 224.027 143.965 221.602 159.083C218.816 176.443 209.443 189.825 204.884 195.648C208.539 197.347 214.003 199.373 220.915 200.277C227.79 201.145 233.544 200.566 237.525 199.879C240.13 192.429 242.591 184.219 244.762 175.286C247.73 163.061 249.575 151.669 250.697 141.506C248.815 140.276 242.881 136.081 241.433 128.812C241.035 126.714 240.311 123.17 242.446 119.987C244.364 117.094 247.44 116.189 248.526 115.936C234.413 110.656 223.014 109.535 221.06 113.079Z" fill="#666666"/>
<path opacity="0.17" d="M241.506 131.235C241.976 137.564 241.867 145.376 240.13 154.092C235.607 176.986 222.724 192.284 215.776 199.373C218.671 200.132 222.543 200.856 227.139 200.856C231.264 200.892 234.775 200.349 237.489 199.735C242.519 186.353 246.97 170.765 249.467 153.188C250.046 149.137 250.516 145.195 250.842 141.325C249.25 140.385 247.078 138.83 244.98 136.443C243.351 134.562 242.229 132.718 241.506 131.235Z" fill="#666666"/>
<path opacity="0.14" d="M216.826 118.287C218.635 121.687 222.109 123.821 225.836 123.893C231.699 124.038 236.439 119.011 235.752 117.238C235.281 116.009 231.699 115.285 216.826 118.287Z" fill="#666666"/>
<path d="M206.838 71.2343C205.68 71.1258 204.594 77.3465 202.097 86.9668C198.189 102.121 195.837 106.027 198.298 111.235C198.732 112.139 200.469 115.755 204.269 117.202C208.249 118.721 214.003 117.708 216.79 114.309C223.122 106.569 210.601 90.4388 207.924 74.0191C207.779 73.2958 207.489 71.3066 206.838 71.2343Z" fill="#0A0A0A"/>
<path d="M217.188 109.065C217.513 110.403 217.875 112.464 217.549 114.924C217.369 116.443 216.97 117.708 216.609 118.721C218.165 119.155 220.553 119.625 223.412 119.481C226.777 119.3 229.419 118.323 230.975 117.6C230.432 116.406 229.926 115.104 229.455 113.622C228.623 111.054 228.189 108.667 227.935 106.605C227.429 107.22 225.728 109.028 222.833 109.643C220.119 110.222 217.948 109.39 217.188 109.065Z" fill="white" stroke="#161616" stroke-width="2" stroke-miterlimit="10"/>
<path d="M207.164 75.3932C203.581 84.7966 203.834 97.5634 211 106.677C212.121 108.124 213.207 109.173 213.931 109.824C218.925 110.294 222.76 109.498 225.076 108.811C226.705 108.341 228.37 107.835 230.143 106.641C234.087 104.001 235.716 100.023 236.331 98.0698C237.489 99.0101 238.393 99.1548 239.009 99.1186C242.266 98.9016 245.631 92.8618 243.641 88.8111C242.555 86.6049 240.239 85.7008 239.298 85.4114C238.574 82.5543 235.933 73.7296 227.61 68.7748C225.475 67.5089 219.069 63.7114 213.605 66.3154C209.986 68.0152 208.575 71.7042 207.164 75.3932Z" fill="white" stroke="#161616" stroke-width="2" stroke-miterlimit="10"/>
<path d="M218.165 111.234C218.056 111.271 217.911 111.307 217.803 111.379C217.224 111.596 217.332 112.392 217.948 112.428C220.951 112.717 224.678 110.728 227.103 109.101C227.682 108.703 227.139 107.762 226.56 108.16C224.28 109.679 220.77 111.596 217.948 111.343C217.984 111.705 218.056 112.066 218.092 112.392C218.201 112.356 218.346 112.319 218.454 112.247C219.106 112.03 218.816 110.981 218.165 111.234Z" fill="#161616"/>
<path d="M218.273 111.741C220.589 111.415 222.869 110.8 225.04 109.932C225.692 109.679 225.402 108.63 224.751 108.884C222.543 109.752 220.3 110.366 217.984 110.692C217.296 110.8 217.586 111.849 218.273 111.741Z" fill="#161616"/>
<path d="M218.418 111.162C219.214 111.234 220.046 111.198 220.843 110.981C221.53 110.8 221.241 109.752 220.553 109.932C219.865 110.113 219.142 110.149 218.418 110.077C217.73 110.005 217.73 111.09 218.418 111.162Z" fill="#161616"/>
<path d="M225.113 92.6448C225.8 92.6448 225.8 91.5598 225.113 91.5598C224.425 91.5598 224.425 92.6448 225.113 92.6448Z" fill="#161616"/>
<path d="M228.478 92.1024C228.478 92.0662 228.478 92.03 228.478 92.03C228.478 91.7407 228.225 91.4875 227.935 91.4875C227.646 91.4875 227.392 91.7407 227.392 92.03C227.392 92.0662 227.392 92.1024 227.392 92.1024C227.392 92.3917 227.646 92.6449 227.935 92.6449C228.225 92.6087 228.478 92.3917 228.478 92.1024Z" fill="#161616"/>
<path d="M226.777 94.7425C227.465 94.7425 227.465 93.6575 226.777 93.6575C226.09 93.6575 226.09 94.7425 226.777 94.7425Z" fill="#161616"/>
<path d="M208.213 90.1856C208.901 90.1856 208.901 89.1006 208.213 89.1006C207.526 89.1006 207.526 90.1856 208.213 90.1856Z" fill="#161616"/>
<path d="M210.782 89.3899C211.47 89.3899 211.47 88.3049 210.782 88.3049C210.095 88.3049 210.059 89.3899 210.782 89.3899Z" fill="#161616"/>
<path d="M210.167 91.9214C210.855 91.9214 210.855 90.8364 210.167 90.8364C209.443 90.8364 209.443 91.9214 210.167 91.9214Z" fill="#161616"/>
<path d="M205.318 82.2289C204.594 81.2524 202.821 78.576 202.894 74.9232C202.93 72.3915 203.798 70.547 204.269 69.5705C205.897 66.2432 208.358 64.4349 210.384 63.0244C212.266 61.6862 215.776 59.2269 220.77 58.7567C227.392 58.1057 232.423 61.3607 235.897 63.6392C242.591 68.0154 245.631 73.6935 246.282 74.9232C247.404 77.0932 247.983 78.9739 248.888 81.7949C249.865 84.9052 249.865 85.7732 251.493 92.9342C253.086 99.9867 253.303 100.24 253.158 101.795C252.724 107.112 249.286 110.692 248.743 111.271C243.894 116.189 237.597 115.936 235.462 115.864C232.567 115.755 231.337 114.96 230.866 114.634C228.008 112.573 227.827 108.703 227.827 107.907C228.949 107.256 230.432 106.244 231.807 104.688C234.485 101.687 235.318 98.3954 235.607 96.7679C238.393 97.5997 241.18 96.5147 242.338 94.4894C243.966 91.5237 241.687 87.2199 239.117 86.8582C238.719 86.7859 237.634 86.7497 236.222 87.9432C235.064 85.2669 233.002 81.397 229.347 77.5634C224.859 72.8255 220.046 70.4024 217.151 69.1727C215.523 69.8599 213.098 71.1619 210.746 73.4404C207.272 76.6954 205.897 80.3482 205.318 82.2289Z" fill="#0A0A0A"/>
<path opacity="0.14" d="M226.669 74.7424C228.152 77.1294 230.468 81.6864 230.36 87.6178C230.143 101.578 216.717 109.39 215.885 109.824C216.753 109.969 225.221 111.307 231.12 105.303C234.232 102.121 235.173 98.4316 235.462 96.7318C236.077 96.9488 237.453 97.2743 239.045 96.8041C239.443 96.6956 241.759 96.0084 242.519 93.8384C242.881 92.8619 242.772 91.9578 242.7 91.4514C242.664 90.8366 242.519 89.3899 241.433 88.1241C241.035 87.6901 240.42 86.9668 239.407 86.7498C237.778 86.4243 236.512 87.6178 236.331 87.7624C235.498 85.7733 234.232 83.3139 232.35 80.7099C230.324 78.1421 228.333 76.1529 226.669 74.7424Z" fill="#666666"/>
<path opacity="0.18" d="M225.547 119.01C224.461 115.936 223.376 112.826 222.326 109.752C224.099 109.173 225.909 108.558 227.682 107.979C228.659 111.162 229.6 114.381 230.577 117.564C228.912 118.07 227.248 118.54 225.547 119.01Z" fill="#666666"/>
<path opacity="0.21" d="M235.86 95.1404C234.956 97.1657 233.363 100.131 230.505 102.952C225.8 107.618 220.444 109.137 218.02 109.679C219.069 109.752 225.402 110.186 230.107 106.28C232.676 104.146 234.015 101.433 234.015 101.433C234.702 100.023 235.1 98.5762 235.281 97.9614C235.571 96.8402 235.752 95.8637 235.86 95.1404Z" fill="#666666"/>
<path opacity="0.18" d="M227.935 118.576C226.886 115.394 225.873 112.175 224.823 108.992C225.728 108.703 226.633 108.377 227.537 108.088C228.514 111.271 229.528 114.453 230.505 117.636C229.672 117.925 228.804 118.251 227.935 118.576Z" fill="#666666"/>
<path d="M217.188 82.3374C216.211 86.2073 215.414 90.1133 214.763 94.0554C214.654 94.7064 214.437 95.4659 215.125 95.8276C215.921 96.2616 217.839 95.6468 218.671 95.4659C219.359 95.3213 219.069 94.2724 218.382 94.4171C217.803 94.5618 216.753 94.8873 216.211 94.8149C215.487 94.7064 215.668 94.8511 215.885 94.0193C216.174 92.7896 216.319 91.4514 216.572 90.2218C217.079 87.6901 217.622 85.1584 218.237 82.6629C218.418 81.9758 217.369 81.6864 217.188 82.3374Z" fill="#161616"/>
<path d="M208.105 86.0264C209.516 84.3989 211.977 84.3627 213.424 85.9179C213.786 86.3157 214.365 85.737 214.003 85.3392C212.266 83.4585 209.226 83.4947 207.526 85.4477C207.2 85.8455 207.779 86.4242 208.105 86.0264Z" fill="#161616"/>
<path d="M222.978 86.4242C224.896 85.1945 227.465 85.737 228.695 87.69C228.985 88.124 229.672 87.7262 229.383 87.2922C227.935 84.9775 224.859 84.2542 222.543 85.737C222.109 85.9902 222.543 86.7135 222.978 86.4242Z" fill="#161616"/>
<path d="M210.348 79.7696C211.651 79.0824 213.098 79.1185 214.365 79.8419C214.835 80.095 215.233 79.4079 214.763 79.1547C213.243 78.2867 211.47 78.2506 209.914 79.0824C209.48 79.2994 209.878 80.0227 210.348 79.7696Z" fill="#161616"/>
<path d="M223.412 79.9864C225.185 79.6971 226.886 80.1673 228.297 81.2161C228.731 81.5416 229.129 80.8183 228.695 80.5289C227.067 79.3354 225.149 78.9014 223.195 79.1908C222.688 79.2993 222.905 80.0588 223.412 79.9864Z" fill="#161616"/>
<path d="M211.868 100.059C215.849 101.289 220.046 100.384 223.195 97.6719C223.593 97.3464 223.014 96.7677 222.616 97.0932C219.685 99.6249 215.776 100.421 212.085 99.2632C211.579 99.0824 211.361 99.8781 211.868 100.059Z" fill="#161616"/>
</svg>
