<svg width="69" height="65" viewBox="0 0 69 65" fill="none" xmlns="http://www.w3.org/2000/svg">
<path d="M2.76 0.140137C1.25063 0.140137 0 1.39076 0 2.90014V62.2401C0 63.7495 1.25063 65.0001 2.76 65.0001H19.32C20.8294 65.0001 22.08 63.7495 22.08 62.2401V2.90014C22.08 1.39076 20.8294 0.140137 19.32 0.140137H2.76ZM24.84 0.140137V2.90014H66.24V51.2001H44.4188C44.2355 51.1624 44.0414 51.1624 43.8581 51.2001H33.3787C33.1955 51.1624 33.0014 51.1624 32.8181 51.2001H24.84V53.9601H31.74V56.7201H28.8075C26.5758 56.7201 24.84 58.6338 24.84 60.8601V65.0001H52.44V60.8601C52.44 58.6338 50.7042 56.7201 48.4725 56.7201H45.54V53.9601H66.24C67.7494 53.9601 69 52.7095 69 51.2001V2.90014C69 1.39076 67.7494 0.140137 66.24 0.140137H24.84ZM2.76 2.90014H19.32V62.2401H2.76V2.90014ZM24.84 5.66014V8.42014H60.72V41.5401H24.84V44.3001H60.72C62.2294 44.3001 63.48 43.0495 63.48 41.5401V8.42014C63.48 6.91076 62.2294 5.66014 60.72 5.66014H24.84ZM11.04 52.5801C9.51445 52.5801 8.28 53.8146 8.28 55.3401C8.28 56.8657 9.51445 58.1001 11.04 58.1001C12.5655 58.1001 13.8 56.8657 13.8 55.3401C13.8 53.8146 12.5655 52.5801 11.04 52.5801ZM34.5 53.9601H42.78V56.7201H34.5V53.9601ZM28.8075 59.4801H48.4725C49.114 59.4801 49.68 60.0462 49.68 60.8601V62.2401H27.6V60.8601C27.6 60.0462 28.166 59.4801 28.8075 59.4801Z" fill="#272929"/>
</svg>
