<svg width="69" height="69" viewBox="0 0 69 69" fill="none" xmlns="http://www.w3.org/2000/svg">
<path d="M67.293 65.8672H63.0156V3.13281H67.293C68.0804 3.13281 68.7188 2.49449 68.7188 1.70703C68.7188 0.919572 68.0804 0.28125 67.293 0.28125C64.3537 0.28125 6.56224 0.28125 1.70703 0.28125C0.919715 0.28125 0.28125 0.919572 0.28125 1.70703C0.28125 2.49449 0.919715 3.13281 1.70703 3.13281H5.98438V65.8672H1.70703C0.919715 65.8672 0.28125 66.5057 0.28125 67.293C0.28125 68.0803 0.919715 68.7188 1.70703 68.7188C4.64628 68.7188 62.4379 68.7188 67.293 68.7188C68.0804 68.7188 68.7188 68.0803 68.7188 67.293C68.7188 66.5057 68.0804 65.8672 67.293 65.8672ZM41.6289 47.332C43.2013 47.332 44.4805 48.6112 44.4805 50.1836C44.4805 51.7559 43.2013 53.0352 41.6289 53.0352C40.0567 53.0352 38.7773 51.7559 38.7773 50.1836C38.7773 48.6112 40.0567 47.332 41.6289 47.332ZM8.83594 30.2227V23.0938H60.1641V30.2227H8.83594ZM60.1641 20.2422H8.83594V13.1133H60.1641V20.2422ZM60.1641 3.13281V10.2617H8.83594V3.13281H60.1641ZM8.83594 65.8672V33.0742H40.2031V44.661C37.7462 45.2957 35.9258 47.5312 35.9258 50.1836C35.9258 53.3283 38.4842 55.8867 41.6289 55.8867C44.7738 55.8867 47.332 53.3283 47.332 50.1836C47.332 47.5311 45.5117 45.2957 43.0547 44.661V33.0742H60.1641V65.8672H8.83594Z" fill="#272929"/>
</svg>
