<svg width="485" height="370" viewBox="0 0 485 370" fill="none" xmlns="http://www.w3.org/2000/svg">
<path d="M66.8178 304.731C67.598 304.279 68.4192 303.827 69.1994 303.375C69.8975 303.005 69.2816 301.937 68.5835 302.307C67.8033 302.759 66.9821 303.21 66.2019 303.662C65.5038 304.073 66.1198 305.141 66.8178 304.731Z" fill="#161616"/>
<path d="M55.8131 310.03C63.3275 306.826 70.842 303.621 78.3564 300.417C85.8708 297.212 92.8925 294.049 101.31 294.912C108.989 295.692 116.545 298.609 123.73 301.321C131.245 304.155 138.595 307.36 145.74 310.975C147.136 311.674 148.409 309.537 146.972 308.839C135.639 303.169 123.772 298.157 111.617 294.583C105.745 292.857 99.5857 291.707 93.4674 292.57C87.3491 293.433 81.6003 296.349 75.9748 298.773C68.8299 301.814 61.685 304.854 54.5812 307.935C53.103 308.51 54.3759 310.646 55.8131 310.03Z" fill="#161616"/>
<path d="M125.455 328.025C159.824 328.025 194.153 328.025 228.522 328.025C238.336 328.025 248.15 328.025 257.964 328.025C259.565 328.025 259.565 325.56 257.964 325.56C223.594 325.56 189.266 325.56 154.897 325.56C145.083 325.56 135.269 325.56 125.455 325.56C123.854 325.56 123.854 328.025 125.455 328.025Z" fill="#161616"/>
<path d="M235.79 336.077C278.865 336.077 321.939 336.077 365.014 336.077C377.291 336.077 389.528 336.077 401.806 336.077C403.407 336.077 403.407 333.612 401.806 333.612C358.731 333.612 315.657 333.612 272.582 333.612C260.304 333.612 248.068 333.612 235.79 333.612C234.23 333.612 234.23 336.077 235.79 336.077Z" fill="#161616"/>
<path d="M296.645 327.08C344.77 327.08 392.854 327.08 440.979 327.08C454.653 327.08 468.327 327.08 482.001 327.08C483.602 327.08 483.602 324.615 482.001 324.615C433.876 324.615 385.791 324.615 337.666 324.615C323.992 324.615 310.318 324.615 296.645 324.615C295.043 324.615 295.043 327.08 296.645 327.08Z" fill="#161616"/>
<path d="M150.955 314.098C158.264 316.686 165.532 319.438 172.718 322.355C174.196 322.972 174.812 320.589 173.375 319.972C166.189 317.056 158.921 314.303 151.612 311.715C150.134 311.181 149.477 313.563 150.955 314.098Z" fill="#161616"/>
<path d="M59.7961 334.023C78.6849 334.023 97.6147 334.023 116.503 334.023C118.105 334.023 118.105 331.558 116.503 331.558C97.6147 331.558 78.6849 331.558 59.7961 331.558C58.2358 331.558 58.2358 334.023 59.7961 334.023Z" fill="#161616"/>
<path d="M228.399 360.686C252.461 360.686 276.524 360.686 300.587 360.686C302.188 360.686 302.188 358.221 300.587 358.221C276.524 358.221 252.461 358.221 228.399 358.221C226.797 358.221 226.797 360.686 228.399 360.686Z" fill="#161616"/>
<path d="M25.0162 334.187C18.4872 329.874 13.6008 323.629 10.1105 316.686C8.13949 312.824 6.62018 308.798 5.34725 304.69C4.77237 302.923 3.82793 300.787 3.70475 298.938C3.66368 298.116 3.37625 298.24 4.23856 298.198C4.69025 298.198 5.34725 298.527 5.75787 298.65C6.90762 298.979 8.01631 299.349 9.16606 299.677C9.94625 299.924 10.2337 298.733 9.49456 298.486C8.09843 298.075 6.70231 297.623 5.30618 297.212C4.69024 297.007 3.74581 296.555 3.04775 296.802C1.898 297.171 2.26756 298.363 2.47287 299.267C3.74581 304.279 5.38831 309.209 7.44143 313.933C11.1371 322.397 16.6394 330.079 24.4002 335.256C25.0572 335.708 25.6732 334.639 25.0162 334.187Z" fill="#E8E8E8"/>
<path d="M8.468 298.281C2.34968 283.326 2.10331 267.016 1.89799 251.076C1.52843 251.24 1.19994 251.364 0.830374 251.528C1.98012 252.678 3.17094 253.87 4.32069 255.02C4.89556 255.595 5.75787 254.691 5.183 254.157C4.03325 253.007 2.84243 251.815 1.69268 250.665C1.32312 250.295 0.625061 250.583 0.625061 251.117C0.789311 267.14 1.07674 283.573 7.23612 298.65C7.56462 299.349 8.75543 299.02 8.468 298.281Z" fill="#E8E8E8"/>
<path d="M5.42937 253.828C5.51149 243.681 6.62018 233.574 8.83756 223.673C8.55012 223.797 8.22162 223.92 7.93418 224.043C19.6781 232.383 24.2771 247.214 28.5476 260.279C33.5572 275.644 37.5402 291.461 39.2649 307.565C39.7576 312.044 40.0451 316.522 40.1682 321.041C40.2914 325.724 40.5378 330.613 39.2649 335.173C39.0596 335.954 40.2504 336.283 40.4557 335.502C41.5233 331.558 41.4823 327.409 41.4412 323.383C41.4001 319.274 41.1948 315.166 40.8253 311.058C40.0861 302.8 38.7721 294.583 37.0064 286.49C35.1586 278.027 32.8591 269.687 30.1901 261.47C27.9316 254.445 25.5911 247.337 22.4292 240.641C19.1442 233.78 14.7916 227.453 8.55012 223.016C8.22162 222.811 7.72887 223.016 7.64674 223.386C5.42937 233.41 4.27962 243.599 4.19749 253.87C4.19749 254.65 5.42937 254.65 5.42937 253.828Z" fill="#E8E8E8"/>
<path d="M33.5572 274.288C39.5934 256.458 52.6513 242.202 60.1246 225.07C59.7551 224.947 59.3444 224.865 58.9749 224.742C59.714 232.753 60.3299 240.805 60.9048 248.858C61.1922 252.884 61.3976 256.91 61.6439 260.936C61.7261 262.826 61.8492 264.675 61.9314 266.564C62.0135 268.002 62.0956 268.372 60.9869 269.317C60.2067 269.974 59.1391 270.467 58.2357 271.043C57.5787 271.453 58.1947 272.521 58.8517 272.111C60.2067 271.248 61.6029 270.385 62.9579 269.522C63.1222 269.399 63.2864 269.194 63.2454 268.988C62.5473 254.239 61.5618 239.449 60.2067 224.742C60.1657 224.208 59.3444 223.797 59.057 224.413C51.5015 241.668 38.4436 256.006 32.3664 273.918C32.12 274.74 33.3108 275.028 33.5572 274.288Z" fill="#E8E8E8"/>
<path d="M58.1947 272.069C63.9434 271.741 60.1657 284.148 59.5087 287.188C58.441 292.2 57.1681 297.171 55.6899 302.06C52.6923 311.961 48.7914 321.534 44.1102 330.736C43.7407 331.435 44.8083 332.051 45.1779 331.353C50.5981 320.712 54.9507 309.578 58.1536 298.075C59.755 292.282 61.069 286.407 62.0545 280.491C62.5884 277.205 63.5328 270.508 58.2357 270.837C57.4145 270.878 57.4145 272.11 58.1947 272.069Z" fill="#E8E8E8"/>
<path d="M58.5232 226.508C55.4435 251.569 44.5209 274.617 37.9509 298.774C37.7456 299.554 38.9364 299.883 39.1417 299.102C45.7527 274.822 56.6343 251.651 59.755 226.508C59.8372 225.687 58.6053 225.728 58.5232 226.508Z" fill="#E8E8E8"/>
<path d="M7.48249 223.879C17.0501 252.473 24.7698 281.683 30.5596 311.263C32.2021 319.644 33.6804 328.107 35.0354 336.529C35.1586 337.31 36.3494 336.981 36.2262 336.201C31.5451 306.415 24.9341 276.917 16.3931 247.995C13.9704 239.778 11.3834 231.603 8.6733 223.509C8.42693 222.811 7.23612 223.139 7.48249 223.879Z" fill="#E8E8E8"/>
<path d="M1.48737 261.511C12.2868 268.126 20.8689 277.821 26.1659 289.325C26.4944 290.064 27.5621 289.407 27.2336 288.708C21.8544 277.041 13.067 267.181 2.10331 260.443C1.44631 260.032 0.789307 261.1 1.48737 261.511Z" fill="#E8E8E8"/>
<path d="M4.56705 305.511C15.2844 309.291 26.9872 313.646 32.8181 324.122C33.1876 324.82 34.2552 324.204 33.8857 323.506C27.8495 312.742 15.9003 308.223 4.89555 304.32C4.15643 304.032 3.82792 305.224 4.56705 305.511Z" fill="#E8E8E8"/>
<path d="M19.4727 237.765C18.4872 244.05 17.9124 250.336 17.8302 256.704C17.8302 257.485 19.0621 257.485 19.0621 256.704C19.1442 250.459 19.6781 244.256 20.6636 238.093C20.7867 237.313 19.5959 236.984 19.4727 237.765Z" fill="#E8E8E8"/>
<path d="M41.0716 256.581C42.1392 263.976 43.1658 271.371 44.2334 278.807C44.3566 279.588 45.5474 279.259 45.4242 278.478C44.3566 271.083 43.3301 263.688 42.2624 256.252C42.1392 255.431 40.9484 255.8 41.0716 256.581Z" fill="#E8E8E8"/>
<path d="M51.7068 261.264C55.6488 257.731 59.0159 253.664 61.685 249.063C62.0956 248.364 61.028 247.748 60.6174 248.446C57.9894 252.924 54.7044 256.951 50.8445 260.402C50.2285 260.936 51.1319 261.798 51.7068 261.264Z" fill="#E8E8E8"/>
<path d="M420.941 323.835C417.163 312.701 415.028 301.157 414.535 289.407C414.207 289.571 413.919 289.777 413.591 289.941C415.644 291.132 417.656 292.365 419.709 293.556C420.161 293.803 420.777 293.392 420.612 292.858C418.765 287.64 418.436 282.053 419.832 276.671C421.269 271.248 424.431 266.318 427.1 261.429C432.644 251.199 438.228 240.97 443.772 230.74C443.402 230.699 443.032 230.658 442.663 230.576C443.977 238.669 445.291 246.803 446.605 254.897C447.262 258.882 447.919 262.867 448.535 266.852C448.863 268.824 449.767 271.33 448.576 273.138C447.59 274.617 445.784 275.439 444.182 276.137C443.648 276.383 443.895 277.082 444.346 277.246C446.112 277.986 448.247 278.931 449.11 280.738C450.054 282.792 448.904 285.75 448.371 287.887C447.344 292.077 446.112 296.227 444.675 300.335C441.759 308.593 438.023 316.481 433.547 323.999C433.136 324.697 434.204 325.314 434.615 324.615C439.747 315.947 443.936 306.744 447.016 297.131C447.755 294.789 448.453 292.406 449.069 290.023C449.644 287.764 450.424 285.34 450.629 282.998C450.957 279.177 447.673 277.369 444.634 276.096C444.675 276.466 444.716 276.835 444.798 277.205C447.221 276.137 450.054 274.617 450.342 271.659C450.506 269.728 449.89 267.592 449.602 265.743C449.233 263.36 448.822 260.977 448.453 258.553C446.933 249.104 445.373 239.696 443.854 230.247C443.772 229.713 442.95 229.672 442.745 230.083C436.791 241.011 430.837 251.939 424.883 262.908C422.255 267.756 419.339 272.563 418.272 278.068C417.286 283.121 417.738 288.298 419.463 293.145C419.75 292.899 420.079 292.694 420.366 292.447C418.313 291.256 416.301 290.023 414.248 288.832C413.837 288.585 413.303 288.873 413.303 289.366C413.755 301.198 415.931 312.907 419.75 324.122C419.996 324.903 421.187 324.574 420.941 323.835Z" fill="#E8E8E8"/>
<path d="M449.151 258.183C457.692 249.227 466.192 240.189 474.568 231.068C474.24 230.863 473.87 230.658 473.542 230.452C472.228 236.943 471.653 243.599 471.981 250.213C472.146 253.623 472.638 256.951 473.049 260.32C473.254 261.84 473.419 263.401 473.46 264.921C473.501 265.743 473.624 267.016 472.721 267.55C471.981 267.961 470.134 267.879 469.23 267.961C468.779 268.002 468.327 268.66 468.779 269.029C473.583 272.85 469.436 279.834 467.424 284.107C465.247 288.749 462.907 293.269 460.361 297.706C455.187 306.744 449.233 315.33 442.622 323.383C442.129 323.999 442.991 324.862 443.484 324.245C450.793 315.371 457.281 305.84 462.866 295.816C465.699 290.721 468.327 285.463 470.626 280.122C472.269 276.26 473.501 271.248 469.682 268.208C469.518 268.577 469.395 268.906 469.23 269.276C471.53 269.029 474.404 269.399 474.692 266.564C475.02 262.785 473.994 258.759 473.583 255.02C472.68 246.968 473.09 238.833 474.733 230.863C474.856 230.288 474.158 229.795 473.706 230.247C465.288 239.367 456.829 248.406 448.288 257.362C447.714 257.896 448.576 258.759 449.151 258.183Z" fill="#E8E8E8"/>
<path d="M468.779 238.176C462.742 250.542 461.675 264.757 457.445 277.739C452.97 291.543 446.646 304.649 439.871 317.426C439.501 318.124 440.569 318.74 440.938 318.042C447.508 305.594 453.668 292.858 458.143 279.506C460.361 272.85 462.003 266.113 463.523 259.252C465.042 252.267 466.684 245.242 469.846 238.792C470.175 238.094 469.148 237.477 468.779 238.176Z" fill="#E8E8E8"/>
<path d="M441.267 238.094C440.117 264.634 429.564 289.571 427.306 315.947C427.223 316.727 428.455 316.727 428.537 315.947C430.796 289.571 441.349 264.634 442.499 238.094C442.499 237.313 441.267 237.313 441.267 238.094Z" fill="#E8E8E8"/>
<path d="M420.612 271.618C423.199 278.848 426.402 285.791 430.221 292.447C430.632 293.145 431.699 292.529 431.289 291.831C427.511 285.257 424.349 278.396 421.803 271.289C421.557 270.549 420.366 270.878 420.612 271.618Z" fill="#E8E8E8"/>
<path d="M433.013 248.693C434.491 254.28 435.929 259.868 437.407 265.455C437.612 266.236 438.803 265.907 438.598 265.126C437.119 259.539 435.682 253.952 434.204 248.364C433.999 247.584 432.808 247.912 433.013 248.693Z" fill="#E8E8E8"/>
<path d="M445.044 245.571C443.197 248.981 441.39 252.432 439.542 255.842C439.172 256.54 440.24 257.156 440.61 256.458C442.458 253.048 444.264 249.597 446.112 246.187C446.482 245.489 445.414 244.872 445.044 245.571Z" fill="#E8E8E8"/>
<path d="M453.832 251.363C454.448 260.402 455.351 269.44 456.583 278.437C456.706 279.218 457.856 278.889 457.774 278.109C456.583 269.235 455.68 260.319 455.064 251.363C455.023 250.583 453.791 250.583 453.832 251.363Z" fill="#E8E8E8"/>
<path d="M463.03 260.443C463.44 258.06 465.699 256.211 467.259 254.445C468.861 252.637 470.503 250.829 472.105 249.022C472.638 248.446 471.776 247.543 471.242 248.159C469.271 250.336 467.341 252.514 465.37 254.691C463.933 256.293 462.25 257.854 461.839 260.073C461.716 260.895 462.907 261.223 463.03 260.443Z" fill="#E8E8E8"/>
<path d="M3.41731 215.703C14.3399 215.21 24.5234 211.225 35.1176 208.966C46.8614 206.46 58.5232 207.692 70.1028 210.404C81.4361 213.074 92.6051 216.525 103.856 219.483C115.148 222.482 126.441 225.317 137.774 228.028C183.394 238.956 229.59 247.748 276.031 254.363C302.065 258.06 328.222 261.059 354.42 263.36C355.2 263.442 355.2 262.21 354.42 262.127C307.444 257.978 260.715 251.61 214.355 243.024C191.155 238.71 168.037 233.903 145.083 228.48C122.375 223.139 99.8731 217.018 77.3709 210.938C65.1753 207.651 52.5281 204.981 39.8808 206.788C27.5621 208.555 15.9824 213.855 3.45837 214.389C2.63712 214.471 2.63712 215.703 3.41731 215.703Z" fill="#E8E8E8"/>
<path d="M200.887 242.654C237.843 239.08 274.471 232.589 310.401 223.181C328.468 218.456 346.207 212.704 363.987 206.994C372.569 204.241 381.274 201.653 390.144 200.009C399.712 198.202 409.361 197.791 419.093 198.407C429.892 199.106 440.692 200.503 451.45 201.694C462.25 202.885 473.09 204.036 483.89 205.227C484.67 205.309 484.67 204.077 483.89 203.995C464.59 201.899 445.291 199.558 425.95 197.709C416.506 196.805 407.021 196.435 397.617 197.627C388.748 198.695 380.002 200.872 371.461 203.419C353.598 208.719 336.024 214.964 318.038 219.894C300.094 224.824 281.985 229.014 263.712 232.465C242.935 236.409 221.952 239.408 200.887 241.421C200.107 241.504 200.107 242.736 200.887 242.654Z" fill="#E8E8E8"/>
<path d="M208.853 302.636C240.471 302.43 264.985 279.382 292.785 267.756C300.874 264.387 309.374 261.922 318.12 261.265C318.9 261.224 318.9 259.991 318.12 260.032C286.831 262.374 263.097 285.504 234.763 296.186C226.469 299.308 217.764 301.321 208.853 301.403C208.032 301.403 208.032 302.636 208.853 302.636Z" fill="#E8E8E8"/>
<path d="M322.062 259.334C356.514 251.898 382.219 225.645 413.385 211.02C422.378 206.788 431.904 203.625 441.801 202.31C442.581 202.187 442.581 200.954 441.801 201.077C406.528 205.761 379.96 232.054 349.451 247.83C340.664 252.391 331.425 256.088 321.734 258.183C320.954 258.307 321.282 259.498 322.062 259.334Z" fill="#E8E8E8"/>
<path d="M289.705 86.0443C304.939 79.019 322.144 92.823 337.091 84.0723C337.789 83.6615 337.173 82.5933 336.475 83.0041C321.693 91.6727 304.364 77.9509 289.089 84.9761C288.35 85.3048 288.966 86.3729 289.705 86.0443Z" fill="#E8E8E8"/>
<path d="M217.599 9.42354C234.23 5.89037 250.819 11.108 266.792 15.5039C282.724 19.8998 298.78 22.6113 315.328 22.2826C324.649 22.0772 333.929 21.009 343.045 19.1603C343.825 18.996 343.497 17.8045 342.717 17.9689C325.84 21.4199 308.388 22.0361 291.306 19.6533C274.923 17.3526 259.483 11.3134 243.263 8.39646C234.64 6.83529 225.853 6.42446 217.271 8.27321C216.532 8.39646 216.86 9.58787 217.599 9.42354Z" fill="#E8E8E8"/>
<path d="M25.7964 57.7788C40.7431 49.3567 58.1126 48.6583 74.0448 54.6154C82.0931 57.6145 89.7717 61.312 98.0664 63.6126C105.991 65.8311 114.163 67.1458 122.375 67.5977C131.82 68.0907 141.305 67.3512 150.626 65.5025C151.407 65.3381 151.078 64.1467 150.298 64.3111C133.011 67.8032 115.025 67.1458 98.0664 62.3391C89.6486 59.9562 81.8467 56.1766 73.6752 53.1775C65.9966 50.3838 58.0304 48.9459 49.859 49.4389C41.1948 49.973 32.777 52.438 25.2215 56.7107C24.4824 57.0804 25.0983 58.1486 25.7964 57.7788Z" fill="#E8E8E8"/>
<path d="M421.721 52.8899C414.289 44.7965 411.538 33.1288 413.796 22.4471C414.946 17.0652 417.327 11.8887 421.023 7.73929C423.487 4.94562 426.279 3.42554 429.934 2.72712C433.588 2.02871 437.325 1.57679 441.061 1.5357C454.078 1.45354 466.725 9.21829 470.134 22.2828C471.858 28.9383 470.585 35.5116 467.383 41.4687C464.262 47.1793 460.032 52.6845 454.366 56.0122C443.607 62.298 428.907 60.4903 420.079 51.6985C419.504 51.1233 418.641 52.0271 419.216 52.5612C427.552 60.819 440.733 63.2018 451.532 58.7648C457.569 56.2998 462.209 51.6574 465.822 46.3165C469.805 40.4416 472.68 33.8272 472.105 26.5965C471.037 13.1623 460.073 2.89146 447.098 0.755122C443.279 0.138872 439.378 0.22104 435.559 0.672956C432.11 1.04271 428.25 1.37137 425.088 2.93254C419.791 5.52079 416.178 11.6422 414.166 16.942C409.484 29.267 411.948 44.0159 420.9 53.7526C421.393 54.3278 422.255 53.465 421.721 52.8899Z" fill="#E8E8E8"/>
<path d="M68.7067 180.454C87.2259 177.906 105.006 185.342 122.334 190.807C130.875 193.518 139.581 195.901 148.532 196.558C157.977 197.257 167.01 195.49 175.921 192.45C185.406 189.204 194.563 185.178 204.418 183.206C213.616 181.357 223.02 180.988 232.382 181.44C251.435 182.384 270.077 186.616 288.843 189.656C308.963 192.861 329.741 194.709 349.656 189.204C350.436 188.999 350.108 187.807 349.328 188.013C312.33 198.243 274.676 183.535 237.72 180.577C228.645 179.837 219.447 179.796 210.372 180.988C200.682 182.261 191.607 185.342 182.491 188.752C173.17 192.244 163.725 195.449 153.624 195.531C144.344 195.572 135.269 193.477 126.441 190.807C107.593 185.178 88.5399 176.51 68.3782 179.303C67.598 179.385 67.9675 180.577 68.7067 180.454Z" fill="#E8E8E8"/>
<path d="M212.015 163.24C219.488 159.296 227.454 155.804 235.913 154.777C244.372 153.75 252.461 155.886 260.386 158.597C268.27 161.268 276.031 163.979 284.203 165.623C292.169 167.225 300.258 168.088 308.389 168.211C325.06 168.457 341.444 165.417 357.089 159.666C372.816 153.873 387.68 145.985 403.12 139.535C420.653 132.181 439.542 126.635 458.718 128.689C459.499 128.771 459.499 127.538 458.718 127.456C424.062 123.759 393.552 143.725 362.755 156.174C346.782 162.624 330.152 166.65 312.905 166.978C304.405 167.143 295.864 166.485 287.488 165.006C279.152 163.527 271.186 161.062 263.22 158.269C254.638 155.27 245.85 152.558 236.652 153.503C227.701 154.407 219.324 158.063 211.399 162.213C210.701 162.541 211.317 163.61 212.015 163.24Z" fill="#E8E8E8"/>
<path d="M125.127 83.2913C138.882 75.0336 155.061 81.0728 169.022 85.4276C183.476 89.9468 198.546 92.0831 213.739 91.3436C222.28 90.9328 230.739 89.6181 238.993 87.5229C239.773 87.3175 239.445 86.1261 238.664 86.3315C223.389 90.2344 207.457 91.2615 191.812 89.2484C183.805 88.2213 176.003 86.3315 168.283 83.8665C161.179 81.6069 154.076 79.1419 146.602 78.2381C139.047 77.3342 131.163 78.197 124.552 82.1821C123.854 82.634 124.47 83.7022 125.127 83.2913Z" fill="#E8E8E8"/>
<path d="M315.246 330.038C315.246 333.201 318.202 335.502 321.611 338.213C324.813 340.719 329.946 343.924 337.214 345.28C338.405 349.388 340.869 357.317 342.511 356.906C343.866 356.578 344.482 350.21 343.702 345.033C343.415 343.102 343.127 341.295 342.101 339.446C339.678 335.214 336.516 336.611 333.108 333.283C328.838 329.093 330.48 323.588 327.195 321.616C322.966 319.069 315.246 324.861 315.246 330.038Z" fill="#161616"/>
<path d="M315.287 336.2C314.917 339.281 317.628 342.116 320.748 345.444C325.922 350.949 331.26 353.702 335.079 355.098C335.9 360.891 337.379 369.313 339.021 369.272C340.54 369.231 342.142 362.247 341.813 356.167C341.69 353.907 341.608 352.223 340.828 350.374C338.816 345.567 335.243 346.717 332.574 342.65C329.577 338.008 332.123 333.448 329.618 330.613C326.004 326.504 315.944 330.736 315.287 336.2Z" fill="#161616"/>
<path d="M275.128 324.738C273.609 324.574 272.91 327.737 270.159 332.708C268.64 335.502 264.862 342.363 259.113 346.266C254.597 349.306 250.655 349.347 250.696 350.785C250.737 351.853 252.954 352.551 254.145 352.716C257.06 353.127 259.237 351.196 259.935 350.579C264.575 347.621 268.229 344.581 270.816 342.198C277.222 336.324 277.961 333.776 278.084 331.887C278.29 328.559 276.729 324.902 275.128 324.738Z" fill="#161616"/>
<path d="M275.251 320.424C277.468 321.616 280.712 323.136 284.736 324.286C287.282 324.985 295.125 326.915 307.116 324.82C320.379 322.478 323.746 317.795 327.359 321.246C331.137 324.861 331.876 334.475 329.043 340.226C327.318 343.719 323.787 345.074 316.765 347.827C311.263 349.963 307.157 351.565 301.244 351.689C294.304 351.853 289.212 349.84 286.215 348.69C279.973 346.184 274.512 344.006 272.377 337.72C271.473 335.091 271.432 332.544 271.555 330.859C272.828 327.367 274.06 323.875 275.251 320.424Z" fill="#161616"/>
<path d="M317.053 325.888C317.381 323.506 320.132 322.889 322.514 321.369C328.797 317.302 327.934 309.537 332.246 308.469C335.9 307.565 337.461 312.947 341.156 311.92C345.509 310.688 346.741 302.307 348.26 302.882C349.369 303.293 350.026 308.469 348.26 311.715C346.453 315.001 342.676 315.371 338.364 315.782C334.053 316.193 333.724 315.207 331.917 316.193C328.591 318.083 329.207 321.739 325.142 325.642C322.842 327.86 319.229 330.038 317.71 328.436C317.176 327.86 316.929 326.792 317.053 325.888Z" fill="#161616"/>
<path d="M277.017 329.545C275.497 329.38 274.799 332.544 272.048 337.515C270.529 340.309 266.751 347.169 261.002 351.072C256.485 354.113 252.543 354.154 252.585 355.592C252.626 356.66 254.843 357.358 256.034 357.522C258.949 357.933 261.126 356.002 261.824 355.386C266.464 352.428 270.118 349.388 272.705 347.005C279.111 341.13 279.85 338.583 279.973 336.693C280.179 333.365 278.618 329.709 277.017 329.545Z" fill="#161616"/>
<path d="M255.87 323.506C256.855 329.668 255.952 330.942 257.471 332.955C259.77 336.036 264.082 336.447 264.821 336.529C268.024 336.858 268.517 335.543 271.966 335.913C275.826 336.324 276.442 338.008 278.372 337.392C281.205 336.488 282.026 332.01 282.273 330.613C282.314 330.49 282.314 330.367 282.314 330.284C282.642 327.532 281.985 325.067 281.082 323.136C275.744 320.835 272.582 317.959 270.652 315.782C268.599 313.44 267.326 311.057 266.217 311.345C264.985 311.674 264.821 315.084 264.862 317.754C263.384 318.165 261.906 318.576 260.427 318.986C256.609 315.125 255.295 314.837 254.761 315.166C253.899 315.659 255.007 317.959 255.87 323.506Z" fill="#161616"/>
<path d="M262.85 329.011C263.179 330.325 264.411 331.188 265.766 331.106C265.971 331.106 265.971 330.777 265.766 330.777C264.575 330.9 263.466 330.12 263.179 328.928C263.097 328.764 262.809 328.846 262.85 329.011Z" fill="white"/>
<path d="M262.727 328.928C262.727 329.421 262.727 329.956 262.604 330.449C262.563 330.695 262.481 330.9 262.357 331.106C262.357 331.106 261.783 331.928 261.7 331.804C261.618 331.64 261.331 331.804 261.454 331.969C261.7 332.421 262.316 331.722 262.481 331.517C263.014 330.777 263.055 329.791 263.055 328.928C263.014 328.723 262.727 328.723 262.727 328.928Z" fill="white"/>
<path d="M262.809 328.764C262.727 328.888 262.932 328.805 262.891 328.847C262.768 328.929 262.768 328.764 262.891 328.723C263.014 328.723 263.014 328.888 262.973 328.929C262.932 328.97 262.932 328.97 262.891 328.97C262.85 328.97 262.809 328.97 262.809 328.929V328.888C262.768 328.888 262.727 328.888 262.727 328.847C262.563 328.723 262.398 329.011 262.563 329.093C262.768 329.216 263.138 329.216 263.138 328.888C263.138 328.641 262.809 328.477 262.604 328.682C262.398 328.888 262.522 329.216 262.768 329.257C263.055 329.34 263.302 329.134 263.302 328.847C263.302 328.6 263.138 328.354 262.85 328.395C262.604 328.436 262.398 328.723 262.522 328.97C262.645 329.175 262.932 329.175 263.097 329.052C263.261 328.929 263.261 328.641 263.055 328.518C262.85 328.395 262.522 328.518 262.522 328.764C262.522 329.052 262.973 329.093 263.097 328.847C263.179 328.723 262.891 328.559 262.809 328.764Z" fill="white"/>
<path d="M258.826 326.587C259.319 325.847 260.427 325.683 261.084 326.299C261.249 326.422 261.454 326.217 261.29 326.094C260.469 325.354 259.155 325.56 258.539 326.463C258.456 326.587 258.744 326.751 258.826 326.587Z" fill="white"/>
<path d="M264.739 325.354C265.355 324.533 266.464 324.286 267.408 324.697C267.572 324.779 267.737 324.533 267.572 324.45C266.464 323.957 265.232 324.286 264.493 325.231C264.369 325.354 264.616 325.477 264.739 325.354Z" fill="white"/>
<path d="M267.203 313.687C267.737 314.714 268.106 315.823 268.27 316.973C268.311 317.179 268.599 317.096 268.558 316.891C268.353 315.7 267.983 314.59 267.449 313.522C267.408 313.358 267.121 313.522 267.203 313.687Z" fill="white"/>
<path d="M265.889 316.932C266.012 317.261 266.217 317.59 266.464 317.836C266.587 317.959 266.792 317.795 266.71 317.631C266.546 317.302 266.464 316.932 266.464 316.563C266.423 316.604 266.34 316.686 266.299 316.727C266.546 316.727 266.792 316.686 266.997 316.686C267.08 316.686 267.162 316.604 267.162 316.48C267.08 316.234 267.039 315.946 266.956 315.7C266.915 315.782 266.874 315.823 266.792 315.905C267.08 315.905 267.326 315.905 267.613 315.905C267.819 315.905 267.819 315.577 267.613 315.577C267.326 315.577 267.08 315.577 266.792 315.577C266.71 315.577 266.628 315.659 266.628 315.782C266.71 316.029 266.751 316.316 266.833 316.563C266.874 316.481 266.915 316.439 266.997 316.357C266.751 316.357 266.505 316.398 266.299 316.398C266.217 316.398 266.135 316.481 266.135 316.563C266.135 317.015 266.217 317.384 266.423 317.795C266.505 317.713 266.587 317.672 266.669 317.59C266.464 317.343 266.258 317.056 266.135 316.727C266.053 316.604 265.807 316.768 265.889 316.932Z" fill="white"/>
<path d="M261.126 329.709C260.304 329.38 259.483 328.97 258.744 328.477C258.58 328.353 258.415 328.641 258.58 328.723C259.36 329.216 260.181 329.627 261.043 329.997C261.249 330.079 261.331 329.791 261.126 329.709Z" fill="white"/>
<path d="M260.469 330.325C260.017 330.407 259.606 330.531 259.237 330.736C259.072 330.818 259.196 331.106 259.401 330.983C259.77 330.777 260.14 330.654 260.551 330.613C260.715 330.572 260.633 330.284 260.469 330.325Z" fill="white"/>
<path d="M265.109 328.723C265.93 328.066 266.792 327.491 267.696 326.915C267.86 326.833 267.696 326.546 267.531 326.669C266.587 327.244 265.725 327.86 264.862 328.518C264.739 328.641 264.944 328.846 265.109 328.723Z" fill="white"/>
<path d="M265.807 329.422C266.751 329.175 267.696 328.929 268.599 328.723C268.804 328.682 268.722 328.395 268.517 328.436C267.572 328.682 266.628 328.929 265.725 329.134C265.519 329.175 265.601 329.504 265.807 329.422Z" fill="white"/>
<path d="M261.249 332.174C262.645 331.681 262.973 330.202 263.014 328.887C263.014 328.682 262.727 328.682 262.686 328.887C262.604 330.038 262.357 331.394 261.126 331.845C260.961 331.928 261.043 332.256 261.249 332.174Z" fill="white"/>
<path d="M261.249 332.174C262.029 331.887 262.604 331.229 262.768 330.408C262.809 330.202 262.522 330.12 262.481 330.326C262.357 331.065 261.906 331.64 261.208 331.887C261.002 331.969 261.084 332.256 261.249 332.174Z" fill="white"/>
<path d="M255.582 317.302C256.527 318.329 257.225 319.479 257.717 320.794C257.799 320.958 258.087 320.917 258.005 320.712C257.512 319.356 256.773 318.165 255.787 317.097C255.664 316.973 255.459 317.179 255.582 317.302Z" fill="white"/>
<path d="M257.225 319.562C256.978 319.603 256.732 319.603 256.485 319.644C256.362 319.644 256.28 319.808 256.362 319.89C256.527 320.014 256.65 320.26 256.568 320.466C256.527 320.63 256.362 320.712 256.362 320.876C256.362 320.959 256.403 321.082 256.485 321.123C256.568 321.205 256.732 321.246 256.732 321.328C256.732 321.534 257.06 321.534 257.06 321.328C257.06 321.164 256.978 321.123 256.896 321C256.855 320.959 256.732 320.917 256.732 320.876C256.691 320.753 256.814 320.671 256.855 320.589C256.978 320.26 256.896 319.849 256.609 319.644C256.568 319.726 256.527 319.808 256.485 319.89C256.732 319.849 256.978 319.849 257.225 319.808C257.43 319.849 257.43 319.521 257.225 319.562Z" fill="white"/>
<path d="M302.845 282.628C312.207 285.257 321.57 287.927 330.932 290.557C333.601 293.145 337.748 296.678 343.538 299.554C353.516 304.525 365.589 306.209 366.574 303.868C367.026 302.841 364.48 300.54 359.388 295.939C355.036 292.036 353.106 290.844 350.026 288.009C347.767 285.914 344.647 282.751 341.403 278.273C337.666 278.232 333.149 277.862 328.14 276.794C320.05 275.027 313.645 272.069 309.21 269.522C307.074 273.918 304.939 278.273 302.845 282.628Z" fill="#161616"/>
<path d="M212.508 178.81C206.225 188.547 210.824 200.666 215.916 213.977C223.184 233.122 234.353 245.776 240.061 251.692C265.601 278.232 296.973 289.571 315.041 294.501C316.888 286.037 318.695 277.533 320.543 269.07C308.06 262.291 298.862 254.896 292.579 249.145C282.026 239.49 264.37 223.344 256.978 198.283C252.42 182.754 255.295 175.729 248.519 170.717C239.075 163.815 219.817 167.43 212.508 178.81Z" fill="#4F4F4F"/>
<path opacity="0.14" d="M253.775 183.411C250.326 188.998 245.974 198.078 247.246 208.554C248.725 220.674 256.937 228.356 276.483 245.611C293.647 260.73 307.896 273.014 317.874 281.518C318.736 277.369 319.557 273.26 320.42 269.111C313.932 265.455 305.514 260.114 296.439 252.637C291.43 248.487 284.121 242.407 276.278 232.793C270.857 226.138 263.589 217.099 258.539 203.337C255.623 195.366 254.391 188.341 253.775 183.411Z" fill="#6D6C6C"/>
<path opacity="0.14" d="M265.027 217.716C266.135 221.537 268.106 227.042 271.679 233.081C274.799 238.34 279.193 244.091 294.55 257.156C300.669 262.332 308.799 268.947 318.859 276.218C319.434 273.877 319.968 271.535 320.543 269.193C314.876 266.071 310.318 263.113 307.074 260.853C297.014 253.869 290.116 247.255 285.968 243.229C283.423 240.764 280.63 238.011 277.14 234.067C271.72 227.781 267.778 222.03 265.027 217.716Z" fill="#6D6C6C"/>
<path d="M175.059 272.152C180.273 276.835 185.488 281.519 190.703 286.202C184.996 306.908 183.271 317.672 185.571 318.617C188.322 319.726 196.863 306.497 211.235 278.93C201.955 272.439 192.715 265.948 183.435 259.498C180.602 263.689 177.81 267.92 175.059 272.152Z" fill="#161616"/>
<path d="M212.056 169.484C193.742 182.549 180.232 192.245 173.498 197.051C148.82 214.717 136.46 223.755 135.351 232.671C133.216 250.049 152.885 268.043 158.223 272.932C163.233 277.534 167.996 280.697 171.363 282.669C174.073 282.094 181.587 280.204 187.87 273.343C193.372 267.386 194.974 260.854 195.508 258.101C188.568 251.61 181.587 245.078 174.648 238.587C188.363 231.849 199.614 226.672 207.334 223.221C218.215 218.332 222.034 216.895 227.906 212.745C235.338 207.528 245.234 200.42 248.027 188.177C248.725 185.096 250.614 176.962 246.343 171.21C241.005 163.979 227.044 162.788 212.056 169.484Z" fill="#4F4F4F"/>
<path opacity="0.12" d="M232.916 178.564C234.312 179.55 246.589 188.506 244.536 197.093C244.29 198.037 243.674 200.009 237.925 205.022C230.247 211.759 223.02 215.621 219.406 217.47C211.686 221.455 206.102 223.838 200.641 226.221C194.276 228.973 185.119 233.082 173.95 238.381C181.013 244.914 188.034 251.446 195.097 257.978C194.851 259.868 194.317 262.251 193.249 264.839C191.607 268.865 189.348 271.782 187.706 273.59C185.365 269.112 182.121 263.853 177.646 258.512C170.09 249.433 162.001 243.599 155.964 239.984C170.747 233.657 190.744 222.852 210.167 204.529C219.611 195.572 227.085 186.616 232.916 178.564Z" fill="#6D6C6C"/>
<path opacity="0.19" d="M243.428 195.326C241.374 193.107 228.193 202.063 221.788 206.336C209.715 214.43 192.017 225.727 168.119 239.408C177.358 245.776 186.597 252.185 195.836 258.553C188.773 251.815 181.67 245.078 174.607 238.34C176.865 237.231 180.684 235.382 185.447 233.122C193.455 229.302 202.078 225.317 213.657 219.894C215.669 218.949 221.582 216.155 229.056 211.965C233.942 209.212 238.746 206.336 241.867 200.708C242.771 199.105 244.331 196.312 243.428 195.326Z" fill="#6D6C6C"/>
<path d="M226.674 90.8093C224.621 88.5908 220.351 89.4946 218.215 89.9466C210.865 91.4666 206.718 95.8626 199.86 101.902C196.165 105.147 190.785 109.625 183.846 114.72C181.793 105.476 179.781 96.2734 177.728 87.0296C178.549 86.0026 179.904 83.9895 180.356 81.1958C180.602 79.7168 181.218 74.4992 177.646 71.2126C173.704 67.5561 166.559 68.0902 163.274 71.8699C159.948 75.6906 161.672 81.5245 162.493 84.3182C163.274 86.9475 164.464 88.9606 165.409 90.2752C165.121 93.1922 164.834 97.4237 165.121 102.518C165.409 107.982 165.737 113.569 168.324 119.732C170.418 124.703 172.923 130.66 178.22 132.838C183.969 135.22 189.923 131.81 201.544 124.95C219.776 114.186 224.128 105.271 225.155 103.093C226.263 100.751 229.425 93.8084 226.674 90.8093Z" fill="white" stroke="#161616" stroke-width="2" stroke-miterlimit="10"/>
<path d="M176.455 83.0039C175.059 81.8125 173.58 80.4567 173.088 78.608C172.882 77.7863 172.718 76.636 174.237 76.8414C174.607 76.8825 175.141 77.3344 175.428 77.5398C176.29 78.115 177.071 78.8545 177.769 79.594C178.056 79.8816 178.467 79.4296 178.22 79.142C177.317 78.156 173.662 74.3764 172.554 76.8003C171.445 79.2653 174.443 82.059 176.044 83.3736C176.332 83.7023 176.742 83.2504 176.455 83.0039Z" fill="#161616"/>
<path d="M162.74 72.6508C162.945 75.6499 163.89 80.2102 167.914 79.5529C168.324 79.4707 168.119 78.8955 167.749 78.9777C164.177 79.5529 163.52 75.198 163.356 72.6508C163.315 72.2811 162.699 72.2811 162.74 72.6508Z" fill="#161616"/>
<path d="M166.846 70.1035C168.612 72.5685 169.022 75.5265 168.037 78.4023C167.914 78.7721 168.489 78.9364 168.612 78.5667C169.638 75.5676 169.187 72.3631 167.339 69.7748C167.133 69.4461 166.6 69.7748 166.846 70.1035Z" fill="#161616"/>
<path d="M171.445 69.0764C173.005 71.9523 172.636 75.3622 170.501 77.8683C170.254 78.1558 170.665 78.6078 170.952 78.3202C173.252 75.6498 173.703 71.9112 171.979 68.7888C171.815 68.4191 171.281 68.7478 171.445 69.0764Z" fill="#161616"/>
<path d="M176.537 71.1714C177.235 72.7326 176.865 74.4992 175.633 75.6495C175.346 75.9371 175.798 76.3479 176.085 76.1014C177.522 74.7457 177.933 72.6504 177.112 70.8428C176.906 70.473 176.373 70.8017 176.537 71.1714Z" fill="#161616"/>
<path opacity="0.17" d="M166.723 69.446C167.421 69.2406 168.283 68.9941 169.105 69.3228C171.322 70.2266 172.307 74.7868 170.336 77.1697C169.556 78.1557 168.448 78.5254 167.749 78.7308C167.791 79.4292 167.832 80.5796 167.914 82.0175C167.914 82.0175 168.119 85.8382 168.365 89.0838C169.022 97.7935 169.679 106.092 173.211 114.72C174.319 117.472 176.208 121.334 179.411 125.689C181.054 125.36 184.38 124.539 188.281 122.895C210.66 113.405 221.911 88.18 225.894 90.2342C226.633 90.6039 227.249 92.0418 227.331 92.2883C228.07 94.096 227.701 95.8626 227.126 97.7524C225.648 102.518 223.389 106.01 222.732 106.996C220.309 110.611 218.01 112.953 217.394 113.569C214.684 116.281 212.261 117.924 207.785 120.8C199.409 126.141 195.22 128.811 192.387 129.962C186.638 132.303 181.752 134.317 177.235 132.18C174.525 130.907 173.17 128.729 171.199 125.443C167.01 118.376 166.23 111.474 165.614 105.065C165.245 101.409 164.998 96.3967 165.409 90.3985C163.109 86.701 162.206 83.3732 161.795 81.278C161.262 78.5254 160.851 76.2247 162.001 73.7187C162.329 73.2257 163.725 70.3087 166.723 69.446Z" fill="#6D6C6C"/>
<path opacity="0.2" d="M227.413 94.3426C226.962 94.1372 225.565 96.2735 224.087 98.492C221.952 101.738 220.884 103.381 219.119 107.078C214.15 117.514 197.602 125.936 195.467 127.045C192.099 128.729 187.254 130.825 181.013 132.304C178.138 129.674 172.841 124.21 169.844 116.486C168.201 112.255 167.585 108.064 167.462 107.366C167.01 104.449 166.969 102.189 166.928 99.6012C166.887 96.027 167.01 92.9047 167.257 90.3986C166.353 88.7142 165.491 86.7833 164.67 84.7291C163.274 81.1548 162.37 77.8271 161.795 74.9102C161.631 77.2108 161.672 80.6207 162.822 84.5237C163.561 86.9887 164.505 89.0017 165.409 90.5218C164.629 97.1773 164.916 102.724 165.409 106.668C165.409 106.668 166.518 115.788 171.281 125.895C172.061 127.538 173.17 129.633 175.428 131.276C178.344 133.372 181.464 133.536 182.45 133.536C184.092 133.577 185.981 133.331 193.496 129.387C200.025 125.977 204.541 123.06 206.225 121.951C209.387 119.896 210.947 118.828 212.631 117.514C216.08 114.761 221.706 110.242 225.155 102.847C226.92 98.985 227.988 94.6302 227.413 94.3426Z" fill="#6D6C6C"/>
<path d="M230.37 81.1142C222.404 86.5783 212.795 95.2058 208.771 108.106C205.814 117.596 207.744 123.964 207.334 139.288C207.087 148.039 206.184 160.734 202.981 176.263C204.87 178.276 216.121 189.739 233.449 189.328C244.208 189.081 251.928 184.357 255.213 182.056C252.749 166.609 253.406 154.284 254.473 145.779C256.403 130.702 261.413 121.951 261.372 104.778C261.372 96.3972 260.222 89.5363 259.237 84.976C257.06 83.3327 252.913 80.6623 247.082 79.512C239.28 78.0741 232.998 80.0871 230.37 81.1142Z" fill="white" stroke="#161616" stroke-width="2" stroke-miterlimit="10"/>
<path opacity="0.13" d="M242.565 79.5942C242.647 83.6204 242.647 89.5364 241.99 96.6027C241.251 105.025 239.527 116.61 232.259 139.247C228.399 151.285 222.773 166.937 214.725 184.932C219.201 187.356 223.184 188.383 225.853 188.835C235.749 190.519 243.756 187.52 247.575 186.041C250.942 184.726 253.57 183.247 255.377 182.138C254.679 177.907 253.94 172.114 253.693 165.13C253.57 161.843 253.365 151.12 255.911 136.166C258.251 122.362 260.099 121.622 261.208 112.461C262.563 100.999 260.961 91.2619 259.278 84.6064C257.225 83.2506 254.022 81.443 249.792 80.4159C247 79.7586 244.495 79.5942 242.565 79.5942Z" fill="#6D6C6C"/>
<path opacity="0.15" d="M249.505 80.7036C249.916 88.3862 250.08 98.3695 249.217 109.955C248.807 115.624 247.903 126.922 245.029 139.494C242.442 150.915 237.063 168.252 224.991 187.972C227.988 188.671 232.341 189.328 237.515 188.794C245.891 187.931 251.969 184.48 255.048 182.385C252.585 164.883 253.734 151.162 255.336 141.712C256.855 132.756 258.621 128.319 259.812 118.582C261.495 104.491 260.304 92.741 258.99 84.853C258.046 83.9903 256.485 82.7167 254.268 81.7718C252.379 81.0734 250.696 80.8269 249.505 80.7036Z" fill="#6D6C6C"/>
<path d="M253.365 86.1265C259.278 86.1265 266.998 86.7427 275.744 89.0434C286.913 92.0014 295.495 96.6027 301.203 100.3C303.091 105.395 306.541 116.898 303.338 130.702C301.736 137.686 298.944 143.068 296.563 146.765C296.398 150.956 297.343 153.709 298.287 155.475C299.355 157.57 300.997 159.46 300.34 161.227C300.012 162.131 299.191 162.665 298.575 162.993C298.534 163.117 298.041 164.062 296.932 164.349C295.659 164.637 294.756 163.815 294.674 163.733C294.427 163.938 293.36 164.965 291.676 164.965C289.828 165.006 288.679 163.815 288.473 163.61C288.104 163.774 287.2 164.02 286.092 163.815C284.572 163.527 283.751 162.459 283.505 162.172C282.642 161.473 280.425 159.378 280.22 156.297C280.138 155.146 280.384 154.078 281.041 152.476C281.862 150.504 283.546 147.258 287.118 143.849C288.227 138.672 289.048 131.975 288.596 124.211C288.35 120.226 287.816 116.651 287.159 113.488C280.918 111.187 273.198 109.01 264.205 107.901C260.592 107.449 257.143 107.243 253.94 107.202C248.478 104.203 245.768 98.4104 247.041 93.3982C248.355 88.7558 252.585 86.5373 253.365 86.1265Z" fill="white" stroke="#161616" stroke-width="2" stroke-miterlimit="10"/>
<path d="M282.232 153.051C281.534 156.255 281.451 159.542 283.464 162.295C283.71 162.623 284.244 162.295 283.997 161.966C282.067 159.337 282.15 156.256 282.807 153.215C282.889 152.846 282.314 152.64 282.232 153.051Z" fill="#161616"/>
<path d="M285.845 154.489C285.886 157.57 286.379 161.226 288.432 163.65C288.679 163.938 289.13 163.527 288.884 163.198C286.954 160.939 286.502 157.365 286.461 154.489C286.461 154.078 285.845 154.078 285.845 154.489Z" fill="#161616"/>
<path d="M290.198 155.023C290.485 158.104 291.676 162.089 294.427 163.856C294.756 164.061 295.084 163.527 294.756 163.322C292.21 161.678 291.101 157.858 290.814 155.023C290.773 154.612 290.157 154.612 290.198 155.023Z" fill="#161616"/>
<path d="M293.811 155.393C294.304 158.474 295.864 161.185 298.246 163.198C298.533 163.445 298.985 163.034 298.698 162.746C296.357 160.816 294.92 158.186 294.427 155.228C294.345 154.817 293.77 154.982 293.811 155.393Z" fill="#161616"/>
<path opacity="0.17" d="M247.862 92.0833C254.843 91.5082 266.792 91.5082 280.22 96.6436C288.104 99.6837 294.222 103.587 298.533 106.914C301.038 130.537 297.507 140.603 293.524 145.327C292.662 146.313 289.253 150.093 288.843 155.516C288.514 159.624 289.951 164.636 291.963 164.924C292.785 165.047 293.565 164.349 294.181 163.65C295.372 164.513 296.275 164.472 296.604 164.39C296.891 164.349 297.302 164.226 298.862 163.034C300.094 162.089 300.71 161.596 300.833 161.35C301.613 159.83 299.478 157.776 298.082 155.105C297.178 153.38 296.275 150.75 296.398 146.888C299.232 142.369 304.57 132.345 304.611 118.787C304.652 110.899 302.845 104.49 301.285 100.259C297.63 97.835 294.386 96.1916 292.005 95.0824C291.389 94.7948 291.306 94.7126 281.205 90.9741C276.976 89.4129 276.113 89.0842 274.512 88.7145C272.295 88.1804 272.171 88.3447 267.08 87.482C264.452 87.0301 261.824 86.7014 259.196 86.2495C258.498 86.1262 255.87 85.7154 253.57 86.4138C253.242 86.5371 252.461 86.7425 251.599 87.3177C251.394 87.482 250.778 87.8928 249.916 88.8377C249.382 89.5772 248.602 90.6043 247.862 92.0833Z" fill="#6D6C6C"/>
<path opacity="0.14" d="M300.874 100.834C301.654 108.106 301.736 114.268 301.654 118.87C301.531 124.662 301.449 127.99 300.381 132.509C298.985 138.466 296.563 143.725 296.316 144.259C295.043 146.929 294.838 146.929 294.14 148.819C293.154 151.49 291.183 156.707 293.524 160.733C293.811 161.268 295.454 164.102 297.753 163.856C299.889 163.65 300.997 160.857 301.038 160.733C300.053 159.049 298.985 156.872 298.082 154.324C297.302 152.065 296.809 149.97 296.521 148.203C298.903 144.382 301.819 138.754 303.42 131.441C306.418 117.432 302.804 105.928 300.874 100.834Z" fill="#6D6C6C"/>
<path d="M220.761 53.0542C211.727 54.4921 209.017 67.228 208.73 68.5015C208.114 71.3774 206.512 78.8956 211.481 84.483C216.367 89.9881 223.923 89.3719 224.867 89.2897C226.756 89.1254 231.232 88.3448 234.64 84.8116C240.635 78.6902 239.978 67.8442 235.174 60.9422C234.599 60.1616 228.604 51.8217 220.761 53.0542Z" fill="#303030"/>
<path d="M225.689 69.2819C225.483 71.0485 226.346 71.9523 228.645 76.759C230.452 80.5387 231.643 83.7021 232.382 85.7152C233.86 86.0439 237.761 86.7423 242.114 84.8936C245.07 83.6611 246.959 81.7712 247.944 80.6209C246.63 78.4846 244.865 75.3211 243.428 71.2539C241.169 65.0092 241.703 62.5853 239.65 61.3528C235.544 59.011 226.264 63.9821 225.689 69.2819Z" fill="white" stroke="#161616" stroke-width="2" stroke-miterlimit="10"/>
<path d="M217.969 23.8027C214.766 26.0212 213.616 29.349 211.399 35.7991C208.894 43.1119 207.252 49.4798 206.841 53.999C206.759 54.6563 207.169 55.3137 207.826 55.5602C208.689 55.8888 210.126 55.8888 210.947 56.0121C211.029 58.0252 211.399 60.8188 212.672 63.859C215.177 69.8982 219.611 73.2671 221.665 74.5817C224.21 74.8282 230.616 75.1158 236.94 71.254C241.128 68.6657 243.304 65.4612 243.797 64.6807C247 59.7917 247.288 54.9028 247.288 52.8076C248.273 52.7254 249.833 52.4789 251.353 51.4518C254.473 49.3566 256.814 44.5087 254.843 41.8383C253.365 39.9074 249.669 39.3733 246.179 41.0988C246.097 39.5787 245.809 37.4835 245.029 35.0596C244.824 34.4844 243.387 30.0474 240.718 27.0483C235.544 21.2967 224.457 19.2425 217.969 23.8027Z" fill="white" stroke="#161616" stroke-width="2" stroke-miterlimit="10"/>
<path d="M228.276 75.8145C232.341 75.4447 235.995 73.7603 238.911 70.8845C239.486 70.3093 238.582 69.4465 238.048 70.0217C235.379 72.6921 232.053 74.2533 228.276 74.623C227.495 74.623 227.454 75.8555 228.276 75.8145Z" fill="#161616"/>
<path d="M228.892 76.8412C233.121 75.6498 236.858 73.4312 239.896 70.2267C240.43 69.6516 239.568 68.7888 239.034 69.364C236.16 72.4042 232.628 74.5405 228.604 75.6498C227.783 75.8552 228.111 77.0466 228.892 76.8412Z" fill="#161616"/>
<path d="M209.551 40.8112C208.976 40.2772 204.5 35.8812 205.157 29.4312C205.897 22.5702 211.851 19.2836 212.836 18.7495C218.092 15.8737 223.266 17.0651 224.457 17.3937C226.305 16.2434 229.631 14.5179 234.024 13.9838C240.553 13.1622 245.645 15.2985 247.698 16.3256C250.408 17.1472 254.268 18.7495 257.471 22.2005C261.947 27.0072 260.92 30.9923 265.519 39.0857C267.326 42.2902 267.244 41.2632 274.101 50.4658C280.261 58.7236 283.34 62.9141 283.833 65.9542C284.86 72.6097 281.287 79.5117 276.853 83.579C268.229 91.467 252.872 91.7957 245.563 83.8666C239.527 77.3343 240.882 67.31 241.292 64.1055C242.032 58.6414 244.085 54.492 245.563 52.0681C246.261 52.1913 247.329 52.3557 248.519 52.0681C250.778 51.5751 253.488 49.7263 253.981 46.7683C254.022 46.5629 254.597 42.5367 251.722 41.0167C249.915 40.0717 247.534 40.4826 245.891 42.0848C243.838 41.3864 240.43 40.0307 237.063 37.1548C233.696 34.279 231.766 31.1978 230.78 29.2668C229.302 28.6095 226.387 27.6646 222.814 28.1165C215.793 29.0203 212.015 34.7309 211.44 35.6348C210.824 37.3192 210.167 39.0447 209.551 40.8112Z" fill="#303030"/>
<path d="M218.708 44.6319C218.585 44.2211 218.503 43.8514 218.503 43.4405C218.503 43.194 218.503 42.9475 218.544 42.701C218.585 42.4545 218.708 42.3313 218.503 42.1669C218.215 41.9615 218.38 42.3724 218.421 42.5367C218.421 42.7421 218.421 42.9475 218.421 43.194C218.421 43.3994 218.421 44.3444 218.215 44.4676C218.38 44.4265 218.544 44.4265 218.708 44.3854C218.831 44.5498 218.872 44.5498 218.831 44.3854C218.831 44.2622 218.79 44.18 218.79 44.0568C218.749 43.8103 218.708 43.6049 218.708 43.3584C218.708 42.9064 218.749 42.4545 218.995 42.0848C219.406 41.3863 218.338 40.7701 217.928 41.4685C217.599 42.0437 217.476 42.701 217.476 43.3994C217.476 43.9746 217.517 44.8374 217.887 45.2893C218.215 45.7412 218.831 45.7001 219.201 45.2893C219.652 44.7963 219.694 43.8514 219.735 43.194C219.776 42.6189 219.817 41.8383 219.447 41.3453C219.119 40.8934 218.544 40.8112 218.092 41.1399C217.066 41.9204 217.271 43.9335 217.599 45.0017C217.723 45.7001 218.913 45.3714 218.708 44.6319Z" fill="#161616"/>
<path d="M215.834 39.3734C217.723 37.8944 220.556 38.3053 221.911 40.2362C222.239 40.7292 223.061 40.2362 222.691 39.7843C220.925 37.3193 217.517 36.8674 215.136 38.7161C214.725 39.0859 215.382 39.7432 215.834 39.3734Z" fill="#161616"/>
<path d="M212.138 61.1885C214.766 60.3668 217.024 58.8878 218.79 56.8336C219.16 56.3817 218.544 55.7244 218.133 56.1763C216.45 58.1483 214.355 59.5451 211.892 60.3257C211.317 60.449 211.563 61.3528 212.138 61.1885Z" fill="#161616"/>
<path d="M218.667 48.6171C218.667 48.4938 218.626 48.5349 218.544 48.7814C218.462 48.8225 218.38 48.8225 218.297 48.8636C218.297 48.8636 218.297 48.8636 218.338 48.8636C218.256 48.8225 218.174 48.8225 218.092 48.7814L218.051 48.7403C218.01 48.6582 217.969 48.6171 217.928 48.5349C217.928 48.576 217.928 48.576 217.928 48.4938C217.969 48.4116 217.969 48.3295 218.01 48.2473C218.051 48.2062 218.133 48.1241 218.174 48.083C218.297 48.083 218.421 48.0419 218.544 48.0419C218.544 48.0419 218.544 48.0419 218.503 48.0419C217.928 47.9186 217.681 48.7814 218.256 48.9457C218.79 49.069 219.078 48.4116 218.708 48.0419C218.544 47.8776 218.256 47.8776 218.051 47.9597C217.846 48.083 217.764 48.3295 217.764 48.576C217.722 49.2333 218.667 49.2333 218.667 48.6171Z" fill="#161616"/>
<path d="M222.732 45.2074C222.732 45.2074 222.773 45.2074 222.773 45.1663C222.855 45.1663 222.937 45.1663 223.02 45.1663C223.225 45.2074 223.307 45.4539 223.184 45.6182C223.143 45.6593 223.061 45.7415 223.02 45.7826C222.979 45.7826 222.937 45.8237 222.855 45.8237C222.773 45.7826 222.691 45.7826 222.609 45.7415L222.568 45.7004C222.527 45.6182 222.486 45.5772 222.445 45.495C222.445 45.3717 222.445 45.2896 222.527 45.2074C222.609 45.1663 222.65 45.1252 222.732 45.0842C222.773 45.0842 222.773 45.0842 222.814 45.0842C222.568 45.0431 222.363 45.3306 222.363 45.5361C222.363 45.8236 222.568 45.9469 222.814 45.988C223.143 46.0291 223.389 45.7004 223.389 45.3717C223.389 45.002 222.978 44.7555 222.65 44.8787C221.952 45.1663 222.568 46.3577 223.184 45.9058C223.389 45.7826 223.471 45.495 223.348 45.2896C223.266 45.1663 222.937 45.0842 222.732 45.2074Z" fill="#161616"/>
<path d="M222.65 49.6439C222.814 49.7261 222.814 49.9726 222.65 50.0548C222.404 49.9315 222.198 49.8083 221.952 49.6439C221.952 49.7672 221.952 49.8905 221.952 50.0137C222.157 49.8494 222.322 49.7261 222.527 49.5618C222.568 49.644 222.568 49.685 222.609 49.7261C222.568 49.4796 222.404 49.2742 222.157 49.2742C221.911 49.2742 221.665 49.4796 221.706 49.7261C221.747 50.0548 221.952 50.3835 222.28 50.4245C222.568 50.4656 222.855 50.3013 222.855 49.9726C222.855 49.8494 222.855 49.7261 222.855 49.6029C222.855 49.2331 222.445 49.0277 222.157 49.192C221.706 49.4385 221.706 50.0959 222.157 50.3835C222.732 50.7121 223.184 49.9315 222.65 49.6439Z" fill="#161616"/>
<path opacity="0.15" d="M230.493 29.1436C231.191 31.3621 232.053 34.5666 232.751 38.4695C234.23 46.6451 235.667 54.0401 232.751 61.4351C230.247 67.8441 225.73 72.1167 222.157 74.6639C225.032 74.5406 228.522 74.1298 232.382 73.0206C234.23 72.4865 235.913 71.8702 237.432 71.254C238.007 73.3903 238.582 76.2661 238.582 79.7171C238.582 82.1411 238.295 84.2774 237.966 86.0029C238.746 86.044 240.225 86.044 241.867 85.3866C243.345 84.7704 244.331 83.9076 244.906 83.3736C245.768 84.2774 247.123 85.4277 248.93 86.537C255.459 90.3988 262.275 89.3717 264.164 89.0431C265.807 88.7555 274.225 87.1943 279.686 79.5939C281.205 77.4986 284.203 73.2671 283.71 67.3511C283.258 61.8048 279.932 58.1895 278.782 56.9981C278.167 58.5181 276.483 61.9691 272.746 64.5574C272.048 65.0504 266.258 68.9122 259.401 67.0635C253.036 65.3791 248.191 59.3809 247.287 52.0681C247.903 52.0681 248.93 52.027 250.08 51.5751C250.655 51.3286 252.667 50.3836 253.611 48.0419C253.775 47.59 254.556 45.618 253.611 43.4816C253.447 43.1119 252.42 40.8112 249.957 40.4415C247.739 40.1128 246.097 41.6329 245.932 41.8383C243.51 41.0577 239.28 39.3733 235.338 35.5526C232.957 33.293 231.437 30.9512 230.493 29.1436Z" fill="#424242"/>
<path opacity="0.23" d="M250.039 51.4516C248.478 51.0819 246.918 50.7121 245.358 50.3013C244.742 51.164 243.879 52.4376 242.976 54.0809C240.759 58.066 240.307 60.531 239.075 63.2836C238.089 65.5021 236.324 68.5012 233.039 71.6235C234.928 70.9662 236.817 70.2678 238.705 69.6104C239.609 71.4592 241.087 75.1156 240.717 79.8402C240.553 82.0998 240.019 83.9896 239.445 85.3864C241.292 84.7702 243.14 84.1129 244.988 83.4966C244.085 82.3052 242.853 80.4564 241.949 77.9504C240.676 74.3761 240.759 71.4181 240.8 68.7477C240.841 67.5563 241.005 63.8177 242.442 59.1753C243.346 56.3405 244.413 54.0399 245.358 52.3554C245.973 52.4376 246.918 52.4787 247.986 52.2322C248.848 52.0268 249.546 51.7392 250.039 51.4516Z" fill="#6D6C6C"/>
<path opacity="0.25" d="M210.824 62.2979C210.454 63.2428 208.648 68.1728 211.194 73.0617C213.123 76.8003 217.764 80.8264 222.527 79.5939C225.73 78.7723 227.454 75.9786 228.029 75.0337C229.59 78.7723 231.15 82.5108 232.71 86.2494C232.3 86.5781 231.643 87.0711 230.821 87.523C224.95 90.8918 218.462 88.7555 217.969 88.5912C216.696 88.1393 212.713 86.7014 210.126 82.6341C207.703 78.7723 207.95 74.8693 208.155 71.8703C208.401 67.5565 209.797 64.2699 210.824 62.2979Z" fill="#424242"/>
<path d="M2.43179 163.28C16.2699 162.582 29.3688 167.471 41.7697 173.058C54.3348 178.728 66.5714 184.89 79.8757 188.67C87.7186 190.93 95.7668 192.45 103.897 193.395C104.677 193.477 104.677 192.244 103.897 192.162C89.1147 190.478 74.7429 186.534 61.1101 180.577C48.9145 175.236 37.1296 168.786 24.3181 164.965C17.2143 162.829 9.86411 161.678 2.43179 162.048C1.61054 162.048 1.61054 163.28 2.43179 163.28Z" fill="#161616"/>
<path d="M82.4215 170.347C106.772 181.234 134.119 179.878 159.824 175.359C167.873 173.962 175.88 172.278 183.846 170.552C184.626 170.388 184.298 169.197 183.517 169.361C157.443 174.907 130.465 180.535 103.856 175.647C96.7113 174.332 89.6896 172.237 83.0785 169.279C82.3394 168.991 81.7235 170.059 82.4215 170.347Z" fill="#161616"/>
<path d="M272.623 259.251C290.157 266.071 309.004 260.443 325.594 253.664C334.545 250.007 343.374 245.981 352.613 242.982C361.975 239.983 371.625 237.847 381.398 236.696C392.238 235.423 403.202 235.341 414.083 236.368C414.863 236.45 414.863 235.217 414.083 235.135C395.318 233.328 376.265 234.971 358.115 240.024C339.678 245.201 322.966 255.348 304.241 259.457C293.893 261.716 282.971 261.922 272.952 258.06C272.212 257.772 271.884 258.964 272.623 259.251Z" fill="#161616"/>
<path d="M387.475 217.716C411.086 210.773 436.545 211.389 459.786 219.483C460.525 219.729 460.854 218.538 460.114 218.291C436.668 210.157 410.963 209.54 387.146 216.525C386.407 216.73 386.736 217.921 387.475 217.716Z" fill="#161616"/>
<path d="M239.321 29.0202C248.15 27.2125 256.978 25.3638 265.971 24.5832C275.005 23.8026 283.874 24.3778 292.744 26.0622C309.744 29.3489 326.292 34.6897 343.62 36.4152C353.106 37.3601 362.673 37.1958 372.035 35.3059C372.816 35.1416 372.487 33.9502 371.707 34.1145C354.255 37.6477 336.475 34.854 319.352 30.9511C302.311 27.0893 285.64 21.9128 267.942 23.1453C258.169 23.8437 248.56 25.8157 238.993 27.7877C238.213 27.9931 238.541 29.1845 239.321 29.0202Z" fill="#161616"/>
<path d="M295.454 36.333C322.76 45.2892 351.422 53.095 380.453 49.8905C388.214 49.0277 395.893 47.3433 403.284 44.7962C404.023 44.5497 403.694 43.3583 402.955 43.6048C375.731 53.095 346.371 49.6029 319.106 42.249C311.263 40.1537 303.502 37.6888 295.823 35.1827C295.043 34.8951 294.715 36.0865 295.454 36.333Z" fill="#161616"/>
</svg>
