<svg width="415" height="327" viewBox="0 0 415 327" fill="none" xmlns="http://www.w3.org/2000/svg">
<path d="M329.219 204.197C329.183 210.042 329.111 215.924 329.074 221.769C329.074 223.213 329.038 224.656 329.038 226.063C329.038 227.037 328.822 228.264 329.219 229.202C329.832 230.79 331.887 230.357 332.645 231.692C332.717 231.44 332.789 231.187 332.825 230.934C330.192 232.233 329.507 235.156 329.291 237.862C329.111 240.46 329.002 244.646 332.392 245.151C332.356 244.827 332.32 244.502 332.248 244.177C327.127 246.522 329.183 255.688 331.346 259.368C332.933 262.074 335.277 264.275 337.693 266.224C339.064 267.343 340.434 268.389 341.841 269.471C342.67 270.121 343.499 270.734 344.293 271.384C344.726 271.709 346.565 272.719 346.637 273.332C346.781 273.152 346.889 272.972 347.034 272.827C347.07 272.827 347.07 272.827 347.106 272.827C347.178 273.08 347.25 273.332 347.286 273.585C347.322 273.549 347.322 273.513 347.358 273.477C347.647 272.863 346.745 272.322 346.42 272.935C346.384 272.972 346.384 273.008 346.348 273.044C346.204 273.332 346.276 273.585 346.529 273.801C346.781 274.018 346.961 274.018 347.286 273.91C347.502 273.838 347.719 273.621 347.683 273.405C347.538 272.286 346.42 271.781 345.555 271.131C344.293 270.121 342.995 269.147 341.732 268.136C339.352 266.296 336.936 264.456 334.881 262.291C332.573 259.873 330.986 257.059 330.517 253.703C330.12 250.961 329.76 246.559 332.789 245.151C333.186 244.971 333.113 244.213 332.645 244.177C329.76 243.744 330.156 239.631 330.373 237.429C330.589 235.264 331.202 232.991 333.33 231.945C333.582 231.8 333.654 231.44 333.51 231.187C332.753 229.888 330.914 230.141 330.228 228.986C329.688 228.12 330.048 226.099 330.084 225.053C330.084 223.61 330.12 222.166 330.12 220.759C330.156 215.274 330.192 209.754 330.265 204.269C330.301 203.511 329.219 203.475 329.219 204.197Z" fill="#E8E8E8"/>
<path d="M329.796 204.485C334.845 204.738 338.379 208.599 341.408 212.207C342.85 213.939 344.365 215.563 345.844 217.187C347.358 218.81 349.342 222.094 346.601 223.682C346.132 223.97 346.349 224.692 346.889 224.692C351.073 224.8 352.912 229.888 354.21 233.099C355.761 236.996 356.987 241.002 357.889 245.079C359.728 253.45 360.088 262.074 359.043 270.554C358.97 271.24 360.052 271.24 360.124 270.554C361.242 261.1 360.665 251.502 358.321 242.301C357.239 237.971 355.797 233.605 353.85 229.563C352.479 226.677 350.351 223.682 346.889 223.61C346.998 223.934 347.07 224.295 347.178 224.62C352.443 221.589 345.916 215.816 343.788 213.326C340.002 208.924 336.179 203.692 329.832 203.367C329.111 203.367 329.111 204.449 329.796 204.485Z" fill="#E8E8E8"/>
<path d="M347.899 217.475C350.423 208.527 353.958 199.903 358.501 191.784C358.249 191.856 357.997 191.928 357.744 191.965C358.718 192.542 359.728 193.119 360.701 193.697C361.206 193.985 361.675 193.408 361.459 192.939C358.862 187.743 366.652 184.423 369.284 181.32C369.068 181.356 368.851 181.392 368.635 181.392C369.14 181.681 369.681 181.969 370.186 182.258C370.438 182.402 370.763 182.33 370.943 182.078C373.828 177.17 378.913 174.428 383.817 171.902C383.565 171.686 383.276 171.505 383.024 171.289C381.473 176.377 383.926 181.933 384.394 187.021C384.647 189.763 384.683 192.542 384.466 195.32C384.358 196.691 384.466 198.748 383.926 199.975C383.926 200.877 383.421 201.382 382.375 201.563C382.05 201.599 381.762 201.635 381.437 201.671C380.716 201.743 379.959 201.815 379.237 201.887C378.949 201.924 378.66 202.104 378.696 202.429C378.733 203.15 378.949 203.367 379.49 203.836C380.175 204.413 380.716 204.485 381.041 205.496C381.221 206.037 381.221 206.65 381.221 207.192C381.185 210.114 380.752 213.109 380.247 215.996C379.742 218.811 379.021 221.589 378.156 224.295C377.398 226.568 376.388 229.96 373.576 230.321C373.215 230.357 372.854 230.754 373.107 231.151C375.198 234.362 372.097 238.259 370.582 241.038C368.924 243.997 367.409 247.028 366.002 250.095C363.19 256.193 360.882 262.507 359.006 268.966C358.826 269.652 359.872 269.941 360.052 269.255C362.18 261.822 364.957 254.605 368.347 247.677C369.933 244.394 371.845 241.29 373.503 238.043C374.694 235.698 375.631 232.955 374.08 230.574C373.936 230.862 373.756 231.115 373.612 231.404C375.739 231.151 377.11 229.636 378.047 227.795C379.454 224.981 380.211 221.733 380.896 218.666C381.654 215.274 382.158 211.81 382.339 208.346C382.411 207.192 382.519 205.893 382.014 204.81C381.726 204.089 379.887 202.97 379.85 202.465C379.67 202.645 379.49 202.826 379.31 203.006C381.329 202.79 384.214 203.295 384.899 200.985C385.801 198.099 385.765 194.526 385.729 191.568C385.729 188.392 385.404 185.253 384.827 182.15C384.178 178.65 383.024 175.15 384.106 171.614C384.25 171.144 383.709 170.784 383.312 171C378.228 173.634 372.999 176.485 370.041 181.573C370.294 181.5 370.546 181.428 370.799 181.392C370.294 181.103 369.753 180.815 369.248 180.526C369.068 180.418 368.743 180.418 368.599 180.598C365.57 184.171 357.6 187.562 360.593 193.516C360.846 193.264 361.098 193.011 361.35 192.758C360.377 192.181 359.367 191.604 358.393 191.026C358.141 190.882 357.78 190.954 357.636 191.207C353.092 199.434 349.486 208.13 346.925 217.151C346.637 217.872 347.683 218.161 347.899 217.475Z" fill="#E8E8E8"/>
<path d="M322.403 180.598C316.344 181.031 313.135 173.923 314.145 168.799C315.118 163.783 320.023 160.247 325.035 160.392C331.635 160.536 335.025 166.995 333.835 173.021C332.789 178.397 327.38 182.366 321.97 180.237C321.321 179.985 321.033 181.031 321.682 181.284C326.009 182.98 331.058 180.995 333.438 177.062C335.962 172.876 335.674 166.887 332.753 162.99C329.796 159.02 324.134 158.479 319.842 160.392C315.551 162.268 312.738 166.49 312.846 171.181C312.955 176.304 316.741 182.078 322.367 181.681C323.088 181.645 323.124 180.562 322.403 180.598Z" fill="#E8E8E8"/>
<path d="M377.759 101.323C375.667 105.22 373.251 108.901 370.51 112.365C370.078 112.906 370.835 113.664 371.268 113.122C374.081 109.586 376.569 105.834 378.697 101.864C379.021 101.251 378.083 100.71 377.759 101.323Z" fill="#E8E8E8"/>
<path d="M377.723 102.189C379.021 105.617 380.391 109.045 381.798 112.437C382.05 113.086 383.096 112.798 382.844 112.148C381.437 108.756 380.067 105.328 378.769 101.9C378.516 101.251 377.47 101.54 377.723 102.189Z" fill="#E8E8E8"/>
<path d="M377.47 102.694C377.218 116.117 375.487 129.468 372.277 142.494C372.097 143.18 373.143 143.469 373.323 142.783C376.569 129.649 378.3 116.226 378.552 102.694C378.588 101.973 377.507 101.973 377.47 102.694Z" fill="#E8E8E8"/>
<path d="M383.709 124.741C384.647 132.463 384.43 140.257 383.024 147.907C382.916 148.592 383.926 148.881 384.07 148.195C385.476 140.437 385.729 132.571 384.791 124.741C384.683 124.056 383.601 124.056 383.709 124.741Z" fill="#E8E8E8"/>
<path d="M379.562 139.752C380.824 142.639 383.024 145.273 383.168 148.52C383.204 149.061 383.889 149.278 384.178 148.809C385.44 146.608 386.738 144.407 388.001 142.206C388.361 141.592 387.424 141.051 387.063 141.664C385.801 143.865 384.503 146.066 383.24 148.268C383.565 148.376 383.926 148.448 384.25 148.556C384.106 145.056 381.834 142.35 380.5 139.247C380.211 138.561 379.274 139.102 379.562 139.752Z" fill="#E8E8E8"/>
<path d="M133.508 322.442C155.253 320.421 177.035 317.787 198.853 316.885C220.851 315.983 242.957 316.56 264.955 317.138C277.577 317.462 290.199 318.076 302.749 319.267C303.434 319.339 303.434 318.256 302.749 318.184C280.679 316.091 258.536 315.839 236.394 315.586C225.287 315.442 214.179 315.333 203.108 315.694C192.325 316.019 181.579 316.921 170.832 317.895C158.391 319.05 145.949 320.205 133.508 321.359C132.822 321.395 132.822 322.478 133.508 322.442Z" fill="#E8E8E8"/>
<path d="M246.672 306.493C255.723 308.189 264.667 308.117 273.791 307.287C283.167 306.421 292.507 305.88 301.919 305.447C320.816 304.617 339.713 303.859 358.574 303.065C369.356 302.596 380.139 302.163 390.922 301.694C391.607 301.658 391.607 300.575 390.922 300.611C371.989 301.405 353.092 302.199 334.159 302.993C315.551 303.787 296.835 304.184 278.262 305.771C273.214 306.204 268.165 306.782 263.116 306.854C257.707 306.926 252.297 306.421 246.96 305.411C246.275 305.338 245.986 306.385 246.672 306.493Z" fill="#E8E8E8"/>
<path d="M1.30241 298.843C18.1075 299.312 34.9127 299.24 51.7178 298.627C52.403 298.591 52.403 297.508 51.7178 297.544C34.9127 298.158 18.1075 298.23 1.30241 297.761C0.581162 297.725 0.581162 298.807 1.30241 298.843Z" fill="#E8E8E8"/>
<path d="M19.6583 313.349C25.7889 312.05 32.2801 312.88 38.4829 313.168C44.7217 313.493 50.9244 313.782 57.1633 314.107C69.8573 314.756 82.5152 315.406 95.2092 316.019C95.8944 316.055 95.8944 314.973 95.2092 314.936C82.2988 314.287 69.3524 313.637 56.442 312.988C49.9868 312.663 43.5316 312.338 37.0765 312.014C31.1983 311.725 25.2119 311.039 19.4058 312.302C18.7206 312.447 19.0091 313.493 19.6583 313.349Z" fill="#E8E8E8"/>
<path d="M116.883 285.853C139.169 287.369 161.095 281.596 183.346 281.668C184.031 281.668 184.031 280.585 183.346 280.585C161.095 280.513 139.169 286.25 116.883 284.771C116.198 284.699 116.198 285.817 116.883 285.853Z" fill="#E8E8E8"/>
<path d="M100.186 173.706C100.366 173.093 100.546 172.48 100.835 171.902C101.015 171.65 101.159 171.433 101.34 171.181C102.097 171.108 102.89 171 103.648 170.928C103.864 171.072 104.044 171.505 104.189 171.722C104.73 172.48 105.307 173.129 106.136 173.634C107.723 174.572 109.634 174.789 111.329 174.139C115.765 172.516 117.424 166.634 122.833 167.211C124.276 167.356 125.646 167.933 126.692 168.943C127.485 169.701 128.098 170.639 128.928 171.361C130.406 172.588 132.245 172.768 134.012 172.119C136.176 171.361 137.835 169.737 139.458 168.186C141.658 166.129 144.867 163.639 147.788 165.84C149.7 167.247 150.818 169.412 153.198 170.17C155.434 170.892 157.814 170.459 159.689 169.052C160.23 168.655 159.689 167.68 159.148 168.113C156.551 170.062 153.306 169.737 151.034 167.464C149.519 165.985 148.221 164.144 145.985 163.892C140.72 163.242 137.979 169.665 133.508 171.144C130.118 172.263 129 169.232 126.764 167.572C125.105 166.345 123.013 165.84 120.958 166.165C118.794 166.49 117.135 167.789 115.621 169.268C113.853 171.036 111.978 173.454 109.237 173.454C107.398 173.454 105.992 172.443 104.982 171C104.405 170.206 103.936 169.557 102.89 169.449C100.619 169.232 99.6449 171.614 99.1039 173.382C98.9236 174.067 99.9694 174.356 100.186 173.706Z" fill="#E8E8E8"/>
<path d="M155.794 155.051C157.092 151.262 161.636 154.474 163.367 155.881C164.882 157.108 166.649 158.371 168.705 158.299C172.094 158.154 173.898 154.69 176.674 153.247C180.533 151.262 182.877 156.422 186.628 155.917C188.286 155.701 189.152 154.366 190.198 153.211C191.316 151.984 192.47 151.984 194.056 152.345C195.535 152.706 197.05 153.067 198.528 153.428C199.213 153.608 199.502 152.561 198.817 152.381C197.338 152.02 195.824 151.659 194.345 151.299C193.335 151.046 192.325 150.757 191.316 151.046C189.332 151.659 188.755 154.294 186.772 154.763C184.644 155.268 182.553 152.886 180.713 152.129C179.163 151.479 177.648 151.479 176.169 152.273C174.583 153.103 173.393 154.51 171.986 155.629C171.049 156.386 170.003 157.072 168.777 157.144C166.901 157.252 165.351 155.953 163.98 154.871C162.321 153.572 160.554 152.02 158.282 152.201C156.66 152.309 155.325 153.175 154.784 154.727C154.532 155.412 155.578 155.701 155.794 155.051Z" fill="#E8E8E8"/>
<path d="M318.833 49.7601C318.508 56.5076 318.292 63.2913 318.22 70.075C318.22 70.7605 319.302 70.7605 319.302 70.075C319.374 63.2913 319.59 56.5437 319.915 49.7601C319.951 49.0745 318.869 49.0745 318.833 49.7601Z" fill="#E8E8E8"/>
<path d="M319.554 50.2653C327.884 49.1106 336.359 47.992 344.653 49.9405C345.339 50.0848 345.627 49.0745 344.942 48.8941C336.467 46.8734 327.776 48.0281 319.265 49.2188C318.58 49.291 318.869 50.3374 319.554 50.2653Z" fill="#E8E8E8"/>
<path d="M343.968 50.3013C344.149 64.013 343.896 77.7607 343.175 91.4724C343.139 92.158 344.221 92.158 344.257 91.4724C344.978 77.7607 345.23 64.0491 345.05 50.3013C345.05 49.6158 343.968 49.6158 343.968 50.3013Z" fill="#E8E8E8"/>
<path d="M319.121 87.7919C319.302 89.5239 319.374 91.3281 319.698 93.024C319.879 93.8539 320.167 94.4312 320.888 94.9364C323.16 96.4158 326.839 95.5498 329.327 95.4055C332.861 95.189 336.431 94.9725 339.965 94.756C341.552 94.6477 344.076 94.2147 343.103 92.0136C342.814 91.3641 341.877 91.9415 342.165 92.5549C342.345 92.9518 340.326 93.6013 339.965 93.6735C339.388 93.7817 338.775 93.7457 338.198 93.7817C337.152 93.8539 336.071 93.9261 335.025 93.9622C332.897 94.1065 330.769 94.2147 328.642 94.3591C326.694 94.4673 324.531 94.8642 322.583 94.4312C320.131 93.8539 320.456 89.8847 320.203 87.828C320.131 87.1063 319.049 87.1063 319.121 87.7919Z" fill="#E8E8E8"/>
<path d="M312.558 86.4568C309.384 91.1116 306.103 95.6942 302.785 100.241C302.677 100.385 302.677 100.638 302.785 100.782C303.362 101.684 304.336 102.045 305.381 101.72C306.932 101.251 307.689 99.4829 308.483 98.2561C309.781 96.2354 311.26 94.323 312.846 92.4827C313.532 91.725 314.217 90.9672 314.938 90.2456C315.767 89.4157 317.174 87.6476 318.364 87.4672C319.049 87.3589 318.761 86.3125 318.076 86.4207C316.994 86.6012 316.272 87.4672 315.479 88.1888C314.433 89.1631 313.423 90.1734 312.45 91.2559C310.574 93.3487 308.843 95.5859 307.329 97.9313C306.896 98.5808 306.536 99.3747 305.995 99.952C305.418 100.782 304.804 100.854 304.083 100.168C304.3 99.8798 304.516 99.5912 304.696 99.3025C305.67 97.9674 306.644 96.6323 307.581 95.2972C309.565 92.5188 311.512 89.7404 313.423 86.9259C313.892 86.4207 312.955 85.8795 312.558 86.4568Z" fill="#E8E8E8"/>
<path d="M318.184 87.7919C322.655 87.9002 326.947 85.1939 328.714 81.0804C330.301 77.3638 329.435 72.5287 326.081 70.075C322.223 67.2966 317.282 69.3894 314.289 72.4204C312.522 74.2246 311.043 76.4978 310.683 79.0237C310.538 80.034 310.574 81.0443 310.827 82.0186C310.971 82.5959 311.187 83.1372 311.476 83.6423C311.548 83.7867 313.207 86.1321 312.486 86.096C311.8 86.0238 311.8 87.1063 312.486 87.1785C313.604 87.2868 314.181 86.2764 313.856 85.2661C313.604 84.4362 312.81 83.8588 312.377 83.1011C311.728 81.9103 311.584 80.5392 311.764 79.2041C312.377 74.5854 317.282 69.7502 322.042 69.8224C326.73 69.8585 329.183 75.0906 328.209 79.2041C327.127 83.6784 322.727 86.8177 318.184 86.6733C317.462 86.7094 317.462 87.7919 318.184 87.7919Z" fill="#E8E8E8"/>
<path d="M323.304 54.0901L323.268 54.054C323.268 54.3066 323.268 54.5592 323.268 54.8118C323.737 54.2705 326.983 54.3066 327.848 54.1983C329.219 54.054 330.625 53.9458 331.995 53.8736C333.366 53.8014 334.772 53.7293 336.179 53.6932C336.792 53.6932 340.001 53.9818 340.218 53.4045C339.965 54.054 341.011 54.3427 341.264 53.6932C341.3 53.621 341.3 53.5849 341.336 53.5128C341.408 53.3323 341.336 53.1158 341.191 52.9715C340.398 52.1777 338.956 52.5385 337.91 52.5385C335.926 52.5385 333.979 52.6107 331.995 52.755C330.156 52.8633 328.317 53.0437 326.442 53.2241C325.504 53.3323 323.16 53.188 322.475 53.9818C322.295 54.1983 322.259 54.5231 322.475 54.7396L322.511 54.7757C323.052 55.353 323.809 54.5592 323.304 54.0901Z" fill="#E8E8E8"/>
<path d="M322.8 59.3582C326.442 59.8634 329.976 59.7191 333.618 59.5747C334.304 59.5386 334.304 58.4562 333.618 58.4922C330.048 58.6366 326.622 58.7809 323.088 58.3118C322.403 58.2397 322.114 59.2861 322.8 59.3582Z" fill="#E8E8E8"/>
<path d="M320.347 63.4357C320.239 63.5439 320.131 63.6883 320.023 63.7965C319.698 64.1573 319.915 64.6986 320.42 64.7347C326.694 64.8429 332.969 64.5542 339.208 63.8687C339.893 63.7965 339.893 62.714 339.208 62.7862C332.969 63.4717 326.694 63.7604 320.42 63.6522C320.564 63.9769 320.672 64.2656 320.816 64.5903C320.924 64.4821 321.033 64.3377 321.141 64.2295C321.574 63.6882 320.816 62.9305 320.347 63.4357Z" fill="#E8E8E8"/>
<path d="M328.101 69.3533C331.383 69.6059 334.664 69.4616 337.91 68.9203C338.595 68.8121 338.307 67.7657 337.621 67.8739C334.448 68.3791 331.274 68.5234 328.101 68.2708C327.38 68.2347 327.38 69.3172 328.101 69.3533Z" fill="#E8E8E8"/>
<path d="M319.302 83.9671C316.38 84.1114 313.892 81.5495 314.83 78.5907C315.551 76.2452 318.256 73.7555 320.708 73.3586C321.898 73.1782 323.196 73.4668 324.098 74.2967C325.432 75.5236 325.072 77.3277 324.459 78.8072C323.413 81.4052 321.501 83.7506 318.58 84.0753C317.895 84.1475 317.895 85.23 318.58 85.1578C322.331 84.7609 324.999 81.5495 325.901 78.0133C326.767 74.6937 324.314 71.9513 320.888 72.24C317.715 72.5287 314.217 75.7401 313.64 78.8793C313.027 82.3794 315.876 85.23 319.302 85.0496C319.987 85.0135 319.987 83.931 319.302 83.9671Z" fill="#E8E8E8"/>
<path d="M319.915 73.8277C318.472 76.9308 317.138 80.0701 315.948 83.2454C315.695 83.8949 316.741 84.1836 316.994 83.5341C318.184 80.4309 319.446 77.3638 320.852 74.3689C321.141 73.7194 320.239 73.1782 319.915 73.8277Z" fill="#E8E8E8"/>
<path d="M321.573 76.9308C320.636 78.8793 319.734 80.8278 318.797 82.7763C318.508 83.3897 319.446 83.9671 319.734 83.3176C320.672 81.3691 321.573 79.4206 322.511 77.4721C322.8 76.8587 321.898 76.2813 321.573 76.9308Z" fill="#E8E8E8"/>
<path d="M53.4849 18.0067C53.4849 21.2903 53.4849 24.61 53.4849 27.8936C53.4849 28.5792 54.5667 28.5792 54.5667 27.8936C54.5667 24.61 54.5667 21.2903 54.5667 18.0067C54.5667 17.3212 53.4849 17.3212 53.4849 18.0067Z" fill="#E8E8E8"/>
<path d="M54.17 28.3627C57.2353 28.3627 60.2646 28.3627 63.3299 28.3627C64.0151 28.3627 64.0151 27.2802 63.3299 27.2802C60.2646 27.2802 57.2353 27.2802 54.17 27.2802C53.4848 27.2802 53.4848 28.3627 54.17 28.3627Z" fill="#E8E8E8"/>
<path d="M63.9791 27.208C63.9791 23.6358 63.9791 20.0274 63.9791 16.4552C63.9791 15.7696 62.8972 15.7696 62.8972 16.4552C62.8972 20.0274 62.8972 23.6358 62.8972 27.208C62.8972 27.8936 63.9791 27.8936 63.9791 27.208Z" fill="#E8E8E8"/>
<path d="M63.5824 15.7696C60.445 15.7696 57.3075 15.7696 54.2062 15.7696C53.521 15.7696 53.521 16.8521 54.2062 16.8521C57.3436 16.8521 60.481 16.8521 63.5824 16.8521C64.2676 16.8521 64.2676 15.7696 63.5824 15.7696Z" fill="#E8E8E8"/>
<path d="M58.0648 28.94C58.0648 32.6205 58.0648 36.2649 58.0648 39.9454C58.0648 40.631 59.1467 40.631 59.1467 39.9454C59.1467 36.2649 59.1467 32.6205 59.1467 28.94C59.1467 28.2544 58.0648 28.2544 58.0648 28.94Z" fill="#E8E8E8"/>
<path d="M45.3708 39.8011C49.3738 35.9762 53.557 32.2957 57.8845 28.7957C58.4255 28.3627 57.6682 27.6049 57.1272 28.0379C52.7997 31.538 48.6525 35.1824 44.6135 39.0433C44.1086 39.5124 44.866 40.2702 45.3708 39.8011Z" fill="#E8E8E8"/>
<path d="M59.2188 29.1565C63.5463 32.4401 67.8738 35.7237 72.2013 39.0072C72.7423 39.4402 73.2832 38.5021 72.7423 38.0691C68.4148 34.7855 64.0873 31.5019 59.7598 28.2183C59.2188 27.7853 58.6779 28.7235 59.2188 29.1565Z" fill="#E8E8E8"/>
<path d="M41.1876 41.1001C43.5677 41.1001 45.9478 41.1001 48.364 41.1001C49.0492 41.1001 49.0492 40.0176 48.364 40.0176C45.9839 40.0176 43.6038 40.0176 41.1876 40.0176C40.5024 40.0176 40.5024 41.1001 41.1876 41.1001Z" fill="#E8E8E8"/>
<path d="M47.7148 41.3166C47.7148 44.0228 47.7148 46.7652 47.7148 49.4714C47.7148 50.157 48.7967 50.157 48.7967 49.4714C48.7967 46.7652 48.7967 44.0228 48.7967 41.3166C48.7967 40.5949 47.7148 40.5949 47.7148 41.3166Z" fill="#E8E8E8"/>
<path d="M40.3942 40.8114C40.3942 43.9868 40.3942 47.1621 40.3942 50.3374C40.3942 51.023 41.476 51.023 41.476 50.3374C41.476 47.1621 41.476 43.9868 41.476 40.8114C41.476 40.0898 40.3942 40.0898 40.3942 40.8114Z" fill="#E8E8E8"/>
<path d="M40.8269 50.9869C43.0628 50.9869 45.2626 50.9869 47.4984 50.9869C48.1836 50.9869 48.1836 49.9044 47.4984 49.9044C45.2626 49.9044 43.0628 49.9044 40.8269 49.9044C40.1417 49.9044 40.1417 50.9869 40.8269 50.9869Z" fill="#E8E8E8"/>
<path d="M54.7471 41.064C54.7471 44.2032 54.7471 47.3425 54.7471 50.4457C54.7471 51.1313 55.8289 51.1313 55.8289 50.4457C55.8289 47.3064 55.8289 44.1672 55.8289 41.064C55.8289 40.3423 54.7471 40.3423 54.7471 41.064Z" fill="#E8E8E8"/>
<path d="M55.2879 50.7343C57.4878 50.7343 59.6515 50.7343 61.8513 50.7343C62.5365 50.7343 62.5365 49.6518 61.8513 49.6518C59.6515 49.6518 57.4878 49.6518 55.2879 49.6518C54.6028 49.6518 54.6028 50.7343 55.2879 50.7343Z" fill="#E8E8E8"/>
<path d="M55.6487 41.6052C57.596 41.6052 59.5074 41.6052 61.4547 41.6052C62.1399 41.6052 62.1399 40.5227 61.4547 40.5227C59.5074 40.5227 57.596 40.5227 55.6487 40.5227C54.9635 40.5227 54.9635 41.6052 55.6487 41.6052Z" fill="#E8E8E8"/>
<path d="M61.058 40.9197C61.058 43.8785 61.058 46.8373 61.058 49.8322C61.058 50.5178 62.1399 50.5178 62.1399 49.8322C62.1399 46.8734 62.1399 43.9146 62.1399 40.9197C62.1399 40.2341 61.058 40.2341 61.058 40.9197Z" fill="#E8E8E8"/>
<path d="M70.0375 40.9197C69.9293 43.2651 69.8572 45.6105 69.8572 47.9559C69.8572 48.6415 70.9391 48.6415 70.9391 47.9559C70.9391 45.6105 71.0112 43.2651 71.1194 40.9197C71.1554 40.2341 70.0736 40.2341 70.0375 40.9197Z" fill="#E8E8E8"/>
<path d="M70.5064 41.1722C72.8865 40.9196 75.2667 40.631 77.6468 40.3784C78.332 40.3062 78.332 39.2237 77.6468 39.2959C75.2667 39.5485 72.8865 39.8371 70.5064 40.0897C69.8212 40.1619 69.7851 41.2444 70.5064 41.1722Z" fill="#E8E8E8"/>
<path d="M77.2861 40.0537C77.0336 42.4712 77.1058 44.8527 77.5385 47.2342C77.6467 47.9198 78.6925 47.6312 78.5843 46.9456C78.1876 44.6362 78.1155 42.363 78.3679 40.0537C78.4401 39.3681 77.3582 39.3681 77.2861 40.0537Z" fill="#E8E8E8"/>
<path d="M70.8671 48.8941C73.2472 48.5332 75.6273 48.1724 78.0074 47.8116C78.6926 47.7033 78.4041 46.6569 77.7189 46.7652C75.3388 47.126 72.9587 47.4868 70.5786 47.8477C69.8934 47.9559 70.1819 48.9662 70.8671 48.8941Z" fill="#E8E8E8"/>
<path d="M57.9205 51.0591C56.5862 53.0797 55.4322 55.2087 54.3864 57.3737C54.0979 57.9871 55.0355 58.5644 55.324 57.9149C56.3698 55.7138 57.5599 53.621 58.8581 51.6003C59.2187 51.023 58.2811 50.4817 57.9205 51.0591Z" fill="#E8E8E8"/>
<path d="M58.2451 51.4921C59.5795 53.2962 60.7335 55.1726 61.7071 57.1572C62.0317 57.7706 62.9693 57.2293 62.6448 56.6159C61.635 54.6313 60.481 52.7189 59.1828 50.9508C58.7861 50.3735 57.8484 50.9147 58.2451 51.4921Z" fill="#E8E8E8"/>
<path d="M52.4391 58.7809C53.1964 58.7809 53.9537 58.7809 54.7471 58.817C55.1077 58.817 55.4322 58.8531 55.7929 58.8892C56.442 58.9253 56.3699 58.7088 56.4781 59.2861C56.7305 60.6573 56.442 62.4253 56.3338 63.8326C56.2617 64.5182 57.3436 64.5182 57.4157 63.8326C57.4878 62.7501 57.5599 61.6315 57.5599 60.549C57.5599 59.9356 57.7403 58.9253 57.4157 58.3479C57.0911 57.8067 56.3338 57.8788 55.7929 57.8428C54.6749 57.7706 53.557 57.7345 52.4391 57.7345C51.7539 57.6984 51.7539 58.7809 52.4391 58.7809Z" fill="#E8E8E8"/>
<path d="M51.7178 58.7448C51.826 60.0077 51.9342 61.2346 52.0424 62.4975C52.1145 63.5078 51.9702 64.9872 52.3669 65.9615C52.5112 66.3584 52.6915 66.5027 53.0882 66.5749C54.0258 66.7553 55.4322 66.2862 56.3699 66.1419C57.055 66.0337 56.7665 65.0233 56.0814 65.0955C55.4322 65.1677 54.4225 65.5646 53.8094 65.4202C53.1242 65.2398 53.2685 64.3017 53.2324 63.58C53.0882 61.9562 52.9439 60.3686 52.7997 58.7448C52.7276 58.0592 51.6457 58.0231 51.7178 58.7448Z" fill="#E8E8E8"/>
<path d="M59.8679 58.6005C59.7958 59.6469 59.7597 60.7294 59.7958 61.7758C59.7958 62.0284 60.1203 64.4099 60.0121 64.4821C60.1924 64.446 60.3728 64.3738 60.5531 64.3378C60.517 64.3378 60.4809 64.3017 60.4088 64.3017C60.5531 64.4821 60.6612 64.6625 60.8055 64.8068C60.8055 64.7707 60.8055 64.7347 60.8055 64.6625C60.6612 64.8429 60.5531 65.0233 60.4088 65.1677C60.4449 65.1677 60.4809 65.1677 60.517 65.1316C61.2022 64.9872 60.9137 63.9408 60.2285 64.0852C60.1924 64.0852 60.1564 64.0852 60.1203 64.1212C59.8679 64.1573 59.7236 64.4099 59.7236 64.6264C59.7236 64.6625 59.7236 64.6986 59.7236 64.7707C59.7236 64.9872 59.9039 65.2398 60.1203 65.2759C61.0579 65.4563 61.0579 64.5903 61.0219 63.9047C60.8776 62.1006 60.8055 60.3325 60.9497 58.4922C60.9858 57.8788 59.9039 57.9149 59.8679 58.6005Z" fill="#E8E8E8"/>
<path d="M60.5171 58.8531C60.5171 58.6005 62.8251 58.5283 63.1496 58.5644C64.0512 58.7088 63.8709 58.7809 64.0151 59.4304C64.1233 59.8634 63.9791 60.4768 63.943 60.9098C63.9069 61.8119 63.9069 62.6779 63.943 63.58C63.943 64.0852 64.3036 65.6007 64.0512 65.9615C64.3036 65.8893 64.5561 65.8172 64.8085 65.7811C64.7724 65.7811 64.7364 65.745 64.7003 65.745C64.7724 65.9615 64.8806 66.1419 64.9527 66.3584C64.9527 66.3223 64.9888 66.2863 64.9888 66.2502C65.1691 65.5646 64.1233 65.2759 63.943 65.9615C63.943 65.9976 63.9069 66.0337 63.9069 66.0698C63.8348 66.2863 63.943 66.5749 64.1594 66.6832C64.1954 66.6832 64.2315 66.7193 64.2676 66.7193C64.5561 66.8275 64.8446 66.7914 65.0249 66.5388C65.2773 66.178 65.1691 65.8172 65.1331 65.3842C65.097 64.4099 65.0249 63.3996 65.0249 62.4253C65.0249 61.4511 65.0609 60.4408 65.097 59.4665C65.1331 59.0335 65.2412 58.4562 64.9527 58.0593C64.3397 57.2293 62.3923 57.4819 61.5989 57.5902C60.6974 57.6984 59.5073 57.8067 59.4352 58.8892C59.4352 59.5387 60.5171 59.5387 60.5171 58.8531Z" fill="#E8E8E8"/>
<path d="M60.6252 66.178C61.707 66.1058 62.7889 66.2141 63.8347 66.4667C64.5199 66.6471 64.8084 65.6007 64.1232 65.4203C62.9692 65.0955 61.8152 64.9873 60.6252 65.0594C59.9039 65.1316 59.9039 66.2141 60.6252 66.178Z" fill="#E8E8E8"/>
<path d="M74.1847 49.1106C73.3192 51.023 72.5619 53.0076 71.8767 54.9922C71.6603 55.6417 72.7061 55.9303 72.9225 55.2808C73.5716 53.3684 74.2929 51.4921 75.1223 49.6518C75.4108 49.0023 74.4732 48.4611 74.1847 49.1106Z" fill="#E8E8E8"/>
<path d="M68.6671 57.6623C70.4702 57.1572 72.3094 56.9046 74.2207 56.9767C74.9059 57.0128 74.9059 55.9303 74.2207 55.8942C72.2373 55.8221 70.2899 56.0747 68.3786 56.6159C67.6934 56.7963 67.9819 57.8427 68.6671 57.6623Z" fill="#E8E8E8"/>
<path d="M68.631 57.1572C68.3065 58.1675 68.5589 59.1057 68.6671 60.116C68.7753 61.3428 68.7753 62.5336 68.7392 63.7604C68.6671 65.3481 69.0638 65.5285 70.6505 65.3842C71.7324 65.2759 73.211 65.5646 73.6077 64.3738C73.9683 63.2192 73.8601 61.6676 73.9683 60.4407C74.0765 59.1417 74.2207 57.8067 74.3289 56.5077C74.401 55.8221 73.3192 55.8221 73.247 56.5077C73.1028 58.0232 72.9585 59.5748 72.8143 61.0903C72.7422 61.7037 72.7782 62.4614 72.634 63.0748C72.4176 64.0852 72.3094 64.1573 71.2636 64.2656C70.939 64.3017 70.6505 64.3378 70.326 64.3738C69.7129 64.5903 69.5326 64.4099 69.785 63.7965C69.6408 63.2913 69.8572 62.4975 69.8211 61.9563C69.785 60.5851 69.2441 58.7448 69.6408 57.4458C69.8932 56.7603 68.8474 56.4716 68.631 57.1572Z" fill="#E8E8E8"/>
<path d="M75.6994 50.1209C76.5288 51.3838 77.25 52.7189 77.9352 54.0901C78.2237 54.7035 79.1614 54.1622 78.8729 53.5488C78.2237 52.1776 77.4664 50.8787 76.637 49.5797C76.2403 48.9662 75.3027 49.5075 75.6994 50.1209Z" fill="#E8E8E8"/>
<path d="M76.9255 55.6777C78.7286 55.6777 80.5317 55.6777 82.3348 55.6777C83.02 55.6777 83.02 54.5952 82.3348 54.5952C82.2266 54.5952 82.1185 54.5952 82.0103 54.5952C81.3251 54.5952 81.3251 55.6777 82.0103 55.6777C82.1185 55.6777 82.2266 55.6777 82.3348 55.6777C83.02 55.6777 83.02 54.5952 82.3348 54.5952C80.5317 54.5952 78.7286 54.5952 76.9255 54.5952C76.2042 54.5952 76.2042 55.6777 76.9255 55.6777Z" fill="#E8E8E8"/>
<path d="M76.3846 55.6417C76.5288 57.0128 76.637 58.384 76.673 59.7552C76.7091 60.7294 76.3845 62.3893 76.8173 63.2913C77.0697 63.8326 77.3943 63.9047 77.9713 63.9047C79.3056 63.8687 80.7481 63.5439 82.0824 63.3635C82.2988 63.3274 82.4791 63.0387 82.4791 62.8583C82.443 60.4047 82.407 57.9871 82.3709 55.5334C82.3709 54.8478 81.2891 54.8478 81.2891 55.5334C81.3251 57.9871 81.3612 60.4047 81.3972 62.8583C81.5415 62.6779 81.6497 62.4975 81.7939 62.3532C80.9284 62.4614 80.0629 62.5697 79.1974 62.714C78.9089 62.7501 78.0795 63.0027 77.8271 62.7862C77.6467 62.6418 77.8271 61.5233 77.8271 61.3068C77.791 59.4304 77.6828 57.5541 77.5025 55.7138C77.3943 54.9561 76.3124 54.9561 76.3846 55.6417Z" fill="#E8E8E8"/>
<path d="M36.3552 58.6005C38.2305 56.8685 40.1418 55.2447 42.1973 53.7653C42.7383 53.3684 42.1973 52.4302 41.6564 52.8272C39.5287 54.3787 37.5092 56.0386 35.5979 57.8427C35.093 58.3118 35.8503 59.0696 36.3552 58.6005Z" fill="#E8E8E8"/>
<path d="M41.8727 53.2963C42.9546 54.8478 43.8561 56.4716 44.5774 58.1675C44.8659 58.817 45.8035 58.2397 45.515 57.6262C44.7577 55.8942 43.8561 54.2705 42.8103 52.755C42.4136 52.1777 41.476 52.7189 41.8727 53.2963Z" fill="#E8E8E8"/>
<path d="M31.5588 60.5851C32.5325 60.5129 33.4701 60.4407 34.4438 60.3686C34.8765 60.3325 35.3453 60.2242 35.742 60.2603C36.2469 60.0799 36.3912 60.116 36.1748 60.4047C36.0305 60.6212 35.9584 60.8377 35.9945 61.0902C35.5978 62.8583 35.5257 64.7347 35.4535 66.5388C35.7781 66.3945 36.0666 66.2862 36.3912 66.1419C36.3551 66.1058 36.319 66.0697 36.283 65.9976C35.8142 65.4924 35.0568 66.2502 35.5257 66.7553C35.5617 66.7914 35.5978 66.8275 35.6338 66.8997C35.9584 67.2605 36.5354 66.9718 36.5715 66.5027C36.6075 64.9512 36.7518 63.3996 36.9682 61.8841C37.0763 61.2346 37.5452 60.1521 37.1485 59.5026C36.8239 58.9974 36.283 59.1057 35.7781 59.1417C34.3717 59.25 33.0013 59.3582 31.5948 59.4665C30.8736 59.5747 30.8736 60.6572 31.5588 60.5851Z" fill="#E8E8E8"/>
<path d="M32.2801 59.5387C32.244 59.5387 32.208 59.5387 32.1358 59.5387C31.9555 59.5387 31.7752 59.6469 31.667 59.7912C31.09 60.7655 31.1261 62.4614 30.9458 63.58C30.6933 65.1677 30.4409 66.7553 30.1885 68.343C30.1524 68.6317 30.2606 68.9564 30.5491 68.9925C32.244 69.3533 33.8308 69.2812 35.4536 68.6678C36.1027 68.4152 35.8142 67.3688 35.1651 67.6213C33.7226 68.1626 32.3522 68.2708 30.8376 67.9461C30.9458 68.1626 31.09 68.3791 31.1982 68.5956C31.3064 67.8739 32.5686 60.6212 32.208 60.5851C32.9653 60.6933 32.9653 59.6108 32.2801 59.5387Z" fill="#E8E8E8"/>
<path d="M42.089 59.3582L42.053 59.3943C42.3054 59.3943 42.5579 59.3943 42.8103 59.3943C42.7742 59.3943 42.7742 59.3582 42.7382 59.3582C42.7382 59.6108 42.7382 59.8634 42.7382 60.116C42.7742 60.0799 43.4234 60.0799 43.5676 60.0799C43.9643 60.0438 44.397 60.0077 44.7937 60.0077C45.551 59.9716 46.3084 60.0077 47.0657 60.0799C46.9214 59.7551 46.8132 59.4665 46.669 59.1417C46.5969 59.1778 46.5247 59.25 46.4887 59.2861C45.8035 59.3582 45.8035 60.4407 46.4887 60.3686C46.8854 60.3325 47.1739 60.2242 47.4624 59.8995C47.7869 59.5386 47.5705 58.9974 47.0657 58.9613C46.0199 58.8891 44.974 58.8531 43.9282 58.9252C43.4234 58.9613 42.3775 58.8531 42.0169 59.3221C41.8366 59.5386 41.7645 59.8995 42.0169 60.0799C42.053 60.0799 42.053 60.116 42.089 60.116C42.3054 60.2964 42.666 60.3686 42.8464 60.116L42.8824 60.0799C43.3152 59.6108 42.5579 58.8531 42.089 59.3582Z" fill="#E8E8E8"/>
<path d="M41.6564 59.6108C41.5482 61.0902 41.44 62.5696 41.3679 64.0491C41.3318 64.879 40.863 67.0079 41.3679 67.7657C41.6203 68.1265 41.8728 68.2708 42.3416 68.2347C42.8104 68.2347 43.3152 67.91 43.748 67.8017C44.6135 67.5492 45.5151 67.477 46.4166 67.477C47.1018 67.477 47.1018 66.3945 46.4166 66.3945C45.6232 66.3945 44.8299 66.4666 44.0365 66.6471C43.6759 66.7192 42.9907 67.1162 42.6661 67.044C42.4137 67.2244 42.3055 67.1883 42.3776 66.8997C42.3416 66.611 42.3416 66.3223 42.3776 65.9976C42.4137 63.9047 42.594 61.7758 42.7382 59.683C42.8104 58.8891 41.7285 58.8891 41.6564 59.6108Z" fill="#E8E8E8"/>
<path d="M46.3084 59.7191C46.0199 62.1367 45.8756 64.5543 45.9117 67.0079C45.9117 67.6935 46.9936 67.6935 46.9936 67.0079C46.9575 64.5543 47.1018 62.1367 47.3903 59.7191C47.4985 59.0335 46.4166 59.0335 46.3084 59.7191Z" fill="#E8E8E8"/>
<path d="M334.376 211.089C342.886 229.816 348.837 249.59 352.118 269.905C352.227 270.59 353.272 270.302 353.164 269.616C349.846 249.229 343.86 229.347 335.313 210.547C335.025 209.934 334.087 210.475 334.376 211.089Z" fill="#E8E8E8"/>
<path d="M379.274 179.407C368.743 195.501 359.583 212.46 353.092 230.61C352.84 231.259 353.885 231.548 354.138 230.898C360.593 212.821 369.717 195.97 380.211 179.949C380.572 179.371 379.634 178.83 379.274 179.407Z" fill="#E8E8E8"/>
<path d="M330.697 230.862C336.539 232.45 341.552 236.058 344.906 241.11C345.303 241.687 346.24 241.146 345.844 240.569C342.345 235.301 337.116 231.476 330.986 229.816C330.301 229.636 330.012 230.682 330.697 230.862Z" fill="#E8E8E8"/>
<path d="M344.762 215.888C342.778 219.171 341.444 222.744 340.903 226.568C340.795 227.254 341.841 227.543 341.949 226.857C342.49 223.14 343.752 219.64 345.699 216.429C346.06 215.852 345.122 215.31 344.762 215.888Z" fill="#E8E8E8"/>
<path d="M355.977 195.609C357.744 197.557 358.97 199.795 359.908 202.212C360.341 203.295 360.701 204.413 361.026 205.496C361.35 206.542 362.108 208.094 361.675 209.14C361.422 209.79 362.468 210.078 362.721 209.429C363.154 208.382 362.721 207.336 362.396 206.326C361.963 204.846 361.495 203.367 360.918 201.923C359.908 199.325 358.574 196.908 356.698 194.815C356.266 194.31 355.508 195.068 355.977 195.609Z" fill="#E8E8E8"/>
<path d="M368.202 199.759C372.71 194.563 378.552 190.882 385.188 189.078C385.873 188.897 385.585 187.851 384.899 188.031C378.12 189.872 372.061 193.66 367.445 198.965C367.012 199.506 367.77 200.3 368.202 199.759Z" fill="#E8E8E8"/>
<path d="M355.472 228.733C358.718 225.847 362.541 223.826 366.58 222.311C368.419 221.625 370.258 221.084 372.133 220.543C373.179 220.254 374.189 220.001 375.235 219.713C375.739 219.604 377.867 218.738 378.264 218.955C378.192 218.702 378.12 218.45 378.083 218.197C378.047 218.233 378.047 218.269 378.011 218.305C378.264 218.233 378.516 218.161 378.769 218.125C378.733 218.125 378.697 218.089 378.66 218.089C378.047 217.764 377.506 218.702 378.12 219.027C378.156 219.027 378.192 219.063 378.228 219.063C378.48 219.207 378.805 219.135 378.985 218.883C379.021 218.847 379.021 218.811 379.057 218.774C379.201 218.522 379.129 218.197 378.877 218.017C378.372 217.728 377.831 217.981 377.29 218.089C376.064 218.378 374.838 218.666 373.612 218.991C371.268 219.604 368.924 220.29 366.616 221.084C362.288 222.635 358.177 224.764 354.751 227.867C354.21 228.409 354.967 229.203 355.472 228.733Z" fill="#E8E8E8"/>
<path d="M337.08 273.26C345.267 275.245 353.597 273.765 361.783 272.791C370.655 271.745 379.562 271.564 388.469 271.42C389.155 271.42 389.155 270.338 388.469 270.338C379.778 270.482 371.087 270.662 362.468 271.636C354.138 272.611 345.663 274.234 337.369 272.214C336.72 272.033 336.431 273.08 337.08 273.26Z" fill="#E8E8E8"/>
<path d="M362.901 270.193C377.47 269.435 392.04 268.642 406.609 267.884C407.294 267.848 407.294 266.765 406.609 266.801C392.04 267.559 377.47 268.353 362.901 269.111C362.216 269.147 362.216 270.229 362.901 270.193Z" fill="#E8E8E8"/>
<path d="M321.177 166.021C317.607 166.706 313.243 163.278 313.351 159.49C313.495 155.196 318.869 153.752 322.295 153.716C326.081 153.716 328.75 156.639 327.848 160.464C327.452 162.124 326.406 163.495 325.108 164.541C324.35 165.155 321.285 167.392 320.419 166.309C319.987 165.768 319.229 166.526 319.662 167.067C320.816 168.51 323.196 167.031 324.422 166.345C326.298 165.227 327.993 163.531 328.714 161.438C330.156 157.216 327.596 152.995 323.16 152.67C318.941 152.345 312.414 154.294 312.305 159.49C312.233 164.036 317.21 167.861 321.501 167.067C322.15 166.959 321.862 165.912 321.177 166.021Z" fill="#E8E8E8"/>
<path d="M44.3611 183.016C43.0268 184.531 41.8728 186.191 40.8991 187.995C40.5745 188.609 41.5121 189.15 41.8367 188.537C42.7743 186.841 43.8562 185.253 45.1544 183.774C45.5872 183.268 44.8299 182.475 44.3611 183.016Z" fill="#161616"/>
<path d="M44.325 183.449C45.4069 184.964 46.4888 186.444 47.5707 187.959C47.9674 188.537 48.905 187.995 48.5083 187.418C47.4264 185.903 46.3445 184.423 45.2627 182.908C44.8299 182.33 43.8923 182.872 44.325 183.449Z" fill="#161616"/>
<path d="M44.2528 185.578C44.5774 198.315 44.8659 211.053 45.1905 223.826C45.1905 224.512 46.2723 224.512 46.2723 223.826C45.9478 211.089 45.6593 198.351 45.3347 185.578C45.2986 184.892 44.2168 184.856 44.2528 185.578Z" fill="#161616"/>
<path d="M46.3806 224.836C62.3923 224.836 78.4041 224.836 94.4158 224.836C95.101 224.836 95.101 223.754 94.4158 223.754C78.4041 223.754 62.3923 223.754 46.3806 223.754C45.6954 223.754 45.6954 224.836 46.3806 224.836Z" fill="#161616"/>
<path d="M92.3242 223.754C93.4421 224.187 94.524 224.62 95.6419 225.053C95.4977 224.656 95.3174 224.259 95.1731 223.862C94.6322 224.836 93.8749 225.594 92.9373 226.171C92.0357 226.713 92.8651 228.12 93.7667 227.579C94.9567 226.893 95.9304 225.883 96.6156 224.692C96.9041 224.187 96.6156 223.682 96.1468 223.501C95.0289 223.068 93.947 222.635 92.8291 222.202C91.7833 221.805 91.3505 223.357 92.3242 223.754Z" fill="#161616"/>
<path d="M369.284 28.8678C367.842 26.9554 369.897 24.0326 372.133 25.476C373.143 26.1255 373.612 27.4606 372.89 28.507C372.241 29.4452 370.907 29.8421 369.897 29.3369C369.284 29.0122 368.743 29.9503 369.356 30.2751C370.835 30.9967 372.638 30.5637 373.684 29.2647C374.802 27.8575 374.405 25.8729 373.035 24.7904C371.7 23.744 369.825 23.744 368.671 25.043C367.625 26.2337 367.445 28.1461 368.419 29.4451C368.743 29.9503 369.681 29.4091 369.284 28.8678Z" fill="#353434"/>
<path d="M399.288 166.093C399.216 164.397 400.478 163.242 402.137 163.242C402.822 163.242 403.363 163.423 404.012 163.134C405.238 162.593 405.707 161.185 406.104 159.995C406.681 158.263 407.114 157.433 409.277 157.974C409.854 158.118 410.215 158.407 410.828 158.191C412.631 157.505 411.549 154.402 414.29 154.907C414.975 155.051 415.264 154.005 414.579 153.861C413.713 153.68 412.884 153.752 412.126 154.294C411.441 154.799 411.369 155.412 410.972 156.062C410.936 156.747 410.468 157.036 409.602 156.928C409.422 156.819 409.205 156.711 409.025 156.639C408.628 156.603 408.412 156.386 407.979 156.422C407.186 156.459 406.573 156.964 406.104 157.541C405.419 158.371 405.238 159.381 404.842 160.392C404.445 161.402 404.048 162.124 402.822 162.232C402.281 162.268 401.777 162.088 401.236 162.16C399.324 162.448 398.098 164.216 398.17 166.093C398.242 166.814 399.324 166.814 399.288 166.093Z" fill="#282828"/>
<path d="M57.1632 222.78C62.248 212.568 63.0414 201.058 66.0346 190.196C66.7919 187.418 67.5492 184.171 69.6409 182.078C72.7062 179.011 76.6009 181.176 77.8631 184.784C78.8007 187.526 78.8368 190.702 79.0171 193.588C79.1974 196.691 79.3417 199.795 79.522 202.898C79.9187 209.537 80.6038 216.213 82.8397 222.527C83.0561 223.177 84.1019 222.888 83.8855 222.238C81.5415 215.599 80.8924 208.563 80.5317 201.563C80.3514 198.135 80.2072 194.671 79.9547 191.243C79.7383 188.501 79.6302 185.506 78.3319 183.016C77.3222 181.067 75.3748 179.48 73.1029 179.48C70.7588 179.48 68.8114 181.103 67.6214 182.98C66.0707 185.47 65.3494 188.609 64.6282 191.423C63.8348 194.563 63.1857 197.738 62.5366 200.913C61.0941 208.202 59.6155 215.527 56.2617 222.238C55.901 222.852 56.8387 223.393 57.1632 222.78Z" fill="#4C4C4C"/>
<path d="M62.1038 178.036C61.3826 176.99 62.8611 175.583 63.7266 176.737C64.556 177.82 63.0054 178.902 62.1399 178.072C61.635 177.603 60.8777 178.361 61.3826 178.83C62.1399 179.552 63.366 179.624 64.2315 179.011C65.2052 178.325 65.3134 177.026 64.5921 176.088C63.8709 175.15 62.5366 174.897 61.635 175.691C60.8416 176.413 60.5892 177.676 61.2022 178.578C61.5629 179.155 62.5005 178.614 62.1038 178.036Z" fill="#4C4C4C"/>
<path d="M70.0736 173.237C69.4966 172.407 70.7588 171.65 71.2997 172.516C71.8767 173.454 70.2539 174.5 69.713 173.454C69.3884 172.84 68.4869 173.382 68.7754 173.995C69.2442 174.969 70.5063 175.222 71.4079 174.681C72.3455 174.139 72.7783 172.912 72.2013 171.938C71.6964 171.108 70.5064 170.675 69.6409 171.217C68.8114 171.758 68.5229 172.912 69.0639 173.742C69.5327 174.356 70.4703 173.815 70.0736 173.237Z" fill="#4C4C4C"/>
<path d="M66.9362 165.299C66.6477 164.469 67.5493 163.603 68.2705 164.289C68.9918 164.974 68.1623 165.948 67.3329 165.66C66.6838 165.443 66.3953 166.49 67.0444 166.706C68.9197 167.32 70.5064 164.938 69.0278 163.531C68.3787 162.881 67.369 162.773 66.6116 163.314C65.9264 163.819 65.5658 164.758 65.8904 165.588C66.1428 166.237 67.1886 165.984 66.9362 165.299Z" fill="#4C4C4C"/>
<path d="M80.7121 174.933C80.6039 174.861 80.7482 174.969 80.7842 175.041C80.7842 175.078 80.7842 175.114 80.7842 175.15C80.7842 175.186 80.7842 175.186 80.7842 175.114V175.15C80.8564 175.114 80.7842 175.15 80.7842 175.15C80.7482 175.15 80.8924 175.15 80.9285 175.15C81.0367 175.15 81.1449 175.186 81.253 175.222C81.1088 175.041 81.0006 174.861 80.8564 174.717C80.8564 175.005 80.8564 175.294 80.8564 175.583C81.0006 175.402 81.1088 175.222 81.253 175.078C80.9646 175.186 80.6761 175.222 80.3876 175.15C79.7384 174.933 79.4499 175.98 80.099 176.196C80.5679 176.34 81.1088 176.34 81.5415 176.124C81.7579 176.016 81.9382 175.871 81.9382 175.619C81.9382 175.33 81.9382 175.041 81.9382 174.753C81.9382 174.5 81.7579 174.284 81.5415 174.248C80.9645 174.103 80.2794 174.031 79.9187 174.608C79.6302 175.041 79.6663 175.727 80.2072 175.944C80.4597 176.088 80.7842 176.016 80.9645 175.763C81.0727 175.438 81.0006 175.077 80.7121 174.933Z" fill="#4C4C4C"/>
<path d="M140.936 31.2854C141.117 31.3576 140.72 33.1617 140.9 33.5947C141.153 34.136 141.73 34.4607 142.307 34.5329C143.1 34.6772 143.785 34.3164 144.434 33.9195C145.084 33.5226 146.634 32.1514 147.103 33.6669C147.211 33.9916 146.851 34.7855 146.959 35.2185C147.283 36.6618 148.654 36.5897 149.627 35.8319C149.988 35.5432 150.204 35.1824 150.493 34.8576C150.854 33.9916 151.395 33.8112 152.08 34.3164C152.08 34.5329 152.116 34.7494 152.188 34.9298C152.549 35.4711 152.729 35.8319 153.45 35.7958C154.135 35.7597 154.135 34.6772 153.45 34.7133C153.486 34.7133 152.693 33.0896 152.26 32.9091C151.755 32.6926 151.178 32.8731 150.709 33.1617C150.385 33.3421 150.132 33.6308 149.88 33.8834C149.339 34.4246 149.375 35.2185 148.51 34.6772C147.68 34.1721 148.365 33.3782 147.788 32.6566C146.851 31.4658 145.264 32.1153 144.254 32.7648C143.677 33.1256 142.235 34.4246 141.874 32.5122C141.838 32.2596 142.054 31.8627 142.054 31.6101C142.054 31.0328 141.946 30.7081 141.441 30.4555C140.864 30.0225 140.323 30.9606 140.936 31.2854Z" fill="#282828"/>
<path d="M103.215 115.684C103.648 120.736 104.081 125.788 104.549 130.839C104.621 131.525 105.559 131.525 105.631 130.839C105.631 130.731 105.667 130.587 105.667 130.479C105.739 129.793 104.658 129.793 104.585 130.479C104.585 130.587 104.549 130.731 104.549 130.839C104.91 130.839 105.271 130.839 105.631 130.839C105.198 125.788 104.766 120.736 104.297 115.684C104.225 114.999 103.143 114.963 103.215 115.684Z" fill="#353434"/>
<path d="M104.045 116.081C105.559 115.756 108.192 115.287 109.346 116.55C110.392 117.669 110.139 119.87 110.283 121.385C110.536 124.416 110.788 127.447 111.041 130.442C111.113 131.128 112.195 131.128 112.123 130.442C111.762 126.112 111.726 121.566 111.005 117.272C110.464 113.916 106.28 114.53 103.756 115.035C103.071 115.179 103.359 116.226 104.045 116.081Z" fill="#353434"/>
<path d="M113.277 95.7303C114.431 107.277 114.827 118.86 114.467 130.479C114.431 131.164 115.512 131.164 115.548 130.479C115.909 118.896 115.512 107.277 114.358 95.7303C114.286 95.0447 113.204 95.0086 113.277 95.7303Z" fill="#353434"/>
<path d="M114.575 95.7303C116.053 95.9468 117.856 95.9468 119.227 96.4519C121.066 97.1014 120.778 100.421 120.958 102.117C121.282 105.401 121.499 108.684 121.715 111.968C122.112 118.787 122.256 125.607 122.4 132.427C122.4 133.113 123.482 133.113 123.482 132.427C123.302 124.561 123.122 116.659 122.581 108.792C122.328 105.112 122.148 101.395 121.571 97.7509C121.066 94.6478 117.352 95.0447 114.863 94.6478C114.178 94.6117 113.89 95.622 114.575 95.7303Z" fill="#353434"/>
<path d="M123.735 88.9466C124.961 102.658 126.223 116.334 127.449 130.046C127.521 130.731 128.603 130.731 128.531 130.046C127.305 116.334 126.043 102.658 124.817 88.9466C124.78 88.261 123.699 88.261 123.735 88.9466Z" fill="#353434"/>
<path d="M124.42 89.4878C126.151 89.1631 127.918 89.0548 129.685 89.2353C131.163 89.3796 132.209 89.6683 132.281 91.2559C132.317 91.7972 132.317 92.3745 132.317 92.9158C132.426 95.622 132.534 98.3283 132.678 101.035C133.147 111.39 133.688 121.71 134.229 132.066C134.265 132.752 135.347 132.752 135.311 132.066C134.734 120.88 134.157 109.731 133.652 98.5448C133.544 96.1993 133.435 93.89 133.363 91.5446C133.327 90.4982 133.327 89.4518 132.354 88.7662C131.452 88.1528 130.046 88.1167 129 88.0806C127.377 87.9723 125.754 88.1167 124.131 88.4414C123.446 88.5858 123.735 89.6322 124.42 89.4878Z" fill="#353434"/>
<path d="M95.4616 85.4826C94.2716 87.828 93.1176 90.1734 91.9275 92.5188C91.603 93.1322 92.5406 93.6735 92.8651 93.0601C94.0552 90.7147 95.2092 88.3692 96.3993 86.0238C96.6878 85.4104 95.7502 84.8331 95.4616 85.4826Z" fill="#161616"/>
<path d="M95.6059 86.5651C96.1108 88.6579 97.2287 90.4982 98.8876 91.8693C99.4285 92.3023 100.186 91.5446 99.6449 91.1116C98.1303 89.8487 97.1205 88.2249 96.6517 86.3125C96.4714 85.5908 95.4256 85.8795 95.6059 86.5651Z" fill="#161616"/>
<path d="M94.8486 87.0703C94.6322 102.875 96.6878 118.643 100.979 133.87C101.16 134.556 102.205 134.267 102.025 133.582C97.7697 118.463 95.7141 102.803 95.9305 87.0703C95.9305 86.3847 94.8486 86.3847 94.8486 87.0703Z" fill="#161616"/>
<path d="M102.277 134.809C110.716 134.015 119.191 133.582 127.665 133.546C135.563 133.51 144.11 133.185 151.395 136.757C152.008 137.046 152.549 136.144 151.936 135.819C144.867 132.355 136.789 132.427 129.072 132.463C120.128 132.463 111.185 132.896 102.277 133.726C101.592 133.798 101.592 134.881 102.277 134.809Z" fill="#161616"/>
<path d="M146.959 133.04C148.906 134.231 150.782 135.53 152.513 136.974C152.549 136.685 152.585 136.396 152.621 136.107C151.142 137.226 149.7 138.345 148.221 139.463C147.68 139.896 148.221 140.834 148.762 140.401C150.241 139.283 151.683 138.164 153.162 137.046C153.414 136.865 153.558 136.432 153.27 136.18C151.431 134.664 149.519 133.293 147.5 132.102C146.887 131.777 146.346 132.68 146.959 133.04Z" fill="#161616"/>
<path d="M98.2023 105.364C98.7433 106.014 99.2842 106.664 99.8251 107.313C100.042 107.566 100.51 107.493 100.691 107.205C103.576 101.54 106.425 95.8385 109.346 90.1734C110.103 88.7301 111.149 89.9208 112.231 90.3178C112.916 90.5703 113.637 90.4982 114.322 90.2456C116.053 89.5961 117.207 87.7919 118.001 86.2043C119.299 83.498 120.453 80.6835 121.715 77.9412C122.04 77.1834 122.4 76.4257 122.725 75.704C122.905 75.271 123.122 74.3689 123.482 74.0442C124.6 73.0338 127.341 75.3432 128.278 75.9205C129.829 76.8587 132.065 78.9515 134.085 78.4103C135.599 78.0133 136.32 76.3535 136.753 74.9823C138.845 68.8121 141.513 63.2192 145.625 58.1314C145.949 57.7345 145.661 57.0489 145.084 57.2293C143.208 57.8427 141.513 58.7809 139.963 59.9717C139.458 60.3686 140.107 61.0902 140.612 60.8377C142.018 60.1521 143.461 59.4304 144.867 58.7448C144.615 58.6366 144.326 58.5283 144.074 58.4201C144.507 60.5851 144.939 62.7501 145.336 64.9151C145.48 65.6007 146.526 65.312 146.382 64.6264C145.949 62.4614 145.516 60.2964 145.12 58.1314C145.048 57.7706 144.615 57.6623 144.326 57.8067C142.92 58.4922 141.477 59.2139 140.071 59.8995C140.287 60.1882 140.504 60.4768 140.72 60.7655C142.126 59.6469 143.641 58.8531 145.372 58.2757C145.192 57.9871 145.011 57.6623 144.831 57.3737C141.694 61.2707 139.097 65.5646 137.222 70.2193C136.717 71.4462 136.284 72.7091 135.888 73.972C135.563 74.9823 135.058 77.1473 133.724 77.3638C132.209 77.6164 130.262 75.8844 129.036 75.1267C127.81 74.3689 126.62 73.539 125.357 72.8534C123.915 72.0957 123.013 72.3843 122.292 73.7916C120.922 76.4978 119.804 79.3845 118.542 82.1629C117.604 84.2558 116.414 88.4775 113.853 89.1631C112.122 89.6322 110.536 87.0342 108.985 88.5497C108.083 89.4157 107.615 91.0394 107.074 92.1219C106.244 93.7457 105.451 95.3333 104.621 96.9571C102.999 100.169 101.34 103.38 99.7169 106.591C100.005 106.555 100.294 106.519 100.582 106.483C100.042 105.834 99.5006 105.184 98.9596 104.535C98.4908 104.066 97.7335 104.823 98.2023 105.364Z" fill="#161616"/>
<path d="M255.182 15.6974C251.648 13.7489 250.134 8.80549 252.369 5.30541C254.641 1.73316 260.159 1.08366 263.369 3.71774C266.65 6.46008 266.686 12.0891 263.549 14.9397C260.303 17.9346 254.858 17.1407 252.189 13.8211C251.756 13.2798 250.999 14.0376 251.432 14.5788C253.92 17.6098 258.356 18.6923 261.998 17.1768C265.532 15.6974 267.371 11.8726 266.903 8.15599C266.434 4.33116 263.585 1.48057 259.762 1.04757C256.12 0.614573 252.225 2.41874 250.855 5.95491C249.34 9.85191 251.035 14.5788 254.677 16.5634C255.254 16.9603 255.795 16.0222 255.182 15.6974Z" fill="#353434"/>
<path d="M270.834 22.3367C269.319 19.5223 273.214 16.4191 275.161 19.4501C276.892 22.1202 272.637 24.1409 271.266 21.6512C270.942 21.0378 270.004 21.579 270.329 22.1924C271.194 23.7801 273.214 24.2131 274.8 23.5275C276.676 22.7337 277.145 20.5687 276.099 18.9088C275.017 17.1768 272.781 16.4913 271.05 17.7181C269.427 18.8728 268.922 21.146 269.86 22.9141C270.257 23.4914 271.194 22.9502 270.834 22.3367Z" fill="#353434"/>
<path d="M251.865 295.271C280.246 295.271 308.591 295.271 336.972 295.271C337.657 295.271 337.657 294.189 336.972 294.189C308.591 294.189 280.246 294.189 251.865 294.189C251.143 294.189 251.143 295.271 251.865 295.271Z" fill="#161616"/>
<path d="M354.787 295.271C360.196 295.271 365.606 295.271 371.015 295.271C371.7 295.271 371.7 294.189 371.015 294.189C365.606 294.189 360.196 294.189 354.787 294.189C354.102 294.189 354.102 295.271 354.787 295.271Z" fill="#161616"/>
<path d="M170.111 311.653C188.972 311.653 207.868 311.653 226.729 311.653C227.414 311.653 227.414 310.57 226.729 310.57C207.868 310.57 188.972 310.57 170.111 310.57C169.426 310.57 169.426 311.653 170.111 311.653Z" fill="#161616"/>
<path d="M226.008 307.323C242.344 307.323 258.717 307.323 275.053 307.323C275.738 307.323 275.738 306.241 275.053 306.241C258.717 306.241 242.344 306.241 226.008 306.241C225.323 306.241 225.323 307.323 226.008 307.323Z" fill="#161616"/>
<path d="M94.1994 304.364C99.14 304.364 104.044 304.364 108.985 304.364C110.031 304.364 110.031 302.74 108.985 302.74C104.044 302.74 99.14 302.74 94.1994 302.74C93.1536 302.74 93.1536 304.364 94.1994 304.364Z" fill="#161616"/>
<path d="M114.034 304.364C115.729 304.364 117.388 304.364 119.082 304.364C120.128 304.364 120.128 302.74 119.082 302.74C117.388 302.74 115.729 302.74 114.034 302.74C112.988 302.74 112.988 304.364 114.034 304.364Z" fill="#161616"/>
<path d="M73.211 238.837C73.8962 238.945 74.8338 239.811 75.555 243.925C77.6827 244.069 79.8104 244.213 81.9381 244.358C83.7052 242.878 85.4722 241.399 87.2393 239.883C87.4917 241.326 87.8163 243.455 88.1048 246.053C88.7539 252.079 88.3572 253.523 88.7539 256.878C88.9342 258.358 89.7637 264.6 93.6224 270.662C96.5795 275.317 98.5269 275.461 100.835 280.008C102.638 283.58 103.179 286.936 103.395 289.137C103.756 289.101 108.336 288.74 111.257 292.312C112.591 293.972 114.07 297.075 112.952 299.529C111.87 301.91 109.382 301.55 104.874 305.483C103.287 306.854 101.772 308.225 102.133 309.308C102.494 310.426 104.441 310.21 107.867 312.05C109.67 313.024 110.536 313.529 110.824 314.395C111.906 317.535 105.054 322.37 104.044 323.091C100.727 325.401 96.6877 327.205 96.1828 326.483C95.4255 325.401 103.576 319.447 102.349 317.138C101.448 315.406 96.327 317.571 95.137 315.658C93.8387 313.565 98.4187 308.333 100.871 305.483C105.595 299.998 108.588 298.627 108.083 296.787C107.542 294.838 103.431 293.539 101.304 294.874C99.5005 295.993 99.8612 298.519 99.176 300.178C97.8777 303.354 91.675 305.952 70.326 303.57C70.6145 302.993 71.0472 302.307 71.5882 301.658C73.4274 299.529 75.7354 298.771 76.8894 298.483C76.5648 297.941 74.6895 294.73 75.8435 290.833C76.709 287.874 78.7646 286.25 79.4498 285.745C78.0073 282.895 76.5648 279.791 75.1944 276.4C74.3289 274.198 73.5355 272.07 72.8504 270.013C70.8309 270.013 68.4868 269.652 66.6837 268.1C63.979 265.719 65.0609 262.796 62.248 260.667C59.6154 258.647 56.478 259.549 55.937 257.817C55.6846 256.987 56.1895 256.012 56.7304 255.507C58.1008 254.208 60.553 254.858 63.2217 255.579C65.0609 256.085 67.6934 257.023 70.6145 258.791C69.6408 257.384 67.8737 254.425 67.7655 250.492C67.5131 244.574 71.1194 238.548 73.211 238.837Z" fill="#161616"/>
<path d="M71.9487 264.745C69.4604 265.827 70.398 273.152 71.2996 279.827C71.8766 284.049 72.8503 289.642 74.6894 296.173C69.6407 300.07 69.8931 301.189 70.0374 301.477C70.5062 302.452 73.86 301.874 74.9058 301.694C76.0238 301.513 77.6105 301.225 78.5121 300.647C81.0725 298.952 79.7382 293.792 78.9448 285.565C77.7908 273.657 79.1612 268.678 75.3386 265.827C74.8337 265.43 73.1748 264.203 71.9487 264.745Z" fill="#161616"/>
<path d="M47.282 279.683C47.3902 279.647 48.3278 279.178 48.2917 279.142C48.2196 279.106 48.2196 279.683 48.2196 279.827C48.1836 280.297 48.0393 280.874 48.1114 281.379C48.2557 282.101 48.7966 282.462 49.5179 282.389C49.9146 282.353 50.2031 282.173 50.5276 281.92C50.5997 281.848 51.1046 281.415 51.1407 281.415C51.2128 281.451 51.2128 282.245 51.2489 282.317C51.3931 283.003 51.898 283.58 52.6553 283.508C53.3405 283.436 53.3405 282.353 52.6553 282.425C52.2947 282.462 52.1865 280.513 51.5734 280.297C51.321 280.188 51.0325 280.26 50.8161 280.369C50.2752 280.621 49.4818 281.776 49.2294 280.766C49.0491 280.008 49.8064 278.925 49.1212 278.276C48.4721 277.662 47.3902 278.384 46.7771 278.709C46.128 279.07 46.6689 280.008 47.282 279.683Z" fill="white"/>
<path d="M72.093 250.6C72.7061 250.023 73.7519 250.167 74.1847 250.889C74.4732 251.322 75.1583 250.925 74.8698 250.492C74.1486 249.337 72.4897 249.121 71.516 250.023C71.1554 250.383 71.7324 250.961 72.093 250.6Z" fill="white"/>
<path d="M79.8103 250.347C80.4594 249.698 81.5413 249.662 82.2265 250.275C82.6232 250.636 83.2002 250.059 82.8035 249.698C81.7938 248.76 80.207 248.796 79.2333 249.77C78.8727 250.131 79.4497 250.708 79.8103 250.347Z" fill="white"/>
<path d="M73.3913 254.533C74.5814 254.569 75.6993 253.703 75.9157 252.512C75.9878 252.007 75.2305 251.791 75.1223 252.296C74.9781 253.162 74.2568 253.775 73.3913 253.739C72.8504 253.703 72.8504 254.497 73.3913 254.533Z" fill="white"/>
<path d="M75.2304 252.26C75.3747 253.703 76.6369 254.858 78.1155 254.75C78.6203 254.713 78.6203 253.884 78.1155 253.92C77.1057 253.992 76.132 253.306 76.0238 252.26C75.9878 251.755 75.1944 251.755 75.2304 252.26Z" fill="white"/>
<path d="M294.382 184.243C282.446 198.712 270.545 213.145 258.608 227.615C277.325 232.27 296.041 236.924 314.758 241.579C315.371 233.821 315.515 217.981 306.896 201.418C303.001 193.913 298.349 188.284 294.382 184.243Z" fill="#F47676"/>
<path d="M255.11 230.538C274.007 235.301 292.94 240.028 311.837 244.791C311.62 247.822 311.007 252.043 309.204 256.734C307.076 262.363 304.083 266.441 301.919 268.966C286.34 256.157 270.725 243.347 255.11 230.538Z" fill="#BCBCBC"/>
<path d="M252.333 294.73C287.048 294.73 315.19 265.861 315.19 230.249C315.19 194.637 287.048 165.768 252.333 165.768C217.618 165.768 189.476 194.637 189.476 230.249C189.476 265.861 217.618 294.73 252.333 294.73Z" stroke="#161616" stroke-width="3" stroke-miterlimit="10"/>
<path d="M253.127 228.878C253.271 228.733 253.632 228.842 253.704 229.022C253.74 228.878 253.74 228.733 253.776 228.589C253.74 228.661 253.632 228.625 253.596 228.589C253.307 228.481 253.019 228.697 252.946 228.95C252.874 229.239 253.055 229.527 253.307 229.599C253.74 229.744 254.245 229.635 254.533 229.311C254.894 228.95 254.786 228.445 254.461 228.12C253.884 227.543 252.983 227.507 252.406 228.048C251.829 228.553 252.586 229.347 253.127 228.878Z" fill="#161616"/>
<path d="M291.137 179.949C279.633 196.691 267.263 212.857 254.1 228.336C253.668 228.878 254.425 229.635 254.858 229.094C268.093 213.542 280.498 197.341 292.074 180.49C292.471 179.913 291.533 179.371 291.137 179.949Z" fill="#161616"/>
<path d="M253.56 229.563C273.899 233.208 294.094 237.502 314.145 242.481C314.83 242.662 315.118 241.615 314.433 241.435C294.382 236.491 274.187 232.161 253.848 228.517C253.163 228.409 252.874 229.455 253.56 229.563Z" fill="#161616"/>
<path d="M253.487 229.383C268.886 243.491 284.754 257.059 301.09 270.121C301.631 270.554 302.388 269.796 301.847 269.363C285.547 256.337 269.643 242.734 254.245 228.625C253.74 228.156 252.946 228.914 253.487 229.383Z" fill="#161616"/>
<path opacity="0.21" d="M252.369 165.912C253.704 171.866 254.605 180.346 251.324 189.006C243.859 208.779 222.185 209.754 213.963 225.883C209.491 234.651 208.373 249.157 222.51 274.415C222.51 278.673 222.51 282.894 222.51 287.152C218.326 284.807 213.71 281.632 209.275 277.302C192.434 260.811 189.837 239.27 189.296 231.079C189.332 225.161 190.162 205.929 204.334 188.753C207.544 184.856 218.94 171.505 238.341 167.211C244.003 165.984 248.907 165.804 252.369 165.912Z" fill="#6D6C6C"/>
<path d="M145.624 267.09C148.113 273.368 150.601 279.611 153.053 285.889C151.575 289.137 149.303 293.936 146.165 299.673C142.054 307.179 140.107 309.704 140.756 310.462C141.694 311.545 147.788 308.838 171.445 291.121C169.967 287.008 168.452 282.858 166.973 278.637C164.81 272.502 162.718 266.44 160.662 260.415C155.686 262.652 150.673 264.889 145.624 267.09Z" fill="#161616"/>
<path d="M212.124 157.108C216.127 163.928 213.278 174.5 212.881 175.907C210.681 184.098 205.705 184.892 187.457 202.176C176.025 213.037 172.743 217.439 170.327 222.274C167.046 228.914 165.856 235.084 165.387 239.27C166.865 247.93 168.344 256.554 169.822 265.214C166.036 267.667 160.735 270.59 153.955 272.647C149.195 274.09 144.867 274.812 141.297 275.137C137.979 266.729 133.219 251.213 135.779 232.342C138.881 209.357 151.034 194.31 161.131 181.825C176.494 162.845 194.273 150.541 209.491 142.602C208.986 145.309 208.698 149.206 210.212 153.319C210.934 155.268 211.727 156.422 212.124 157.108Z" fill="#3D3D3D"/>
<path opacity="0.2" d="M206.137 147.329C201.63 159.526 196.22 168.979 191.316 176.088C176.71 197.341 165.928 199.073 157.309 218.81C151.791 231.44 150.601 243.491 150.241 247.821C149.339 257.889 150.132 266.44 151.142 272.719C153.162 272.647 155.686 272.358 158.463 271.564C163.836 270.013 167.659 267.306 169.859 265.394C169.245 262.471 168.344 258.141 167.334 252.837C165.964 245.476 165.279 241.759 165.279 239.125C165.279 231.367 168.56 225.522 171.229 220.867C172.491 218.666 176.169 212.568 189.044 200.769C202.639 188.32 208.301 186.155 211.871 177.026C213.999 171.577 213.963 167.247 213.927 165.84C213.602 156.35 208.265 149.711 206.137 147.329Z" fill="#6D6C6C"/>
<path opacity="0.27" d="M213.891 168.799C206.498 175.005 195.932 184.279 183.779 196.186C166.144 213.506 163.007 218.558 161.636 221.084C157.814 228.12 151.25 244.141 157.742 270.879C159.869 270.013 162.069 269.038 164.377 267.92C166.216 267.018 167.983 266.08 169.642 265.178C168.2 256.734 166.757 248.291 165.315 239.811C165.423 236.636 165.928 231.873 168.055 226.568C168.56 225.305 170.039 221.805 173.753 216.754C176.71 212.712 179.559 209.97 185.149 204.666C189.621 200.408 193.948 195.934 198.6 191.892C206.967 184.64 210.717 182.655 212.737 177.062C213.927 173.778 213.999 170.784 213.891 168.799Z" fill="#6D6C6C"/>
<path d="M185.329 266.296C190.811 270.518 196.292 274.74 201.774 278.961C194.489 297.436 194.489 302.235 195.968 303.065C198.42 304.472 206.462 295.776 211.042 289.389C215.117 283.652 217.497 278.276 218.867 274.523C216.632 271.673 214.071 268.714 211.222 265.683C207.291 261.497 203.433 257.925 199.79 254.822C194.994 258.683 190.162 262.471 185.329 266.296Z" fill="#161616"/>
<path d="M241.587 157.108C244.796 165.624 242.849 173.851 242.344 175.907C238.666 191.207 224.998 203.836 220.166 208.238C211.907 215.816 205.055 219.604 201.233 229.708C199.899 233.172 199.358 236.239 199.141 238.332C201.774 244.358 204.406 250.383 207.039 256.373C205.308 260.09 201.521 266.946 193.876 272.178C190.631 274.415 187.457 275.786 184.861 276.688C179.379 271.095 164.521 254.497 165.315 232.306C165.928 215.274 175.556 201.563 182.985 190.918C190.45 180.274 192.362 181.573 201.774 167.969C209.924 156.17 211.475 150.793 218.327 148.412C225.214 145.994 235.312 147.329 239.748 153.319C240.613 154.582 241.01 155.629 241.587 157.108Z" fill="#3D3D3D"/>
<path opacity="0.24" d="M224.818 155.484C225.214 158.804 225.503 164.505 223.844 171.072C218.074 193.408 196.941 195.356 186.772 219.532C184.788 224.259 180.172 235.698 183.815 248.94C186.628 259.26 193.191 265.971 196.905 269.219C198.348 268.461 200.728 266.946 202.82 264.276C205.416 260.956 206.246 257.564 206.534 255.868C203.974 249.698 201.413 243.492 198.889 237.321C199.358 234.579 200.331 230.646 202.603 226.424C205.705 220.579 209.455 217.62 214.287 213.254C223.159 205.279 228.821 200.228 233.725 193.264C236.827 188.825 241.334 182.294 242.813 172.732C244.039 164.938 242.741 158.407 241.623 154.474C236.033 154.835 230.407 155.16 224.818 155.484Z" fill="#6D6C6C"/>
<path opacity="0.25" d="M243.174 167.067C240.325 172.299 235.42 180.454 227.847 189.186C213.278 205.965 203.397 209.465 196.617 222.383C193.696 227.94 191.027 237.105 194.309 251.827C198.456 253.487 202.639 255.146 206.786 256.842C204.154 250.636 201.557 244.466 198.925 238.259C199.177 235.192 199.935 230.646 202.495 225.955C204.767 221.769 207.291 219.568 212.845 214.517C222.041 206.145 226.657 201.96 228.532 199.867C232.824 195.14 237.512 189.836 240.469 181.645C242.633 175.835 243.101 170.603 243.174 167.067Z" fill="#6D6C6C"/>
<path d="M155.397 106.808C154.424 104.643 152.729 101.504 149.627 98.653C145.733 95.0808 140.287 92.5188 139.422 93.5653C139.061 93.9983 139.097 95.5138 145.661 102.767" fill="white"/>
<path d="M155.397 106.808C154.424 104.643 152.729 101.504 149.627 98.653C145.733 95.0808 140.287 92.5188 139.422 93.5653C139.061 93.9983 139.097 95.5138 145.661 102.767" stroke="#161616" stroke-width="2" stroke-miterlimit="10"/>
<path d="M141.802 100.89C140.395 101.756 137.907 103.596 136.573 106.772C136.068 107.999 135.419 109.586 135.888 111.426C136.717 114.602 140.54 115.937 140.864 116.081C142.415 116.622 142.812 116.226 143.93 116.875C145.733 117.922 145.661 119.329 146.995 120.628C149.736 123.262 155.289 122.215 155.542 121.097C155.686 120.483 154.099 119.906 154.243 118.788C154.316 118.102 155.001 117.813 155.47 117.38C157.994 115.071 155.578 108.323 155.145 107.205C154.748 106.158 154.135 104.643 153.053 102.947" fill="white"/>
<path d="M141.802 100.89C140.395 101.756 137.907 103.596 136.573 106.772C136.068 107.999 135.419 109.586 135.888 111.426C136.717 114.602 140.54 115.937 140.864 116.081C142.415 116.622 142.812 116.226 143.93 116.875C145.733 117.922 145.661 119.329 146.995 120.628C149.736 123.262 155.289 122.215 155.542 121.097C155.686 120.483 154.099 119.906 154.243 118.788C154.316 118.102 155.001 117.813 155.47 117.38C157.994 115.071 155.578 108.323 155.145 107.205C154.748 106.158 154.135 104.643 153.053 102.947" stroke="#161616" stroke-width="2" stroke-miterlimit="10"/>
<path d="M135.275 110.957C136.104 113.122 137.691 115.035 139.891 115.901C142.126 116.803 143.785 115.612 143.821 113.231C143.821 112.545 142.74 112.545 142.74 113.231C142.703 116.009 139.963 114.999 138.592 113.88C137.547 113.05 136.789 111.932 136.32 110.669C136.068 110.019 135.022 110.272 135.275 110.957Z" fill="#161616"/>
<path d="M137.979 107.999C139.061 110.019 140.504 112.256 142.739 113.086C144.759 113.844 145.949 112.617 146.165 110.705C146.238 110.019 145.156 110.019 145.084 110.705C144.759 113.555 141.982 111.571 141.009 110.56C140.143 109.658 139.494 108.576 138.917 107.457C138.592 106.844 137.655 107.385 137.979 107.999Z" fill="#161616"/>
<path d="M141.225 103.127C141.874 104.571 142.523 106.05 143.425 107.349C144.038 108.251 144.903 109.55 146.093 109.767C148.906 110.308 148.005 106.303 147.464 104.932C147.211 104.282 146.165 104.571 146.418 105.22C146.67 105.834 147.211 107.096 146.995 107.782C146.382 109.767 144.723 107.313 144.362 106.808C143.461 105.509 142.812 104.029 142.162 102.586C141.874 101.937 140.936 102.478 141.225 103.127Z" fill="#161616"/>
<path d="M141.766 101.504C142.848 100.962 144.182 101.937 144.939 102.658C145.697 103.38 146.201 104.318 146.598 105.256C146.851 105.906 147.896 105.617 147.644 104.968C146.742 102.73 144.074 99.1582 141.225 100.565C140.612 100.854 141.153 101.792 141.766 101.504Z" fill="#161616"/>
<path d="M219.985 90.426C221.139 93.8539 219.372 96.7767 214.432 105.581C206.137 120.231 205.632 121.53 203.721 123.839C199.213 129.252 196.653 132.319 191.929 134.303C183.31 137.912 173.753 134.736 168.524 132.752C163.656 130.875 160.049 128.458 157.705 126.654C156.119 125.355 154.893 124.344 154.099 123.731C152.44 122.396 151.683 121.819 151.034 120.664C150.998 120.628 150.385 119.509 150.24 118.246C149.7 114.385 153.522 111.138 153.811 110.885C149.231 111.968 147.644 111.751 147.355 111.102C146.67 109.658 151.647 104.354 155.145 105.545C156.804 106.086 157.633 107.962 158.246 109.334C159.436 111.932 159.292 114.349 159.148 115.576C161.348 117.092 164.485 118.86 168.488 120.05C176.386 122.36 183.166 121.133 186.519 120.267C188.359 117.308 191.352 112.473 194.994 106.447C204.947 89.9208 207.58 84.6887 212.16 84.6166C215.586 84.5805 218.976 87.4311 219.985 90.426Z" fill="white" stroke="#161616" stroke-width="2" stroke-miterlimit="10"/>
<path d="M153.486 111.823C150.385 111.679 149.952 115.684 149.555 117.958C149.916 117.994 150.277 118.066 150.601 118.102C150.637 116.659 151.286 115.468 151.972 114.241C152.332 113.628 151.395 113.086 151.034 113.7C149.627 115.973 148.762 118.787 150.709 121.025C150.962 120.772 151.214 120.519 151.467 120.267C150.926 119.798 150.637 119.184 150.601 118.427C150.241 118.463 149.88 118.535 149.555 118.571C149.736 119.148 149.952 119.69 150.241 120.231C150.565 120.844 151.503 120.303 151.178 119.69C150.926 119.257 150.709 118.787 150.601 118.282C150.457 117.705 149.483 117.813 149.555 118.427C149.664 119.473 149.988 120.267 150.745 121.025C151.25 121.53 151.972 120.772 151.503 120.267C149.916 118.427 150.926 116.081 152.008 114.241C151.683 114.061 151.395 113.88 151.07 113.7C150.277 115.107 149.591 116.442 149.555 118.102C149.519 118.715 150.529 118.86 150.601 118.246C150.89 116.586 151.142 112.834 153.486 112.906C154.171 112.942 154.171 111.86 153.486 111.823Z" fill="white"/>
<path opacity="0.21" d="M214.468 86.096C212.196 92.1941 208.518 100.89 202.711 110.741C196.797 120.808 193.696 125.86 188.359 128.53C177.396 133.979 160.482 130.298 154.784 119.87C153.053 116.695 152.657 113.483 152.657 111.066C151.286 111.535 149.159 112.04 147.103 111.246C142.487 109.406 142.054 102.514 139.602 102.586C137.979 102.658 136.789 105.725 136.356 106.844C135.96 107.854 135.311 109.514 135.707 111.246C136.284 113.808 138.989 115.829 142.379 116.478C144.146 117.344 145.264 118.318 145.949 119.076C147.139 120.375 147.464 121.386 148.726 121.999C149.844 122.54 151.034 122.468 151.827 122.324C153.522 123.695 156.191 125.752 159.653 127.881C167.082 132.427 176.061 137.912 186.231 136.035C191.027 135.169 194.309 132.968 196.328 131.633C199.61 129.432 203.144 126.112 209.852 114.025C212.629 109.009 216.055 102.334 219.481 94.1065C219.625 93.7457 220.418 91.6168 219.3 89.3796C217.93 86.4208 214.648 86.096 214.468 86.096Z" fill="#6D6C6C"/>
<path opacity="0.22" d="M146.238 111.174C145.733 111.535 145.949 112.256 145.336 112.798C144.903 113.158 144.326 113.158 143.966 113.158C143.966 113.664 143.893 114.313 143.497 114.891C142.992 115.612 142.307 115.756 142.343 116.045C142.415 116.37 143.425 116.189 144.398 116.731C145.084 117.128 145.516 117.741 145.769 118.21C148.149 115.937 150.529 113.7 152.909 111.427C151.106 112.112 149.772 112.004 148.87 111.787C147.716 111.427 146.851 110.741 146.238 111.174Z" fill="#6D6C6C"/>
<path d="M219.697 83.3537C217.281 85.7713 216.019 88.5136 213.566 93.9983C211.619 98.2922 208.481 105.473 207.436 115.035C206.282 125.716 208.986 128.133 206.823 136.071C205.2 142.061 202.134 146.463 199.863 149.134C202.784 152.056 208.085 156.567 215.982 159.345C229.362 164.036 241.118 160.5 244.977 159.129C248.186 150.469 251.36 141.809 254.569 133.185C254.605 125.86 254.894 119.617 255.182 114.782C255.904 103.236 257.094 94.3952 257.851 89.0188C258.717 82.7042 259.618 77.3999 260.303 73.5029C252.189 73.9359 245.482 74.8741 240.685 75.7401C224.962 78.6268 221.248 81.8021 219.697 83.3537Z" fill="white" stroke="#161616" stroke-width="2" stroke-miterlimit="10"/>
<path opacity="0.19" d="M238.81 75.9927C240.433 79.8536 242.524 86.096 242.993 93.9261C244.111 112.545 235.132 127.123 228.316 138.164C225.214 143.18 220.418 150.144 213.314 157.685C216.055 159.129 219.985 160.752 224.926 161.546C233.869 162.99 241.154 160.825 244.76 159.453C247.79 150.721 250.783 142.025 253.812 133.293C253.992 127.339 254.317 121.169 254.786 114.891C255.868 100.241 257.635 86.4929 259.798 73.7194C252.802 74.4772 245.806 75.2349 238.81 75.9927Z" fill="#6D6C6C"/>
<path opacity="0.11" d="M245.265 74.8741C247.862 81.5856 250.566 91.3642 249.953 103.127C248.222 135.855 222.329 155.665 217.858 158.984C220.598 159.959 224.313 160.969 228.821 161.258C235.528 161.691 240.974 160.319 244.328 159.165C247.645 150.433 250.999 141.736 254.317 133.004C254.317 125.03 254.605 116.514 255.291 107.493C256.228 95.3333 257.779 84.0753 259.654 73.8998C254.858 74.2246 250.061 74.5493 245.265 74.8741Z" fill="#6D6C6C"/>
<path d="M258.969 73.0338C261.89 74.1163 266.181 76.2092 269.283 80.4309C272.745 85.1578 273.502 90.859 271.519 108.937C269.679 125.752 268.093 129.36 267.48 139.463C266.794 150.577 267.84 159.67 268.814 165.479C272.925 164.505 277.036 163.531 281.147 162.557C285.619 163.747 288.324 165.948 289.658 167.283C290.992 168.582 293.805 171.325 293.012 173.562C292.507 175.005 290.668 175.727 289.874 176.016C288.324 176.629 287.026 176.557 285.619 176.449C282.626 176.268 279.633 176.16 276.64 176.016C275.089 175.943 272.853 175.871 270.148 176.016C273.791 179.155 275.341 181.176 274.872 182.078C274.223 183.268 269.896 182.438 261.854 179.624C261.493 176.701 260.916 172.263 260.051 166.85C257.815 152.706 256.192 147.654 255.11 140.149C253.992 132.391 254.353 125.391 255.11 111.427C255.687 101.54 256.733 88.4775 258.969 73.0338Z" fill="white" stroke="#161616" stroke-width="2" stroke-miterlimit="10"/>
<path d="M275.702 171.217C278.479 170.062 281.364 170.711 284.032 171.902C286.304 172.876 288.54 174.067 290.307 175.799C290.812 176.268 291.57 175.51 291.065 175.041C289.009 173.057 286.449 171.722 283.816 170.675C281.111 169.557 278.19 169.052 275.377 170.206C274.8 170.423 275.089 171.469 275.702 171.217Z" fill="#161616"/>
<path d="M279.236 167.897C284.032 166.959 289.73 169.809 292.363 173.887C292.76 174.464 293.697 173.923 293.3 173.346C290.343 168.835 284.285 165.84 278.948 166.887C278.262 166.995 278.551 168.041 279.236 167.897Z" fill="#161616"/>
<path d="M283.383 165.407C285.295 165.479 286.953 166.309 288.612 167.211C289.225 167.536 289.766 166.598 289.153 166.273C287.314 165.299 285.475 164.397 283.383 164.325C282.698 164.289 282.698 165.371 283.383 165.407Z" fill="#161616"/>
<path opacity="0.16" d="M259.474 73.8998C261.277 77.9773 263.837 84.6166 265.136 93.1323C268.273 113.988 260.556 124.85 261.926 147.402C262.251 152.995 263.296 161.33 266.614 171.469C269.499 170.531 273.899 169.593 279.056 170.17C282.698 170.603 284.501 170.82 286.304 172.119C288.107 173.418 289.153 175.15 290.992 175.041C291.714 175.005 292.687 174.681 293.084 173.923C294.058 172.155 291.389 169.124 290.488 168.113C289.189 166.634 286.521 164.108 281.616 162.629C277.361 163.495 273.105 164.361 268.85 165.227C268.021 161.546 266.867 155.412 266.758 147.799C266.65 141.304 267.804 133.437 270.148 117.922C270.581 115.035 271.122 109.225 272.24 97.5705C272.601 93.7457 272.889 90.3178 271.591 86.096C270.942 83.9671 269.355 79.1319 264.667 76.1009C262.683 74.7298 260.772 74.1885 259.474 73.8998Z" fill="#6D6C6C"/>
<path opacity="0.22" d="M267.372 175.799C267.84 176.954 268.85 178.938 270.906 180.49C272.168 181.428 274.368 182.583 274.764 182.114C275.269 181.536 273.358 178.361 270.401 176.773C269.283 176.16 268.165 175.907 267.372 175.799Z" fill="#6D6C6C"/>
<path opacity="0.4" d="M271.41 103.596C268.129 112.617 264.198 127.087 265.28 144.948C265.821 154.077 267.588 161.943 269.463 168.186C267.588 161.041 267.047 155.123 266.867 151.082C266.434 140.293 268.381 134.231 270.401 114.421C270.906 109.839 271.23 106.05 271.41 103.596Z" fill="#6D6C6C"/>
<path opacity="0.22" d="M278.695 167.067C278.623 166.634 282.229 164.974 285.799 165.768C290.596 166.85 292.832 171.902 293.228 172.876C291.533 170.964 288.793 168.474 284.826 167.536C281.472 166.778 278.731 167.428 278.695 167.067Z" fill="#6D6C6C"/>
<path d="M206.426 65.6367C204.911 67.044 204.587 70.0028 203.974 75.8122C203.289 82.4876 203 85.8795 204.406 87.5754C206.967 90.6786 212.484 90.859 216.307 89.1631C220.815 87.1424 222.366 82.7763 222.762 81.6938C224.529 76.6782 223.952 69.1007 218.615 65.6367C215.009 63.2552 209.419 62.8583 206.426 65.6367Z" fill="#212121"/>
<path d="M214.215 70.9049C214.756 73.5029 217.641 73.7194 220.094 77.869C221.861 80.8639 222.221 83.931 222.257 86.1321C224.457 86.096 228.532 85.663 232.932 83.3897C236.358 81.5856 238.666 79.3123 240 77.7607C239.098 76.2813 237.764 74.1163 236.177 71.5183C229.326 60.5129 228.316 59.6469 226.945 59.2861C221.392 57.951 213.17 66.0697 214.215 70.9049Z" fill="white" stroke="#161616" stroke-width="2" stroke-miterlimit="10"/>
<path opacity="0.74" d="M204.334 77.7247C204.659 81.9103 208.481 84.9413 212.484 84.364C216.343 83.7867 219.12 80.034 218.435 76.0287C219.156 76.8587 220.166 78.2298 220.887 80.1062C221.464 81.5856 221.68 82.9207 221.752 83.8949C221.212 84.797 218.399 89.2713 213.133 90.1373C212.232 90.2817 207.111 91.0394 204.695 87.9723C203.541 86.4568 203.433 84.6166 203.361 83.1372C203.288 80.7196 203.902 78.8072 204.334 77.7247Z" fill="#161616"/>
<path d="M189.188 40.5949C187.529 43.662 187.926 46.7652 188.719 52.8272C189.657 59.683 190.883 65.4202 192.362 69.209C192.578 69.7863 193.155 70.1111 193.768 70.0389C194.561 69.9667 195.751 69.3533 196.437 69.1368C197.302 70.6884 198.745 72.7812 200.98 74.7297C205.416 78.5546 210.285 79.4567 212.448 79.7092C214.576 78.9154 219.841 76.57 223.339 70.941C225.647 67.1883 226.116 63.7243 226.224 62.9305C226.837 57.7345 225.106 53.6932 224.277 52.0333C225.034 51.5642 226.188 50.7343 226.981 49.3271C228.64 46.4043 228.568 41.5692 225.936 40.2702C223.952 39.2959 220.815 40.3784 218.687 43.1568C218.002 41.9661 216.956 40.3784 215.369 38.7907C214.973 38.3938 212.052 35.435 208.734 34.0999C202.243 31.538 192.578 34.3525 189.188 40.5949Z" fill="white" stroke="#161616" stroke-width="2" stroke-miterlimit="10"/>
<path d="M225.431 66.5388C223.772 70.0389 222.077 73.5029 219.769 76.6422C220.058 76.6061 220.346 76.57 220.635 76.5339C220.418 76.2813 220.202 75.9927 220.021 75.7401C219.985 75.9566 219.949 76.1731 219.949 76.3896C220.887 75.5957 221.608 74.7298 222.257 73.6833C221.933 73.5029 221.644 73.3225 221.32 73.1421C220.815 74.2246 220.166 74.8741 219.12 75.3432C219.336 75.6318 219.553 75.9205 219.769 76.2092C221.644 74.4411 223.339 72.4926 224.854 70.3998C225.251 69.8224 224.313 69.2812 223.916 69.8585C222.474 71.8792 220.815 73.7555 219.012 75.4514C218.543 75.8844 219.156 76.5339 219.661 76.3174C220.851 75.7762 221.716 74.9102 222.257 73.7194C222.546 73.106 221.716 72.5648 221.32 73.1782C220.707 74.1163 220.021 74.9102 219.192 75.6679C219.012 75.8123 218.976 76.137 219.12 76.3174C219.444 76.8226 219.481 76.8948 219.913 77.3278C220.166 77.6164 220.562 77.4721 220.779 77.2195C223.087 74.1163 224.782 70.6163 226.441 67.1162C226.657 66.4667 225.719 65.9254 225.431 66.5388Z" fill="#161616"/>
<path d="M198.456 71.9153C200.944 71.2658 202.387 69.1729 203.649 67.1162C204.01 66.5388 203.072 65.9976 202.711 66.5749C201.593 68.3791 200.331 70.2915 198.168 70.9049C197.482 71.0493 197.771 72.0957 198.456 71.9153Z" fill="#161616"/>
<path d="M201.918 66.3584C202.639 66.3945 203.216 66.6832 203.685 67.2244C204.154 67.7657 204.911 66.9718 204.443 66.4667C203.793 65.7089 202.892 65.312 201.918 65.2759C201.197 65.2398 201.197 66.3223 201.918 66.3584Z" fill="#161616"/>
<path d="M200.548 59.8634C200.548 59.8273 200.548 59.7912 200.548 59.7552C200.548 59.4665 200.295 59.2139 200.007 59.2139C199.718 59.2139 199.466 59.4665 199.466 59.7552C199.466 59.7912 199.466 59.8273 199.466 59.8634C199.466 60.1521 199.718 60.4047 200.007 60.4047C200.295 60.3686 200.548 60.1521 200.548 59.8634Z" fill="#161616"/>
<path d="M202.964 56.9768C203.649 56.9768 203.649 55.8942 202.964 55.8942C202.279 55.8942 202.279 56.9768 202.964 56.9768Z" fill="#161616"/>
<path d="M202.639 59.7191C203.325 59.7191 203.325 58.6366 202.639 58.6366C201.954 58.6366 201.954 59.7191 202.639 59.7191Z" fill="#161616"/>
<path d="M188.936 51.1312C187.782 50.7343 185.329 49.6879 183.923 47.2703C181.723 43.5177 183.49 39.1516 184.356 37.0948C184.824 35.9402 186.123 33.0896 192.398 27.4967C197.158 23.2028 199.574 21.0738 202.279 19.8831C211.943 15.6613 221.825 19.7027 223.628 20.4604C226.296 21.5429 228.244 22.878 232.102 25.476C236.791 28.6513 239.784 30.7081 242.128 34.2442C244.977 38.5742 243.246 39.6928 245.698 44.5641C249.593 52.2859 254.966 51.3477 258.176 58.4922C258.717 59.683 261.71 66.3223 258.32 72.1318C255.543 76.8587 249.881 78.5546 245.698 78.4463C238.089 78.2298 233.256 71.807 230.516 68.1265C225.9 61.9923 224.601 55.5695 224.169 51.8168C227.667 49.724 228.857 45.9713 227.631 43.5898C226.729 41.8939 224.241 40.198 222.041 41.1362C220.526 41.7857 219.553 43.5177 219.589 45.4301C218.146 45.6827 213.711 46.2239 209.131 43.6981C205.741 41.8578 203.902 39.2598 203.108 37.9608C201.089 38.7547 197.843 40.2702 194.633 43.2651C191.568 46.1517 189.837 49.1827 188.936 51.1312Z" fill="#212121"/>
<path opacity="0.24" d="M212.448 53.2241C216.451 56.9767 218.399 61.1263 219.012 62.5336C221.536 68.3069 221.392 73.6112 221.139 76.3174C222.438 74.1163 223.7 71.9152 224.998 69.6781C227.09 74.3689 229.145 79.0597 231.237 83.7145C232.355 83.4619 234.555 82.8124 236.682 80.9361C238.305 79.4927 239.171 77.9412 239.603 76.9669C236.466 74.6937 230.588 69.7863 227.162 61.4511C225.683 57.8788 224.998 54.5952 224.71 51.9612C227.811 49.7601 228.965 46.2239 227.811 43.6981C227.09 42.0743 224.998 40.0176 222.654 40.6671C220.671 41.2083 219.3 43.3373 219.625 45.7188C218.11 45.8992 214.504 46.1517 210.501 44.3837C206.354 42.5434 204.082 39.5485 203.216 38.2856C204.19 44.6723 206.642 48.1363 208.698 50.1209C209.996 51.456 210.537 51.456 212.448 53.2241Z" fill="#6D6C6C"/>
<path opacity="0.24" d="M224.71 54.9561C224.457 54.9561 224.601 58.6727 224.241 62.1006C223.772 66.5027 222.474 70.0028 221.392 72.3482C222.366 71.7348 223.808 70.5802 225.07 68.776C226.873 66.1419 227.198 63.5439 227.306 62.281C226.982 61.7758 226.549 61.0542 226.152 60.1521C224.89 57.2654 224.926 54.9561 224.71 54.9561Z" fill="#6D6C6C"/>
<path opacity="0.19" d="M225.972 67.477C226.837 68.3791 228.063 69.5698 229.65 70.8688C234.446 74.8741 239.099 77.1473 239.243 76.8948C239.387 76.6422 234.843 74.8019 231.381 69.8224C229.217 66.7193 227.955 63.0388 227.414 63.2192C227.162 63.2913 227.378 64.1573 226.945 65.5646C226.657 66.3945 226.26 67.044 225.972 67.477Z" fill="#6D6C6C"/>
<path opacity="0.74" d="M229.975 24.1409C234.23 31.5019 237.259 37.9248 239.315 42.6878C245.049 56.0747 244.58 59.7552 243.787 62.1367C242.02 67.5131 237.115 70.5441 234.194 71.9874C234.915 72.9977 237.908 77.003 243.39 78.1216C244.436 78.3381 250.747 79.5288 255.543 75.1628C259.113 71.9513 259.654 67.6935 259.762 66.5749C260.411 60.5129 256.805 55.9664 255.651 54.6674C254.137 52.9715 253.812 53.3684 250.278 49.9405C247.537 47.3064 246.203 45.9713 245.409 44.3115C244.147 41.6053 244.977 40.4506 243.498 37.0227C242.705 35.1463 241.767 33.8834 241.082 32.9092C237.584 28.1823 232.535 25.4038 229.975 24.1409Z" fill="#161616"/>
<path d="M197.555 55.2447C197.915 55.9664 197.915 57.0128 197.446 57.2293C196.978 57.4819 196.076 56.7963 195.751 56.0025C195.499 55.3169 195.571 54.3427 196.04 54.1623C196.545 53.9818 197.266 54.6313 197.555 55.2447Z" fill="#161616"/>
<path d="M194.597 54.4148C195.86 53.9818 197.158 53.6571 198.492 53.4406C198.997 53.3684 198.781 52.5746 198.276 52.6468C196.942 52.8633 195.643 53.188 194.381 53.621C193.876 53.8014 194.093 54.5592 194.597 54.4148Z" fill="#161616"/>
</svg>
