<svg width="54" height="62" viewBox="0 0 54 62" fill="none" xmlns="http://www.w3.org/2000/svg">
<path d="M4.60002 0.199951C2.29707 0.199951 0.400024 2.09699 0.400024 4.39995V57.5999C0.400024 59.9029 2.29707 61.7999 4.60002 61.7999H49.4C51.703 61.7999 53.6 59.9029 53.6 57.5999V4.39995C53.6 2.09699 51.703 0.199951 49.4 0.199951H4.60002ZM4.60002 2.99995H49.4C50.1911 2.99995 50.8 3.60891 50.8 4.39995V57.5999C50.8 58.391 50.1911 59 49.4 59H4.60002C3.80898 59 3.20002 58.391 3.20002 57.5999V4.39995C3.20002 3.60891 3.80898 2.99995 4.60002 2.99995ZM35.4 7.19995C34.6574 7.19995 33.9452 7.49495 33.4201 8.02005C32.895 8.54515 32.6 9.25735 32.6 9.99995C32.6 10.7426 32.895 11.4547 33.4201 11.9798C33.9452 12.505 34.6574 12.8 35.4 12.8C36.1426 12.8 36.8548 12.505 37.3799 11.9798C37.905 11.4547 38.2 10.7426 38.2 9.99995C38.2 9.25735 37.905 8.54515 37.3799 8.02005C36.8548 7.49495 36.1426 7.19995 35.4 7.19995ZM43.8 7.19995C43.0574 7.19995 42.3452 7.49495 41.8201 8.02005C41.295 8.54515 41 9.25735 41 9.99995C41 10.7426 41.295 11.4547 41.8201 11.9798C42.3452 12.505 43.0574 12.8 43.8 12.8C44.5426 12.8 45.2548 12.505 45.7799 11.9798C46.305 11.4547 46.6 10.7426 46.6 9.99995C46.6 9.25735 46.305 8.54515 45.7799 8.02005C45.2548 7.49495 44.5426 7.19995 43.8 7.19995ZM27 17C18.0227 17 10.6872 24.0884 10.2438 32.9578C10.1998 33.1339 10.1906 33.3168 10.2164 33.4964C10.2146 33.5985 10.2 33.6975 10.2 33.7999C10.2 43.0616 17.7384 50.5999 27 50.5999C36.2591 50.5999 43.8 43.0619 43.8 33.7999C43.8 33.6984 43.7854 33.6003 43.7836 33.4992C43.8113 33.3151 43.802 33.1273 43.7563 32.9468C43.3143 24.2621 36.2282 17.3719 27.4977 17.1011C27.3393 17.0373 27.1707 17.0031 27 17ZM27 19.8C33.6194 19.8 39.1355 24.371 40.6035 30.5351C39.2183 29.9007 37.9023 29.6255 36.8301 29.6027C34.8315 29.5607 33.2822 30.4205 31.8235 31.1121C30.3647 31.8037 28.967 32.4 27 32.4C25.033 32.4 23.6354 31.8037 22.1766 31.1121C20.7185 30.4208 19.1699 29.5616 17.1727 29.6027H17.1699C16.0964 29.6248 14.7813 29.9004 13.3965 30.5351C14.864 24.3708 20.378 19.8 27 19.8ZM17.2274 32.4C17.2283 32.4 17.2292 32.4 17.2301 32.4C18.3619 32.3762 19.4488 32.9172 20.9762 33.6414C22.5035 34.3655 24.4422 35.2 27 35.2C29.5578 35.2 31.4964 34.3655 33.0239 33.6414C34.5513 32.9172 35.6382 32.3762 36.7699 32.4C37.6804 32.4193 39.3461 32.832 40.9918 33.9914C40.8886 41.6496 34.6807 47.7999 27 47.7999C19.3163 47.7999 13.1114 41.6499 13.0082 33.9914C14.6541 32.8316 16.3191 32.4184 17.2274 32.4Z" fill="#272929"/>
</svg>
