<svg width="56" height="64" viewBox="0 0 56 64" fill="none" xmlns="http://www.w3.org/2000/svg">
<path d="M4.96014 0.320068C2.59138 0.320068 0.640137 2.27131 0.640137 4.64007V59.3601C0.640137 61.7288 2.59138 63.6801 4.96014 63.6801H51.0401C53.4089 63.6801 55.3601 61.7288 55.3601 59.3601V4.64007C55.3601 2.27131 53.4089 0.320068 51.0401 0.320068H4.96014ZM4.96014 3.20007H51.0401C51.8538 3.20007 52.4801 3.82643 52.4801 4.64007V59.3601C52.4801 60.1737 51.8538 60.8001 51.0401 60.8001H4.96014C4.14649 60.8001 3.52014 60.1737 3.52014 59.3601V4.64007C3.52014 3.82643 4.14649 3.20007 4.96014 3.20007ZM36.6401 7.52007C35.8763 7.52007 35.1438 7.8235 34.6037 8.3636C34.0636 8.90371 33.7601 9.63624 33.7601 10.4001C33.7601 11.1639 34.0636 11.8964 34.6037 12.4365C35.1438 12.9766 35.8763 13.2801 36.6401 13.2801C37.404 13.2801 38.1365 12.9766 38.6766 12.4365C39.2167 11.8964 39.5201 11.1639 39.5201 10.4001C39.5201 9.63624 39.2167 8.90371 38.6766 8.3636C38.1365 7.8235 37.404 7.52007 36.6401 7.52007ZM45.2801 7.52007C44.5163 7.52007 43.7838 7.8235 43.2437 8.3636C42.7036 8.90371 42.4001 9.63624 42.4001 10.4001C42.4001 11.1639 42.7036 11.8964 43.2437 12.4365C43.7838 12.9766 44.5163 13.2801 45.2801 13.2801C46.044 13.2801 46.7765 12.9766 47.3166 12.4365C47.8567 11.8964 48.1601 11.1639 48.1601 10.4001C48.1601 9.63624 47.8567 8.90371 47.3166 8.3636C46.7765 7.8235 46.044 7.52007 45.2801 7.52007ZM28.0001 17.6001C18.4739 17.6001 10.7201 25.3538 10.7201 34.8801C10.7201 44.4063 18.4739 52.1601 28.0001 52.1601C37.5238 52.1601 45.2801 44.4067 45.2801 34.8801C45.2801 25.5349 37.7861 17.9918 28.512 17.7041C28.3492 17.6385 28.1757 17.6033 28.0001 17.6001ZM28.0001 20.4801C35.9667 20.4801 42.4001 26.9107 42.4001 34.8801C42.4001 42.8495 35.9667 49.2801 28.0001 49.2801C20.0304 49.2801 13.6001 42.8498 13.6001 34.8801C13.6001 26.9103 20.0304 20.4801 28.0001 20.4801ZM22.2176 27.6604C21.8362 27.6663 21.4727 27.8234 21.207 28.0971C20.9412 28.3707 20.7949 28.7386 20.8001 29.1201C20.8001 32.4673 20.3052 33.0254 19.5879 34.1432C18.8707 35.261 17.9201 36.9528 17.9201 40.6401C17.9174 40.8309 17.9527 41.0203 18.0238 41.1974C18.095 41.3745 18.2006 41.5357 18.3346 41.6715C18.4686 41.8074 18.6283 41.9153 18.8043 41.989C18.9804 42.0627 19.1693 42.1006 19.3601 42.1006C19.551 42.1006 19.7399 42.0627 19.916 41.989C20.092 41.9153 20.2517 41.8074 20.3856 41.6715C20.5196 41.5357 20.6253 41.3745 20.6964 41.1974C20.7676 41.0203 20.8028 40.8309 20.8001 40.6401C20.8001 37.3491 21.2895 36.825 22.0123 35.6985C22.7351 34.572 23.6801 32.8576 23.6801 29.1201C23.6828 28.9274 23.6467 28.7362 23.5741 28.5577C23.5015 28.3792 23.3939 28.2171 23.2575 28.081C23.1211 27.9449 22.9588 27.8376 22.7802 27.7653C22.6016 27.6931 22.4103 27.6574 22.2176 27.6604ZM29.4176 27.6604C29.0362 27.6663 28.6727 27.8234 28.407 28.0971C28.1412 28.3707 27.9949 28.7386 28.0001 29.1201C28.0001 32.4673 27.5052 33.0254 26.7879 34.1432C26.0707 35.261 25.1201 36.9528 25.1201 40.6401C25.1174 40.8309 25.1527 41.0203 25.2238 41.1974C25.295 41.3745 25.4006 41.5357 25.5346 41.6715C25.6686 41.8074 25.8283 41.9153 26.0043 41.989C26.1804 42.0627 26.3693 42.1006 26.5601 42.1006C26.751 42.1006 26.9399 42.0627 27.116 41.989C27.292 41.9153 27.4517 41.8074 27.5856 41.6715C27.7196 41.5357 27.8253 41.3745 27.8964 41.1974C27.9676 41.0203 28.0028 40.8309 28.0001 40.6401C28.0001 37.3491 28.4895 36.825 29.2123 35.6985C29.9351 34.572 30.8801 32.8576 30.8801 29.1201C30.8828 28.9274 30.8467 28.7362 30.7741 28.5577C30.7015 28.3792 30.5939 28.2171 30.4575 28.081C30.3211 27.9449 30.1588 27.8376 29.9802 27.7653C29.8016 27.6931 29.6103 27.6574 29.4176 27.6604ZM36.6176 27.6604C36.2362 27.6663 35.8727 27.8234 35.607 28.0971C35.3412 28.3707 35.1949 28.7386 35.2001 29.1201C35.2001 32.4673 34.7052 33.0254 33.9879 34.1432C33.2707 35.261 32.3201 36.9528 32.3201 40.6401C32.3174 40.8309 32.3527 41.0203 32.4238 41.1974C32.495 41.3745 32.6006 41.5357 32.7346 41.6715C32.8686 41.8074 33.0283 41.9153 33.2043 41.989C33.3804 42.0627 33.5693 42.1006 33.7601 42.1006C33.951 42.1006 34.1399 42.0627 34.316 41.989C34.492 41.9153 34.6517 41.8074 34.7856 41.6715C34.9196 41.5357 35.0253 41.3745 35.0964 41.1974C35.1676 41.0203 35.2028 40.8309 35.2001 40.6401C35.2001 37.3491 35.6895 36.825 36.4123 35.6985C37.1351 34.572 38.0801 32.8576 38.0801 29.1201C38.0828 28.9274 38.0467 28.7362 37.9741 28.5577C37.9015 28.3792 37.7939 28.2171 37.6575 28.081C37.5211 27.9449 37.3588 27.8376 37.1802 27.7653C37.0016 27.6931 36.8103 27.6574 36.6176 27.6604Z" fill="#272929"/>
</svg>
