<svg width="61" height="61" viewBox="0 0 61 61" fill="none" xmlns="http://www.w3.org/2000/svg">
<path d="M16.4375 0.652352C16.0063 0.652511 15.5788 0.687963 15.166 0.754891H15.1631C13.5814 1.01409 12.0471 1.50345 10.8008 2.19044V2.18751C9.19446 3.06986 7.93632 4.28772 6.6172 5.71485C4.16559 8.36967 2.59667 11.562 2.12891 14.9375V14.9404C2.06006 15.4448 2.02345 15.9556 2.02345 16.4668C2.02345 25.0661 9.31036 32.0264 18.166 32.0264C19.8795 32.0264 21.5002 31.6892 23.0586 31.209C23.0905 31.5804 23.1457 31.9458 23.2285 32.3106C23.2237 32.337 23.2142 32.3809 23.2168 32.3721L23.2109 32.3897L23.2051 32.4072C22.6433 34.4705 21.8471 35.9005 20.9463 36.7725C20.0455 37.6444 19.057 38.041 17.6885 38.041C15.6156 38.041 14.4833 37.2755 13.2441 36.4619V36.459C12.5337 35.9934 11.7862 35.4578 10.7275 35.2461H10.7246C10.2817 35.1587 9.82369 35.1143 9.36231 35.1143C8.12831 35.1143 6.87801 35.4166 5.69727 35.9697C3.35733 37.0632 1.93891 39.4718 1.17384 41.5566C0.814501 42.5332 0.62157 43.5665 0.623055 44.5889C0.623055 45.0211 0.658511 45.4467 0.725594 45.8604V45.8633C0.98479 47.445 1.47415 48.9822 2.16114 50.2285C3.0434 51.8339 4.25901 53.0906 5.68556 54.4092V54.4121C8.34038 56.8637 11.5327 58.4297 14.9082 58.8975H14.9111C15.4155 58.9663 15.9293 59.0029 16.4404 59.0029C25.0398 59.0029 31.9971 51.716 31.9971 42.8604C31.9971 41.1459 31.6603 39.5241 31.1797 37.9649C31.5645 37.9346 31.9397 37.8825 32.2988 37.8037C32.3127 37.8064 32.3491 37.8144 32.3428 37.8125L32.3604 37.8154L32.3779 37.8213C34.4412 38.3831 35.8712 39.1792 36.7432 40.0801C37.6151 40.9809 38.0147 41.9693 38.0147 43.3379C38.0147 45.4108 37.2462 46.5431 36.4326 47.7822V47.7852C35.967 48.4956 35.4285 49.2402 35.2168 50.2988V50.3018V50.3047C35.1294 50.7476 35.0879 51.2027 35.0879 51.6641C35.0879 52.8981 35.3902 54.1484 35.9434 55.3291H35.9404C37.033 57.6695 39.4395 59.0871 41.5244 59.8525C42.5027 60.2129 43.5383 60.4052 44.5625 60.4033C44.9937 60.4032 45.4183 60.3677 45.8311 60.3008H45.834C47.4157 60.0416 48.9529 59.5522 50.1992 58.8652C51.8038 57.9831 53.0647 56.7669 54.3828 55.3408C56.8344 52.686 58.4004 49.4937 58.8682 46.1182V46.1152C58.937 45.6109 58.9736 45.1 58.9736 44.5889C58.9736 35.9895 51.6867 29.0293 42.8311 29.0293C41.1195 29.0293 39.5011 29.3644 37.9443 29.8438C37.9141 29.4626 37.8611 29.0873 37.7774 28.7129C37.7783 28.7068 37.7845 28.6794 37.7832 28.6836L37.7891 28.666L37.792 28.6484C38.3538 26.5852 39.1499 25.1552 40.0508 24.2832C40.9516 23.4113 41.94 23.0147 43.3086 23.0147C45.3815 23.0147 46.5167 23.7802 47.7559 24.5938C48.4663 25.0594 49.2138 25.5979 50.2725 25.8096H50.2754C50.7183 25.897 51.1734 25.9414 51.6348 25.9414C52.8688 25.9414 54.122 25.6362 55.3027 25.083C57.6408 23.9896 59.0582 21.5857 59.8232 19.502V19.499C60.1829 18.5216 60.3759 17.4871 60.374 16.4639C60.3739 16.0327 60.3384 15.6081 60.2715 15.1953V15.1924C60.0125 13.6116 59.5252 12.076 58.8389 10.8301V10.8272C57.9565 9.22165 56.7381 7.96215 55.3115 6.64356C52.6567 4.19196 49.4644 2.62597 46.0889 2.15821H46.0859C45.5816 2.08935 45.0708 2.05274 44.5596 2.05274C35.9602 2.05274 29 9.33966 29 18.1953C29 19.8897 29.3311 21.4927 29.8027 23.0352C29.3834 23.069 28.9784 23.1344 28.5899 23.2256C26.5435 22.6643 25.1244 21.8718 24.2568 20.9756C23.3849 20.0748 22.9854 19.0863 22.9854 17.7178C22.9854 15.6449 23.7509 14.5126 24.5645 13.2734L24.5674 13.2705C25.033 12.5601 25.5686 11.8155 25.7803 10.7568V10.7539V10.751C25.8677 10.3081 25.9121 9.85299 25.9121 9.39161C25.9121 8.15761 25.6098 6.90731 25.0566 5.72657C23.9636 3.38564 21.5581 1.96843 19.4727 1.20313C18.4953 0.843147 17.4637 0.650866 16.4404 0.652352H16.4375ZM16.4404 3.65235C17.0782 3.6512 17.7848 3.77889 18.4356 4.01856H18.4385C19.95 4.57326 21.8679 5.98832 22.3379 6.99513V6.99806C22.7208 7.81532 22.9121 8.65761 22.9121 9.39161C22.9121 9.66523 22.8865 9.92983 22.8389 10.1709C22.783 10.4475 22.5203 10.9195 22.0566 11.627H22.0596C21.2442 12.8688 19.9854 14.8287 19.9854 17.7178C19.9854 19.7527 20.7203 21.6355 22.1006 23.0615C22.9136 23.9015 23.9437 24.5701 25.127 25.127C25.0437 25.211 24.956 25.2911 24.8779 25.3789C24.1972 26.1447 23.7212 27.0338 23.4131 27.9717C21.8123 28.6424 20.0454 29.0264 18.166 29.0264C10.8727 29.0264 5.02345 23.3715 5.02345 16.4668C5.02345 16.0999 5.05167 15.7213 5.10255 15.3477V15.3447C5.48126 12.6165 6.74862 9.99441 8.82032 7.75099C10.0662 6.40311 11.0825 5.45702 12.2451 4.81837H12.2481V4.81544C13.0801 4.35679 14.3732 3.9258 15.6465 3.71681C15.8988 3.67589 16.1706 3.65235 16.4404 3.65235ZM44.5596 5.05274C44.9264 5.05274 45.3051 5.07803 45.6787 5.12891C48.4082 5.50716 51.0341 6.77722 53.2783 8.84962C54.6242 10.0939 55.5699 11.1128 56.208 12.2744H56.2109V12.2774C56.67 13.1101 57.1037 14.4045 57.3125 15.6787L57.3096 15.6758C57.3505 15.9281 57.374 16.197 57.374 16.4668V16.4697C57.3752 17.1075 57.2475 17.8141 57.0078 18.4649C56.4531 19.9764 55.0381 21.8972 54.0313 22.3672H54.0283C53.2111 22.7501 52.3688 22.9414 51.6348 22.9414C51.3611 22.9414 51.0965 22.9128 50.8555 22.8652C50.5793 22.8092 50.1074 22.5479 49.4024 22.0859H49.3994C48.1575 21.2705 46.1964 20.0147 43.3086 20.0147C41.2737 20.0147 39.3909 20.7496 37.9649 22.1299C37.126 22.9418 36.4556 23.9713 35.8994 25.1533C35.1402 24.3779 34.1717 23.7619 33.0342 23.3926C32.3759 21.8045 32 20.0564 32 18.1953C32 10.902 37.6549 5.05274 44.5596 5.05274ZM30.5 26C30.8463 26 31.2011 26.0556 31.5869 26.1524L32.5479 26.3926C33.088 26.6328 33.5204 26.9688 33.8779 27.3711C34.2391 27.7774 34.5172 28.2659 34.707 28.7979L34.6953 28.8535L34.8066 29.2285C34.8639 29.4182 34.9027 29.5978 34.9385 29.7764C34.9724 30.0152 35 30.2566 35 30.5C35 30.6843 34.9727 30.8658 34.9531 31.0479C34.9318 31.2018 34.9268 31.35 34.8887 31.5137C34.728 32.3098 34.3897 33.0531 33.8779 33.6289C33.4476 34.113 32.8897 34.4856 32.1846 34.7246L32.1729 34.7217L31.8008 34.8359C31.6927 34.8686 31.5918 34.8863 31.4873 34.9121C31.1819 34.9638 30.8612 35 30.5 35C30.1013 35 29.7413 34.9658 29.4102 34.9033L29.4043 34.9004L29.3516 34.8887C28.3649 34.6896 27.6584 34.2322 27.1221 33.6289C26.7652 33.2274 26.4915 32.7445 26.3018 32.2197L26.3047 32.2022L26.2109 31.8975C26.1899 31.8237 26.1701 31.7498 26.1524 31.6748C26.1196 31.5565 26.0943 31.4402 26.0703 31.3262C26.0262 31.0548 26 30.7779 26 30.5C26 30.3453 26.0243 30.1933 26.0381 30.04C26.0637 29.844 26.0702 29.6576 26.1231 29.4453C26.1236 29.4433 26.1225 29.4415 26.1231 29.4395C26.2878 28.6614 26.6205 27.9354 27.1221 27.3711C27.5321 26.9098 28.0561 26.5491 28.7129 26.3076L28.8242 26.3311L29.1992 26.2197C29.6615 26.0802 30.0851 26 30.5 26ZM42.8311 32.0293C50.1244 32.0293 55.9736 37.6842 55.9736 44.5889C55.9736 44.9567 55.9486 45.3363 55.8975 45.7109C55.5188 48.4395 54.2514 51.0613 52.1797 53.3047C50.9338 54.6526 49.9146 55.5987 48.752 56.2373V56.2402C47.9193 56.6992 46.6219 57.1301 45.3477 57.3389C45.0961 57.3795 44.8284 57.4033 44.5596 57.4033H44.5566C43.9189 57.4045 43.2123 57.2768 42.5615 57.0371C41.05 56.4824 39.1292 55.0644 38.6592 54.0576C38.2763 53.2404 38.0879 52.3981 38.0879 51.6641C38.0879 51.3915 38.1139 51.1281 38.1611 50.8877V50.8848C38.217 50.6082 38.4768 50.1362 38.9404 49.4287C39.7558 48.1868 41.0147 46.227 41.0147 43.3379C41.0147 41.303 40.2797 39.4202 38.8994 37.9941C38.0784 37.1459 37.0344 36.4709 35.835 35.9111C35.9318 35.815 36.0321 35.7223 36.1221 35.6211C36.7882 34.8717 37.2632 34.0055 37.5723 33.0899C39.1765 32.4152 40.9459 32.0293 42.8311 32.0293ZM25.1152 35.8613C25.8656 36.6229 26.8193 37.2278 27.9365 37.5957C28.6118 39.2009 28.9971 40.9744 28.9971 42.8604C28.9971 50.1537 23.3451 56.0029 16.4404 56.0029C16.0726 56.0029 15.693 55.975 15.3184 55.9238L15.3213 55.9268C12.592 55.5483 9.96587 54.2785 7.72169 52.2061C6.37382 50.9602 5.42772 49.9439 4.78907 48.7813V48.7783C4.33042 47.9463 3.8965 46.6532 3.68751 45.3799V45.377C3.64688 45.1254 3.62306 44.8577 3.62306 44.5889V44.5859C3.6219 43.9482 3.74959 43.2416 3.98927 42.5908V42.5879C4.54397 41.0763 5.96196 39.1585 6.96876 38.6885C7.78602 38.3056 8.62831 38.1143 9.36231 38.1143C9.63594 38.1143 9.90054 38.1429 10.1416 38.1904C10.4183 38.2466 10.8908 38.5065 11.5977 38.9697C12.8395 39.7851 14.7994 41.041 17.6885 41.041C19.7234 41.041 21.6062 40.3061 23.0322 38.9258C23.8811 38.1042 24.5553 37.0609 25.1152 35.8613Z" fill="#272929"/>
</svg>
