<svg width="74" height="74" viewBox="0 0 74 74" fill="none" xmlns="http://www.w3.org/2000/svg">
<path d="M35.0013 10.1875H37.4388C37.4388 9.87794 37.5302 9.76947 37.8799 9.40506C38.2314 9.0968 38.5129 8.71706 38.7058 8.29125C38.8988 7.86543 38.9985 7.40335 38.9985 6.93587C38.9985 6.4684 38.8988 6.00632 38.7058 5.5805C38.5129 5.15469 38.2314 4.77495 37.8799 4.46669C37.5302 4.10106 37.4388 3.99381 37.4388 3.68425C37.4388 3.37469 37.5107 3.28816 37.8787 2.90547C38.2286 2.59612 38.5093 2.21637 38.7023 1.79108C38.8953 1.36579 38.9963 0.904533 38.9987 0.4375H36.5612C36.5612 0.732437 36.4893 0.833594 36.1213 1.21628C35.7697 1.52433 35.488 1.90392 35.295 2.32965C35.102 2.75538 35.0021 3.21742 35.0021 3.68486C35.0021 4.1523 35.102 4.61434 35.295 5.04007C35.488 5.4658 35.7697 5.84539 36.1213 6.15344C36.4711 6.51906 36.5625 6.62631 36.5625 6.93587C36.5625 7.24544 36.4711 7.35391 36.1213 7.71831C35.7715 8.028 35.4909 8.40798 35.2979 8.83345C35.1049 9.25892 35.0038 9.72031 35.0013 10.1875ZM43.5325 10.1875H45.97C45.97 9.87794 46.0614 9.76947 46.4112 9.40506C46.7626 9.0968 47.0442 8.71706 47.2371 8.29125C47.43 7.86543 47.5298 7.40335 47.5298 6.93587C47.5298 6.4684 47.43 6.00632 47.2371 5.5805C47.0442 5.15469 46.7626 4.77495 46.4112 4.46669C46.0614 4.10106 45.97 3.99381 45.97 3.68425C45.97 3.37469 46.0419 3.28816 46.41 2.90547C46.7599 2.59612 47.0405 2.21637 47.2335 1.79108C47.4265 1.36579 47.5275 0.904533 47.53 0.4375H45.0925C45.0925 0.732437 45.0206 0.833594 44.6525 1.21628C44.301 1.52433 44.0192 1.90392 43.8262 2.32965C43.6332 2.75538 43.5334 3.21742 43.5334 3.68486C43.5334 4.1523 43.6332 4.61434 43.8262 5.04007C44.0192 5.4658 44.301 5.84539 44.6525 6.15344C45.0023 6.51906 45.0937 6.62631 45.0937 6.93587C45.0937 7.24544 45.0023 7.35391 44.6525 7.71831C44.3027 8.028 44.0222 8.40798 43.8292 8.83345C43.6362 9.25892 43.5351 9.72031 43.5325 10.1875ZM52.0638 10.1875H54.5013C54.5013 9.87794 54.5927 9.76947 54.9424 9.40506C55.2939 9.0968 55.5754 8.71706 55.7683 8.29125C55.9613 7.86543 56.061 7.40335 56.061 6.93587C56.061 6.4684 55.9613 6.00632 55.7683 5.5805C55.5754 5.15469 55.2939 4.77495 54.9424 4.46669C54.5927 4.10106 54.5013 3.99381 54.5013 3.68425C54.5013 3.37469 54.5732 3.28816 54.9412 2.90547C55.2911 2.59612 55.5718 2.21637 55.7648 1.79108C55.9578 1.36579 56.0588 0.904533 56.0612 0.4375H53.6237C53.6237 0.732437 53.5518 0.833594 53.1838 1.21628C52.8322 1.52433 52.5505 1.90392 52.3575 2.32965C52.1645 2.75538 52.0646 3.21742 52.0646 3.68486C52.0646 4.1523 52.1645 4.61434 52.3575 5.04007C52.5505 5.4658 52.8322 5.84539 53.1838 6.15344C53.5336 6.51906 53.625 6.62631 53.625 6.93587C53.625 7.24544 53.5336 7.35391 53.1838 7.71831C52.834 8.028 52.5534 8.40798 52.3604 8.83345C52.1674 9.25892 52.0663 9.72031 52.0638 10.1875ZM59.3763 10.1875H61.8138C61.8138 9.87794 61.9052 9.76947 62.2549 9.40506C62.6064 9.0968 62.8879 8.71706 63.0808 8.29125C63.2738 7.86543 63.3735 7.40335 63.3735 6.93587C63.3735 6.4684 63.2738 6.00632 63.0808 5.5805C62.8879 5.15469 62.6064 4.77495 62.2549 4.46669C61.9052 4.10106 61.8138 3.99381 61.8138 3.68425C61.8138 3.37469 61.8857 3.28816 62.2537 2.90547C62.6036 2.59612 62.8843 2.21637 63.0773 1.79108C63.2703 1.36579 63.3713 0.904533 63.3737 0.4375H60.9362C60.9362 0.732437 60.8643 0.833594 60.4963 1.21628C60.1447 1.52433 59.863 1.90392 59.67 2.32965C59.477 2.75538 59.3771 3.21742 59.3771 3.68486C59.3771 4.1523 59.477 4.61434 59.67 5.04007C59.863 5.4658 60.1447 5.84539 60.4963 6.15344C60.8461 6.51906 60.9375 6.62631 60.9375 6.93587C60.9375 7.24544 60.8461 7.35391 60.4963 7.71831C60.1465 8.028 59.8659 8.40798 59.6729 8.83345C59.4799 9.25892 59.3788 9.72031 59.3763 10.1875ZM17.9388 10.1875H20.3763C20.3763 9.87794 20.4677 9.76947 20.8174 9.40506C21.1689 9.0968 21.4504 8.71706 21.6433 8.29125C21.8363 7.86543 21.936 7.40335 21.936 6.93587C21.936 6.4684 21.8363 6.00632 21.6433 5.5805C21.4504 5.15469 21.1689 4.77495 20.8174 4.46669C20.4677 4.10106 20.3763 3.99381 20.3763 3.68425C20.3763 3.37469 20.4482 3.28816 20.8162 2.90547C21.1661 2.59612 21.4467 2.21637 21.6398 1.79108C21.8328 1.36579 21.9338 0.904533 21.9362 0.4375H19.4987C19.4987 0.732437 19.4268 0.833594 19.0588 1.21628C18.7072 1.52433 18.4255 1.90392 18.2325 2.32965C18.0395 2.75538 17.9396 3.21742 17.9396 3.68486C17.9396 4.1523 18.0395 4.61434 18.2325 5.04007C18.4255 5.4658 18.7072 5.84539 19.0588 6.15344C19.4086 6.51906 19.5 6.62631 19.5 6.93587C19.5 7.24544 19.4086 7.35391 19.0588 7.71831C18.709 8.028 18.4284 8.40798 18.2354 8.83345C18.0424 9.25892 17.9413 9.72031 17.9388 10.1875ZM10.6262 10.1875H13.0637C13.0637 9.87794 13.1552 9.76947 13.5049 9.40506C13.8564 9.0968 14.1379 8.71706 14.3308 8.29125C14.5238 7.86543 14.6235 7.40335 14.6235 6.93587C14.6235 6.4684 14.5238 6.00632 14.3308 5.5805C14.1379 5.15469 13.8564 4.77495 13.5049 4.46669C13.1552 4.10106 13.0637 3.99381 13.0637 3.68425C13.0637 3.37469 13.1357 3.28816 13.5037 2.90547C13.8536 2.59612 14.1343 2.21637 14.3273 1.79108C14.5203 1.36579 14.6213 0.904533 14.6238 0.4375H12.1863C12.1863 0.732437 12.1143 0.833594 11.7463 1.21628C11.3947 1.52433 11.113 1.90392 10.92 2.32965C10.727 2.75538 10.6271 3.21742 10.6271 3.68486C10.6271 4.1523 10.727 4.61434 10.92 5.04007C11.113 5.4658 11.3947 5.84539 11.7463 6.15344C12.0961 6.51906 12.1875 6.62631 12.1875 6.93587C12.1875 7.24544 12.0961 7.35391 11.7463 7.71831C11.3965 8.028 11.1159 8.40798 10.9229 8.83345C10.7299 9.25892 10.6288 9.72031 10.6262 10.1875ZM26.47 10.1875H28.9075C28.9075 9.87794 28.9989 9.76947 29.3487 9.40506C29.7001 9.0968 29.9817 8.71706 30.1746 8.29125C30.3675 7.86543 30.4673 7.40335 30.4673 6.93587C30.4673 6.4684 30.3675 6.00632 30.1746 5.5805C29.9817 5.15469 29.7001 4.77495 29.3487 4.46669C28.9989 4.10106 28.9075 3.99381 28.9075 3.68425C28.9075 3.37469 28.9794 3.28816 29.3475 2.90547C29.6974 2.59612 29.978 2.21637 30.171 1.79108C30.364 1.36579 30.4651 0.904533 30.4675 0.4375H28.03C28.03 0.732437 27.9581 0.833594 27.59 1.21628C27.2385 1.52433 26.9567 1.90392 26.7637 2.32965C26.5707 2.75538 26.4709 3.21742 26.4709 3.68486C26.4709 4.1523 26.5707 4.61434 26.7637 5.04007C26.9567 5.4658 27.2385 5.84539 27.59 6.15344C27.9398 6.51906 28.0312 6.62631 28.0312 6.93587C28.0312 7.24544 27.9398 7.35391 27.59 7.71831C27.2402 8.028 26.9597 8.40798 26.7667 8.83345C26.5737 9.25892 26.4726 9.72031 26.47 10.1875ZM72.3438 45.5312C72.667 45.5312 72.977 45.4028 73.2055 45.1743C73.4341 44.9457 73.5625 44.6357 73.5625 44.3125V39.4375C73.5625 37.8213 72.9205 36.2714 71.7777 35.1286C70.6349 33.9858 69.0849 33.3438 67.4688 33.3438H66.25V16.2812C66.25 15.3116 65.8648 14.3816 65.1791 13.6959C64.4934 13.0102 63.5634 12.625 62.5938 12.625C61.6241 12.625 60.6941 13.0102 60.0084 13.6959C59.3227 14.3816 58.9375 15.3116 58.9375 16.2812V17.5H54.0625V13.8438C54.0625 13.5205 53.9341 13.2105 53.7055 12.982C53.477 12.7534 53.167 12.625 52.8438 12.625H47.9688C47.6455 12.625 47.3355 12.7534 47.107 12.982C46.8784 13.2105 46.75 13.5205 46.75 13.8438V17.5H41.875C41.875 16.2071 41.3614 14.9671 40.4471 14.0529C39.5329 13.1386 38.2929 12.625 37 12.625C35.7071 12.625 34.4671 13.1386 33.5529 14.0529C32.6386 14.9671 32.125 16.2071 32.125 17.5H27.25V13.8438C27.25 13.5205 27.1216 13.2105 26.893 12.982C26.6645 12.7534 26.3545 12.625 26.0312 12.625H21.1562C20.833 12.625 20.523 12.7534 20.2945 12.982C20.0659 13.2105 19.9375 13.5205 19.9375 13.8438V17.5H15.0625V16.2812C15.0625 15.3116 14.6773 14.3816 13.9916 13.6959C13.3059 13.0102 12.3759 12.625 11.4062 12.625C10.4366 12.625 9.50657 13.0102 8.82089 13.6959C8.13521 14.3816 7.75 15.3116 7.75 16.2812V33.3438H6.53125C4.91509 33.3438 3.36512 33.9858 2.22232 35.1286C1.07952 36.2714 0.4375 37.8213 0.4375 39.4375V44.3125C0.4375 44.6357 0.565904 44.9457 0.794464 45.1743C1.02302 45.4028 1.33302 45.5312 1.65625 45.5312H2.875V66.25H1.65625C1.33302 66.25 1.02302 66.3784 0.794464 66.607C0.565904 66.8355 0.4375 67.1455 0.4375 67.4688V72.3438C0.4375 72.667 0.565904 72.977 0.794464 73.2055C1.02302 73.4341 1.33302 73.5625 1.65625 73.5625H6.53125C6.85448 73.5625 7.16448 73.4341 7.39304 73.2055C7.6216 72.977 7.75 72.667 7.75 72.3438V67.4688C7.75 67.1455 7.6216 66.8355 7.39304 66.607C7.16448 66.3784 6.85448 66.25 6.53125 66.25H5.3125V45.5312H7.75V62.5938C7.75 63.5634 8.13521 64.4934 8.82089 65.1791C9.50657 65.8648 10.4366 66.25 11.4062 66.25C12.3759 66.25 13.3059 65.8648 13.9916 65.1791C14.6773 64.4934 15.0625 63.5634 15.0625 62.5938V61.375H19.9375V65.0312C19.9375 65.3545 20.0659 65.6645 20.2945 65.893C20.523 66.1216 20.833 66.25 21.1562 66.25H26.0312C26.3545 66.25 26.6645 66.1216 26.893 65.893C27.1216 65.6645 27.25 65.3545 27.25 65.0312V61.375H32.125C32.125 62.6679 32.6386 63.9079 33.5529 64.8221C34.4671 65.7364 35.7071 66.25 37 66.25C38.2929 66.25 39.5329 65.7364 40.4471 64.8221C41.3614 63.9079 41.875 62.6679 41.875 61.375H46.75V65.0312C46.75 65.3545 46.8784 65.6645 47.107 65.893C47.3355 66.1216 47.6455 66.25 47.9688 66.25H52.8438C53.167 66.25 53.477 66.1216 53.7055 65.893C53.9341 65.6645 54.0625 65.3545 54.0625 65.0312V61.375H58.9375V62.5938C58.9375 63.5634 59.3227 64.4934 60.0084 65.1791C60.6941 65.8648 61.6241 66.25 62.5938 66.25C63.5634 66.25 64.4934 65.8648 65.1791 65.1791C65.8648 64.4934 66.25 63.5634 66.25 62.5938V45.5312H68.6875V66.25H67.4688C67.1455 66.25 66.8355 66.3784 66.607 66.607C66.3784 66.8355 66.25 67.1455 66.25 67.4688V72.3438C66.25 72.667 66.3784 72.977 66.607 73.2055C66.8355 73.4341 67.1455 73.5625 67.4688 73.5625H72.3438C72.667 73.5625 72.977 73.4341 73.2055 73.2055C73.4341 72.977 73.5625 72.667 73.5625 72.3438V67.4688C73.5625 67.1455 73.4341 66.8355 73.2055 66.607C72.977 66.3784 72.667 66.25 72.3438 66.25H71.125V45.5312H72.3438ZM5.3125 71.125H2.875V68.6875H5.3125V71.125ZM7.75 43.0938H2.875V39.4375C2.87789 38.4687 3.26403 37.5404 3.94909 36.8553C4.63414 36.1703 5.56244 35.7841 6.53125 35.7812H7.75V43.0938ZM12.625 62.5938C12.625 62.917 12.4966 63.227 12.268 63.4555C12.0395 63.6841 11.7295 63.8125 11.4062 63.8125C11.083 63.8125 10.773 63.6841 10.5445 63.4555C10.3159 63.227 10.1875 62.917 10.1875 62.5938V16.2812C10.1875 15.958 10.3159 15.648 10.5445 15.4195C10.773 15.1909 11.083 15.0625 11.4062 15.0625C11.7295 15.0625 12.0395 15.1909 12.268 15.4195C12.4966 15.648 12.625 15.958 12.625 16.2812V62.5938ZM19.9375 58.9375H15.0625V19.9375H19.9375V58.9375ZM24.8125 63.8125H22.375V15.0625H24.8125V63.8125ZM32.125 58.9375H27.25V19.9375H32.125V58.9375ZM39.4375 61.375C39.4375 62.0215 39.1807 62.6415 38.7236 63.0986C38.2665 63.5557 37.6465 63.8125 37 63.8125C36.3535 63.8125 35.7335 63.5557 35.2764 63.0986C34.8193 62.6415 34.5625 62.0215 34.5625 61.375V17.5C34.5625 16.8535 34.8193 16.2335 35.2764 15.7764C35.7335 15.3193 36.3535 15.0625 37 15.0625C37.6465 15.0625 38.2665 15.3193 38.7236 15.7764C39.1807 16.2335 39.4375 16.8535 39.4375 17.5V61.375ZM46.75 58.9375H41.875V19.9375H46.75V58.9375ZM51.625 63.8125H49.1875V15.0625H51.625V63.8125ZM58.9375 58.9375H54.0625V19.9375H58.9375V58.9375ZM63.8125 62.5938C63.8125 62.917 63.6841 63.227 63.4555 63.4555C63.227 63.6841 62.917 63.8125 62.5938 63.8125C62.2705 63.8125 61.9605 63.6841 61.732 63.4555C61.5034 63.227 61.375 62.917 61.375 62.5938V16.2812C61.375 15.958 61.5034 15.648 61.732 15.4195C61.9605 15.1909 62.2705 15.0625 62.5938 15.0625C62.917 15.0625 63.227 15.1909 63.4555 15.4195C63.6841 15.648 63.8125 15.958 63.8125 16.2812V62.5938ZM71.125 71.125H68.6875V68.6875H71.125V71.125ZM66.25 43.0938V35.7812H67.4688C68.4376 35.7841 69.3659 36.1703 70.0509 36.8553C70.736 37.5404 71.1221 38.4687 71.125 39.4375V43.0938H66.25Z" fill="#272929"/>
</svg>
