<svg width="51" height="73" viewBox="0 0 51 73" fill="none" xmlns="http://www.w3.org/2000/svg">
<path d="M25.4766 0.479431C25.0793 0.485642 24.7006 0.649232 24.4238 0.934298C24.147 1.21936 23.9946 1.60261 24 1.99994V10.9999C23.9972 11.1987 24.0339 11.3961 24.108 11.5805C24.1822 11.765 24.2922 11.9328 24.4318 12.0744C24.5713 12.2159 24.7376 12.3284 24.921 12.4051C25.1044 12.4818 25.3012 12.5213 25.5 12.5213C25.6988 12.5213 25.8956 12.4818 26.079 12.4051C26.2624 12.3284 26.4287 12.2159 26.5682 12.0744C26.7078 11.9328 26.8178 11.765 26.892 11.5805C26.9661 11.3961 27.0028 11.1987 27 10.9999V1.99994C27.0027 1.79925 26.9652 1.60006 26.8896 1.41415C26.814 1.22824 26.7018 1.05939 26.5597 0.917611C26.4177 0.77583 26.2486 0.663995 26.0626 0.588729C25.8765 0.513463 25.6772 0.476297 25.4766 0.479431ZM36.3193 2.87006C36.0248 2.86375 35.735 2.94429 35.486 3.10163C35.2369 3.25897 35.0397 3.48614 34.9189 3.75482L31.1133 11.9111C31.0276 12.0899 30.9782 12.284 30.9679 12.482C30.9577 12.68 30.9868 12.8782 31.0536 13.0649C31.1205 13.2516 31.2236 13.4232 31.3572 13.5698C31.4908 13.7164 31.6521 13.835 31.8318 13.9189C32.0115 14.0027 32.206 14.0501 32.4042 14.0583C32.6023 14.0665 32.8001 14.0353 32.9861 13.9666C33.1721 13.8978 33.3427 13.7929 33.4879 13.6578C33.6331 13.5227 33.75 13.3602 33.832 13.1796L37.6377 5.02338C37.7472 4.79712 37.7981 4.54697 37.7857 4.29591C37.7733 4.04485 37.698 3.80093 37.5668 3.58656C37.4355 3.37218 37.2525 3.19422 37.0345 3.06903C36.8166 2.94383 36.5706 2.87541 36.3193 2.87006ZM14.6367 2.87299C14.3896 2.88561 14.1494 2.95918 13.9376 3.08714C13.7258 3.2151 13.5489 3.39347 13.4227 3.60635C13.2966 3.81924 13.225 4.06003 13.2145 4.30727C13.2039 4.55451 13.2547 4.80052 13.3623 5.02338L17.168 13.1796C17.25 13.3602 17.3669 13.5227 17.5121 13.6578C17.6573 13.7929 17.8279 13.8978 18.0139 13.9666C18.1999 14.0353 18.3977 14.0665 18.5958 14.0583C18.794 14.0501 18.9885 14.0027 19.1682 13.9189C19.3479 13.835 19.5092 13.7164 19.6428 13.5698C19.7764 13.4232 19.8795 13.2516 19.9464 13.0649C20.0132 12.8782 20.0423 12.68 20.0321 12.482C20.0218 12.284 19.9724 12.0899 19.8867 11.9111L16.0811 3.75482C15.957 3.47956 15.7528 3.24814 15.4951 3.0908C15.2374 2.93347 14.9382 2.85756 14.6367 2.87299ZM25.5 16.9999C17.2457 16.9999 10.8457 23.1574 6.57715 30.5117C2.30863 37.8659 0 46.5405 0 52.7275C0 57.4412 0.678924 61.0857 2.0127 63.9277C3.34647 66.7696 5.37233 68.7664 7.79004 70.0419C12.6255 72.5929 18.8182 72.4999 25.5 72.4999C32.1818 72.4999 38.3745 72.5929 43.21 70.0419C45.6277 68.7664 47.6535 66.7696 48.9873 63.9277C50.3211 61.0857 51 57.4412 51 52.7275C51 46.5405 48.6914 37.8659 44.4229 30.5117C40.1543 23.1574 33.7543 16.9999 25.5 16.9999ZM25.5 19.9999C32.2457 19.9999 37.8457 25.1578 41.8271 32.0175C45.5261 38.3904 47.6543 46.0952 47.9414 51.4999H3.05859C3.34568 46.0952 5.47394 38.3904 9.17285 32.0175C13.1543 25.1578 18.7543 19.9999 25.5 19.9999ZM22.5 24.4999C22.3012 24.4971 22.1039 24.5338 21.9194 24.608C21.735 24.6821 21.5671 24.7921 21.4255 24.9317C21.284 25.0713 21.1716 25.2376 21.0949 25.421C21.0181 25.6043 20.9786 25.8012 20.9786 25.9999C20.9786 26.1987 21.0181 26.3955 21.0949 26.5789C21.1716 26.7623 21.284 26.9286 21.4255 27.0682C21.5671 27.2077 21.735 27.3178 21.9194 27.3919C22.1039 27.466 22.3012 27.5028 22.5 27.4999H28.5C28.6988 27.5028 28.8961 27.466 29.0806 27.3919C29.265 27.3178 29.4329 27.2077 29.5745 27.0682C29.716 26.9286 29.8284 26.7623 29.9051 26.5789C29.9819 26.3955 30.0214 26.1987 30.0214 25.9999C30.0214 25.8012 29.9819 25.6043 29.9051 25.421C29.8284 25.2376 29.716 25.0713 29.5745 24.9317C29.4329 24.7921 29.265 24.6821 29.0806 24.608C28.8961 24.5338 28.6988 24.4971 28.5 24.4999H22.5ZM25.5 31.3788L24.4395 32.4394C24.4395 32.4394 23.2458 33.6295 22.0488 35.2255C20.8518 36.8215 19.5 38.7499 19.5 40.9999C19.5 44.2959 22.204 46.9999 25.5 46.9999C28.796 46.9999 31.5 44.2959 31.5 40.9999C31.5 38.7499 30.1482 36.8215 28.9512 35.2255C27.7542 33.6295 26.5605 32.4394 26.5605 32.4394L25.5 31.3788ZM25.5 35.7997C25.8953 36.2398 26.0254 36.3264 26.5488 37.0244C27.6018 38.4284 28.5 40.2499 28.5 40.9999C28.5 42.6749 27.175 43.9999 25.5 43.9999C23.825 43.9999 22.5 42.6749 22.5 40.9999C22.5 40.2499 23.3982 38.4284 24.4512 37.0244C24.9746 36.3264 25.1047 36.2398 25.5 35.7997ZM3.06738 54.4999H47.9326C47.7769 57.9959 47.1952 60.685 46.2715 62.6533C45.1933 64.9506 43.7244 66.3819 41.8125 67.3906C37.9888 69.4078 32.1818 69.4999 25.5 69.4999C18.8182 69.4999 13.0112 69.4078 9.1875 67.3906C7.27564 66.3819 5.8067 64.9506 4.72852 62.6533C3.80476 60.685 3.22308 57.9959 3.06738 54.4999ZM25.5 57.4999C24.141 57.4999 22.9329 58.0639 22.166 58.9267C21.3991 59.7895 21.0469 60.8817 21.0469 61.9531C21.0469 63.0244 21.3991 64.1167 22.166 64.9794C22.9329 65.8422 24.141 66.4033 25.5 66.4033C26.859 66.4033 28.0671 65.8422 28.834 64.9794C29.6009 64.1167 29.9531 63.0244 29.9531 61.9531C29.9531 60.8817 29.6009 59.7895 28.834 58.9267C28.0671 58.0639 26.859 57.4999 25.5 57.4999ZM25.5 60.4999C26.109 60.4999 26.3757 60.6747 26.5928 60.9189C26.8099 61.1631 26.9531 61.5484 26.9531 61.9531C26.9531 62.3577 26.8099 62.7401 26.5928 62.9843C26.3757 63.2285 26.109 63.4033 25.5 63.4033C24.891 63.4033 24.6243 63.2285 24.4072 62.9843C24.1901 62.7401 24.0469 62.3577 24.0469 61.9531C24.0469 61.5484 24.1901 61.1631 24.4072 60.9189C24.6243 60.6747 24.891 60.4999 25.5 60.4999Z" fill="#272929"/>
</svg>
