<svg width="60" height="71" viewBox="0 0 60 71" fill="none" xmlns="http://www.w3.org/2000/svg">
<path d="M44.2801 0C17.2557 0 6.19525 8.22602 0.526347 16.2412C0.304472 16.5741 0.226817 16.979 0.321113 17.3673C0.41541 17.7555 0.665019 18.0884 1.01447 18.2825C1.01447 18.2825 2.11275 18.8538 3.36635 20.59C4.61994 22.3262 5.9401 25.1773 5.9401 29.82V62.48C3.60486 62.48 1.6801 64.4048 1.6801 66.74V71H57.0601V66.74C57.0601 64.4048 55.1353 62.48 52.8001 62.48H51.3801V53.2944L57.7701 49.4781C58.3414 49.1287 58.591 48.4242 58.3636 47.7919C58.1417 47.1595 57.5038 46.7712 56.8382 46.86C56.6607 46.9044 56.4999 46.9765 56.3501 47.0819L51.3801 50.055V41.535C51.8627 40.8527 59.9001 29.4151 59.9001 17.04C59.9001 12.952 58.9682 8.73078 56.4832 5.45812C53.9982 2.18547 49.9157 0 44.2801 0ZM44.2801 2.84C49.2113 2.84 52.2454 4.58172 54.2201 7.18875C56.1948 9.79578 57.0601 13.3957 57.0601 17.04C57.0601 28.4499 48.8063 40.3812 48.8063 40.3812C48.6399 40.6142 48.5456 40.8916 48.5401 41.18V51.9187C48.2517 52.3791 48.2517 52.9671 48.5401 53.4275V62.48H8.7801V29.82C8.7801 24.6337 7.26025 21.1003 5.67385 18.9037C4.99713 17.9663 4.30932 17.3673 3.72135 16.8625C9.11846 9.81242 19.003 2.84 44.2801 2.84ZM44.857 7.1C43.4203 7.1 42.2333 7.22203 41.2626 8.03187C40.2919 8.84172 40.0201 10.1064 40.0201 11.36V31.24C40.0201 31.9112 40.1588 32.5768 40.597 33.1481C41.0352 33.7195 41.8006 34.08 42.5051 34.08C44.7072 34.08 46.7041 32.3937 48.407 29.5537C50.1099 26.7137 51.3801 22.5591 51.3801 17.04V12.78C51.3801 10.9551 50.4205 9.45742 49.1613 8.52C47.9022 7.58258 46.3546 7.1 44.857 7.1ZM44.857 9.94C45.7278 9.94 46.7318 10.2617 47.4307 10.7831C48.1296 11.3045 48.5401 11.9147 48.5401 12.78V17.04C48.5401 22.1154 47.3642 25.7652 45.9663 28.0894C44.7516 30.1084 43.4259 30.8628 42.8601 31.0625V11.36C42.8601 10.4448 43.0043 10.2728 43.082 10.2062C43.1596 10.1397 43.6588 9.94 44.857 9.94ZM27.2401 24.14C22.553 24.14 18.7201 27.9729 18.7201 32.66V33.4144C18.5315 33.8082 18.5315 34.263 18.7201 34.6569V40.5144C18.5315 40.9082 18.5315 41.363 18.7201 41.7569V47.6144C18.5315 48.0082 18.5315 48.463 18.7201 48.8569V49.7C18.7201 54.3871 22.553 58.22 27.2401 58.22C31.9272 58.22 35.7601 54.3871 35.7601 49.7V32.66C35.7601 27.9729 31.9272 24.14 27.2401 24.14ZM27.2401 26.98C30.3907 26.98 32.9201 29.5094 32.9201 32.66V49.7C32.9201 52.8506 30.3907 55.38 27.2401 55.38C24.0895 55.38 21.5601 52.8506 21.5601 49.7H27.2401C27.7504 49.7055 28.2274 49.4393 28.4881 48.9955C28.7433 48.5518 28.7433 48.0082 28.4881 47.5645C28.2274 47.1207 27.7504 46.8545 27.2401 46.86H21.5601V42.6H27.2401C27.7504 42.6055 28.2274 42.3393 28.4881 41.8955C28.7433 41.4518 28.7433 40.9082 28.4881 40.4645C28.2274 40.0207 27.7504 39.7545 27.2401 39.76H21.5601V35.5H27.2401C27.7504 35.5055 28.2274 35.2393 28.4881 34.7955C28.7433 34.3518 28.7433 33.8082 28.4881 33.3645C28.2274 32.9207 27.7504 32.6545 27.2401 32.66H21.5601C21.5601 29.5094 24.0895 26.98 27.2401 26.98ZM5.9401 65.32H52.8001C53.5988 65.32 54.2201 65.9412 54.2201 66.74V68.16H4.5201V66.74C4.5201 65.9412 5.14135 65.32 5.9401 65.32Z" fill="#272929"/>
</svg>
