<svg width="33" height="75" viewBox="0 0 33 75" fill="none" xmlns="http://www.w3.org/2000/svg">
<path d="M30.9375 67.5781H24.9219V65.1719C24.9219 64.8528 24.7951 64.5468 24.5695 64.3211C24.3439 64.0955 24.0378 63.9688 23.7188 63.9688H20.1094V29.0781H26.125V36.5044C25.3223 36.7882 24.6457 37.3467 24.2149 38.0811C23.7841 38.8155 23.6268 39.6785 23.7707 40.5177C23.9147 41.3569 24.3507 42.1182 25.0017 42.6669C25.6527 43.2157 26.4767 43.5167 27.3281 43.5167C28.1796 43.5167 29.0036 43.2157 29.6546 42.6669C30.3055 42.1182 30.7415 41.3569 30.8855 40.5177C31.0295 39.6785 30.8722 38.8155 30.4414 38.0811C30.0106 37.3467 29.334 36.7882 28.5312 36.5044V29.0781H30.9375C31.1 29.0781 31.2609 29.0451 31.4103 28.9812C31.5597 28.9173 31.6947 28.8238 31.807 28.7063C31.9193 28.5888 32.0066 28.4497 32.0637 28.2976C32.1208 28.1454 32.1464 27.9832 32.1391 27.8209L30.936 1.35211C30.9224 1.04264 30.7898 0.750383 30.5659 0.536305C30.342 0.322226 30.0441 0.202865 29.7344 0.203125H3.26562C2.95586 0.202865 2.65796 0.322226 2.43407 0.536305C2.21019 0.750383 2.07761 1.04264 2.064 1.35211L0.860878 27.8209C0.853564 27.9832 0.879225 28.1454 0.93631 28.2976C0.993395 28.4497 1.08072 28.5888 1.19302 28.7063C1.30531 28.8238 1.44025 28.9173 1.58969 28.9812C1.73913 29.0451 1.89997 29.0781 2.0625 29.0781H12.8906V63.9688H9.28125C8.96216 63.9688 8.65614 64.0955 8.43051 64.3211C8.20488 64.5468 8.07812 64.8528 8.07812 65.1719V67.5781H2.0625C1.74341 67.5781 1.43739 67.7049 1.21176 67.9305C0.986132 68.1561 0.859375 68.4622 0.859375 68.7812V73.5938C0.859375 73.9128 0.986132 74.2189 1.21176 74.4445C1.43739 74.6701 1.74341 74.7969 2.0625 74.7969H30.9375C31.2566 74.7969 31.5626 74.6701 31.7882 74.4445C32.0139 74.2189 32.1406 73.9128 32.1406 73.5938V68.7812C32.1406 68.4622 32.0139 68.1561 31.7882 67.9305C31.5626 67.7049 31.2566 67.5781 30.9375 67.5781ZM27.3281 41.1094C27.0902 41.1094 26.8576 41.0388 26.6597 40.9066C26.4619 40.7744 26.3076 40.5865 26.2166 40.3667C26.1255 40.1468 26.1017 39.9049 26.1481 39.6715C26.1945 39.4381 26.3091 39.2238 26.4774 39.0555C26.6456 38.8873 26.86 38.7727 27.0934 38.7262C27.3268 38.6798 27.5687 38.7036 27.7885 38.7947C28.0084 38.8858 28.1963 39.04 28.3285 39.2378C28.4607 39.4357 28.5312 39.6683 28.5312 39.9062C28.5308 40.2252 28.4039 40.531 28.1784 40.7565C27.9528 40.982 27.6471 41.1089 27.3281 41.1094ZM3.32127 26.6719L4.41461 2.60938H28.5854L29.6787 26.6719H3.32127ZM17.7031 29.0781V63.9688H15.2969V29.0781H17.7031ZM10.4844 66.375H22.5156V67.5781H10.4844V66.375ZM29.7344 72.3906H3.26562V69.9844H29.7344V72.3906Z" fill="#272929"/>
</svg>
