<svg width="66" height="50" viewBox="0 0 66 50" fill="none" xmlns="http://www.w3.org/2000/svg">
<path d="M3.96 0.560059C1.78922 0.560059 0 2.34928 0 4.52006V41.4801C0 43.6508 1.78922 45.4401 3.96 45.4401H6.6V46.7601C6.6 48.2038 7.79625 49.4001 9.24 49.4001H13.2C14.6438 49.4001 15.84 48.2038 15.84 46.7601V45.4401H50.16V46.7601C50.16 48.2038 51.3563 49.4001 52.8 49.4001H56.76C58.2038 49.4001 59.4 48.2038 59.4 46.7601V45.4401H62.04C64.2108 45.4401 66 43.6508 66 41.4801V4.52006C66 2.34928 64.2108 0.560059 62.04 0.560059H3.96ZM3.96 3.20006H62.04C62.7825 3.20006 63.36 3.77756 63.36 4.52006V41.4801C63.36 42.2226 62.7825 42.8001 62.04 42.8001H51.7275C51.5522 42.764 51.3666 42.764 51.1913 42.8001H8.1675C7.99219 42.764 7.80656 42.764 7.63125 42.8001H3.96C3.2175 42.8001 2.64 42.2226 2.64 41.4801V4.52006C2.64 3.77756 3.2175 3.20006 3.96 3.20006ZM6.6 7.16006V38.8401H52.8V7.16006H6.6ZM9.24 9.80006H50.16V36.2001H9.24V9.80006ZM58.08 11.1201C56.6208 11.1201 55.44 12.3008 55.44 13.7601C55.44 15.2193 56.6208 16.4001 58.08 16.4001C59.5392 16.4001 60.72 15.2193 60.72 13.7601C60.72 12.3008 59.5392 11.1201 58.08 11.1201ZM45.0863 16.3176C44.8233 16.3124 44.5655 16.3846 44.3438 16.5238C44.3438 16.5238 38.2336 19.0401 34.485 19.0401C32.6133 19.0401 31.35 18.5038 29.8238 17.8438C28.2975 17.1838 26.4877 16.4001 24.0488 16.4001C19.1709 16.4001 13.9425 19.1638 13.9425 19.1638C13.2825 19.4835 13.0041 20.2776 13.3238 20.9376C13.6434 21.5976 14.4375 21.876 15.0975 21.5563C15.0975 21.5563 20.2383 19.0401 24.0488 19.0401C25.9566 19.0401 27.2302 19.5763 28.7513 20.2363C30.2723 20.8963 32.0719 21.6801 34.485 21.6801C39.3164 21.6801 45.4163 18.9163 45.4163 18.9163C46.0608 18.7513 46.4836 18.1326 46.3959 17.4726C46.3134 16.8126 45.7514 16.3176 45.0863 16.3176ZM58.08 20.3601C56.6208 20.3601 55.44 21.5408 55.44 23.0001C55.44 24.4593 56.6208 25.6401 58.08 25.6401C59.5392 25.6401 60.72 24.4593 60.72 23.0001C60.72 21.5408 59.5392 20.3601 58.08 20.3601ZM45.0863 24.2376C44.8233 24.2324 44.5655 24.3046 44.3438 24.4438C44.3438 24.4438 38.2336 26.9601 34.485 26.9601C32.6133 26.9601 31.35 26.4238 29.8238 25.7638C28.2975 25.1038 26.4877 24.3201 24.0488 24.3201C19.1709 24.3201 13.9425 27.0838 13.9425 27.0838C13.2825 27.4035 13.0041 28.1976 13.3238 28.8576C13.6434 29.5176 14.4375 29.796 15.0975 29.4763C15.0975 29.4763 20.2383 26.9601 24.0488 26.9601C25.9566 26.9601 27.2302 27.4963 28.7513 28.1563C30.2723 28.8163 32.0719 29.6001 34.485 29.6001C39.3164 29.6001 45.4163 26.8363 45.4163 26.8363C46.0608 26.6713 46.4836 26.0526 46.3959 25.3926C46.3134 24.7326 45.7514 24.2376 45.0863 24.2376ZM58.08 29.6001C56.6208 29.6001 55.44 30.7808 55.44 32.2401C55.44 33.6993 56.6208 34.8801 58.08 34.8801C59.5392 34.8801 60.72 33.6993 60.72 32.2401C60.72 30.7808 59.5392 29.6001 58.08 29.6001ZM9.24 45.4401H13.2V46.7601H9.24V45.4401ZM52.8 45.4401H56.76V46.7601H52.8V45.4401Z" fill="#272929"/>
</svg>
