<svg width="55" height="71" viewBox="0 0 55 71" fill="none" xmlns="http://www.w3.org/2000/svg">
<path d="M4.83008 0.710941C4.26816 0.710191 3.71162 0.820315 3.19233 1.03501C2.67304 1.2497 2.20121 1.56473 1.80387 1.96207C1.40653 2.35941 1.09149 2.83124 0.876802 3.35053C0.662112 3.86982 0.551987 4.42637 0.552738 4.98829V66.1543C0.551987 66.7162 0.662112 67.2728 0.876802 67.7921C1.09149 68.3113 1.40653 68.7832 1.80387 69.1805C2.20121 69.5779 2.67304 69.8929 3.19233 70.1076C3.71162 70.3223 4.26816 70.4324 4.83008 70.4316H50.1699C50.7318 70.4324 51.2884 70.3223 51.8077 70.1076C52.327 69.8929 52.7988 69.5779 53.1961 69.1805C53.5935 68.7832 53.9085 68.3113 54.1232 67.7921C54.3379 67.2728 54.448 66.7162 54.4473 66.1543V4.98829C54.448 4.42637 54.3379 3.86982 54.1232 3.35053C53.9085 2.83124 53.5935 2.35941 53.1961 1.96207C52.7988 1.56473 52.327 1.2497 51.8077 1.03501C51.2884 0.820315 50.7318 0.710191 50.1699 0.710941H4.83008ZM4.79722 3.56195C4.80344 3.56209 4.80966 3.56228 4.81588 3.5625H50.1983C50.3816 3.55694 50.5641 3.58823 50.7351 3.6545C50.906 3.72077 51.0619 3.82069 51.1936 3.94832C51.3252 4.07596 51.4299 4.22871 51.5014 4.39755C51.5729 4.56638 51.6098 4.74785 51.6099 4.9312V16.1094H3.4043V4.9312C3.40321 4.74908 3.43867 4.56859 3.50859 4.40042C3.5785 4.23225 3.68145 4.07981 3.81133 3.95214C3.94121 3.82446 4.09539 3.72415 4.26473 3.65712C4.43408 3.5901 4.61515 3.55774 4.79722 3.56195ZM13.9359 5.93287C13.3981 5.91045 12.8613 5.99702 12.3579 6.18735C11.8544 6.37769 11.3946 6.66787 11.0062 7.04045C10.6177 7.41303 10.3086 7.86032 10.0975 8.35541C9.88632 8.85051 9.77745 9.38319 9.77743 9.92143C9.78052 10.9793 10.2021 11.9929 10.9501 12.7409C11.6981 13.4889 12.7118 13.9105 13.7696 13.9136C14.8134 13.9127 15.8152 13.503 16.5606 12.7723C17.306 12.0416 17.7355 11.0481 17.7573 10.0046C17.779 8.96105 17.3912 7.9505 16.6769 7.18943C15.9626 6.42836 14.9787 5.97729 13.9359 5.93287ZM32.3059 6.41462C31.9351 6.42549 31.5832 6.58041 31.3248 6.84651C31.0664 7.11261 30.9219 7.46893 30.9219 7.83985V11.832C30.923 12.2098 31.0735 12.5719 31.3407 12.839C31.6078 13.1062 31.9699 13.2567 32.3477 13.2578C32.7255 13.2567 33.0875 13.1062 33.3546 12.839C33.6218 12.5719 33.7724 12.2098 33.7734 11.832V7.83985C33.7734 7.64909 33.7352 7.46027 33.6609 7.28457C33.5866 7.10887 33.4778 6.94987 33.341 6.81697C33.2041 6.68407 33.042 6.57999 32.8642 6.51088C32.6864 6.44176 32.4966 6.40903 32.3059 6.41462ZM38.009 6.41462C37.6383 6.42549 37.2863 6.58041 37.0279 6.84651C36.7695 7.11261 36.625 7.46893 36.625 7.83985V11.832C36.6261 12.2098 36.7767 12.5719 37.0438 12.839C37.311 13.1062 37.673 13.2567 38.0508 13.2578C38.4286 13.2567 38.7906 13.1062 39.0578 12.839C39.3249 12.5719 39.4755 12.2098 39.4766 11.832V7.83985C39.4766 7.64909 39.4383 7.46027 39.364 7.28457C39.2897 7.10887 39.181 6.94987 39.0441 6.81697C38.9073 6.68407 38.7451 6.57999 38.5673 6.51088C38.3895 6.44176 38.1997 6.40903 38.009 6.41462ZM43.7121 6.41462C43.3414 6.42549 42.9895 6.58041 42.731 6.84651C42.4726 7.11261 42.3281 7.46893 42.3281 7.83985V11.832C42.3292 12.2098 42.4798 12.5719 42.7469 12.839C43.0141 13.1062 43.3761 13.2567 43.7539 13.2578C44.1317 13.2567 44.4937 13.1062 44.7609 12.839C45.028 12.5719 45.1786 12.2098 45.1797 11.832V7.83985C45.1797 7.64909 45.1414 7.46027 45.0671 7.28457C44.9929 7.10887 44.8841 6.94987 44.7472 6.81697C44.6104 6.68407 44.4483 6.57999 44.2705 6.51088C44.0927 6.44176 43.9028 6.40903 43.7121 6.41462ZM13.7696 8.78081C13.9952 8.78081 14.2157 8.8477 14.4033 8.97304C14.5909 9.09837 14.7371 9.27651 14.8234 9.48493C14.9098 9.69336 14.9323 9.9227 14.8883 10.144C14.8443 10.3652 14.7357 10.5685 14.5762 10.728C14.4166 10.8875 14.2134 10.9961 13.9921 11.0401C13.7709 11.0842 13.5415 11.0616 13.3331 10.9752C13.1247 10.8889 12.9466 10.7427 12.8212 10.5551C12.6959 10.3676 12.629 10.147 12.629 9.92143C12.6299 9.6192 12.7504 9.3296 12.9641 9.11589C13.1778 8.90217 13.4674 8.78171 13.7696 8.78081ZM3.4043 18.9609H51.5957V61.7344H3.4043V18.9609ZM7.68164 21.8125C7.30384 21.8136 6.94182 21.9642 6.67467 22.2313C6.40752 22.4985 6.25695 22.8605 6.25586 23.2383V57.457C6.25695 57.8348 6.40752 58.1969 6.67467 58.464C6.94182 58.7312 7.30384 58.8817 7.68164 58.8828H47.3184C47.6962 58.8817 48.0582 58.7312 48.3253 58.464C48.5925 58.1969 48.7431 57.8348 48.7441 57.457V23.2383C48.7431 22.8605 48.5925 22.4985 48.3253 22.2313C48.0582 21.9642 47.6962 21.8136 47.3184 21.8125H7.68164ZM9.10743 24.6641H45.8926V56.0313H9.10743V24.6641ZM21.583 28.2285C21.2049 28.2285 20.8422 28.3787 20.5748 28.6461C20.3074 28.9135 20.1572 29.2762 20.1572 29.6543C20.1572 30.0324 20.3074 30.3951 20.5748 30.6625C20.8422 30.9299 21.2049 31.0801 21.583 31.0801H33.417C33.7951 31.0801 34.1578 30.9299 34.4252 30.6625C34.6926 30.3951 34.8428 30.0324 34.8428 29.6543C34.8428 29.2762 34.6926 28.9135 34.4252 28.6461C34.1578 28.3787 33.7951 28.2285 33.417 28.2285H21.583ZM3.4043 64.5859H51.5957V66.0688C51.5968 66.2525 51.5607 66.4345 51.4896 66.6039C51.4185 66.7733 51.3139 66.9265 51.182 67.0544C51.0501 67.1823 50.8937 67.2821 50.7222 67.348C50.5507 67.4138 50.3677 67.4443 50.1841 67.4375H4.81588C4.63261 67.4431 4.45009 67.4118 4.27914 67.3455C4.10818 67.2792 3.95226 67.1793 3.82063 67.0517C3.689 66.9241 3.58432 66.7713 3.51281 66.6025C3.44129 66.4336 3.4044 66.2522 3.4043 66.0688V64.5859Z" fill="#272929"/>
</svg>
