<svg width="80" height="44" viewBox="0 0 80 44" fill="none" xmlns="http://www.w3.org/2000/svg">
<path d="M4.8 0.800049C2.16875 0.800049 0 2.9688 0 5.60005V34.4C0 37.0313 2.16875 39.2 4.8 39.2H75.2C77.8313 39.2 80 37.0313 80 34.4V5.60005C80 2.9688 77.8313 0.800049 75.2 0.800049H4.8ZM4.8 4.00005H75.2C76.0875 4.00005 76.8 4.71255 76.8 5.60005V34.4C76.8 35.2875 76.0875 36 75.2 36H4.8C3.9125 36 3.2 35.2875 3.2 34.4V5.60005C3.2 4.71255 3.9125 4.00005 4.8 4.00005ZM59.2 5.60005C51.2688 5.60005 44.8 12.0688 44.8 20C44.8 27.9313 51.2688 34.4 59.2 34.4C67.1313 34.4 73.6 27.9313 73.6 20C73.6 12.0688 67.1313 5.60005 59.2 5.60005ZM59.2 8.80005C65.4063 8.80005 70.4 13.7938 70.4 20C70.4 26.2063 65.4063 31.2 59.2 31.2C52.9938 31.2 48 26.2063 48 20C48 13.7938 52.9938 8.80005 59.2 8.80005ZM9.6 12V15.2H41.6V12H9.6ZM59.2 12C54.8 12 51.2 15.6 51.2 20C51.2 24.4 54.8 28 59.2 28C63.6 28 67.2 24.4 67.2 20C67.2 15.6 63.6 12 59.2 12ZM59.2 15.2C61.8688 15.2 64 17.3313 64 20C64 22.6688 61.8688 24.8 59.2 24.8C56.5313 24.8 54.4 22.6688 54.4 20C54.4 17.3313 56.5313 15.2 59.2 15.2ZM9.6 18.4V21.6H41.6V18.4H9.6ZM9.6 24.8V28H41.6V24.8H9.6ZM6.4 40.8V44H19.2V40.8H6.4ZM60.8 40.8V44H73.6V40.8H60.8Z" fill="#272929"/>
</svg>
