<svg width="42" height="76" viewBox="0 0 42 76" fill="none" xmlns="http://www.w3.org/2000/svg">
<path d="M36.8438 0.21875H5.15625C3.86374 0.220105 2.62455 0.734155 1.7106 1.6481C0.796654 2.56205 0.282605 3.80124 0.28125 5.09375V66.0312C0.284457 67.1091 0.64514 68.1554 1.30679 69.0063C1.96844 69.8572 2.89366 70.4645 3.9375 70.7332V74.5625C3.9375 74.8857 4.0659 75.1957 4.29446 75.4243C4.52302 75.6528 4.83302 75.7812 5.15625 75.7812H12.4688C12.6951 75.7813 12.917 75.7183 13.1095 75.5993C13.3021 75.4803 13.4577 75.3101 13.5589 75.1076L15.6597 70.9062H26.3403L28.4411 75.1076C28.5423 75.3101 28.6979 75.4803 28.8905 75.5993C29.083 75.7183 29.3049 75.7813 29.5312 75.7812H36.8438C37.167 75.7812 37.477 75.6528 37.7055 75.4243C37.9341 75.1957 38.0625 74.8857 38.0625 74.5625V70.7332C39.1063 70.4645 40.0316 69.8572 40.6932 69.0063C41.3549 68.1554 41.7155 67.1091 41.7188 66.0312V5.09375C41.7174 3.80124 41.2033 2.56205 40.2894 1.6481C39.3755 0.734155 38.1363 0.220105 36.8438 0.21875ZM5.15625 2.65625H36.8438C37.49 2.65699 38.1095 2.91404 38.5665 3.371C39.0235 3.82796 39.2805 4.44751 39.2812 5.09375V28.25H7.59375V17.2812C7.59378 17.0549 7.53077 16.833 7.4118 16.6405C7.29282 16.4479 7.12258 16.2923 6.92015 16.1911L2.71875 14.0903V5.09375C2.71949 4.44751 2.97654 3.82796 3.4335 3.371C3.89046 2.91404 4.51001 2.65699 5.15625 2.65625ZM2.71875 30.6875H5.15625V40.9028L2.71875 42.1216V30.6875ZM2.71875 28.25V16.8159L5.15625 18.0347V28.25H2.71875ZM11.7153 73.3438H6.375V70.9062H12.9341L11.7153 73.3438ZM35.625 73.3438H30.2847L29.0659 70.9062H35.625V73.3438ZM36.8438 68.4688H5.15625C4.51001 68.468 3.89046 68.211 3.4335 67.754C2.97654 67.297 2.71949 66.6775 2.71875 66.0312V44.8472L6.92015 42.7464C7.12258 42.6452 7.29282 42.4896 7.4118 42.297C7.53077 42.1045 7.59378 41.8826 7.59375 41.6562V30.6875H39.2812V66.0312C39.2805 66.6775 39.0235 67.297 38.5665 67.754C38.1095 68.211 37.49 68.468 36.8438 68.4688Z" fill="#272929"/>
</svg>
