<svg width="71" height="71" viewBox="0 0 71 71" fill="none" xmlns="http://www.w3.org/2000/svg">
<path d="M35.0285 0.398711C32.5257 0.510851 30.1446 1.51026 28.3114 3.21798C26.4783 4.92569 25.313 7.23018 25.0241 9.71878H18.2972C16.5752 9.71904 14.8969 10.2612 13.5002 11.2685C12.1035 12.2758 11.0592 13.6971 10.5153 15.331L10.0461 16.75H8.54688C7.61533 16.7528 6.72273 17.1241 6.06403 17.7828C5.40532 18.4415 5.03403 19.3341 5.03125 20.2657V22.6094C5.03125 22.9202 5.15472 23.2183 5.37448 23.438C5.59425 23.6578 5.89232 23.7813 6.20312 23.7813H7.375V26.125H1.51562C1.20482 26.125 0.906753 26.2485 0.686984 26.4683C0.467215 26.688 0.34375 26.9861 0.34375 27.2969V31.9844C0.345705 32.2293 0.423278 32.4676 0.565856 32.6667C0.708433 32.8658 0.90905 33.016 1.14026 33.0968L7.375 35.1727V60.1094C7.37835 61.4593 7.84609 62.7668 8.69967 63.8126C9.55325 64.8583 10.7407 65.5784 12.0625 65.8521V69.4844C12.0625 69.7952 12.186 70.0933 12.4057 70.313C12.6255 70.5328 12.9236 70.6563 13.2344 70.6563H20.2656C20.4829 70.6588 20.6964 70.5995 20.8813 70.4852C21.0661 70.3709 21.2145 70.2064 21.3093 70.0108L23.3349 65.9688H46.4932L48.5188 70.0108C48.6148 70.2054 48.7636 70.3691 48.9481 70.4832C49.1326 70.5973 49.3455 70.6573 49.5625 70.6563H56.5938C56.9046 70.6563 57.2026 70.5328 57.4224 70.313C57.6422 70.0933 57.7656 69.7952 57.7656 69.4844V65.9688C59.3196 65.9688 60.81 65.3515 61.9088 64.2526C63.0077 63.1538 63.625 61.6634 63.625 60.1094V35.1727L69.8597 33.0968C70.091 33.016 70.2916 32.8658 70.4341 32.6667C70.5767 32.4676 70.6543 32.2293 70.6562 31.9844V27.2969C70.6562 26.9861 70.5328 26.688 70.313 26.4683C70.0932 26.2485 69.7952 26.125 69.4844 26.125H63.625V23.7813H64.7969C65.1077 23.7813 65.4057 23.6578 65.6255 23.438C65.8453 23.2183 65.9688 22.9202 65.9688 22.6094V20.2657C65.966 19.3341 65.5947 18.4415 64.936 17.7828C64.2773 17.1241 63.3847 16.7528 62.4531 16.75H60.9539L60.4847 15.331C59.9408 13.6971 58.8965 12.2758 57.4998 11.2685C56.1031 10.2612 54.4248 9.71904 52.7028 9.71878H45.9759C45.6683 7.06874 44.3677 4.63375 42.3364 2.90434C40.305 1.17492 37.6937 0.279593 35.0285 0.398711ZM35.5 2.68753C37.4709 2.68986 39.3751 3.40171 40.8642 4.69285C42.3533 5.98399 43.3277 7.76809 43.6093 9.71878H41.2426C40.9741 8.39373 40.2556 7.20231 39.209 6.34649C38.1624 5.49068 36.852 5.02315 35.5 5.02315C34.148 5.02315 32.8376 5.49068 31.791 6.34649C30.7444 7.20231 30.0259 8.39373 29.7574 9.71878H27.3907C27.6723 7.76809 28.6467 5.98399 30.1358 4.69285C31.6249 3.40171 33.5291 2.68986 35.5 2.68753ZM35.381 7.37732C36.1267 7.35184 36.8611 7.56526 37.4771 7.98645C38.093 8.40765 38.5583 9.01459 38.8051 9.71878H32.1949C32.4283 9.05295 32.8573 8.47314 33.4259 8.05533C33.9944 7.63751 34.6758 7.40119 35.381 7.37732ZM18.2972 12.0625H52.7028C53.9326 12.0611 55.1316 12.4477 56.1289 13.1672C57.1263 13.8868 57.8713 14.9027 58.2577 16.0702L58.4797 16.75H12.5203L12.7423 16.0702C13.1287 14.9027 13.8737 13.8868 14.8711 13.1672C15.8684 12.4477 17.0674 12.0611 18.2972 12.0625ZM8.54688 19.0938H62.4531C62.7639 19.0938 63.062 19.2172 63.2818 19.437C63.5015 19.6568 63.625 19.9549 63.625 20.2657V21.4375H7.375V20.2657C7.375 19.9549 7.49847 19.6568 7.71823 19.437C7.938 19.2172 8.23607 19.0938 8.54688 19.0938ZM9.71875 23.7813H61.2812V28.4688H9.71875V23.7813ZM2.6875 28.4688H7.375V32.6985L2.6875 31.1398V28.4688ZM63.625 28.4688H68.3125V31.1398L63.625 32.6985V28.4688ZM9.71875 30.8125H61.2812V60.1094C61.2785 61.041 60.9072 61.9335 60.2485 62.5923C59.5898 63.251 58.6972 63.6222 57.7656 63.625H13.2344C12.3028 63.6222 11.4102 63.251 10.7515 62.5923C10.0928 61.9335 9.72153 61.041 9.71875 60.1094V30.8125ZM28.4688 37.8438C27.5363 37.8438 26.6421 38.2142 25.9828 38.8735C25.3235 39.5328 24.9531 40.427 24.9531 41.3594V55.4219C24.9531 56.3543 25.3235 57.2485 25.9828 57.9078C26.6421 58.5671 27.5363 58.9375 28.4688 58.9375H42.5312C43.4637 58.9375 44.3579 58.5671 45.0172 57.9078C45.6765 57.2485 46.0469 56.3543 46.0469 55.4219V41.3594C46.0469 40.427 45.6765 39.5328 45.0172 38.8735C44.3579 38.2142 43.4637 37.8438 42.5312 37.8438H28.4688ZM28.4688 40.1875H42.5312C42.8421 40.1875 43.1401 40.311 43.3599 40.5308C43.5797 40.7505 43.7031 41.0486 43.7031 41.3594V55.4219C43.7031 55.7327 43.5797 56.0308 43.3599 56.2505C43.1401 56.4703 42.8421 56.5938 42.5312 56.5938H28.4688C28.1579 56.5938 27.8599 56.4703 27.6401 56.2505C27.4203 56.0308 27.2969 55.7327 27.2969 55.4219V41.3594C27.2969 41.0486 27.4203 40.7505 27.6401 40.5308C27.8599 40.311 28.1579 40.1875 28.4688 40.1875ZM29.6406 42.5313V44.875H41.3594V42.5313H29.6406ZM30.8125 47.2188C30.5017 47.2188 30.2036 47.3422 29.9839 47.562C29.7641 47.7818 29.6406 48.0799 29.6406 48.3907V53.0782C29.6406 53.389 29.7641 53.687 29.9839 53.9068C30.2036 54.1266 30.5017 54.25 30.8125 54.25H40.1875C40.4983 54.25 40.7964 54.1266 41.0161 53.9068C41.2359 53.687 41.3594 53.389 41.3594 53.0782V48.3907C41.3594 48.0799 41.2359 47.7818 41.0161 47.562C40.7964 47.3422 40.4983 47.2188 40.1875 47.2188H30.8125ZM31.9844 49.5625H39.0156V51.9063H31.9844V49.5625ZM14.4062 65.9688H20.7119L19.5401 68.3125H14.4062V65.9688ZM49.1162 65.9688H55.4219V68.3125H50.2881L49.1162 65.9688Z" fill="#272929"/>
</svg>
