<svg width="69" height="68" viewBox="0 0 69 68" fill="none" xmlns="http://www.w3.org/2000/svg">
<path d="M34.3201 0.218717C25.524 0.264498 17.1039 3.79132 10.9009 10.028C4.69796 16.2647 1.21681 24.7038 1.21869 33.5C1.21402 39.345 2.75863 45.0868 5.69519 50.1406H1.21869V52.3593H7.09924C8.03982 53.7212 9.08057 55.0111 10.2129 56.2183L0.434326 65.9969L2.00305 67.5656L11.7816 57.787C12.9888 58.9193 14.2787 59.9601 15.6406 60.9007V66.7812H17.8593V62.3047C22.9147 65.2375 28.6554 66.7822 34.4999 66.7822C40.3445 66.7822 46.0852 65.2375 51.1406 62.3047V66.7812H53.3593V60.9007C54.7212 59.9601 56.0111 58.9193 57.2183 57.787L66.9968 67.5656L68.5656 65.9969L58.787 56.2183C59.9193 55.0111 60.9601 53.7212 61.9006 52.3593H67.7812V50.1406H63.3047C66.2349 45.0696 67.7747 39.3151 67.7686 33.4584C67.7626 27.6017 66.2108 21.8504 63.2701 16.7855C60.3295 11.7206 56.1041 7.52158 51.0209 4.61269C45.9376 1.7038 40.1767 0.188095 34.3201 0.218717ZM34.4999 2.43747C41.3844 2.44638 48.0716 4.73805 53.5144 8.95368C58.9572 13.1693 62.8484 19.0709 64.5787 25.7343H62.2495C60.5587 19.6741 56.9306 14.3339 51.9194 10.5294C46.9082 6.725 40.7895 4.66548 34.4978 4.66548C28.2061 4.66548 22.0873 6.725 17.0761 10.5294C12.065 14.3339 8.43687 19.6741 6.74606 25.7343H4.41681C6.14731 19.0701 10.0392 13.1681 15.4829 8.95236C20.9266 4.73666 27.6147 2.44542 34.4999 2.43747ZM35.1478 6.88363C40.7383 7.01974 46.1436 8.91452 50.5955 12.2987C55.0474 15.6828 58.3193 20.3841 59.9462 25.7343H53.3593C52.4766 25.7343 51.6301 26.085 51.006 26.7091C50.3818 27.3333 50.0312 28.1798 50.0312 29.0625V37.9375C50.0312 38.8201 50.3818 39.6667 51.006 40.2908C51.6301 40.915 52.4766 41.2656 53.3593 41.2656H59.9462C58.2874 46.7221 54.9186 51.5009 50.3368 54.8968C45.7551 58.2928 40.203 60.126 34.4999 60.126C28.7969 60.126 23.2448 58.2928 18.663 54.8968C14.0813 51.5009 10.7124 46.7221 9.05365 41.2656H15.6406C16.5232 41.2656 17.3698 40.915 17.9939 40.2908C18.618 39.6667 18.9687 38.8201 18.9687 37.9375V29.0625C18.9687 28.1798 18.618 27.3333 17.9939 26.7091C17.3698 26.085 16.5232 25.7343 15.6406 25.7343H9.05365C10.745 20.1721 14.2123 15.3173 18.9249 11.9129C23.6375 8.50843 29.3358 6.7419 35.1478 6.88363ZM23.4062 14.6406C22.5235 14.6406 21.677 14.9912 21.0528 15.6154C20.4287 16.2395 20.0781 17.086 20.0781 17.9687V20.1875C20.0781 21.0701 20.4287 21.9167 21.0528 22.5408C21.677 23.165 22.5235 23.5156 23.4062 23.5156H45.5937C46.4764 23.5156 47.3229 23.165 47.947 22.5408C48.5712 21.9167 48.9218 21.0701 48.9218 20.1875V17.9687C48.9218 17.086 48.5712 16.2395 47.947 15.6154C47.3229 14.9912 46.4764 14.6406 45.5937 14.6406H23.4062ZM23.4062 16.8593H45.5937C45.8879 16.8593 46.1701 16.9762 46.3781 17.1843C46.5862 17.3923 46.7031 17.6745 46.7031 17.9687V20.1875C46.7031 20.4817 46.5862 20.7639 46.3781 20.9719C46.1701 21.18 45.8879 21.2968 45.5937 21.2968H23.4062C23.112 21.2968 22.8298 21.18 22.6217 20.9719C22.4137 20.7639 22.2968 20.4817 22.2968 20.1875V17.9687C22.2968 17.6745 22.4137 17.3923 22.6217 17.1843C22.8298 16.9762 23.112 16.8593 23.4062 16.8593ZM3.94229 27.9531H15.6406C15.9348 27.9531 16.217 28.07 16.425 28.278C16.6331 28.4861 16.7499 28.7682 16.7499 29.0625V37.9375C16.7499 38.2317 16.6331 38.5139 16.425 38.7219C16.217 38.93 15.9348 39.0468 15.6406 39.0468H3.94229C3.60844 37.2167 3.43948 35.3603 3.43744 33.5C3.43948 31.6396 3.60844 29.7832 3.94229 27.9531ZM53.3593 27.9531H65.0576C65.7321 31.6203 65.7321 35.3797 65.0576 39.0468H53.3593C53.0651 39.0468 52.7829 38.93 52.5749 38.7219C52.3668 38.5139 52.2499 38.2317 52.2499 37.9375V29.0625C52.2499 28.7682 52.3668 28.4861 52.5749 28.278C52.7829 28.07 53.0651 27.9531 53.3593 27.9531ZM4.42114 41.2656H6.7504C8.43988 47.3277 12.0677 52.6699 17.0794 56.4758C22.0912 60.2818 28.2112 62.3422 34.5043 62.3422C40.7974 62.3422 46.9174 60.2818 51.9291 56.4758C56.9409 52.6699 60.5687 47.3277 62.2581 41.2656H64.5874C62.8567 47.9305 58.9642 53.8331 53.5196 58.0489C48.075 62.2647 41.3859 64.5555 34.4999 64.5625C27.6155 64.5536 20.9283 62.2619 15.4855 58.0463C10.0427 53.8306 6.15146 47.9291 4.42114 41.2656ZM25.6249 46.8125C24.9667 46.8125 24.3232 47.0077 23.7759 47.3734C23.2286 47.7391 22.802 48.2588 22.5502 48.867C22.2983 49.4751 22.2323 50.1443 22.3608 50.7899C22.4892 51.4355 22.8062 52.0285 23.2716 52.4939C23.737 52.9594 24.3301 53.2764 24.9757 53.4048C25.6212 53.5332 26.2904 53.4673 26.8986 53.2154C27.5067 52.9635 28.0265 52.5369 28.3922 51.9896C28.7579 51.4423 28.9531 50.7988 28.9531 50.1406C28.9531 49.2579 28.6024 48.4114 27.9783 47.7873C27.3541 47.1631 26.5076 46.8125 25.6249 46.8125ZM34.4999 46.8125C33.8417 46.8125 33.1982 47.0077 32.6509 47.3734C32.1036 47.7391 31.677 48.2588 31.4252 48.867C31.1733 49.4751 31.1073 50.1443 31.2358 50.7899C31.3642 51.4355 31.6812 52.0285 32.1466 52.4939C32.612 52.9594 33.2051 53.2764 33.8507 53.4048C34.4962 53.5332 35.1654 53.4673 35.7736 53.2154C36.3817 52.9635 36.9015 52.5369 37.2672 51.9896C37.6329 51.4423 37.8281 50.7988 37.8281 50.1406C37.8281 49.2579 37.4774 48.4114 36.8533 47.7873C36.2291 47.1631 35.3826 46.8125 34.4999 46.8125ZM43.3749 46.8125C42.7167 46.8125 42.0732 47.0077 41.5259 47.3734C40.9786 47.7391 40.5521 48.2588 40.3002 48.867C40.0483 49.4751 39.9823 50.1443 40.1108 50.7899C40.2392 51.4355 40.5562 52.0285 41.0216 52.4939C41.487 52.9594 42.0801 53.2764 42.7257 53.4048C43.3712 53.5332 44.0404 53.4673 44.6486 53.2154C45.2567 52.9635 45.7765 52.5369 46.1422 51.9896C46.5079 51.4423 46.7031 50.7988 46.7031 50.1406C46.7031 49.2579 46.3524 48.4114 45.7283 47.7873C45.1041 47.1631 44.2576 46.8125 43.3749 46.8125ZM25.5794 49.0312C25.7289 49.0251 25.8781 49.0492 26.018 49.1022C26.1579 49.1552 26.2856 49.236 26.3935 49.3396C26.5013 49.4432 26.5872 49.5676 26.6457 49.7053C26.7043 49.8429 26.7344 49.991 26.7343 50.1406C26.7343 50.4348 26.6174 50.717 26.4094 50.925C26.2013 51.1331 25.9192 51.25 25.6249 51.25C25.4793 51.253 25.3344 51.2272 25.1987 51.1742C25.0629 51.1212 24.939 51.042 24.8338 50.9411C24.7287 50.8402 24.6445 50.7196 24.586 50.5862C24.5275 50.4527 24.4958 50.309 24.4928 50.1633C24.4898 50.0177 24.5156 49.8728 24.5686 49.7371C24.6215 49.6013 24.7008 49.4774 24.8017 49.3722C24.9026 49.2671 25.0232 49.1829 25.1566 49.1244C25.2901 49.0659 25.4338 49.0342 25.5794 49.0312ZM34.4544 49.0312C34.6039 49.0251 34.7531 49.0492 34.893 49.1022C35.0329 49.1552 35.1606 49.236 35.2685 49.3396C35.3764 49.4432 35.4622 49.5676 35.5207 49.7053C35.5793 49.8429 35.6094 49.991 35.6093 50.1406C35.6093 50.4348 35.4924 50.717 35.2844 50.925C35.0763 51.1331 34.7942 51.25 34.4999 51.25C34.2057 51.256 33.9211 51.1449 33.7088 50.9411C33.4965 50.7373 33.3738 50.4576 33.3678 50.1633C33.3618 49.8691 33.4729 49.5846 33.6767 49.3722C33.8804 49.1599 34.1602 49.0373 34.4544 49.0312ZM43.3294 49.0312C43.4789 49.0251 43.6281 49.0492 43.768 49.1022C43.9079 49.1552 44.0356 49.236 44.1435 49.3396C44.2514 49.4432 44.3372 49.5676 44.3957 49.7053C44.4543 49.8429 44.4844 49.991 44.4843 50.1406C44.4843 50.4348 44.3674 50.717 44.1594 50.925C43.9513 51.1331 43.6692 51.25 43.3749 51.25C43.0807 51.256 42.7961 51.1449 42.5838 50.9411C42.3715 50.7373 42.2488 50.4576 42.2428 50.1633C42.2368 49.8691 42.3479 49.5846 42.5517 49.3722C42.7554 49.1599 43.0352 49.0373 43.3294 49.0312Z" fill="#272929"/>
</svg>
