<svg width="69" height="69" viewBox="0 0 69 69" fill="none" xmlns="http://www.w3.org/2000/svg">
<path d="M28.7969 0.28125H3.70312C2.79642 0.283958 1.92763 0.645346 1.28649 1.28649C0.645346 1.92763 0.283958 2.79642 0.28125 3.70312V65.2969C0.283958 66.2036 0.645346 67.0724 1.28649 67.7135C1.92763 68.3547 2.79642 68.716 3.70312 68.7188H28.7969C29.7036 68.716 30.5724 68.3547 31.2135 67.7135C31.8547 67.0724 32.216 66.2036 32.2188 65.2969V3.70312C32.216 2.79642 31.8547 1.92763 31.2135 1.28649C30.5724 0.645346 29.7036 0.283958 28.7969 0.28125ZM29.9375 65.2969C29.9375 65.5994 29.8173 65.8895 29.6034 66.1034C29.3895 66.3173 29.0994 66.4375 28.7969 66.4375H3.70312C3.40061 66.4375 3.11049 66.3173 2.89658 66.1034C2.68267 65.8895 2.5625 65.5994 2.5625 65.2969V3.70312C2.5625 3.40061 2.68267 3.11049 2.89658 2.89658C3.11049 2.68267 3.40061 2.5625 3.70312 2.5625H28.7969C29.0994 2.5625 29.3895 2.68267 29.6034 2.89658C29.8173 3.11049 29.9375 3.40061 29.9375 3.70312V65.2969Z" fill="#272929"/>
<path d="M20.8125 3.70312H11.6875C9.57065 3.70554 7.5412 4.54752 6.04436 6.04436C4.54752 7.5412 3.70554 9.57065 3.70312 11.6875V57.3125C3.70554 59.4293 4.54752 61.4588 6.04436 62.9556C7.5412 64.4525 9.57065 65.2945 11.6875 65.2969H20.8125C22.9293 65.2945 24.9588 64.4525 26.4556 62.9556C27.9525 61.4588 28.7945 59.4293 28.7969 57.3125V11.6875C28.7945 9.57065 27.9525 7.5412 26.4556 6.04436C24.9588 4.54752 22.9293 3.70554 20.8125 3.70312ZM26.5156 57.3125C26.5156 58.8251 25.9148 60.2757 24.8452 61.3452C23.7757 62.4148 22.3251 63.0156 20.8125 63.0156H11.6875C10.1749 63.0156 8.72433 62.4148 7.65478 61.3452C6.58524 60.2757 5.98438 58.8251 5.98438 57.3125V55.3734C7.13669 57.0283 8.67198 58.38 10.4594 59.3134C12.2469 60.2469 14.2335 60.7344 16.25 60.7344C18.2665 60.7344 20.2531 60.2469 22.0406 59.3134C23.828 58.38 25.3633 57.0283 26.5156 55.3734V57.3125ZM16.25 58.4531C14.2197 58.4531 12.2349 57.8511 10.5467 56.7231C8.85855 55.5951 7.54278 53.9918 6.7658 52.116C5.98882 50.2402 5.78552 48.1761 6.18163 46.1848C6.57773 44.1934 7.55543 42.3643 8.99111 40.9286C10.4268 39.4929 12.2559 38.5152 14.2473 38.1191C16.2386 37.723 18.3027 37.9263 20.1785 38.7033C22.0543 39.4803 23.6576 40.7961 24.7856 42.4842C25.9136 44.1724 26.5156 46.1572 26.5156 48.1875C26.5114 50.9088 25.4285 53.5175 23.5042 55.4417C21.58 57.366 18.9713 58.4489 16.25 58.4531ZM26.5156 41.0016C25.3633 39.3467 23.828 37.995 22.0406 37.0616C20.2531 36.1281 18.2665 35.6406 16.25 35.6406C14.2335 35.6406 12.2469 36.1281 10.4594 37.0616C8.67198 37.995 7.13669 39.3467 5.98438 41.0016V27.9984C7.13669 29.6533 8.67198 31.005 10.4594 31.9385C12.2469 32.8719 14.2335 33.3594 16.25 33.3594C18.2665 33.3594 20.2531 32.8719 22.0406 31.9385C23.828 31.005 25.3633 29.6533 26.5156 27.9984V41.0016ZM16.25 31.0781C14.2197 31.0781 12.2349 30.4761 10.5467 29.3481C8.85855 28.2201 7.54278 26.6168 6.7658 24.741C5.98882 22.8652 5.78552 20.8011 6.18163 18.8098C6.57773 16.8184 7.55543 14.9893 8.99111 13.5536C10.4268 12.1179 12.2559 11.1402 14.2473 10.7441C16.2386 10.348 18.3027 10.5513 20.1785 11.3283C22.0543 12.1053 23.6576 13.4211 24.7856 15.1092C25.9136 16.7974 26.5156 18.7822 26.5156 20.8125C26.5114 23.5338 25.4285 26.1425 23.5042 28.0667C21.58 29.991 18.9713 31.0739 16.25 31.0781ZM26.5156 13.6266C25.3633 11.9717 23.828 10.62 22.0406 9.68655C20.2531 8.7531 18.2665 8.26561 16.25 8.26561C14.2335 8.26561 12.2469 8.7531 10.4594 9.68655C8.67198 10.62 7.13669 11.9717 5.98438 13.6266V11.6875C5.98438 10.1749 6.58524 8.72433 7.65478 7.65478C8.72433 6.58524 10.1749 5.98438 11.6875 5.98438H20.8125C22.3251 5.98438 23.7757 6.58524 24.8452 7.65478C25.9148 8.72433 26.5156 10.1749 26.5156 11.6875V13.6266Z" fill="#272929"/>
<path d="M16.25 25.375C17.1524 25.375 18.0345 25.1074 18.7848 24.6061C19.5351 24.1047 20.1199 23.3922 20.4652 22.5585C20.8105 21.7248 20.9009 20.8074 20.7248 19.9224C20.5488 19.0374 20.1143 18.2244 19.4762 17.5863C18.8381 16.9483 18.0251 16.5137 17.1401 16.3377C16.2551 16.1616 15.3377 16.252 14.504 16.5973C13.6703 16.9426 12.9578 17.5274 12.4564 18.2777C11.9551 19.028 11.6875 19.9101 11.6875 20.8125C11.6875 22.0226 12.1682 23.183 13.0238 24.0387C13.8795 24.8943 15.0399 25.375 16.25 25.375ZM16.25 18.5313C16.7012 18.5313 17.1422 18.665 17.5174 18.9157C17.8925 19.1664 18.1849 19.5227 18.3576 19.9395C18.5303 20.3563 18.5754 20.815 18.4874 21.2576C18.3994 21.7001 18.1821 22.1066 17.8631 22.4256C17.544 22.7446 17.1376 22.9619 16.695 23.0499C16.2525 23.1379 15.7938 23.0928 15.377 22.9201C14.9602 22.7474 14.6039 22.455 14.3532 22.0799C14.1025 21.7047 13.9688 21.2637 13.9688 20.8125C13.9688 20.2075 14.2091 19.6272 14.6369 19.1994C15.0647 18.7716 15.645 18.5313 16.25 18.5313Z" fill="#272929"/>
<path d="M65.2969 0.28125H40.2031C39.2964 0.283958 38.4276 0.645346 37.7865 1.28649C37.1453 1.92763 36.784 2.79642 36.7812 3.70312V65.2969C36.784 66.2036 37.1453 67.0724 37.7865 67.7135C38.4276 68.3547 39.2964 68.716 40.2031 68.7188H65.2969C66.2036 68.716 67.0724 68.3547 67.7135 67.7135C68.3547 67.0724 68.716 66.2036 68.7188 65.2969V3.70312C68.716 2.79642 68.3547 1.92763 67.7135 1.28649C67.0724 0.645346 66.2036 0.283958 65.2969 0.28125ZM66.4375 65.2969C66.4375 65.5994 66.3173 65.8895 66.1034 66.1034C65.8895 66.3173 65.5994 66.4375 65.2969 66.4375H40.2031C39.9006 66.4375 39.6105 66.3173 39.3966 66.1034C39.1827 65.8895 39.0625 65.5994 39.0625 65.2969V3.70312C39.0625 3.40061 39.1827 3.11049 39.3966 2.89658C39.6105 2.68267 39.9006 2.5625 40.2031 2.5625H65.2969C65.5994 2.5625 65.8895 2.68267 66.1034 2.89658C66.3173 3.11049 66.4375 3.40061 66.4375 3.70312V65.2969Z" fill="#272929"/>
<path d="M57.3125 3.70312H48.1875C46.0707 3.70554 44.0412 4.54752 42.5444 6.04436C41.0475 7.5412 40.2055 9.57065 40.2031 11.6875V57.3125C40.2055 59.4293 41.0475 61.4588 42.5444 62.9556C44.0412 64.4525 46.0707 65.2945 48.1875 65.2969H57.3125C59.4293 65.2945 61.4588 64.4525 62.9556 62.9556C64.4525 61.4588 65.2945 59.4293 65.2969 57.3125V11.6875C65.2945 9.57065 64.4525 7.5412 62.9556 6.04436C61.4588 4.54752 59.4293 3.70554 57.3125 3.70312ZM63.0156 57.3125C63.0156 58.8251 62.4148 60.2757 61.3452 61.3452C60.2757 62.4148 58.8251 63.0156 57.3125 63.0156H48.1875C46.6749 63.0156 45.2243 62.4148 44.1548 61.3452C43.0852 60.2757 42.4844 58.8251 42.4844 57.3125V55.3734C43.6367 57.0283 45.172 58.38 46.9594 59.3134C48.7469 60.2469 50.7335 60.7344 52.75 60.7344C54.7665 60.7344 56.7531 60.2469 58.5406 59.3134C60.328 58.38 61.8633 57.0283 63.0156 55.3734V57.3125ZM52.75 58.4531C50.7197 58.4531 48.7349 57.8511 47.0467 56.7231C45.3585 55.5951 44.0428 53.9918 43.2658 52.116C42.4888 50.2402 42.2855 48.1761 42.6816 46.1848C43.0777 44.1934 44.0554 42.3643 45.4911 40.9286C46.9268 39.4929 48.7559 38.5152 50.7473 38.1191C52.7386 37.723 54.8027 37.9263 56.6785 38.7033C58.5543 39.4803 60.1576 40.7961 61.2856 42.4842C62.4136 44.1724 63.0156 46.1572 63.0156 48.1875C63.0114 50.9088 61.9285 53.5175 60.0042 55.4417C58.08 57.366 55.4713 58.4489 52.75 58.4531ZM63.0156 41.0016C61.8633 39.3467 60.328 37.995 58.5406 37.0616C56.7531 36.1281 54.7665 35.6406 52.75 35.6406C50.7335 35.6406 48.7469 36.1281 46.9594 37.0616C45.172 37.995 43.6367 39.3467 42.4844 41.0016V27.9984C43.6367 29.6533 45.172 31.005 46.9594 31.9385C48.7469 32.8719 50.7335 33.3594 52.75 33.3594C54.7665 33.3594 56.7531 32.8719 58.5406 31.9385C60.328 31.005 61.8633 29.6533 63.0156 27.9984V41.0016ZM52.75 31.0781C50.7197 31.0781 48.7349 30.4761 47.0467 29.3481C45.3585 28.2201 44.0428 26.6168 43.2658 24.741C42.4888 22.8652 42.2855 20.8011 42.6816 18.8098C43.0777 16.8184 44.0554 14.9893 45.4911 13.5536C46.9268 12.1179 48.7559 11.1402 50.7473 10.7441C52.7386 10.348 54.8027 10.5513 56.6785 11.3283C58.5543 12.1053 60.1576 13.4211 61.2856 15.1092C62.4136 16.7974 63.0156 18.7822 63.0156 20.8125C63.0114 23.5338 61.9285 26.1425 60.0042 28.0667C58.08 29.991 55.4713 31.0739 52.75 31.0781ZM63.0156 13.6266C61.8633 11.9717 60.328 10.62 58.5406 9.68655C56.7531 8.7531 54.7665 8.26561 52.75 8.26561C50.7335 8.26561 48.7469 8.7531 46.9594 9.68655C45.172 10.62 43.6367 11.9717 42.4844 13.6266V11.6875C42.4844 10.1749 43.0852 8.72433 44.1548 7.65478C45.2243 6.58524 46.6749 5.98438 48.1875 5.98438H57.3125C58.8251 5.98438 60.2757 6.58524 61.3452 7.65478C62.4148 8.72433 63.0156 10.1749 63.0156 11.6875V13.6266Z" fill="#272929"/>
<path d="M21.9531 20.8125H24.2344C24.2317 18.6957 23.3896 16.6665 21.8928 15.1697C20.396 13.6729 18.3668 12.8308 16.25 12.8281V15.1094C17.762 15.1112 19.2116 15.7126 20.2807 16.7818C21.3499 17.8509 21.9513 19.3005 21.9531 20.8125Z" fill="#272929"/>
<path d="M52.75 25.375C53.6524 25.375 54.5345 25.1074 55.2848 24.6061C56.0351 24.1047 56.6199 23.3922 56.9652 22.5585C57.3105 21.7248 57.4009 20.8074 57.2248 19.9224C57.0488 19.0374 56.6143 18.2244 55.9762 17.5863C55.3381 16.9483 54.5251 16.5137 53.6401 16.3377C52.7551 16.1616 51.8377 16.252 51.004 16.5973C50.1703 16.9426 49.4578 17.5274 48.9564 18.2777C48.4551 19.028 48.1875 19.9101 48.1875 20.8125C48.1875 22.0226 48.6682 23.183 49.5238 24.0387C50.3795 24.8943 51.5399 25.375 52.75 25.375ZM52.75 18.5313C53.2012 18.5313 53.6422 18.665 54.0174 18.9157C54.3925 19.1664 54.6849 19.5227 54.8576 19.9395C55.0303 20.3563 55.0754 20.815 54.9874 21.2576C54.8994 21.7001 54.6821 22.1066 54.3631 22.4256C54.0441 22.7446 53.6376 22.9619 53.1951 23.0499C52.7525 23.1379 52.2938 23.0928 51.877 22.9201C51.4602 22.7474 51.1039 22.455 50.8532 22.0799C50.6025 21.7047 50.4688 21.2637 50.4688 20.8125C50.4688 20.2075 50.7091 19.6272 51.1369 19.1994C51.5647 18.7716 52.145 18.5313 52.75 18.5313Z" fill="#272929"/>
<path d="M58.4531 20.8125H60.7344C60.7317 18.6957 59.8896 16.6665 58.3928 15.1697C56.896 13.6729 54.8668 12.8308 52.75 12.8281V15.1094C54.262 15.1112 55.7116 15.7126 56.7807 16.7818C57.8499 17.8509 58.4513 19.3005 58.4531 20.8125Z" fill="#272929"/>
<path d="M16.25 52.75C17.1524 52.75 18.0345 52.4824 18.7848 51.9811C19.5351 51.4797 20.1199 50.7672 20.4652 49.9335C20.8105 49.0998 20.9009 48.1824 20.7248 47.2974C20.5488 46.4124 20.1143 45.5994 19.4762 44.9613C18.8381 44.3233 18.0251 43.8887 17.1401 43.7127C16.2551 43.5366 15.3377 43.627 14.504 43.9723C13.6703 44.3176 12.9578 44.9024 12.4564 45.6527C11.9551 46.403 11.6875 47.2851 11.6875 48.1875C11.6875 49.3976 12.1682 50.558 13.0238 51.4137C13.8795 52.2693 15.0399 52.75 16.25 52.75ZM16.25 45.9063C16.7012 45.9063 17.1422 46.04 17.5174 46.2907C17.8925 46.5414 18.1849 46.8977 18.3576 47.3145C18.5303 47.7314 18.5754 48.19 18.4874 48.6326C18.3994 49.0751 18.1821 49.4816 17.8631 49.8006C17.544 50.1196 17.1376 50.3369 16.695 50.4249C16.2525 50.5129 15.7938 50.4678 15.377 50.2951C14.9602 50.1224 14.6039 49.83 14.3532 49.4549C14.1025 49.0797 13.9688 48.6387 13.9688 48.1875C13.9688 47.5825 14.2091 47.0022 14.6369 46.5744C15.0647 46.1466 15.645 45.9063 16.25 45.9063Z" fill="#272929"/>
<path d="M21.9531 48.1875H24.2344C24.2317 46.0707 23.3896 44.0415 21.8928 42.5447C20.396 41.0479 18.3668 40.2058 16.25 40.2031V42.4844C17.762 42.4862 19.2116 43.0876 20.2807 44.1568C21.3499 45.2259 21.9513 46.6755 21.9531 48.1875Z" fill="#272929"/>
<path d="M52.75 52.75C53.6524 52.75 54.5345 52.4824 55.2848 51.9811C56.0351 51.4797 56.6199 50.7672 56.9652 49.9335C57.3105 49.0998 57.4009 48.1824 57.2248 47.2974C57.0488 46.4124 56.6143 45.5994 55.9762 44.9613C55.3381 44.3233 54.5251 43.8887 53.6401 43.7127C52.7551 43.5366 51.8377 43.627 51.004 43.9723C50.1703 44.3176 49.4578 44.9024 48.9564 45.6527C48.4551 46.403 48.1875 47.2851 48.1875 48.1875C48.1875 49.3976 48.6682 50.558 49.5238 51.4137C50.3795 52.2693 51.5399 52.75 52.75 52.75ZM52.75 45.9063C53.2012 45.9063 53.6422 46.04 54.0174 46.2907C54.3925 46.5414 54.6849 46.8977 54.8576 47.3145C55.0303 47.7314 55.0754 48.19 54.9874 48.6326C54.8994 49.0751 54.6821 49.4816 54.3631 49.8006C54.0441 50.1196 53.6376 50.3369 53.1951 50.4249C52.7525 50.5129 52.2938 50.4678 51.877 50.2951C51.4602 50.1224 51.1039 49.83 50.8532 49.4549C50.6025 49.0797 50.4688 48.6387 50.4688 48.1875C50.4688 47.5825 50.7091 47.0022 51.1369 46.5744C51.5647 46.1466 52.145 45.9063 52.75 45.9063Z" fill="#272929"/>
<path d="M58.4531 48.1875H60.7344C60.7317 46.0707 59.8896 44.0415 58.3928 42.5447C56.896 41.0479 54.8668 40.2058 52.75 40.2031V42.4844C54.262 42.4862 55.7116 43.0876 56.7807 44.1568C57.8499 45.2259 58.4513 46.6755 58.4531 48.1875Z" fill="#272929"/>
</svg>
