<svg width="69" height="63" viewBox="0 0 69 63" fill="none" xmlns="http://www.w3.org/2000/svg">
<path d="M2.21875 0.625C1.44208 0.625 0.8125 1.25458 0.8125 2.03125V48.4375C0.8125 49.214 1.44208 49.8438 2.21875 49.8438H27.5312V59.6875H19.375C18.5983 59.6875 17.9688 60.3172 17.9688 61.0938C17.9688 61.8703 18.5983 62.5 19.375 62.5H48.625C49.4015 62.5 50.0312 61.8703 50.0312 61.0938C50.0312 60.3172 49.4015 59.6875 48.625 59.6875H40.1875V49.8438H66.9062C67.6828 49.8438 68.3125 49.214 68.3125 48.4375V2.03125C68.3125 1.25458 67.6828 0.625 66.9062 0.625H2.21875ZM3.625 3.4375H65.5V38.5938H3.625V3.4375ZM40.4869 7.65707C40.1719 7.66859 39.859 7.78559 39.6049 8.01138L23.7846 22.0739C23.2041 22.5898 23.1517 23.4786 23.6676 24.0591C24.1829 24.6389 25.0719 24.6928 25.6531 24.1761L41.4734 10.1136C42.054 9.59766 42.1063 8.70861 41.5902 8.12811C41.3 7.80166 40.8918 7.64227 40.4869 7.65707ZM41.5416 17.5008C41.2266 17.5124 40.9134 17.6293 40.6594 17.8551L24.8391 31.9176C24.2586 32.4336 24.2064 33.3224 24.7223 33.9029C25.2367 34.4814 26.1252 34.5372 26.7076 34.0196L42.5279 19.9571C43.1084 19.4411 43.1607 18.5524 42.6446 17.9719C42.3546 17.6455 41.9465 17.486 41.5416 17.5008ZM3.625 41.4062H65.5V47.0312H3.625V41.4062ZM30.3438 49.8438H37.375V59.6875H30.3438V49.8438Z" fill="#272929"/>
</svg>
