<svg width="54" height="71" viewBox="0 0 54 71" fill="none" xmlns="http://www.w3.org/2000/svg">
<path d="M5.08528 0.628906C4.4326 0.628887 3.78631 0.757428 3.1833 1.00719C2.5803 1.25695 2.0324 1.62304 1.57088 2.08456C1.10937 2.54607 0.743279 3.09397 0.493518 3.69698C0.243756 4.29998 0.115215 4.94627 0.115234 5.59895V65.401C0.115215 66.0537 0.243756 66.7 0.493518 67.303C0.743279 67.906 1.10937 68.4539 1.57088 68.9154C2.0324 69.377 2.5803 69.743 3.1833 69.9928C3.78631 70.2426 4.4326 70.3711 5.08528 70.3711H48.069C48.7217 70.3711 49.368 70.2426 49.971 69.9928C50.574 69.743 51.1219 69.377 51.5834 68.9154C52.0449 68.4539 52.411 67.906 52.6608 67.303C52.9105 66.7 53.0391 66.0537 53.0391 65.401V5.59895C53.0391 4.94627 52.9105 4.29998 52.6608 3.69698C52.411 3.09397 52.0449 2.54607 51.5834 2.08456C51.1219 1.62304 50.574 1.25695 49.971 1.00719C49.368 0.757428 48.7217 0.628887 48.069 0.628906H5.08528ZM5.02019 3.09766H6.9043V10.3171C6.91071 10.6437 7.0438 10.955 7.27548 11.1853C7.50715 11.4157 7.81926 11.5469 8.1459 11.5514L19.0076 11.7383H19.0287C19.362 11.7385 19.683 11.6119 19.9264 11.3842C20.1715 11.1554 20.3159 10.8389 20.3281 10.5039V3.09766H23.4141V16.3672H2.58398V5.61523C2.58398 4.23597 3.64093 3.09766 5.02019 3.09766ZM9.37305 3.09766H17.8594V9.24813L9.37305 9.10378V3.09766ZM25.8828 3.09766H47.9798C49.3591 3.09766 50.416 4.23597 50.416 5.61523V16.3672H25.8828V3.09766ZM30.3249 6.0293C29.9975 6.0293 29.6835 6.15935 29.452 6.39084C29.2205 6.62233 29.0905 6.9363 29.0905 7.26367C29.0905 7.59105 29.2205 7.90502 29.452 8.13651C29.6835 8.368 29.9975 8.49805 30.3249 8.49805H45.1862C45.5136 8.49805 45.8275 8.368 46.059 8.13651C46.2905 7.90502 46.4206 7.59105 46.4206 7.26367C46.4206 6.9363 46.2905 6.62233 46.059 6.39084C45.8275 6.15935 45.5136 6.0293 45.1862 6.0293H30.3249ZM30.3249 10.1953C29.9975 10.1953 29.6835 10.3254 29.452 10.5569C29.2205 10.7883 29.0905 11.1023 29.0905 11.4297C29.0905 11.7571 29.2205 12.071 29.452 12.3025C29.6835 12.534 29.9975 12.6641 30.3249 12.6641H45.1862C45.5136 12.6641 45.8275 12.534 46.059 12.3025C46.2905 12.071 46.4206 11.7571 46.4206 11.4297C46.4206 11.1023 46.2905 10.7883 46.059 10.5569C45.8275 10.3254 45.5136 10.1953 45.1862 10.1953H30.3249ZM2.58398 18.8359H50.416V65.3848C50.416 66.764 49.3591 67.9023 47.9798 67.9023H5.02019C3.64093 67.9023 2.58398 66.764 2.58398 65.3848V18.8359ZM26.5 24.4985C22.7983 24.4985 19.1797 25.5962 16.1019 27.6528C13.024 29.7094 10.6251 32.6325 9.20857 36.0524C7.792 39.4723 7.42137 43.2355 8.14354 46.8661C8.86572 50.4967 10.6483 53.8316 13.2658 56.4491C15.8833 59.0666 19.2182 60.8491 22.8487 61.5713C26.4793 62.2935 30.2425 61.9228 33.6624 60.5063C37.0824 59.0897 40.0055 56.6908 42.062 53.613C44.1186 50.5351 45.2163 46.9165 45.2163 43.2148C45.2108 38.2526 43.2372 33.4953 39.7284 29.9865C36.2196 26.4776 31.4622 24.504 26.5 24.4985ZM25.8243 26.9814C28.013 26.8903 30.1975 27.2427 32.2464 28.0175C34.2954 28.7922 36.1665 29.9733 37.7474 31.4897C39.3282 33.0061 40.5861 34.8264 41.4453 36.8414C42.3046 38.8564 42.7476 41.0243 42.7476 43.2148C42.7429 47.5225 41.0296 51.6524 37.9836 54.6984C34.9376 57.7444 30.8077 59.4577 26.5 59.4624C22.2489 59.4633 18.1668 57.7979 15.1294 54.8236C12.092 51.8493 10.3413 47.8031 10.2529 43.5529C10.1645 39.3027 11.7454 35.1871 14.6565 32.0891C17.5675 28.9911 21.5769 27.1574 25.8243 26.9814ZM26.5 30.4902C23.9833 30.4902 21.5232 31.2365 19.4307 32.6347C17.3381 34.0329 15.7072 36.0202 14.7441 38.3453C13.7811 40.6704 13.5291 43.2289 14.0201 45.6972C14.511 48.1655 15.7229 50.4328 17.5025 52.2123C19.2821 53.9919 21.5493 55.2038 24.0176 55.6948C26.486 56.1858 29.0444 55.9338 31.3695 54.9707C33.6946 54.0076 35.6819 52.3767 37.0801 50.2842C38.4783 48.1917 39.2246 45.7315 39.2247 43.2148C39.2209 39.8412 37.8791 36.6068 35.4935 34.2213C33.108 31.8358 29.8736 30.4939 26.5 30.4902ZM26.0561 32.9683C27.6706 32.8997 29.2785 33.2136 30.7486 33.8844C32.2188 34.5553 33.5096 35.564 34.5159 36.8284C33.1649 37.2675 31.9871 38.1223 31.1508 39.2707C30.3144 40.419 29.8623 41.8022 29.8589 43.2228C29.8555 44.6435 30.301 46.0288 31.1318 47.1812C31.9626 48.3335 33.1362 49.1939 34.4852 49.6396C33.5258 50.8352 32.3103 51.8001 30.9282 52.4632C29.5462 53.1263 28.0329 53.4706 26.5 53.4708C23.8164 53.4739 21.2385 52.425 19.3193 50.5491C17.4002 48.6733 16.2928 46.12 16.2347 43.437C16.1766 40.754 17.1725 38.1551 19.0086 36.198C20.8448 34.2408 23.3749 33.0813 26.0561 32.9683ZM35.8603 39.0313C36.454 40.3547 36.7593 41.7892 36.7558 43.2397C36.7523 44.6901 36.44 46.1231 35.8398 47.4435C34.8529 47.2648 33.9604 46.7447 33.3184 45.9741C32.6764 45.2036 32.326 44.2318 32.3284 43.2289C32.3309 42.2259 32.6861 41.2559 33.3318 40.4884C33.9775 39.721 34.8725 39.2052 35.8603 39.0313Z" fill="#272929"/>
</svg>
